%TF.GenerationSoftware,KiCad,Pcbnew,(6.0.4)*%
%TF.CreationDate,2022-08-14T09:33:53+08:00*%
%TF.ProjectId,led_clock_board,6c65645f-636c-46f6-936b-5f626f617264,rev?*%
%TF.SameCoordinates,Original*%
%TF.FileFunction,Copper,L2,Bot*%
%TF.FilePolarity,Positive*%
%FSLAX46Y46*%
G04 Gerber Fmt 4.6, Leading zero omitted, Abs format (unit mm)*
G04 Created by KiCad (PCBNEW (6.0.4)) date 2022-08-14 09:33:53*
%MOMM*%
%LPD*%
G01*
G04 APERTURE LIST*
%TA.AperFunction,ComponentPad*%
%ADD10R,1.700000X1.700000*%
%TD*%
%TA.AperFunction,ComponentPad*%
%ADD11O,1.700000X1.700000*%
%TD*%
%TA.AperFunction,ComponentPad*%
%ADD12C,1.600000*%
%TD*%
%TA.AperFunction,ComponentPad*%
%ADD13O,1.600000X1.600000*%
%TD*%
%TA.AperFunction,ViaPad*%
%ADD14C,0.800000*%
%TD*%
%TA.AperFunction,Conductor*%
%ADD15C,0.500000*%
%TD*%
G04 APERTURE END LIST*
D10*
%TO.P,LED_SEG2,1,E*%
%TO.N,/SEG_E*%
X158225000Y-91440000D03*
D11*
%TO.P,LED_SEG2,2,D*%
%TO.N,/SEG_D*%
X160765000Y-91440000D03*
%TO.P,LED_SEG2,3,DP*%
%TO.N,/SEG_DP*%
X163305000Y-91440000D03*
%TO.P,LED_SEG2,4,C*%
%TO.N,/SEG_C*%
X165845000Y-91440000D03*
%TO.P,LED_SEG2,5,G*%
%TO.N,/SEG_G*%
X168385000Y-91440000D03*
%TO.P,LED_SEG2,6,4*%
%TO.N,/DIG_8*%
X170925000Y-91440000D03*
%TO.P,LED_SEG2,7,B*%
%TO.N,/SEG_B*%
X170925000Y-81280000D03*
%TO.P,LED_SEG2,8,3*%
%TO.N,/DIG_7*%
X168385000Y-81280000D03*
%TO.P,LED_SEG2,9,2*%
%TO.N,/DIG_6*%
X165845000Y-81280000D03*
%TO.P,LED_SEG2,10,F*%
%TO.N,/SEG_F*%
X163305000Y-81280000D03*
%TO.P,LED_SEG2,11,A*%
%TO.N,/SEG_A*%
X160765000Y-81280000D03*
%TO.P,LED_SEG2,12,1*%
%TO.N,/DIG_5*%
X158225000Y-81280000D03*
%TD*%
D12*
%TO.P,R4,1*%
%TO.N,/SEG_D*%
X155575000Y-99695000D03*
D13*
%TO.P,R4,2*%
%TO.N,Net-(R4-Pad2)*%
X155575000Y-107315000D03*
%TD*%
D12*
%TO.P,R3,1*%
%TO.N,/SEG_C*%
X162560000Y-99695000D03*
D13*
%TO.P,R3,2*%
%TO.N,Net-(R3-Pad2)*%
X162560000Y-107315000D03*
%TD*%
D11*
%TO.P,J1,16,Pin_16*%
%TO.N,GND*%
X119888000Y-136398000D03*
%TO.P,J1,15,Pin_15*%
X119888000Y-133858000D03*
%TO.P,J1,14,Pin_14*%
%TO.N,+3V3*%
X119888000Y-131318000D03*
%TO.P,J1,13,Pin_13*%
%TO.N,/SWDIO*%
X119888000Y-128778000D03*
%TO.P,J1,12,Pin_12*%
%TO.N,/SWCLK*%
X119888000Y-126238000D03*
%TO.P,J1,11,Pin_11*%
%TO.N,Net-(J1-Pad11)*%
X119888000Y-123698000D03*
%TO.P,J1,10,Pin_10*%
%TO.N,Net-(J1-Pad10)*%
X119888000Y-121158000D03*
%TO.P,J1,9,Pin_9*%
%TO.N,Net-(J1-Pad9)*%
X119888000Y-118618000D03*
%TO.P,J1,8,Pin_8*%
%TO.N,Net-(J1-Pad8)*%
X119888000Y-116078000D03*
%TO.P,J1,7,Pin_7*%
%TO.N,Net-(J1-Pad7)*%
X119888000Y-113538000D03*
%TO.P,J1,6,Pin_6*%
%TO.N,Net-(J1-Pad6)*%
X119888000Y-110998000D03*
%TO.P,J1,5,Pin_5*%
%TO.N,Net-(J1-Pad5)*%
X119888000Y-108458000D03*
%TO.P,J1,4,Pin_4*%
%TO.N,Net-(J1-Pad4)*%
X119888000Y-105918000D03*
%TO.P,J1,3,Pin_3*%
%TO.N,Net-(J1-Pad3)*%
X119888000Y-103378000D03*
%TO.P,J1,2,Pin_2*%
%TO.N,/GPIO0*%
X119888000Y-100838000D03*
D10*
%TO.P,J1,1,Pin_1*%
%TO.N,/GPIO1*%
X119888000Y-98298000D03*
%TD*%
D12*
%TO.P,R1,1*%
%TO.N,/SEG_A*%
X176530000Y-99695000D03*
D13*
%TO.P,R1,2*%
%TO.N,Net-(R1-Pad2)*%
X176530000Y-107315000D03*
%TD*%
D12*
%TO.P,R6,1*%
%TO.N,/SEG_F*%
X141605000Y-99695000D03*
D13*
%TO.P,R6,2*%
%TO.N,Net-(R6-Pad2)*%
X141605000Y-107315000D03*
%TD*%
D11*
%TO.P,U1,1,GPIO0*%
%TO.N,/GPIO0*%
X177800000Y-115570000D03*
%TO.P,U1,2,GPIO1*%
%TO.N,/GPIO1*%
X175260000Y-115570000D03*
D10*
%TO.P,U1,3,GND*%
%TO.N,GND*%
X172720000Y-115570000D03*
D11*
%TO.P,U1,4,GPIO2*%
%TO.N,Net-(R1-Pad2)*%
X170180000Y-115570000D03*
%TO.P,U1,5,GPIO3*%
%TO.N,Net-(R2-Pad2)*%
X167640000Y-115570000D03*
%TO.P,U1,6,GPIO4*%
%TO.N,Net-(R3-Pad2)*%
X165100000Y-115570000D03*
%TO.P,U1,7,GPIO5*%
%TO.N,Net-(R4-Pad2)*%
X162560000Y-115570000D03*
D10*
%TO.P,U1,8,GND*%
%TO.N,GND*%
X160020000Y-115570000D03*
D11*
%TO.P,U1,9,GPIO6*%
%TO.N,Net-(R5-Pad2)*%
X157480000Y-115570000D03*
%TO.P,U1,10,GPIO7*%
%TO.N,Net-(R6-Pad2)*%
X154940000Y-115570000D03*
%TO.P,U1,11,GPIO8*%
%TO.N,Net-(R7-Pad2)*%
X152400000Y-115570000D03*
%TO.P,U1,12,GPIO9*%
%TO.N,Net-(R8-Pad2)*%
X149860000Y-115570000D03*
D10*
%TO.P,U1,13,GND*%
%TO.N,GND*%
X147320000Y-115570000D03*
D11*
%TO.P,U1,14,GPIO10*%
%TO.N,/DIG_8*%
X144780000Y-115570000D03*
%TO.P,U1,15,GPIO11*%
%TO.N,/DIG_7*%
X142240000Y-115570000D03*
%TO.P,U1,16,GPIO12*%
%TO.N,/DIG_6*%
X139700000Y-115570000D03*
%TO.P,U1,17,GPIO13*%
%TO.N,/DIG_5*%
X137160000Y-115570000D03*
D10*
%TO.P,U1,18,GND*%
%TO.N,GND*%
X134620000Y-115570000D03*
D11*
%TO.P,U1,19,GPIO14*%
%TO.N,/DIG_4*%
X132080000Y-115570000D03*
%TO.P,U1,20,GPIO15*%
%TO.N,/DIG_3*%
X129540000Y-115570000D03*
%TO.P,U1,21,GPIO16*%
%TO.N,/DIG_2*%
X129540000Y-133350000D03*
%TO.P,U1,22,GPIO17*%
%TO.N,/DIG_1*%
X132080000Y-133350000D03*
D10*
%TO.P,U1,23,GND*%
%TO.N,GND*%
X134620000Y-133350000D03*
D11*
%TO.P,U1,24,GPIO18*%
%TO.N,Net-(J1-Pad11)*%
X137160000Y-133350000D03*
%TO.P,U1,25,GPIO19*%
%TO.N,Net-(J1-Pad10)*%
X139700000Y-133350000D03*
%TO.P,U1,26,GPIO20*%
%TO.N,Net-(J1-Pad9)*%
X142240000Y-133350000D03*
%TO.P,U1,27,GPIO21*%
%TO.N,Net-(J1-Pad8)*%
X144780000Y-133350000D03*
D10*
%TO.P,U1,28,GND*%
%TO.N,GND*%
X147320000Y-133350000D03*
D11*
%TO.P,U1,29,GPIO22*%
%TO.N,unconnected-(U1-Pad29)*%
X149860000Y-133350000D03*
%TO.P,U1,30,RUN*%
%TO.N,unconnected-(U1-Pad30)*%
X152400000Y-133350000D03*
%TO.P,U1,31,GPIO26_ADC0*%
%TO.N,Net-(J1-Pad7)*%
X154940000Y-133350000D03*
%TO.P,U1,32,GPIO27_ADC1*%
%TO.N,Net-(J1-Pad6)*%
X157480000Y-133350000D03*
D10*
%TO.P,U1,33,AGND*%
%TO.N,Net-(J1-Pad5)*%
X160020000Y-133350000D03*
D11*
%TO.P,U1,34,GPIO28_ADC2*%
%TO.N,Net-(J1-Pad4)*%
X162560000Y-133350000D03*
%TO.P,U1,35,ADC_VREF*%
%TO.N,Net-(J1-Pad3)*%
X165100000Y-133350000D03*
%TO.P,U1,36,3V3*%
%TO.N,+3V3*%
X167640000Y-133350000D03*
%TO.P,U1,37,3V3_EN*%
%TO.N,unconnected-(U1-Pad37)*%
X170180000Y-133350000D03*
D10*
%TO.P,U1,38,GND*%
%TO.N,GND*%
X172720000Y-133350000D03*
D11*
%TO.P,U1,39,VSYS*%
%TO.N,unconnected-(U1-Pad39)*%
X175260000Y-133350000D03*
%TO.P,U1,40,VBUS*%
%TO.N,unconnected-(U1-Pad40)*%
X177800000Y-133350000D03*
%TO.P,U1,41,SWCLK*%
%TO.N,/SWCLK*%
X129770000Y-121920000D03*
D10*
%TO.P,U1,42,GND*%
%TO.N,GND*%
X129770000Y-124460000D03*
D11*
%TO.P,U1,43,SWDIO*%
%TO.N,/SWDIO*%
X129770000Y-127000000D03*
%TD*%
D12*
%TO.P,R8,1*%
%TO.N,/SEG_DP*%
X127635000Y-99695000D03*
D13*
%TO.P,R8,2*%
%TO.N,Net-(R8-Pad2)*%
X127635000Y-107315000D03*
%TD*%
D12*
%TO.P,R7,1*%
%TO.N,/SEG_G*%
X134620000Y-99695000D03*
D13*
%TO.P,R7,2*%
%TO.N,Net-(R7-Pad2)*%
X134620000Y-107315000D03*
%TD*%
D10*
%TO.P,LED_SEG1,1,E*%
%TO.N,/SEG_E*%
X127000000Y-91440000D03*
D11*
%TO.P,LED_SEG1,2,D*%
%TO.N,/SEG_D*%
X129540000Y-91440000D03*
%TO.P,LED_SEG1,3,DP*%
%TO.N,/SEG_DP*%
X132080000Y-91440000D03*
%TO.P,LED_SEG1,4,C*%
%TO.N,/SEG_C*%
X134620000Y-91440000D03*
%TO.P,LED_SEG1,5,G*%
%TO.N,/SEG_G*%
X137160000Y-91440000D03*
%TO.P,LED_SEG1,6,4*%
%TO.N,/DIG_4*%
X139700000Y-91440000D03*
%TO.P,LED_SEG1,7,B*%
%TO.N,/SEG_B*%
X139700000Y-81280000D03*
%TO.P,LED_SEG1,8,3*%
%TO.N,/DIG_3*%
X137160000Y-81280000D03*
%TO.P,LED_SEG1,9,2*%
%TO.N,/DIG_2*%
X134620000Y-81280000D03*
%TO.P,LED_SEG1,10,F*%
%TO.N,/SEG_F*%
X132080000Y-81280000D03*
%TO.P,LED_SEG1,11,A*%
%TO.N,/SEG_A*%
X129540000Y-81280000D03*
%TO.P,LED_SEG1,12,1*%
%TO.N,/DIG_1*%
X127000000Y-81280000D03*
%TD*%
D12*
%TO.P,R5,1*%
%TO.N,/SEG_E*%
X148590000Y-99695000D03*
D13*
%TO.P,R5,2*%
%TO.N,Net-(R5-Pad2)*%
X148590000Y-107315000D03*
%TD*%
D12*
%TO.P,R2,1*%
%TO.N,/SEG_B*%
X169545000Y-99695000D03*
D13*
%TO.P,R2,2*%
%TO.N,Net-(R2-Pad2)*%
X169545000Y-107315000D03*
%TD*%
D14*
%TO.N,GND*%
X170180000Y-127000000D03*
%TO.N,/SEG_D*%
X154686000Y-87884000D03*
%TO.N,/SEG_C*%
X154940000Y-94234000D03*
%TO.N,/SEG_G*%
X151892000Y-94234000D03*
%TO.N,/SEG_F*%
X140716000Y-85852000D03*
%TO.N,/SWCLK*%
X125730000Y-122936000D03*
%TO.N,/SWDIO*%
X125730000Y-127000000D03*
%TD*%
D15*
%TO.N,/SEG_D*%
X155575000Y-99695000D02*
X158496000Y-96774000D01*
X158496000Y-96774000D02*
X168148000Y-96774000D01*
X168148000Y-96774000D02*
X172274489Y-92647511D01*
X172274489Y-89978489D02*
X170942000Y-88646000D01*
X172274489Y-92647511D02*
X172274489Y-89978489D01*
X170942000Y-88646000D02*
X163559000Y-88646000D01*
X163559000Y-88646000D02*
X160765000Y-91440000D01*
%TO.N,/DIG_8*%
X144780000Y-115570000D02*
X144780000Y-107669258D01*
X144780000Y-107669258D02*
X156437258Y-96012000D01*
X156437258Y-96012000D02*
X166353000Y-96012000D01*
X166353000Y-96012000D02*
X170925000Y-91440000D01*
%TO.N,/SEG_C*%
X165845000Y-91440000D02*
X163051000Y-94234000D01*
X163051000Y-94234000D02*
X154940000Y-94234000D01*
%TO.N,/SEG_G*%
X164575000Y-95250000D02*
X152908000Y-95250000D01*
X152908000Y-95250000D02*
X151892000Y-94234000D01*
X168385000Y-91440000D02*
X164575000Y-95250000D01*
%TO.N,/SEG_E*%
X148590000Y-99695000D02*
X148590000Y-93726000D01*
X148590000Y-93726000D02*
X150876000Y-91440000D01*
X150876000Y-91440000D02*
X158225000Y-91440000D01*
%TO.N,/SEG_B*%
X170925000Y-81280000D02*
X174498000Y-84853000D01*
X174498000Y-84853000D02*
X174498000Y-94742000D01*
X174498000Y-94742000D02*
X169545000Y-99695000D01*
%TO.N,/SEG_D*%
X154686000Y-87884000D02*
X157226000Y-87884000D01*
X157226000Y-87884000D02*
X160765000Y-91423000D01*
X160765000Y-91423000D02*
X160765000Y-91440000D01*
%TO.N,/SEG_A*%
X172004054Y-79248000D02*
X176530000Y-83773946D01*
X129540000Y-81280000D02*
X131572000Y-79248000D01*
X131572000Y-79248000D02*
X172004054Y-79248000D01*
X176530000Y-83773946D02*
X176530000Y-99695000D01*
%TO.N,/SEG_B*%
X169592511Y-79947511D02*
X170925000Y-81280000D01*
X141032489Y-79947511D02*
X169592511Y-79947511D01*
X139700000Y-81280000D02*
X141032489Y-79947511D01*
%TO.N,/DIG_2*%
X125502732Y-83820010D02*
X124522489Y-84800254D01*
X124522489Y-84800254D02*
X124522489Y-111541758D01*
X132079990Y-83820010D02*
X125502732Y-83820010D01*
X124522489Y-111541758D02*
X127699511Y-114718782D01*
X134620000Y-81280000D02*
X132079990Y-83820010D01*
%TO.N,/DIG_3*%
X125222000Y-111252000D02*
X129540000Y-115570000D01*
%TO.N,/DIG_2*%
X127699511Y-114718782D02*
X127699511Y-131509511D01*
X127699511Y-131509511D02*
X129540000Y-133350000D01*
%TO.N,/DIG_3*%
X137160000Y-81280000D02*
X133920480Y-84519520D01*
X133920480Y-84519520D02*
X125792480Y-84519520D01*
X125792480Y-84519520D02*
X125222000Y-85090000D01*
X125222000Y-85090000D02*
X125222000Y-111252000D01*
%TO.N,/DIG_1*%
X126679501Y-114688028D02*
X123822970Y-111831497D01*
X128778000Y-134874000D02*
X126679501Y-132775501D01*
X132080000Y-133350000D02*
X130556000Y-134874000D01*
X130556000Y-134874000D02*
X128778000Y-134874000D01*
X123822970Y-111831497D02*
X123822970Y-84457030D01*
X126679501Y-132775501D02*
X126679501Y-114688028D01*
X123822970Y-84457030D02*
X127000000Y-81280000D01*
%TO.N,/SWDIO*%
X119888000Y-128778000D02*
X121158000Y-128778000D01*
X121158000Y-128778000D02*
X122936000Y-127000000D01*
X122936000Y-127000000D02*
X125730000Y-127000000D01*
%TO.N,/SWCLK*%
X119888000Y-126238000D02*
X122428000Y-126238000D01*
X122428000Y-126238000D02*
X125730000Y-122936000D01*
%TO.N,/SEG_F*%
X141605000Y-99695000D02*
X142240000Y-99060000D01*
X142240000Y-99060000D02*
X142240000Y-87376000D01*
X142240000Y-87376000D02*
X140716000Y-85852000D01*
%TO.N,/DIG_6*%
X154204743Y-83566000D02*
X163559000Y-83566000D01*
%TO.N,/DIG_5*%
X155501485Y-81280000D02*
X158225000Y-81280000D01*
%TO.N,/DIG_6*%
X144842490Y-101002767D02*
X144842489Y-92928254D01*
X139700000Y-115570000D02*
X139700000Y-106145258D01*
X144842489Y-92928254D02*
X154204743Y-83566000D01*
X139700000Y-106145258D02*
X144842490Y-101002767D01*
%TO.N,/DIG_5*%
X144142979Y-100713021D02*
X144142979Y-92638506D01*
%TO.N,/DIG_6*%
X163559000Y-83566000D02*
X165845000Y-81280000D01*
%TO.N,/DIG_5*%
X137160000Y-115570000D02*
X137160000Y-107696000D01*
X137160000Y-107696000D02*
X144142979Y-100713021D01*
X144142979Y-92638506D02*
X155501485Y-81280000D01*
%TO.N,/DIG_7*%
X142240000Y-115570000D02*
X142240000Y-109220000D01*
X142240000Y-109220000D02*
X145542000Y-105918000D01*
X154494489Y-84265511D02*
X165399489Y-84265511D01*
X165399489Y-84265511D02*
X168385000Y-81280000D01*
X145542000Y-105918000D02*
X145542000Y-93218000D01*
X145542000Y-93218000D02*
X154494489Y-84265511D01*
%TO.N,/SEG_DP*%
X127635000Y-95885000D02*
X132080000Y-91440000D01*
X127635000Y-99695000D02*
X127635000Y-95885000D01*
%TO.N,/SEG_G*%
X134620000Y-99695000D02*
X134620000Y-93980000D01*
X134620000Y-93980000D02*
X137160000Y-91440000D01*
%TO.N,/DIG_4*%
X132080000Y-115570000D02*
X132080000Y-105664000D01*
X139700000Y-98044000D02*
X139700000Y-91440000D01*
X132080000Y-105664000D02*
X139700000Y-98044000D01*
%TD*%
%TA.AperFunction,Conductor*%
%TO.N,GND*%
G36*
X177770018Y-77980000D02*
G01*
X177784851Y-77982310D01*
X177784855Y-77982310D01*
X177793724Y-77983691D01*
X177802626Y-77982527D01*
X177802629Y-77982527D01*
X177810012Y-77981561D01*
X177834591Y-77980767D01*
X177861442Y-77982527D01*
X178056922Y-77995340D01*
X178073262Y-77997491D01*
X178195478Y-78021801D01*
X178317696Y-78046112D01*
X178333606Y-78050375D01*
X178569600Y-78130484D01*
X178584826Y-78136791D01*
X178808342Y-78247016D01*
X178822616Y-78255257D01*
X179029829Y-78393713D01*
X179042905Y-78403746D01*
X179230278Y-78568068D01*
X179241932Y-78579722D01*
X179406254Y-78767095D01*
X179416287Y-78780171D01*
X179554743Y-78987384D01*
X179562984Y-79001658D01*
X179673209Y-79225174D01*
X179679515Y-79240398D01*
X179759625Y-79476394D01*
X179763889Y-79492307D01*
X179812509Y-79736738D01*
X179814660Y-79753078D01*
X179828763Y-79968236D01*
X179827733Y-79991350D01*
X179827690Y-79994854D01*
X179826309Y-80003724D01*
X179827473Y-80012626D01*
X179827473Y-80012628D01*
X179830436Y-80035283D01*
X179831500Y-80051621D01*
X179831500Y-138380633D01*
X179830000Y-138400018D01*
X179827690Y-138414851D01*
X179827690Y-138414855D01*
X179826309Y-138423724D01*
X179827473Y-138432626D01*
X179827473Y-138432629D01*
X179828439Y-138440012D01*
X179829233Y-138464591D01*
X179814660Y-138686922D01*
X179812509Y-138703262D01*
X179763889Y-138947693D01*
X179759625Y-138963606D01*
X179725312Y-139064689D01*
X179679516Y-139199600D01*
X179673209Y-139214826D01*
X179562984Y-139438342D01*
X179554743Y-139452616D01*
X179416287Y-139659829D01*
X179406254Y-139672905D01*
X179241932Y-139860278D01*
X179230278Y-139871932D01*
X179042905Y-140036254D01*
X179029829Y-140046287D01*
X178822616Y-140184743D01*
X178808342Y-140192984D01*
X178584826Y-140303209D01*
X178569602Y-140309515D01*
X178333606Y-140389625D01*
X178317696Y-140393888D01*
X178195478Y-140418199D01*
X178073262Y-140442509D01*
X178056922Y-140444660D01*
X177908134Y-140454413D01*
X177841763Y-140458763D01*
X177818650Y-140457733D01*
X177815146Y-140457690D01*
X177806276Y-140456309D01*
X177797374Y-140457473D01*
X177797372Y-140457473D01*
X177783915Y-140459233D01*
X177774714Y-140460436D01*
X177758379Y-140461500D01*
X119429367Y-140461500D01*
X119409982Y-140460000D01*
X119395149Y-140457690D01*
X119395145Y-140457690D01*
X119386276Y-140456309D01*
X119377374Y-140457473D01*
X119377371Y-140457473D01*
X119369988Y-140458439D01*
X119345409Y-140459233D01*
X119300799Y-140456309D01*
X119123078Y-140444660D01*
X119106738Y-140442509D01*
X118984522Y-140418199D01*
X118862304Y-140393888D01*
X118846394Y-140389625D01*
X118610398Y-140309515D01*
X118595174Y-140303209D01*
X118371658Y-140192984D01*
X118357384Y-140184743D01*
X118150171Y-140046287D01*
X118137095Y-140036254D01*
X117949722Y-139871932D01*
X117938068Y-139860278D01*
X117773746Y-139672905D01*
X117763713Y-139659829D01*
X117625257Y-139452616D01*
X117617016Y-139438342D01*
X117506791Y-139214826D01*
X117500484Y-139199600D01*
X117454688Y-139064689D01*
X117420375Y-138963606D01*
X117416111Y-138947693D01*
X117367491Y-138703262D01*
X117365340Y-138686922D01*
X117351476Y-138475407D01*
X117352650Y-138452232D01*
X117352334Y-138452204D01*
X117352770Y-138447344D01*
X117353576Y-138442552D01*
X117353729Y-138430000D01*
X117349773Y-138402376D01*
X117348500Y-138384514D01*
X117348500Y-136665966D01*
X118556257Y-136665966D01*
X118586565Y-136800446D01*
X118589645Y-136810275D01*
X118669770Y-137007603D01*
X118674413Y-137016794D01*
X118785694Y-137198388D01*
X118791777Y-137206699D01*
X118931213Y-137367667D01*
X118938580Y-137374883D01*
X119102434Y-137510916D01*
X119110881Y-137516831D01*
X119294756Y-137624279D01*
X119304042Y-137628729D01*
X119503001Y-137704703D01*
X119512899Y-137707579D01*
X119616250Y-137728606D01*
X119630299Y-137727410D01*
X119634000Y-137717065D01*
X119634000Y-137716517D01*
X120142000Y-137716517D01*
X120146064Y-137730359D01*
X120159478Y-137732393D01*
X120166184Y-137731534D01*
X120176262Y-137729392D01*
X120380255Y-137668191D01*
X120389842Y-137664433D01*
X120581095Y-137570739D01*
X120589945Y-137565464D01*
X120763328Y-137441792D01*
X120771200Y-137435139D01*
X120922052Y-137284812D01*
X120928730Y-137276965D01*
X121053003Y-137104020D01*
X121058313Y-137095183D01*
X121152670Y-136904267D01*
X121156469Y-136894672D01*
X121218377Y-136690910D01*
X121220555Y-136680837D01*
X121221986Y-136669962D01*
X121219775Y-136655778D01*
X121206617Y-136652000D01*
X120160115Y-136652000D01*
X120144876Y-136656475D01*
X120143671Y-136657865D01*
X120142000Y-136665548D01*
X120142000Y-137716517D01*
X119634000Y-137716517D01*
X119634000Y-136670115D01*
X119629525Y-136654876D01*
X119628135Y-136653671D01*
X119620452Y-136652000D01*
X118571225Y-136652000D01*
X118557694Y-136655973D01*
X118556257Y-136665966D01*
X117348500Y-136665966D01*
X117348500Y-136132183D01*
X118552389Y-136132183D01*
X118553912Y-136140607D01*
X118566292Y-136144000D01*
X119615885Y-136144000D01*
X119631124Y-136139525D01*
X119632329Y-136138135D01*
X119634000Y-136130452D01*
X119634000Y-136125885D01*
X120142000Y-136125885D01*
X120146475Y-136141124D01*
X120147865Y-136142329D01*
X120155548Y-136144000D01*
X121206344Y-136144000D01*
X121219875Y-136140027D01*
X121221180Y-136130947D01*
X121179214Y-135963875D01*
X121175894Y-135954124D01*
X121090972Y-135758814D01*
X121086105Y-135749739D01*
X120970426Y-135570926D01*
X120964136Y-135562757D01*
X120820806Y-135405240D01*
X120813273Y-135398215D01*
X120646139Y-135266222D01*
X120637552Y-135260517D01*
X120600116Y-135239851D01*
X120550146Y-135189419D01*
X120535374Y-135119976D01*
X120560490Y-135053571D01*
X120587842Y-135026964D01*
X120763327Y-134901792D01*
X120771200Y-134895139D01*
X120922052Y-134744812D01*
X120928730Y-134736965D01*
X121053003Y-134564020D01*
X121058313Y-134555183D01*
X121152670Y-134364267D01*
X121156469Y-134354672D01*
X121218377Y-134150910D01*
X121220555Y-134140837D01*
X121221986Y-134129962D01*
X121219775Y-134115778D01*
X121206617Y-134112000D01*
X120160115Y-134112000D01*
X120144876Y-134116475D01*
X120143671Y-134117865D01*
X120142000Y-134125548D01*
X120142000Y-136125885D01*
X119634000Y-136125885D01*
X119634000Y-134130115D01*
X119629525Y-134114876D01*
X119628135Y-134113671D01*
X119620452Y-134112000D01*
X118571225Y-134112000D01*
X118557694Y-134115973D01*
X118556257Y-134125966D01*
X118586565Y-134260446D01*
X118589645Y-134270275D01*
X118669770Y-134467603D01*
X118674413Y-134476794D01*
X118785694Y-134658388D01*
X118791777Y-134666699D01*
X118931213Y-134827667D01*
X118938580Y-134834883D01*
X119102434Y-134970916D01*
X119110881Y-134976831D01*
X119180479Y-135017501D01*
X119229203Y-135069140D01*
X119242274Y-135138923D01*
X119215543Y-135204694D01*
X119175087Y-135238053D01*
X119166462Y-135242542D01*
X119157738Y-135248036D01*
X118987433Y-135375905D01*
X118979726Y-135382748D01*
X118832590Y-135536717D01*
X118826104Y-135544727D01*
X118706098Y-135720649D01*
X118701000Y-135729623D01*
X118611338Y-135922783D01*
X118607775Y-135932470D01*
X118552389Y-136132183D01*
X117348500Y-136132183D01*
X117348500Y-131284695D01*
X118525251Y-131284695D01*
X118525548Y-131289848D01*
X118525548Y-131289851D01*
X118531011Y-131384590D01*
X118538110Y-131507715D01*
X118539247Y-131512761D01*
X118539248Y-131512767D01*
X118559119Y-131600939D01*
X118587222Y-131725639D01*
X118671266Y-131932616D01*
X118787987Y-132123088D01*
X118934250Y-132291938D01*
X119106126Y-132434632D01*
X119151797Y-132461320D01*
X119179955Y-132477774D01*
X119228679Y-132529412D01*
X119241750Y-132599195D01*
X119215019Y-132664967D01*
X119174562Y-132698327D01*
X119166457Y-132702546D01*
X119157738Y-132708036D01*
X118987433Y-132835905D01*
X118979726Y-132842748D01*
X118832590Y-132996717D01*
X118826104Y-133004727D01*
X118706098Y-133180649D01*
X118701000Y-133189623D01*
X118611338Y-133382783D01*
X118607775Y-133392470D01*
X118552389Y-133592183D01*
X118553912Y-133600607D01*
X118566292Y-133604000D01*
X121206344Y-133604000D01*
X121219875Y-133600027D01*
X121221180Y-133590947D01*
X121179214Y-133423875D01*
X121175894Y-133414124D01*
X121090972Y-133218814D01*
X121086105Y-133209739D01*
X120970426Y-133030926D01*
X120964136Y-133022757D01*
X120820806Y-132865240D01*
X120813273Y-132858215D01*
X120646139Y-132726222D01*
X120637556Y-132720520D01*
X120600602Y-132700120D01*
X120550631Y-132649687D01*
X120535859Y-132580245D01*
X120560975Y-132513839D01*
X120588327Y-132487232D01*
X120635217Y-132453786D01*
X120767860Y-132359173D01*
X120774004Y-132353051D01*
X120922435Y-132205137D01*
X120926096Y-132201489D01*
X120967208Y-132144276D01*
X121053435Y-132024277D01*
X121056453Y-132020077D01*
X121063408Y-132006006D01*
X121153136Y-131824453D01*
X121153137Y-131824451D01*
X121155430Y-131819811D01*
X121220370Y-131606069D01*
X121249529Y-131384590D01*
X121251156Y-131318000D01*
X121232852Y-131095361D01*
X121178431Y-130878702D01*
X121089354Y-130673840D01*
X120968014Y-130486277D01*
X120817670Y-130321051D01*
X120813619Y-130317852D01*
X120813615Y-130317848D01*
X120646414Y-130185800D01*
X120646410Y-130185798D01*
X120642359Y-130182598D01*
X120601053Y-130159796D01*
X120551084Y-130109364D01*
X120536312Y-130039921D01*
X120561428Y-129973516D01*
X120588780Y-129946909D01*
X120632603Y-129915650D01*
X120767860Y-129819173D01*
X120926096Y-129661489D01*
X120978203Y-129588974D01*
X121034198Y-129545326D01*
X121080526Y-129536500D01*
X121090930Y-129536500D01*
X121109880Y-129537933D01*
X121124115Y-129540099D01*
X121124119Y-129540099D01*
X121131349Y-129541199D01*
X121138641Y-129540606D01*
X121138644Y-129540606D01*
X121184018Y-129536915D01*
X121194233Y-129536500D01*
X121202293Y-129536500D01*
X121215583Y-129534951D01*
X121230507Y-129533211D01*
X121234882Y-129532778D01*
X121300339Y-129527454D01*
X121300342Y-129527453D01*
X121307637Y-129526860D01*
X121314601Y-129524604D01*
X121320560Y-129523413D01*
X121326415Y-129522029D01*
X121333681Y-129521182D01*
X121402327Y-129496265D01*
X121406455Y-129494848D01*
X121468936Y-129474607D01*
X121468938Y-129474606D01*
X121475899Y-129472351D01*
X121482154Y-129468555D01*
X121487628Y-129466049D01*
X121493058Y-129463330D01*
X121499937Y-129460833D01*
X121560976Y-129420814D01*
X121564680Y-129418477D01*
X121627107Y-129380595D01*
X121635484Y-129373197D01*
X121635508Y-129373224D01*
X121638500Y-129370571D01*
X121641733Y-129367868D01*
X121647852Y-129363856D01*
X121701128Y-129307617D01*
X121703506Y-129305175D01*
X123213276Y-127795405D01*
X123275588Y-127761379D01*
X123302371Y-127758500D01*
X125187413Y-127758500D01*
X125261472Y-127782563D01*
X125267902Y-127787235D01*
X125267909Y-127787239D01*
X125273248Y-127791118D01*
X125279276Y-127793802D01*
X125279278Y-127793803D01*
X125352028Y-127826193D01*
X125447712Y-127868794D01*
X125534009Y-127887137D01*
X125628056Y-127907128D01*
X125628061Y-127907128D01*
X125634513Y-127908500D01*
X125795001Y-127908500D01*
X125863122Y-127928502D01*
X125909615Y-127982158D01*
X125921001Y-128034500D01*
X125921001Y-132708431D01*
X125919568Y-132727381D01*
X125916302Y-132748850D01*
X125916895Y-132756142D01*
X125916895Y-132756145D01*
X125920586Y-132801519D01*
X125921001Y-132811734D01*
X125921001Y-132819794D01*
X125921426Y-132823438D01*
X125924290Y-132848008D01*
X125924723Y-132852383D01*
X125929467Y-132910702D01*
X125930641Y-132925138D01*
X125932897Y-132932102D01*
X125934088Y-132938061D01*
X125935472Y-132943916D01*
X125936319Y-132951182D01*
X125961236Y-133019828D01*
X125962653Y-133023956D01*
X125982765Y-133086037D01*
X125985150Y-133093400D01*
X125988946Y-133099655D01*
X125991452Y-133105129D01*
X125994171Y-133110559D01*
X125996668Y-133117438D01*
X126000681Y-133123558D01*
X126000681Y-133123559D01*
X126036687Y-133178477D01*
X126039024Y-133182181D01*
X126076906Y-133244608D01*
X126080622Y-133248816D01*
X126080623Y-133248817D01*
X126084304Y-133252985D01*
X126084277Y-133253009D01*
X126086930Y-133256001D01*
X126089633Y-133259234D01*
X126093645Y-133265353D01*
X126098957Y-133270385D01*
X126149884Y-133318629D01*
X126152326Y-133321007D01*
X128194230Y-135362911D01*
X128206616Y-135377323D01*
X128215149Y-135388918D01*
X128215154Y-135388923D01*
X128219492Y-135394818D01*
X128225070Y-135399557D01*
X128225073Y-135399560D01*
X128259768Y-135429035D01*
X128267284Y-135435965D01*
X128272980Y-135441661D01*
X128275841Y-135443924D01*
X128275846Y-135443929D01*
X128295266Y-135459293D01*
X128298667Y-135462082D01*
X128354285Y-135509333D01*
X128360798Y-135512659D01*
X128365837Y-135516020D01*
X128370979Y-135519196D01*
X128376716Y-135523734D01*
X128442875Y-135554655D01*
X128446769Y-135556558D01*
X128511808Y-135589769D01*
X128518917Y-135591508D01*
X128524551Y-135593604D01*
X128530321Y-135595523D01*
X128536950Y-135598622D01*
X128544113Y-135600112D01*
X128544116Y-135600113D01*
X128594830Y-135610661D01*
X128608435Y-135613491D01*
X128612701Y-135614457D01*
X128683610Y-135631808D01*
X128689212Y-135632156D01*
X128689215Y-135632156D01*
X128694764Y-135632500D01*
X128694762Y-135632535D01*
X128698734Y-135632775D01*
X128702955Y-135633152D01*
X128710115Y-135634641D01*
X128787542Y-135632546D01*
X128790950Y-135632500D01*
X130488930Y-135632500D01*
X130507880Y-135633933D01*
X130522115Y-135636099D01*
X130522119Y-135636099D01*
X130529349Y-135637199D01*
X130536641Y-135636606D01*
X130536644Y-135636606D01*
X130582018Y-135632915D01*
X130592233Y-135632500D01*
X130600293Y-135632500D01*
X130617680Y-135630473D01*
X130628507Y-135629211D01*
X130632882Y-135628778D01*
X130698339Y-135623454D01*
X130698342Y-135623453D01*
X130705637Y-135622860D01*
X130712601Y-135620604D01*
X130718560Y-135619413D01*
X130724415Y-135618029D01*
X130731681Y-135617182D01*
X130800327Y-135592265D01*
X130804455Y-135590848D01*
X130866936Y-135570607D01*
X130866938Y-135570606D01*
X130873899Y-135568351D01*
X130880154Y-135564555D01*
X130885628Y-135562049D01*
X130891058Y-135559330D01*
X130897937Y-135556833D01*
X130928619Y-135536717D01*
X130958976Y-135516814D01*
X130962680Y-135514477D01*
X131025107Y-135476595D01*
X131033484Y-135469197D01*
X131033508Y-135469224D01*
X131036500Y-135466571D01*
X131039733Y-135463868D01*
X131045852Y-135459856D01*
X131099128Y-135403617D01*
X131101506Y-135401175D01*
X131771441Y-134731240D01*
X131833753Y-134697214D01*
X131885657Y-134696865D01*
X131918597Y-134703567D01*
X131923772Y-134703757D01*
X131923774Y-134703757D01*
X132136673Y-134711564D01*
X132136677Y-134711564D01*
X132141837Y-134711753D01*
X132146957Y-134711097D01*
X132146959Y-134711097D01*
X132358288Y-134684025D01*
X132358289Y-134684025D01*
X132363416Y-134683368D01*
X132368366Y-134681883D01*
X132572429Y-134620661D01*
X132572434Y-134620659D01*
X132577384Y-134619174D01*
X132777994Y-134520896D01*
X132959860Y-134391173D01*
X133027331Y-134323938D01*
X133068479Y-134282933D01*
X133130851Y-134249017D01*
X133201658Y-134254205D01*
X133258419Y-134296851D01*
X133275401Y-134327954D01*
X133316676Y-134438054D01*
X133325214Y-134453649D01*
X133401715Y-134555724D01*
X133414276Y-134568285D01*
X133516351Y-134644786D01*
X133531946Y-134653324D01*
X133652394Y-134698478D01*
X133667649Y-134702105D01*
X133718514Y-134707631D01*
X133725328Y-134708000D01*
X134347885Y-134708000D01*
X134363124Y-134703525D01*
X134364329Y-134702135D01*
X134366000Y-134694452D01*
X134366000Y-134689884D01*
X134874000Y-134689884D01*
X134878475Y-134705123D01*
X134879865Y-134706328D01*
X134887548Y-134707999D01*
X135514669Y-134707999D01*
X135521490Y-134707629D01*
X135572352Y-134702105D01*
X135587604Y-134698479D01*
X135708054Y-134653324D01*
X135723649Y-134644786D01*
X135825724Y-134568285D01*
X135838285Y-134555724D01*
X135914786Y-134453649D01*
X135923324Y-134438054D01*
X135964225Y-134328952D01*
X136006867Y-134272188D01*
X136073428Y-134247488D01*
X136142777Y-134262696D01*
X136177444Y-134290684D01*
X136202865Y-134320031D01*
X136202869Y-134320035D01*
X136206250Y-134323938D01*
X136378126Y-134466632D01*
X136571000Y-134579338D01*
X136779692Y-134659030D01*
X136784760Y-134660061D01*
X136784763Y-134660062D01*
X136892017Y-134681883D01*
X136998597Y-134703567D01*
X137003772Y-134703757D01*
X137003774Y-134703757D01*
X137216673Y-134711564D01*
X137216677Y-134711564D01*
X137221837Y-134711753D01*
X137226957Y-134711097D01*
X137226959Y-134711097D01*
X137438288Y-134684025D01*
X137438289Y-134684025D01*
X137443416Y-134683368D01*
X137448366Y-134681883D01*
X137652429Y-134620661D01*
X137652434Y-134620659D01*
X137657384Y-134619174D01*
X137857994Y-134520896D01*
X138039860Y-134391173D01*
X138198096Y-134233489D01*
X138282680Y-134115778D01*
X138328453Y-134052077D01*
X138329776Y-134053028D01*
X138376645Y-134009857D01*
X138446580Y-133997625D01*
X138512026Y-134025144D01*
X138539875Y-134056994D01*
X138599987Y-134155088D01*
X138746250Y-134323938D01*
X138918126Y-134466632D01*
X139111000Y-134579338D01*
X139319692Y-134659030D01*
X139324760Y-134660061D01*
X139324763Y-134660062D01*
X139432017Y-134681883D01*
X139538597Y-134703567D01*
X139543772Y-134703757D01*
X139543774Y-134703757D01*
X139756673Y-134711564D01*
X139756677Y-134711564D01*
X139761837Y-134711753D01*
X139766957Y-134711097D01*
X139766959Y-134711097D01*
X139978288Y-134684025D01*
X139978289Y-134684025D01*
X139983416Y-134683368D01*
X139988366Y-134681883D01*
X140192429Y-134620661D01*
X140192434Y-134620659D01*
X140197384Y-134619174D01*
X140397994Y-134520896D01*
X140579860Y-134391173D01*
X140738096Y-134233489D01*
X140822680Y-134115778D01*
X140868453Y-134052077D01*
X140869776Y-134053028D01*
X140916645Y-134009857D01*
X140986580Y-133997625D01*
X141052026Y-134025144D01*
X141079875Y-134056994D01*
X141139987Y-134155088D01*
X141286250Y-134323938D01*
X141458126Y-134466632D01*
X141651000Y-134579338D01*
X141859692Y-134659030D01*
X141864760Y-134660061D01*
X141864763Y-134660062D01*
X141972017Y-134681883D01*
X142078597Y-134703567D01*
X142083772Y-134703757D01*
X142083774Y-134703757D01*
X142296673Y-134711564D01*
X142296677Y-134711564D01*
X142301837Y-134711753D01*
X142306957Y-134711097D01*
X142306959Y-134711097D01*
X142518288Y-134684025D01*
X142518289Y-134684025D01*
X142523416Y-134683368D01*
X142528366Y-134681883D01*
X142732429Y-134620661D01*
X142732434Y-134620659D01*
X142737384Y-134619174D01*
X142937994Y-134520896D01*
X143119860Y-134391173D01*
X143278096Y-134233489D01*
X143362680Y-134115778D01*
X143408453Y-134052077D01*
X143409776Y-134053028D01*
X143456645Y-134009857D01*
X143526580Y-133997625D01*
X143592026Y-134025144D01*
X143619875Y-134056994D01*
X143679987Y-134155088D01*
X143826250Y-134323938D01*
X143998126Y-134466632D01*
X144191000Y-134579338D01*
X144399692Y-134659030D01*
X144404760Y-134660061D01*
X144404763Y-134660062D01*
X144512017Y-134681883D01*
X144618597Y-134703567D01*
X144623772Y-134703757D01*
X144623774Y-134703757D01*
X144836673Y-134711564D01*
X144836677Y-134711564D01*
X144841837Y-134711753D01*
X144846957Y-134711097D01*
X144846959Y-134711097D01*
X145058288Y-134684025D01*
X145058289Y-134684025D01*
X145063416Y-134683368D01*
X145068366Y-134681883D01*
X145272429Y-134620661D01*
X145272434Y-134620659D01*
X145277384Y-134619174D01*
X145477994Y-134520896D01*
X145659860Y-134391173D01*
X145727331Y-134323938D01*
X145768479Y-134282933D01*
X145830851Y-134249017D01*
X145901658Y-134254205D01*
X145958419Y-134296851D01*
X145975401Y-134327954D01*
X146016676Y-134438054D01*
X146025214Y-134453649D01*
X146101715Y-134555724D01*
X146114276Y-134568285D01*
X146216351Y-134644786D01*
X146231946Y-134653324D01*
X146352394Y-134698478D01*
X146367649Y-134702105D01*
X146418514Y-134707631D01*
X146425328Y-134708000D01*
X147047885Y-134708000D01*
X147063124Y-134703525D01*
X147064329Y-134702135D01*
X147066000Y-134694452D01*
X147066000Y-134689884D01*
X147574000Y-134689884D01*
X147578475Y-134705123D01*
X147579865Y-134706328D01*
X147587548Y-134707999D01*
X148214669Y-134707999D01*
X148221490Y-134707629D01*
X148272352Y-134702105D01*
X148287604Y-134698479D01*
X148408054Y-134653324D01*
X148423649Y-134644786D01*
X148525724Y-134568285D01*
X148538285Y-134555724D01*
X148614786Y-134453649D01*
X148623324Y-134438054D01*
X148664225Y-134328952D01*
X148706867Y-134272188D01*
X148773428Y-134247488D01*
X148842777Y-134262696D01*
X148877444Y-134290684D01*
X148902865Y-134320031D01*
X148902869Y-134320035D01*
X148906250Y-134323938D01*
X149078126Y-134466632D01*
X149271000Y-134579338D01*
X149479692Y-134659030D01*
X149484760Y-134660061D01*
X149484763Y-134660062D01*
X149592017Y-134681883D01*
X149698597Y-134703567D01*
X149703772Y-134703757D01*
X149703774Y-134703757D01*
X149916673Y-134711564D01*
X149916677Y-134711564D01*
X149921837Y-134711753D01*
X149926957Y-134711097D01*
X149926959Y-134711097D01*
X150138288Y-134684025D01*
X150138289Y-134684025D01*
X150143416Y-134683368D01*
X150148366Y-134681883D01*
X150352429Y-134620661D01*
X150352434Y-134620659D01*
X150357384Y-134619174D01*
X150557994Y-134520896D01*
X150739860Y-134391173D01*
X150898096Y-134233489D01*
X150982680Y-134115778D01*
X151028453Y-134052077D01*
X151029776Y-134053028D01*
X151076645Y-134009857D01*
X151146580Y-133997625D01*
X151212026Y-134025144D01*
X151239875Y-134056994D01*
X151299987Y-134155088D01*
X151446250Y-134323938D01*
X151618126Y-134466632D01*
X151811000Y-134579338D01*
X152019692Y-134659030D01*
X152024760Y-134660061D01*
X152024763Y-134660062D01*
X152132017Y-134681883D01*
X152238597Y-134703567D01*
X152243772Y-134703757D01*
X152243774Y-134703757D01*
X152456673Y-134711564D01*
X152456677Y-134711564D01*
X152461837Y-134711753D01*
X152466957Y-134711097D01*
X152466959Y-134711097D01*
X152678288Y-134684025D01*
X152678289Y-134684025D01*
X152683416Y-134683368D01*
X152688366Y-134681883D01*
X152892429Y-134620661D01*
X152892434Y-134620659D01*
X152897384Y-134619174D01*
X153097994Y-134520896D01*
X153279860Y-134391173D01*
X153438096Y-134233489D01*
X153522680Y-134115778D01*
X153568453Y-134052077D01*
X153569776Y-134053028D01*
X153616645Y-134009857D01*
X153686580Y-133997625D01*
X153752026Y-134025144D01*
X153779875Y-134056994D01*
X153839987Y-134155088D01*
X153986250Y-134323938D01*
X154158126Y-134466632D01*
X154351000Y-134579338D01*
X154559692Y-134659030D01*
X154564760Y-134660061D01*
X154564763Y-134660062D01*
X154672017Y-134681883D01*
X154778597Y-134703567D01*
X154783772Y-134703757D01*
X154783774Y-134703757D01*
X154996673Y-134711564D01*
X154996677Y-134711564D01*
X155001837Y-134711753D01*
X155006957Y-134711097D01*
X155006959Y-134711097D01*
X155218288Y-134684025D01*
X155218289Y-134684025D01*
X155223416Y-134683368D01*
X155228366Y-134681883D01*
X155432429Y-134620661D01*
X155432434Y-134620659D01*
X155437384Y-134619174D01*
X155637994Y-134520896D01*
X155819860Y-134391173D01*
X155978096Y-134233489D01*
X156062680Y-134115778D01*
X156108453Y-134052077D01*
X156109776Y-134053028D01*
X156156645Y-134009857D01*
X156226580Y-133997625D01*
X156292026Y-134025144D01*
X156319875Y-134056994D01*
X156379987Y-134155088D01*
X156526250Y-134323938D01*
X156698126Y-134466632D01*
X156891000Y-134579338D01*
X157099692Y-134659030D01*
X157104760Y-134660061D01*
X157104763Y-134660062D01*
X157212017Y-134681883D01*
X157318597Y-134703567D01*
X157323772Y-134703757D01*
X157323774Y-134703757D01*
X157536673Y-134711564D01*
X157536677Y-134711564D01*
X157541837Y-134711753D01*
X157546957Y-134711097D01*
X157546959Y-134711097D01*
X157758288Y-134684025D01*
X157758289Y-134684025D01*
X157763416Y-134683368D01*
X157768366Y-134681883D01*
X157972429Y-134620661D01*
X157972434Y-134620659D01*
X157977384Y-134619174D01*
X158177994Y-134520896D01*
X158359860Y-134391173D01*
X158468091Y-134283319D01*
X158530462Y-134249404D01*
X158601268Y-134254592D01*
X158658030Y-134297238D01*
X158675012Y-134328341D01*
X158684883Y-134354672D01*
X158719385Y-134446705D01*
X158806739Y-134563261D01*
X158923295Y-134650615D01*
X159059684Y-134701745D01*
X159121866Y-134708500D01*
X160918134Y-134708500D01*
X160980316Y-134701745D01*
X161116705Y-134650615D01*
X161233261Y-134563261D01*
X161320615Y-134446705D01*
X161355117Y-134354672D01*
X161364598Y-134329382D01*
X161407240Y-134272618D01*
X161473802Y-134247918D01*
X161543150Y-134263126D01*
X161577817Y-134291114D01*
X161606250Y-134323938D01*
X161778126Y-134466632D01*
X161971000Y-134579338D01*
X162179692Y-134659030D01*
X162184760Y-134660061D01*
X162184763Y-134660062D01*
X162292017Y-134681883D01*
X162398597Y-134703567D01*
X162403772Y-134703757D01*
X162403774Y-134703757D01*
X162616673Y-134711564D01*
X162616677Y-134711564D01*
X162621837Y-134711753D01*
X162626957Y-134711097D01*
X162626959Y-134711097D01*
X162838288Y-134684025D01*
X162838289Y-134684025D01*
X162843416Y-134683368D01*
X162848366Y-134681883D01*
X163052429Y-134620661D01*
X163052434Y-134620659D01*
X163057384Y-134619174D01*
X163257994Y-134520896D01*
X163439860Y-134391173D01*
X163598096Y-134233489D01*
X163682680Y-134115778D01*
X163728453Y-134052077D01*
X163729776Y-134053028D01*
X163776645Y-134009857D01*
X163846580Y-133997625D01*
X163912026Y-134025144D01*
X163939875Y-134056994D01*
X163999987Y-134155088D01*
X164146250Y-134323938D01*
X164318126Y-134466632D01*
X164511000Y-134579338D01*
X164719692Y-134659030D01*
X164724760Y-134660061D01*
X164724763Y-134660062D01*
X164832017Y-134681883D01*
X164938597Y-134703567D01*
X164943772Y-134703757D01*
X164943774Y-134703757D01*
X165156673Y-134711564D01*
X165156677Y-134711564D01*
X165161837Y-134711753D01*
X165166957Y-134711097D01*
X165166959Y-134711097D01*
X165378288Y-134684025D01*
X165378289Y-134684025D01*
X165383416Y-134683368D01*
X165388366Y-134681883D01*
X165592429Y-134620661D01*
X165592434Y-134620659D01*
X165597384Y-134619174D01*
X165797994Y-134520896D01*
X165979860Y-134391173D01*
X166138096Y-134233489D01*
X166222680Y-134115778D01*
X166268453Y-134052077D01*
X166269776Y-134053028D01*
X166316645Y-134009857D01*
X166386580Y-133997625D01*
X166452026Y-134025144D01*
X166479875Y-134056994D01*
X166539987Y-134155088D01*
X166686250Y-134323938D01*
X166858126Y-134466632D01*
X167051000Y-134579338D01*
X167259692Y-134659030D01*
X167264760Y-134660061D01*
X167264763Y-134660062D01*
X167372017Y-134681883D01*
X167478597Y-134703567D01*
X167483772Y-134703757D01*
X167483774Y-134703757D01*
X167696673Y-134711564D01*
X167696677Y-134711564D01*
X167701837Y-134711753D01*
X167706957Y-134711097D01*
X167706959Y-134711097D01*
X167918288Y-134684025D01*
X167918289Y-134684025D01*
X167923416Y-134683368D01*
X167928366Y-134681883D01*
X168132429Y-134620661D01*
X168132434Y-134620659D01*
X168137384Y-134619174D01*
X168337994Y-134520896D01*
X168519860Y-134391173D01*
X168678096Y-134233489D01*
X168762680Y-134115778D01*
X168808453Y-134052077D01*
X168809776Y-134053028D01*
X168856645Y-134009857D01*
X168926580Y-133997625D01*
X168992026Y-134025144D01*
X169019875Y-134056994D01*
X169079987Y-134155088D01*
X169226250Y-134323938D01*
X169398126Y-134466632D01*
X169591000Y-134579338D01*
X169799692Y-134659030D01*
X169804760Y-134660061D01*
X169804763Y-134660062D01*
X169912017Y-134681883D01*
X170018597Y-134703567D01*
X170023772Y-134703757D01*
X170023774Y-134703757D01*
X170236673Y-134711564D01*
X170236677Y-134711564D01*
X170241837Y-134711753D01*
X170246957Y-134711097D01*
X170246959Y-134711097D01*
X170458288Y-134684025D01*
X170458289Y-134684025D01*
X170463416Y-134683368D01*
X170468366Y-134681883D01*
X170672429Y-134620661D01*
X170672434Y-134620659D01*
X170677384Y-134619174D01*
X170877994Y-134520896D01*
X171059860Y-134391173D01*
X171127331Y-134323938D01*
X171168479Y-134282933D01*
X171230851Y-134249017D01*
X171301658Y-134254205D01*
X171358419Y-134296851D01*
X171375401Y-134327954D01*
X171416676Y-134438054D01*
X171425214Y-134453649D01*
X171501715Y-134555724D01*
X171514276Y-134568285D01*
X171616351Y-134644786D01*
X171631946Y-134653324D01*
X171752394Y-134698478D01*
X171767649Y-134702105D01*
X171818514Y-134707631D01*
X171825328Y-134708000D01*
X172447885Y-134708000D01*
X172463124Y-134703525D01*
X172464329Y-134702135D01*
X172466000Y-134694452D01*
X172466000Y-134689884D01*
X172974000Y-134689884D01*
X172978475Y-134705123D01*
X172979865Y-134706328D01*
X172987548Y-134707999D01*
X173614669Y-134707999D01*
X173621490Y-134707629D01*
X173672352Y-134702105D01*
X173687604Y-134698479D01*
X173808054Y-134653324D01*
X173823649Y-134644786D01*
X173925724Y-134568285D01*
X173938285Y-134555724D01*
X174014786Y-134453649D01*
X174023324Y-134438054D01*
X174064225Y-134328952D01*
X174106867Y-134272188D01*
X174173428Y-134247488D01*
X174242777Y-134262696D01*
X174277444Y-134290684D01*
X174302865Y-134320031D01*
X174302869Y-134320035D01*
X174306250Y-134323938D01*
X174478126Y-134466632D01*
X174671000Y-134579338D01*
X174879692Y-134659030D01*
X174884760Y-134660061D01*
X174884763Y-134660062D01*
X174992017Y-134681883D01*
X175098597Y-134703567D01*
X175103772Y-134703757D01*
X175103774Y-134703757D01*
X175316673Y-134711564D01*
X175316677Y-134711564D01*
X175321837Y-134711753D01*
X175326957Y-134711097D01*
X175326959Y-134711097D01*
X175538288Y-134684025D01*
X175538289Y-134684025D01*
X175543416Y-134683368D01*
X175548366Y-134681883D01*
X175752429Y-134620661D01*
X175752434Y-134620659D01*
X175757384Y-134619174D01*
X175957994Y-134520896D01*
X176139860Y-134391173D01*
X176298096Y-134233489D01*
X176382680Y-134115778D01*
X176428453Y-134052077D01*
X176429776Y-134053028D01*
X176476645Y-134009857D01*
X176546580Y-133997625D01*
X176612026Y-134025144D01*
X176639875Y-134056994D01*
X176699987Y-134155088D01*
X176846250Y-134323938D01*
X177018126Y-134466632D01*
X177211000Y-134579338D01*
X177419692Y-134659030D01*
X177424760Y-134660061D01*
X177424763Y-134660062D01*
X177532017Y-134681883D01*
X177638597Y-134703567D01*
X177643772Y-134703757D01*
X177643774Y-134703757D01*
X177856673Y-134711564D01*
X177856677Y-134711564D01*
X177861837Y-134711753D01*
X177866957Y-134711097D01*
X177866959Y-134711097D01*
X178078288Y-134684025D01*
X178078289Y-134684025D01*
X178083416Y-134683368D01*
X178088366Y-134681883D01*
X178292429Y-134620661D01*
X178292434Y-134620659D01*
X178297384Y-134619174D01*
X178497994Y-134520896D01*
X178679860Y-134391173D01*
X178838096Y-134233489D01*
X178922680Y-134115778D01*
X178965435Y-134056277D01*
X178968453Y-134052077D01*
X178989320Y-134009857D01*
X179065136Y-133856453D01*
X179065137Y-133856451D01*
X179067430Y-133851811D01*
X179132370Y-133638069D01*
X179161529Y-133416590D01*
X179163156Y-133350000D01*
X179144852Y-133127361D01*
X179090431Y-132910702D01*
X179001354Y-132705840D01*
X178932362Y-132599195D01*
X178882822Y-132522617D01*
X178882820Y-132522614D01*
X178880014Y-132518277D01*
X178729670Y-132353051D01*
X178725619Y-132349852D01*
X178725615Y-132349848D01*
X178558414Y-132217800D01*
X178558410Y-132217798D01*
X178554359Y-132214598D01*
X178537221Y-132205137D01*
X178426970Y-132144276D01*
X178358789Y-132106638D01*
X178353920Y-132104914D01*
X178353916Y-132104912D01*
X178153087Y-132033795D01*
X178153083Y-132033794D01*
X178148212Y-132032069D01*
X178143119Y-132031162D01*
X178143116Y-132031161D01*
X177933373Y-131993800D01*
X177933367Y-131993799D01*
X177928284Y-131992894D01*
X177854452Y-131991992D01*
X177710081Y-131990228D01*
X177710079Y-131990228D01*
X177704911Y-131990165D01*
X177484091Y-132023955D01*
X177271756Y-132093357D01*
X177073607Y-132196507D01*
X177069474Y-132199610D01*
X177069471Y-132199612D01*
X176908221Y-132320682D01*
X176894965Y-132330635D01*
X176855525Y-132371907D01*
X176754356Y-132477774D01*
X176740629Y-132492138D01*
X176633201Y-132649621D01*
X176578293Y-132694621D01*
X176507768Y-132702792D01*
X176444021Y-132671538D01*
X176423324Y-132647054D01*
X176342822Y-132522617D01*
X176342820Y-132522614D01*
X176340014Y-132518277D01*
X176189670Y-132353051D01*
X176185619Y-132349852D01*
X176185615Y-132349848D01*
X176018414Y-132217800D01*
X176018410Y-132217798D01*
X176014359Y-132214598D01*
X175997221Y-132205137D01*
X175886970Y-132144276D01*
X175818789Y-132106638D01*
X175813920Y-132104914D01*
X175813916Y-132104912D01*
X175613087Y-132033795D01*
X175613083Y-132033794D01*
X175608212Y-132032069D01*
X175603119Y-132031162D01*
X175603116Y-132031161D01*
X175393373Y-131993800D01*
X175393367Y-131993799D01*
X175388284Y-131992894D01*
X175314452Y-131991992D01*
X175170081Y-131990228D01*
X175170079Y-131990228D01*
X175164911Y-131990165D01*
X174944091Y-132023955D01*
X174731756Y-132093357D01*
X174533607Y-132196507D01*
X174529474Y-132199610D01*
X174529471Y-132199612D01*
X174368221Y-132320682D01*
X174354965Y-132330635D01*
X174351393Y-132334373D01*
X174273898Y-132415466D01*
X174212374Y-132450895D01*
X174141462Y-132447438D01*
X174083676Y-132406192D01*
X174064823Y-132372644D01*
X174023324Y-132261946D01*
X174014786Y-132246351D01*
X173938285Y-132144276D01*
X173925724Y-132131715D01*
X173823649Y-132055214D01*
X173808054Y-132046676D01*
X173687606Y-132001522D01*
X173672351Y-131997895D01*
X173621486Y-131992369D01*
X173614672Y-131992000D01*
X172992115Y-131992000D01*
X172976876Y-131996475D01*
X172975671Y-131997865D01*
X172974000Y-132005548D01*
X172974000Y-134689884D01*
X172466000Y-134689884D01*
X172466000Y-132010116D01*
X172461525Y-131994877D01*
X172460135Y-131993672D01*
X172452452Y-131992001D01*
X171825331Y-131992001D01*
X171818510Y-131992371D01*
X171767648Y-131997895D01*
X171752396Y-132001521D01*
X171631946Y-132046676D01*
X171616351Y-132055214D01*
X171514276Y-132131715D01*
X171501715Y-132144276D01*
X171425214Y-132246351D01*
X171416676Y-132261946D01*
X171375297Y-132372322D01*
X171332655Y-132429087D01*
X171266093Y-132453786D01*
X171196744Y-132438578D01*
X171164121Y-132412891D01*
X171113151Y-132356876D01*
X171113145Y-132356870D01*
X171109670Y-132353051D01*
X171105619Y-132349852D01*
X171105615Y-132349848D01*
X170938414Y-132217800D01*
X170938410Y-132217798D01*
X170934359Y-132214598D01*
X170917221Y-132205137D01*
X170806970Y-132144276D01*
X170738789Y-132106638D01*
X170733920Y-132104914D01*
X170733916Y-132104912D01*
X170533087Y-132033795D01*
X170533083Y-132033794D01*
X170528212Y-132032069D01*
X170523119Y-132031162D01*
X170523116Y-132031161D01*
X170313373Y-131993800D01*
X170313367Y-131993799D01*
X170308284Y-131992894D01*
X170234452Y-131991992D01*
X170090081Y-131990228D01*
X170090079Y-131990228D01*
X170084911Y-131990165D01*
X169864091Y-132023955D01*
X169651756Y-132093357D01*
X169453607Y-132196507D01*
X169449474Y-132199610D01*
X169449471Y-132199612D01*
X169288221Y-132320682D01*
X169274965Y-132330635D01*
X169235525Y-132371907D01*
X169134356Y-132477774D01*
X169120629Y-132492138D01*
X169013201Y-132649621D01*
X168958293Y-132694621D01*
X168887768Y-132702792D01*
X168824021Y-132671538D01*
X168803324Y-132647054D01*
X168722822Y-132522617D01*
X168722820Y-132522614D01*
X168720014Y-132518277D01*
X168569670Y-132353051D01*
X168565619Y-132349852D01*
X168565615Y-132349848D01*
X168398414Y-132217800D01*
X168398410Y-132217798D01*
X168394359Y-132214598D01*
X168377221Y-132205137D01*
X168266970Y-132144276D01*
X168198789Y-132106638D01*
X168193920Y-132104914D01*
X168193916Y-132104912D01*
X167993087Y-132033795D01*
X167993083Y-132033794D01*
X167988212Y-132032069D01*
X167983119Y-132031162D01*
X167983116Y-132031161D01*
X167773373Y-131993800D01*
X167773367Y-131993799D01*
X167768284Y-131992894D01*
X167694452Y-131991992D01*
X167550081Y-131990228D01*
X167550079Y-131990228D01*
X167544911Y-131990165D01*
X167324091Y-132023955D01*
X167111756Y-132093357D01*
X166913607Y-132196507D01*
X166909474Y-132199610D01*
X166909471Y-132199612D01*
X166748221Y-132320682D01*
X166734965Y-132330635D01*
X166695525Y-132371907D01*
X166594356Y-132477774D01*
X166580629Y-132492138D01*
X166473201Y-132649621D01*
X166418293Y-132694621D01*
X166347768Y-132702792D01*
X166284021Y-132671538D01*
X166263324Y-132647054D01*
X166182822Y-132522617D01*
X166182820Y-132522614D01*
X166180014Y-132518277D01*
X166029670Y-132353051D01*
X166025619Y-132349852D01*
X166025615Y-132349848D01*
X165858414Y-132217800D01*
X165858410Y-132217798D01*
X165854359Y-132214598D01*
X165837221Y-132205137D01*
X165726970Y-132144276D01*
X165658789Y-132106638D01*
X165653920Y-132104914D01*
X165653916Y-132104912D01*
X165453087Y-132033795D01*
X165453083Y-132033794D01*
X165448212Y-132032069D01*
X165443119Y-132031162D01*
X165443116Y-132031161D01*
X165233373Y-131993800D01*
X165233367Y-131993799D01*
X165228284Y-131992894D01*
X165154452Y-131991992D01*
X165010081Y-131990228D01*
X165010079Y-131990228D01*
X165004911Y-131990165D01*
X164784091Y-132023955D01*
X164571756Y-132093357D01*
X164373607Y-132196507D01*
X164369474Y-132199610D01*
X164369471Y-132199612D01*
X164208221Y-132320682D01*
X164194965Y-132330635D01*
X164155525Y-132371907D01*
X164054356Y-132477774D01*
X164040629Y-132492138D01*
X163933201Y-132649621D01*
X163878293Y-132694621D01*
X163807768Y-132702792D01*
X163744021Y-132671538D01*
X163723324Y-132647054D01*
X163642822Y-132522617D01*
X163642820Y-132522614D01*
X163640014Y-132518277D01*
X163489670Y-132353051D01*
X163485619Y-132349852D01*
X163485615Y-132349848D01*
X163318414Y-132217800D01*
X163318410Y-132217798D01*
X163314359Y-132214598D01*
X163297221Y-132205137D01*
X163186970Y-132144276D01*
X163118789Y-132106638D01*
X163113920Y-132104914D01*
X163113916Y-132104912D01*
X162913087Y-132033795D01*
X162913083Y-132033794D01*
X162908212Y-132032069D01*
X162903119Y-132031162D01*
X162903116Y-132031161D01*
X162693373Y-131993800D01*
X162693367Y-131993799D01*
X162688284Y-131992894D01*
X162614452Y-131991992D01*
X162470081Y-131990228D01*
X162470079Y-131990228D01*
X162464911Y-131990165D01*
X162244091Y-132023955D01*
X162031756Y-132093357D01*
X161833607Y-132196507D01*
X161829474Y-132199610D01*
X161829471Y-132199612D01*
X161668221Y-132320682D01*
X161654965Y-132330635D01*
X161576360Y-132412891D01*
X161574283Y-132415064D01*
X161512759Y-132450494D01*
X161441846Y-132447037D01*
X161384060Y-132405791D01*
X161365207Y-132372243D01*
X161323767Y-132261703D01*
X161320615Y-132253295D01*
X161233261Y-132136739D01*
X161116705Y-132049385D01*
X160980316Y-131998255D01*
X160918134Y-131991500D01*
X159121866Y-131991500D01*
X159059684Y-131998255D01*
X158923295Y-132049385D01*
X158806739Y-132136739D01*
X158719385Y-132253295D01*
X158716233Y-132261703D01*
X158674919Y-132371907D01*
X158632277Y-132428671D01*
X158565716Y-132453371D01*
X158496367Y-132438163D01*
X158463743Y-132412476D01*
X158413151Y-132356875D01*
X158413142Y-132356866D01*
X158409670Y-132353051D01*
X158405619Y-132349852D01*
X158405615Y-132349848D01*
X158238414Y-132217800D01*
X158238410Y-132217798D01*
X158234359Y-132214598D01*
X158217221Y-132205137D01*
X158106970Y-132144276D01*
X158038789Y-132106638D01*
X158033920Y-132104914D01*
X158033916Y-132104912D01*
X157833087Y-132033795D01*
X157833083Y-132033794D01*
X157828212Y-132032069D01*
X157823119Y-132031162D01*
X157823116Y-132031161D01*
X157613373Y-131993800D01*
X157613367Y-131993799D01*
X157608284Y-131992894D01*
X157534452Y-131991992D01*
X157390081Y-131990228D01*
X157390079Y-131990228D01*
X157384911Y-131990165D01*
X157164091Y-132023955D01*
X156951756Y-132093357D01*
X156753607Y-132196507D01*
X156749474Y-132199610D01*
X156749471Y-132199612D01*
X156588221Y-132320682D01*
X156574965Y-132330635D01*
X156535525Y-132371907D01*
X156434356Y-132477774D01*
X156420629Y-132492138D01*
X156313201Y-132649621D01*
X156258293Y-132694621D01*
X156187768Y-132702792D01*
X156124021Y-132671538D01*
X156103324Y-132647054D01*
X156022822Y-132522617D01*
X156022820Y-132522614D01*
X156020014Y-132518277D01*
X155869670Y-132353051D01*
X155865619Y-132349852D01*
X155865615Y-132349848D01*
X155698414Y-132217800D01*
X155698410Y-132217798D01*
X155694359Y-132214598D01*
X155677221Y-132205137D01*
X155566970Y-132144276D01*
X155498789Y-132106638D01*
X155493920Y-132104914D01*
X155493916Y-132104912D01*
X155293087Y-132033795D01*
X155293083Y-132033794D01*
X155288212Y-132032069D01*
X155283119Y-132031162D01*
X155283116Y-132031161D01*
X155073373Y-131993800D01*
X155073367Y-131993799D01*
X155068284Y-131992894D01*
X154994452Y-131991992D01*
X154850081Y-131990228D01*
X154850079Y-131990228D01*
X154844911Y-131990165D01*
X154624091Y-132023955D01*
X154411756Y-132093357D01*
X154213607Y-132196507D01*
X154209474Y-132199610D01*
X154209471Y-132199612D01*
X154048221Y-132320682D01*
X154034965Y-132330635D01*
X153995525Y-132371907D01*
X153894356Y-132477774D01*
X153880629Y-132492138D01*
X153773201Y-132649621D01*
X153718293Y-132694621D01*
X153647768Y-132702792D01*
X153584021Y-132671538D01*
X153563324Y-132647054D01*
X153482822Y-132522617D01*
X153482820Y-132522614D01*
X153480014Y-132518277D01*
X153329670Y-132353051D01*
X153325619Y-132349852D01*
X153325615Y-132349848D01*
X153158414Y-132217800D01*
X153158410Y-132217798D01*
X153154359Y-132214598D01*
X153137221Y-132205137D01*
X153026970Y-132144276D01*
X152958789Y-132106638D01*
X152953920Y-132104914D01*
X152953916Y-132104912D01*
X152753087Y-132033795D01*
X152753083Y-132033794D01*
X152748212Y-132032069D01*
X152743119Y-132031162D01*
X152743116Y-132031161D01*
X152533373Y-131993800D01*
X152533367Y-131993799D01*
X152528284Y-131992894D01*
X152454452Y-131991992D01*
X152310081Y-131990228D01*
X152310079Y-131990228D01*
X152304911Y-131990165D01*
X152084091Y-132023955D01*
X151871756Y-132093357D01*
X151673607Y-132196507D01*
X151669474Y-132199610D01*
X151669471Y-132199612D01*
X151508221Y-132320682D01*
X151494965Y-132330635D01*
X151455525Y-132371907D01*
X151354356Y-132477774D01*
X151340629Y-132492138D01*
X151233201Y-132649621D01*
X151178293Y-132694621D01*
X151107768Y-132702792D01*
X151044021Y-132671538D01*
X151023324Y-132647054D01*
X150942822Y-132522617D01*
X150942820Y-132522614D01*
X150940014Y-132518277D01*
X150789670Y-132353051D01*
X150785619Y-132349852D01*
X150785615Y-132349848D01*
X150618414Y-132217800D01*
X150618410Y-132217798D01*
X150614359Y-132214598D01*
X150597221Y-132205137D01*
X150486970Y-132144276D01*
X150418789Y-132106638D01*
X150413920Y-132104914D01*
X150413916Y-132104912D01*
X150213087Y-132033795D01*
X150213083Y-132033794D01*
X150208212Y-132032069D01*
X150203119Y-132031162D01*
X150203116Y-132031161D01*
X149993373Y-131993800D01*
X149993367Y-131993799D01*
X149988284Y-131992894D01*
X149914452Y-131991992D01*
X149770081Y-131990228D01*
X149770079Y-131990228D01*
X149764911Y-131990165D01*
X149544091Y-132023955D01*
X149331756Y-132093357D01*
X149133607Y-132196507D01*
X149129474Y-132199610D01*
X149129471Y-132199612D01*
X148968221Y-132320682D01*
X148954965Y-132330635D01*
X148951393Y-132334373D01*
X148873898Y-132415466D01*
X148812374Y-132450895D01*
X148741462Y-132447438D01*
X148683676Y-132406192D01*
X148664823Y-132372644D01*
X148623324Y-132261946D01*
X148614786Y-132246351D01*
X148538285Y-132144276D01*
X148525724Y-132131715D01*
X148423649Y-132055214D01*
X148408054Y-132046676D01*
X148287606Y-132001522D01*
X148272351Y-131997895D01*
X148221486Y-131992369D01*
X148214672Y-131992000D01*
X147592115Y-131992000D01*
X147576876Y-131996475D01*
X147575671Y-131997865D01*
X147574000Y-132005548D01*
X147574000Y-134689884D01*
X147066000Y-134689884D01*
X147066000Y-132010116D01*
X147061525Y-131994877D01*
X147060135Y-131993672D01*
X147052452Y-131992001D01*
X146425331Y-131992001D01*
X146418510Y-131992371D01*
X146367648Y-131997895D01*
X146352396Y-132001521D01*
X146231946Y-132046676D01*
X146216351Y-132055214D01*
X146114276Y-132131715D01*
X146101715Y-132144276D01*
X146025214Y-132246351D01*
X146016676Y-132261946D01*
X145975297Y-132372322D01*
X145932655Y-132429087D01*
X145866093Y-132453786D01*
X145796744Y-132438578D01*
X145764121Y-132412891D01*
X145713151Y-132356876D01*
X145713145Y-132356870D01*
X145709670Y-132353051D01*
X145705619Y-132349852D01*
X145705615Y-132349848D01*
X145538414Y-132217800D01*
X145538410Y-132217798D01*
X145534359Y-132214598D01*
X145517221Y-132205137D01*
X145406970Y-132144276D01*
X145338789Y-132106638D01*
X145333920Y-132104914D01*
X145333916Y-132104912D01*
X145133087Y-132033795D01*
X145133083Y-132033794D01*
X145128212Y-132032069D01*
X145123119Y-132031162D01*
X145123116Y-132031161D01*
X144913373Y-131993800D01*
X144913367Y-131993799D01*
X144908284Y-131992894D01*
X144834452Y-131991992D01*
X144690081Y-131990228D01*
X144690079Y-131990228D01*
X144684911Y-131990165D01*
X144464091Y-132023955D01*
X144251756Y-132093357D01*
X144053607Y-132196507D01*
X144049474Y-132199610D01*
X144049471Y-132199612D01*
X143888221Y-132320682D01*
X143874965Y-132330635D01*
X143835525Y-132371907D01*
X143734356Y-132477774D01*
X143720629Y-132492138D01*
X143613201Y-132649621D01*
X143558293Y-132694621D01*
X143487768Y-132702792D01*
X143424021Y-132671538D01*
X143403324Y-132647054D01*
X143322822Y-132522617D01*
X143322820Y-132522614D01*
X143320014Y-132518277D01*
X143169670Y-132353051D01*
X143165619Y-132349852D01*
X143165615Y-132349848D01*
X142998414Y-132217800D01*
X142998410Y-132217798D01*
X142994359Y-132214598D01*
X142977221Y-132205137D01*
X142866970Y-132144276D01*
X142798789Y-132106638D01*
X142793920Y-132104914D01*
X142793916Y-132104912D01*
X142593087Y-132033795D01*
X142593083Y-132033794D01*
X142588212Y-132032069D01*
X142583119Y-132031162D01*
X142583116Y-132031161D01*
X142373373Y-131993800D01*
X142373367Y-131993799D01*
X142368284Y-131992894D01*
X142294452Y-131991992D01*
X142150081Y-131990228D01*
X142150079Y-131990228D01*
X142144911Y-131990165D01*
X141924091Y-132023955D01*
X141711756Y-132093357D01*
X141513607Y-132196507D01*
X141509474Y-132199610D01*
X141509471Y-132199612D01*
X141348221Y-132320682D01*
X141334965Y-132330635D01*
X141295525Y-132371907D01*
X141194356Y-132477774D01*
X141180629Y-132492138D01*
X141073201Y-132649621D01*
X141018293Y-132694621D01*
X140947768Y-132702792D01*
X140884021Y-132671538D01*
X140863324Y-132647054D01*
X140782822Y-132522617D01*
X140782820Y-132522614D01*
X140780014Y-132518277D01*
X140629670Y-132353051D01*
X140625619Y-132349852D01*
X140625615Y-132349848D01*
X140458414Y-132217800D01*
X140458410Y-132217798D01*
X140454359Y-132214598D01*
X140437221Y-132205137D01*
X140326970Y-132144276D01*
X140258789Y-132106638D01*
X140253920Y-132104914D01*
X140253916Y-132104912D01*
X140053087Y-132033795D01*
X140053083Y-132033794D01*
X140048212Y-132032069D01*
X140043119Y-132031162D01*
X140043116Y-132031161D01*
X139833373Y-131993800D01*
X139833367Y-131993799D01*
X139828284Y-131992894D01*
X139754452Y-131991992D01*
X139610081Y-131990228D01*
X139610079Y-131990228D01*
X139604911Y-131990165D01*
X139384091Y-132023955D01*
X139171756Y-132093357D01*
X138973607Y-132196507D01*
X138969474Y-132199610D01*
X138969471Y-132199612D01*
X138808221Y-132320682D01*
X138794965Y-132330635D01*
X138755525Y-132371907D01*
X138654356Y-132477774D01*
X138640629Y-132492138D01*
X138533201Y-132649621D01*
X138478293Y-132694621D01*
X138407768Y-132702792D01*
X138344021Y-132671538D01*
X138323324Y-132647054D01*
X138242822Y-132522617D01*
X138242820Y-132522614D01*
X138240014Y-132518277D01*
X138089670Y-132353051D01*
X138085619Y-132349852D01*
X138085615Y-132349848D01*
X137918414Y-132217800D01*
X137918410Y-132217798D01*
X137914359Y-132214598D01*
X137897221Y-132205137D01*
X137786970Y-132144276D01*
X137718789Y-132106638D01*
X137713920Y-132104914D01*
X137713916Y-132104912D01*
X137513087Y-132033795D01*
X137513083Y-132033794D01*
X137508212Y-132032069D01*
X137503119Y-132031162D01*
X137503116Y-132031161D01*
X137293373Y-131993800D01*
X137293367Y-131993799D01*
X137288284Y-131992894D01*
X137214452Y-131991992D01*
X137070081Y-131990228D01*
X137070079Y-131990228D01*
X137064911Y-131990165D01*
X136844091Y-132023955D01*
X136631756Y-132093357D01*
X136433607Y-132196507D01*
X136429474Y-132199610D01*
X136429471Y-132199612D01*
X136268221Y-132320682D01*
X136254965Y-132330635D01*
X136251393Y-132334373D01*
X136173898Y-132415466D01*
X136112374Y-132450895D01*
X136041462Y-132447438D01*
X135983676Y-132406192D01*
X135964823Y-132372644D01*
X135923324Y-132261946D01*
X135914786Y-132246351D01*
X135838285Y-132144276D01*
X135825724Y-132131715D01*
X135723649Y-132055214D01*
X135708054Y-132046676D01*
X135587606Y-132001522D01*
X135572351Y-131997895D01*
X135521486Y-131992369D01*
X135514672Y-131992000D01*
X134892115Y-131992000D01*
X134876876Y-131996475D01*
X134875671Y-131997865D01*
X134874000Y-132005548D01*
X134874000Y-134689884D01*
X134366000Y-134689884D01*
X134366000Y-132010116D01*
X134361525Y-131994877D01*
X134360135Y-131993672D01*
X134352452Y-131992001D01*
X133725331Y-131992001D01*
X133718510Y-131992371D01*
X133667648Y-131997895D01*
X133652396Y-132001521D01*
X133531946Y-132046676D01*
X133516351Y-132055214D01*
X133414276Y-132131715D01*
X133401715Y-132144276D01*
X133325214Y-132246351D01*
X133316676Y-132261946D01*
X133275297Y-132372322D01*
X133232655Y-132429087D01*
X133166093Y-132453786D01*
X133096744Y-132438578D01*
X133064121Y-132412891D01*
X133013151Y-132356876D01*
X133013145Y-132356870D01*
X133009670Y-132353051D01*
X133005619Y-132349852D01*
X133005615Y-132349848D01*
X132838414Y-132217800D01*
X132838410Y-132217798D01*
X132834359Y-132214598D01*
X132817221Y-132205137D01*
X132706970Y-132144276D01*
X132638789Y-132106638D01*
X132633920Y-132104914D01*
X132633916Y-132104912D01*
X132433087Y-132033795D01*
X132433083Y-132033794D01*
X132428212Y-132032069D01*
X132423119Y-132031162D01*
X132423116Y-132031161D01*
X132213373Y-131993800D01*
X132213367Y-131993799D01*
X132208284Y-131992894D01*
X132134452Y-131991992D01*
X131990081Y-131990228D01*
X131990079Y-131990228D01*
X131984911Y-131990165D01*
X131764091Y-132023955D01*
X131551756Y-132093357D01*
X131353607Y-132196507D01*
X131349474Y-132199610D01*
X131349471Y-132199612D01*
X131188221Y-132320682D01*
X131174965Y-132330635D01*
X131135525Y-132371907D01*
X131034356Y-132477774D01*
X131020629Y-132492138D01*
X130913201Y-132649621D01*
X130858293Y-132694621D01*
X130787768Y-132702792D01*
X130724021Y-132671538D01*
X130703324Y-132647054D01*
X130622822Y-132522617D01*
X130622820Y-132522614D01*
X130620014Y-132518277D01*
X130469670Y-132353051D01*
X130465619Y-132349852D01*
X130465615Y-132349848D01*
X130298414Y-132217800D01*
X130298410Y-132217798D01*
X130294359Y-132214598D01*
X130277221Y-132205137D01*
X130166970Y-132144276D01*
X130098789Y-132106638D01*
X130093920Y-132104914D01*
X130093916Y-132104912D01*
X129893087Y-132033795D01*
X129893083Y-132033794D01*
X129888212Y-132032069D01*
X129883119Y-132031162D01*
X129883116Y-132031161D01*
X129673373Y-131993800D01*
X129673367Y-131993799D01*
X129668284Y-131992894D01*
X129595109Y-131992000D01*
X129450082Y-131990228D01*
X129450080Y-131990228D01*
X129444911Y-131990165D01*
X129421156Y-131993800D01*
X129341385Y-132006006D01*
X129271023Y-131996538D01*
X129233232Y-131970551D01*
X128494916Y-131232235D01*
X128460890Y-131169923D01*
X128458011Y-131143140D01*
X128458011Y-127898277D01*
X128478013Y-127830156D01*
X128531669Y-127783663D01*
X128601943Y-127773559D01*
X128666523Y-127803053D01*
X128679248Y-127815780D01*
X128812860Y-127970025D01*
X128816250Y-127973938D01*
X128988126Y-128116632D01*
X129181000Y-128229338D01*
X129389692Y-128309030D01*
X129394760Y-128310061D01*
X129394763Y-128310062D01*
X129502017Y-128331883D01*
X129608597Y-128353567D01*
X129613772Y-128353757D01*
X129613774Y-128353757D01*
X129826673Y-128361564D01*
X129826677Y-128361564D01*
X129831837Y-128361753D01*
X129836957Y-128361097D01*
X129836959Y-128361097D01*
X130048288Y-128334025D01*
X130048289Y-128334025D01*
X130053416Y-128333368D01*
X130123649Y-128312297D01*
X130262429Y-128270661D01*
X130262434Y-128270659D01*
X130267384Y-128269174D01*
X130467994Y-128170896D01*
X130649860Y-128041173D01*
X130656557Y-128034500D01*
X130771319Y-127920138D01*
X130808096Y-127883489D01*
X130817670Y-127870166D01*
X130935435Y-127706277D01*
X130938453Y-127702077D01*
X130940944Y-127697038D01*
X131035136Y-127506453D01*
X131035137Y-127506451D01*
X131037430Y-127501811D01*
X131083151Y-127351327D01*
X131100865Y-127293023D01*
X131100865Y-127293021D01*
X131102370Y-127288069D01*
X131131529Y-127066590D01*
X131131611Y-127063240D01*
X131133074Y-127003365D01*
X131133074Y-127003361D01*
X131133156Y-127000000D01*
X131123701Y-126885000D01*
X173376693Y-126885000D01*
X173395885Y-127104371D01*
X173452880Y-127317076D01*
X173470393Y-127354632D01*
X173543618Y-127511666D01*
X173543621Y-127511671D01*
X173545944Y-127516653D01*
X173549100Y-127521160D01*
X173549101Y-127521162D01*
X173636374Y-127645800D01*
X173672251Y-127697038D01*
X173827962Y-127852749D01*
X174008346Y-127979056D01*
X174207924Y-128072120D01*
X174420629Y-128129115D01*
X174640000Y-128148307D01*
X174859371Y-128129115D01*
X175072076Y-128072120D01*
X175271654Y-127979056D01*
X175452038Y-127852749D01*
X175607749Y-127697038D01*
X175643627Y-127645800D01*
X175730899Y-127521162D01*
X175730900Y-127521160D01*
X175734056Y-127516653D01*
X175736379Y-127511671D01*
X175736382Y-127511666D01*
X175809607Y-127354632D01*
X175827120Y-127317076D01*
X175871763Y-127150469D01*
X176257095Y-127150469D01*
X176257392Y-127155622D01*
X176257392Y-127155625D01*
X176270129Y-127376529D01*
X176270427Y-127381697D01*
X176271564Y-127386743D01*
X176271565Y-127386749D01*
X176299296Y-127509797D01*
X176321346Y-127607642D01*
X176323288Y-127612424D01*
X176323289Y-127612428D01*
X176405862Y-127815780D01*
X176408484Y-127822237D01*
X176529501Y-128019719D01*
X176681147Y-128194784D01*
X176859349Y-128342730D01*
X177059322Y-128459584D01*
X177275694Y-128542209D01*
X177280760Y-128543240D01*
X177280761Y-128543240D01*
X177333846Y-128554040D01*
X177502656Y-128588385D01*
X177633324Y-128593176D01*
X177728949Y-128596683D01*
X177728953Y-128596683D01*
X177734113Y-128596872D01*
X177739233Y-128596216D01*
X177739235Y-128596216D01*
X177812270Y-128586860D01*
X177963847Y-128567442D01*
X177968795Y-128565957D01*
X177968802Y-128565956D01*
X178180747Y-128502369D01*
X178185690Y-128500886D01*
X178266236Y-128461427D01*
X178389049Y-128401262D01*
X178389052Y-128401260D01*
X178393684Y-128398991D01*
X178582243Y-128264494D01*
X178746303Y-128101005D01*
X178881458Y-127912917D01*
X178888694Y-127898277D01*
X178981784Y-127709922D01*
X178981785Y-127709920D01*
X178984078Y-127705280D01*
X179051408Y-127483671D01*
X179081640Y-127254041D01*
X179083327Y-127185000D01*
X179073592Y-127066590D01*
X179064773Y-126959318D01*
X179064772Y-126959312D01*
X179064349Y-126954167D01*
X179007925Y-126729533D01*
X179005866Y-126724797D01*
X178917630Y-126521868D01*
X178917628Y-126521865D01*
X178915570Y-126517131D01*
X178789764Y-126322665D01*
X178633887Y-126151358D01*
X178629836Y-126148159D01*
X178629832Y-126148155D01*
X178456177Y-126011011D01*
X178456172Y-126011008D01*
X178452123Y-126007810D01*
X178447607Y-126005317D01*
X178447604Y-126005315D01*
X178253879Y-125898373D01*
X178253875Y-125898371D01*
X178249355Y-125895876D01*
X178244486Y-125894152D01*
X178244482Y-125894150D01*
X178035903Y-125820288D01*
X178035899Y-125820287D01*
X178031028Y-125818562D01*
X178025935Y-125817655D01*
X178025932Y-125817654D01*
X177808095Y-125778851D01*
X177808089Y-125778850D01*
X177803006Y-125777945D01*
X177730096Y-125777054D01*
X177576581Y-125775179D01*
X177576579Y-125775179D01*
X177571411Y-125775116D01*
X177342464Y-125810150D01*
X177122314Y-125882106D01*
X177117726Y-125884494D01*
X177117722Y-125884496D01*
X176921461Y-125986663D01*
X176916872Y-125989052D01*
X176912739Y-125992155D01*
X176912736Y-125992157D01*
X176735790Y-126125012D01*
X176731655Y-126128117D01*
X176571639Y-126295564D01*
X176568725Y-126299836D01*
X176568724Y-126299837D01*
X176553152Y-126322665D01*
X176441119Y-126486899D01*
X176343602Y-126696981D01*
X176281707Y-126920169D01*
X176257095Y-127150469D01*
X175871763Y-127150469D01*
X175884115Y-127104371D01*
X175903307Y-126885000D01*
X175884115Y-126665629D01*
X175827120Y-126452924D01*
X175768252Y-126326680D01*
X175736382Y-126258334D01*
X175736379Y-126258329D01*
X175734056Y-126253347D01*
X175703600Y-126209851D01*
X175610908Y-126077473D01*
X175610906Y-126077470D01*
X175607749Y-126072962D01*
X175452038Y-125917251D01*
X175405260Y-125884496D01*
X175311096Y-125818562D01*
X175271654Y-125790944D01*
X175072076Y-125697880D01*
X174859371Y-125640885D01*
X174640000Y-125621693D01*
X174420629Y-125640885D01*
X174207924Y-125697880D01*
X174148015Y-125725816D01*
X174013334Y-125788618D01*
X174013329Y-125788621D01*
X174008347Y-125790944D01*
X174003840Y-125794100D01*
X174003838Y-125794101D01*
X173832473Y-125914092D01*
X173832470Y-125914094D01*
X173827962Y-125917251D01*
X173672251Y-126072962D01*
X173669094Y-126077470D01*
X173669092Y-126077473D01*
X173576400Y-126209851D01*
X173545944Y-126253347D01*
X173543621Y-126258329D01*
X173543618Y-126258334D01*
X173511748Y-126326680D01*
X173452880Y-126452924D01*
X173395885Y-126665629D01*
X173376693Y-126885000D01*
X131123701Y-126885000D01*
X131114852Y-126777361D01*
X131060431Y-126560702D01*
X130971354Y-126355840D01*
X130884444Y-126221498D01*
X130852822Y-126172617D01*
X130852820Y-126172614D01*
X130850014Y-126168277D01*
X130846540Y-126164459D01*
X130846533Y-126164450D01*
X130702435Y-126006088D01*
X130671383Y-125942242D01*
X130679779Y-125871744D01*
X130724956Y-125816976D01*
X130751400Y-125803307D01*
X130858052Y-125763325D01*
X130873649Y-125754786D01*
X130975724Y-125678285D01*
X130988285Y-125665724D01*
X131064786Y-125563649D01*
X131073324Y-125548054D01*
X131118478Y-125427606D01*
X131122105Y-125412351D01*
X131127631Y-125361486D01*
X131128000Y-125354672D01*
X131128000Y-124732115D01*
X131123525Y-124716876D01*
X131122135Y-124715671D01*
X131114452Y-124714000D01*
X129642000Y-124714000D01*
X129573879Y-124693998D01*
X129527386Y-124640342D01*
X129516000Y-124588000D01*
X129516000Y-124332000D01*
X129536002Y-124263879D01*
X129589658Y-124217386D01*
X129642000Y-124206000D01*
X131109884Y-124206000D01*
X131125123Y-124201525D01*
X131126328Y-124200135D01*
X131127999Y-124192452D01*
X131127999Y-123565331D01*
X131127629Y-123558510D01*
X131122105Y-123507648D01*
X131118479Y-123492396D01*
X131073324Y-123371946D01*
X131064786Y-123356351D01*
X130988285Y-123254276D01*
X130975724Y-123241715D01*
X130873649Y-123165214D01*
X130858054Y-123156676D01*
X130747813Y-123115348D01*
X130691049Y-123072706D01*
X130666349Y-123006145D01*
X130681557Y-122936796D01*
X130703104Y-122908115D01*
X130804430Y-122807144D01*
X130804440Y-122807132D01*
X130808096Y-122803489D01*
X130846420Y-122750156D01*
X130935435Y-122626277D01*
X130938453Y-122622077D01*
X130969766Y-122558721D01*
X131035136Y-122426453D01*
X131035137Y-122426451D01*
X131037430Y-122421811D01*
X131102370Y-122208069D01*
X131125156Y-122035000D01*
X173376693Y-122035000D01*
X173395885Y-122254371D01*
X173452880Y-122467076D01*
X173495615Y-122558721D01*
X173543618Y-122661666D01*
X173543621Y-122661671D01*
X173545944Y-122666653D01*
X173549100Y-122671160D01*
X173549101Y-122671162D01*
X173667420Y-122840138D01*
X173672251Y-122847038D01*
X173827962Y-123002749D01*
X173832471Y-123005906D01*
X173832473Y-123005908D01*
X173896708Y-123050886D01*
X174008346Y-123129056D01*
X174207924Y-123222120D01*
X174420629Y-123279115D01*
X174640000Y-123298307D01*
X174859371Y-123279115D01*
X175072076Y-123222120D01*
X175271654Y-123129056D01*
X175383292Y-123050886D01*
X175447527Y-123005908D01*
X175447529Y-123005906D01*
X175452038Y-123002749D01*
X175607749Y-122847038D01*
X175612581Y-122840138D01*
X175730899Y-122671162D01*
X175730900Y-122671160D01*
X175734056Y-122666653D01*
X175736379Y-122661671D01*
X175736382Y-122661666D01*
X175784385Y-122558721D01*
X175827120Y-122467076D01*
X175884115Y-122254371D01*
X175903307Y-122035000D01*
X175884115Y-121815629D01*
X175853258Y-121700469D01*
X176257095Y-121700469D01*
X176257392Y-121705622D01*
X176257392Y-121705625D01*
X176266540Y-121864277D01*
X176270427Y-121931697D01*
X176271564Y-121936743D01*
X176271565Y-121936749D01*
X176294941Y-122040475D01*
X176321346Y-122157642D01*
X176323288Y-122162424D01*
X176323289Y-122162428D01*
X176390885Y-122328896D01*
X176408484Y-122372237D01*
X176529501Y-122569719D01*
X176681147Y-122744784D01*
X176859349Y-122892730D01*
X177059322Y-123009584D01*
X177275694Y-123092209D01*
X177280760Y-123093240D01*
X177280761Y-123093240D01*
X177333846Y-123104040D01*
X177502656Y-123138385D01*
X177633324Y-123143176D01*
X177728949Y-123146683D01*
X177728953Y-123146683D01*
X177734113Y-123146872D01*
X177739233Y-123146216D01*
X177739235Y-123146216D01*
X177812270Y-123136860D01*
X177963847Y-123117442D01*
X177968795Y-123115957D01*
X177968802Y-123115956D01*
X178180747Y-123052369D01*
X178185690Y-123050886D01*
X178214786Y-123036632D01*
X178389049Y-122951262D01*
X178389052Y-122951260D01*
X178393684Y-122948991D01*
X178582243Y-122814494D01*
X178746303Y-122651005D01*
X178881458Y-122462917D01*
X178893330Y-122438897D01*
X178981784Y-122259922D01*
X178981785Y-122259920D01*
X178984078Y-122255280D01*
X179051408Y-122033671D01*
X179081640Y-121804041D01*
X179083327Y-121735000D01*
X179072905Y-121608235D01*
X179064773Y-121509318D01*
X179064772Y-121509312D01*
X179064349Y-121504167D01*
X179007925Y-121279533D01*
X179004429Y-121271492D01*
X178917630Y-121071868D01*
X178917628Y-121071865D01*
X178915570Y-121067131D01*
X178789764Y-120872665D01*
X178767212Y-120847880D01*
X178707357Y-120782101D01*
X178633887Y-120701358D01*
X178629836Y-120698159D01*
X178629832Y-120698155D01*
X178456177Y-120561011D01*
X178456172Y-120561008D01*
X178452123Y-120557810D01*
X178447607Y-120555317D01*
X178447604Y-120555315D01*
X178253879Y-120448373D01*
X178253875Y-120448371D01*
X178249355Y-120445876D01*
X178244486Y-120444152D01*
X178244482Y-120444150D01*
X178035903Y-120370288D01*
X178035899Y-120370287D01*
X178031028Y-120368562D01*
X178025935Y-120367655D01*
X178025932Y-120367654D01*
X177808095Y-120328851D01*
X177808089Y-120328850D01*
X177803006Y-120327945D01*
X177730096Y-120327054D01*
X177576581Y-120325179D01*
X177576579Y-120325179D01*
X177571411Y-120325116D01*
X177342464Y-120360150D01*
X177122314Y-120432106D01*
X177117726Y-120434494D01*
X177117722Y-120434496D01*
X176973656Y-120509492D01*
X176916872Y-120539052D01*
X176912739Y-120542155D01*
X176912736Y-120542157D01*
X176735790Y-120675012D01*
X176731655Y-120678117D01*
X176722875Y-120687305D01*
X176626840Y-120787800D01*
X176571639Y-120845564D01*
X176568725Y-120849836D01*
X176568724Y-120849837D01*
X176553152Y-120872665D01*
X176441119Y-121036899D01*
X176343602Y-121246981D01*
X176281707Y-121470169D01*
X176257095Y-121700469D01*
X175853258Y-121700469D01*
X175827120Y-121602924D01*
X175753978Y-121446069D01*
X175736382Y-121408334D01*
X175736379Y-121408329D01*
X175734056Y-121403347D01*
X175730899Y-121398838D01*
X175610908Y-121227473D01*
X175610906Y-121227470D01*
X175607749Y-121222962D01*
X175452038Y-121067251D01*
X175445672Y-121062793D01*
X175372759Y-121011739D01*
X175271654Y-120940944D01*
X175072076Y-120847880D01*
X174859371Y-120790885D01*
X174640000Y-120771693D01*
X174420629Y-120790885D01*
X174207924Y-120847880D01*
X174114562Y-120891415D01*
X174013334Y-120938618D01*
X174013329Y-120938621D01*
X174008347Y-120940944D01*
X174003840Y-120944100D01*
X174003838Y-120944101D01*
X173832473Y-121064092D01*
X173832470Y-121064094D01*
X173827962Y-121067251D01*
X173672251Y-121222962D01*
X173669094Y-121227470D01*
X173669092Y-121227473D01*
X173549101Y-121398838D01*
X173545944Y-121403347D01*
X173543621Y-121408329D01*
X173543618Y-121408334D01*
X173526022Y-121446069D01*
X173452880Y-121602924D01*
X173395885Y-121815629D01*
X173376693Y-122035000D01*
X131125156Y-122035000D01*
X131131529Y-121986590D01*
X131132870Y-121931697D01*
X131133074Y-121923365D01*
X131133074Y-121923361D01*
X131133156Y-121920000D01*
X131114852Y-121697361D01*
X131060431Y-121480702D01*
X130971354Y-121275840D01*
X130888871Y-121148340D01*
X130852822Y-121092617D01*
X130852820Y-121092614D01*
X130850014Y-121088277D01*
X130699670Y-120923051D01*
X130695619Y-120919852D01*
X130695615Y-120919848D01*
X130528414Y-120787800D01*
X130528410Y-120787798D01*
X130524359Y-120784598D01*
X130328789Y-120676638D01*
X130323920Y-120674914D01*
X130323916Y-120674912D01*
X130123087Y-120603795D01*
X130123083Y-120603794D01*
X130118212Y-120602069D01*
X130113119Y-120601162D01*
X130113116Y-120601161D01*
X129903373Y-120563800D01*
X129903367Y-120563799D01*
X129898284Y-120562894D01*
X129824452Y-120561992D01*
X129680081Y-120560228D01*
X129680079Y-120560228D01*
X129674911Y-120560165D01*
X129454091Y-120593955D01*
X129241756Y-120663357D01*
X129043607Y-120766507D01*
X129039474Y-120769610D01*
X129039471Y-120769612D01*
X128869100Y-120897530D01*
X128864965Y-120900635D01*
X128710629Y-121062138D01*
X128688097Y-121095168D01*
X128633188Y-121140169D01*
X128562664Y-121148340D01*
X128498916Y-121117086D01*
X128462186Y-121056329D01*
X128458011Y-121024162D01*
X128458011Y-116705843D01*
X128478013Y-116637722D01*
X128531669Y-116591229D01*
X128601943Y-116581125D01*
X128664496Y-116608899D01*
X128699214Y-116637722D01*
X128758126Y-116686632D01*
X128951000Y-116799338D01*
X129159692Y-116879030D01*
X129164760Y-116880061D01*
X129164763Y-116880062D01*
X129272017Y-116901883D01*
X129378597Y-116923567D01*
X129383772Y-116923757D01*
X129383774Y-116923757D01*
X129596673Y-116931564D01*
X129596677Y-116931564D01*
X129601837Y-116931753D01*
X129606957Y-116931097D01*
X129606959Y-116931097D01*
X129818288Y-116904025D01*
X129818289Y-116904025D01*
X129823416Y-116903368D01*
X129828366Y-116901883D01*
X130032429Y-116840661D01*
X130032434Y-116840659D01*
X130037384Y-116839174D01*
X130237994Y-116740896D01*
X130419860Y-116611173D01*
X130578096Y-116453489D01*
X130637354Y-116371023D01*
X130708453Y-116272077D01*
X130709776Y-116273028D01*
X130756645Y-116229857D01*
X130826580Y-116217625D01*
X130892026Y-116245144D01*
X130919875Y-116276994D01*
X130979987Y-116375088D01*
X131126250Y-116543938D01*
X131298126Y-116686632D01*
X131491000Y-116799338D01*
X131699692Y-116879030D01*
X131704760Y-116880061D01*
X131704763Y-116880062D01*
X131812017Y-116901883D01*
X131918597Y-116923567D01*
X131923772Y-116923757D01*
X131923774Y-116923757D01*
X132136673Y-116931564D01*
X132136677Y-116931564D01*
X132141837Y-116931753D01*
X132146957Y-116931097D01*
X132146959Y-116931097D01*
X132358288Y-116904025D01*
X132358289Y-116904025D01*
X132363416Y-116903368D01*
X132368366Y-116901883D01*
X132572429Y-116840661D01*
X132572434Y-116840659D01*
X132577384Y-116839174D01*
X132777994Y-116740896D01*
X132959860Y-116611173D01*
X133027331Y-116543938D01*
X133068479Y-116502933D01*
X133130851Y-116469017D01*
X133201658Y-116474205D01*
X133258419Y-116516851D01*
X133275401Y-116547954D01*
X133316676Y-116658054D01*
X133325214Y-116673649D01*
X133401715Y-116775724D01*
X133414276Y-116788285D01*
X133516351Y-116864786D01*
X133531946Y-116873324D01*
X133652394Y-116918478D01*
X133667649Y-116922105D01*
X133718514Y-116927631D01*
X133725328Y-116928000D01*
X134347885Y-116928000D01*
X134363124Y-116923525D01*
X134364329Y-116922135D01*
X134366000Y-116914452D01*
X134366000Y-114230116D01*
X134361525Y-114214877D01*
X134360135Y-114213672D01*
X134352452Y-114212001D01*
X133725331Y-114212001D01*
X133718510Y-114212371D01*
X133667648Y-114217895D01*
X133652396Y-114221521D01*
X133531946Y-114266676D01*
X133516351Y-114275214D01*
X133414276Y-114351715D01*
X133401715Y-114364276D01*
X133325214Y-114466351D01*
X133316676Y-114481946D01*
X133275297Y-114592322D01*
X133232655Y-114649087D01*
X133166093Y-114673786D01*
X133096744Y-114658578D01*
X133064121Y-114632891D01*
X133013148Y-114576873D01*
X133013142Y-114576867D01*
X133009670Y-114573051D01*
X133005615Y-114569848D01*
X132886407Y-114475703D01*
X132845345Y-114417785D01*
X132838500Y-114376821D01*
X132838500Y-107315000D01*
X133306502Y-107315000D01*
X133326457Y-107543087D01*
X133327881Y-107548400D01*
X133327881Y-107548402D01*
X133340743Y-107596401D01*
X133385716Y-107764243D01*
X133388039Y-107769224D01*
X133388039Y-107769225D01*
X133480151Y-107966762D01*
X133480154Y-107966767D01*
X133482477Y-107971749D01*
X133613802Y-108159300D01*
X133775700Y-108321198D01*
X133780208Y-108324355D01*
X133780211Y-108324357D01*
X133858389Y-108379098D01*
X133963251Y-108452523D01*
X133968233Y-108454846D01*
X133968238Y-108454849D01*
X134165775Y-108546961D01*
X134170757Y-108549284D01*
X134176065Y-108550706D01*
X134176067Y-108550707D01*
X134386598Y-108607119D01*
X134386600Y-108607119D01*
X134391913Y-108608543D01*
X134620000Y-108628498D01*
X134848087Y-108608543D01*
X134853400Y-108607119D01*
X134853402Y-108607119D01*
X135063933Y-108550707D01*
X135063935Y-108550706D01*
X135069243Y-108549284D01*
X135074225Y-108546961D01*
X135271762Y-108454849D01*
X135271767Y-108454846D01*
X135276749Y-108452523D01*
X135381611Y-108379098D01*
X135459789Y-108324357D01*
X135459792Y-108324355D01*
X135464300Y-108321198D01*
X135626198Y-108159300D01*
X135757523Y-107971749D01*
X135759846Y-107966767D01*
X135759849Y-107966762D01*
X135851961Y-107769225D01*
X135851961Y-107769224D01*
X135854284Y-107764243D01*
X135899258Y-107596401D01*
X135912119Y-107548402D01*
X135912119Y-107548400D01*
X135913543Y-107543087D01*
X135933498Y-107315000D01*
X135913543Y-107086913D01*
X135912119Y-107081598D01*
X135855707Y-106871067D01*
X135855706Y-106871065D01*
X135854284Y-106865757D01*
X135824316Y-106801489D01*
X135759849Y-106663238D01*
X135759846Y-106663233D01*
X135757523Y-106658251D01*
X135626198Y-106470700D01*
X135464300Y-106308802D01*
X135459792Y-106305645D01*
X135459789Y-106305643D01*
X135381611Y-106250902D01*
X135276749Y-106177477D01*
X135271767Y-106175154D01*
X135271762Y-106175151D01*
X135074225Y-106083039D01*
X135074224Y-106083039D01*
X135069243Y-106080716D01*
X135063935Y-106079294D01*
X135063933Y-106079293D01*
X134853402Y-106022881D01*
X134853400Y-106022881D01*
X134848087Y-106021457D01*
X134620000Y-106001502D01*
X134391913Y-106021457D01*
X134386600Y-106022881D01*
X134386598Y-106022881D01*
X134176067Y-106079293D01*
X134176065Y-106079294D01*
X134170757Y-106080716D01*
X134165776Y-106083039D01*
X134165775Y-106083039D01*
X133968238Y-106175151D01*
X133968233Y-106175154D01*
X133963251Y-106177477D01*
X133858389Y-106250902D01*
X133780211Y-106305643D01*
X133780208Y-106305645D01*
X133775700Y-106308802D01*
X133613802Y-106470700D01*
X133482477Y-106658251D01*
X133480154Y-106663233D01*
X133480151Y-106663238D01*
X133415684Y-106801489D01*
X133385716Y-106865757D01*
X133384294Y-106871065D01*
X133384293Y-106871067D01*
X133327881Y-107081598D01*
X133326457Y-107086913D01*
X133306502Y-107315000D01*
X132838500Y-107315000D01*
X132838500Y-106030371D01*
X132858502Y-105962250D01*
X132875405Y-105941276D01*
X140188911Y-98627770D01*
X140203323Y-98615384D01*
X140214918Y-98606851D01*
X140214923Y-98606846D01*
X140220818Y-98602508D01*
X140225557Y-98596930D01*
X140225560Y-98596927D01*
X140255035Y-98562232D01*
X140261965Y-98554716D01*
X140267660Y-98549021D01*
X140285281Y-98526749D01*
X140288072Y-98523345D01*
X140330591Y-98473297D01*
X140330592Y-98473295D01*
X140335333Y-98467715D01*
X140338661Y-98461199D01*
X140342028Y-98456150D01*
X140345195Y-98451021D01*
X140349734Y-98445284D01*
X140380655Y-98379125D01*
X140382561Y-98375225D01*
X140405855Y-98329607D01*
X140415769Y-98310192D01*
X140417508Y-98303084D01*
X140419607Y-98297441D01*
X140421524Y-98291678D01*
X140424622Y-98285050D01*
X140439487Y-98213583D01*
X140440457Y-98209299D01*
X140456473Y-98143845D01*
X140457808Y-98138390D01*
X140458500Y-98127236D01*
X140458536Y-98127238D01*
X140458775Y-98123245D01*
X140459149Y-98119053D01*
X140460640Y-98111885D01*
X140458546Y-98034479D01*
X140458500Y-98031072D01*
X140458500Y-92632632D01*
X140478502Y-92564511D01*
X140511331Y-92530054D01*
X140579860Y-92481173D01*
X140590012Y-92471057D01*
X140668884Y-92392460D01*
X140738096Y-92323489D01*
X140868453Y-92142077D01*
X140872700Y-92133485D01*
X140965136Y-91946453D01*
X140965137Y-91946451D01*
X140967430Y-91941811D01*
X141032370Y-91728069D01*
X141061529Y-91506590D01*
X141063156Y-91440000D01*
X141044852Y-91217361D01*
X140990431Y-91000702D01*
X140901354Y-90795840D01*
X140836290Y-90695267D01*
X140782822Y-90612617D01*
X140782820Y-90612614D01*
X140780014Y-90608277D01*
X140629670Y-90443051D01*
X140625619Y-90439852D01*
X140625615Y-90439848D01*
X140458414Y-90307800D01*
X140458410Y-90307798D01*
X140454359Y-90304598D01*
X140258789Y-90196638D01*
X140253920Y-90194914D01*
X140253916Y-90194912D01*
X140053087Y-90123795D01*
X140053083Y-90123794D01*
X140048212Y-90122069D01*
X140043119Y-90121162D01*
X140043116Y-90121161D01*
X139833373Y-90083800D01*
X139833367Y-90083799D01*
X139828284Y-90082894D01*
X139754452Y-90081992D01*
X139610081Y-90080228D01*
X139610079Y-90080228D01*
X139604911Y-90080165D01*
X139384091Y-90113955D01*
X139171756Y-90183357D01*
X138973607Y-90286507D01*
X138969474Y-90289610D01*
X138969471Y-90289612D01*
X138799100Y-90417530D01*
X138794965Y-90420635D01*
X138791393Y-90424373D01*
X138683729Y-90537037D01*
X138640629Y-90582138D01*
X138533201Y-90739621D01*
X138478293Y-90784621D01*
X138407768Y-90792792D01*
X138344021Y-90761538D01*
X138323324Y-90737054D01*
X138242822Y-90612617D01*
X138242820Y-90612614D01*
X138240014Y-90608277D01*
X138089670Y-90443051D01*
X138085619Y-90439852D01*
X138085615Y-90439848D01*
X137918414Y-90307800D01*
X137918410Y-90307798D01*
X137914359Y-90304598D01*
X137718789Y-90196638D01*
X137713920Y-90194914D01*
X137713916Y-90194912D01*
X137513087Y-90123795D01*
X137513083Y-90123794D01*
X137508212Y-90122069D01*
X137503119Y-90121162D01*
X137503116Y-90121161D01*
X137293373Y-90083800D01*
X137293367Y-90083799D01*
X137288284Y-90082894D01*
X137214452Y-90081992D01*
X137070081Y-90080228D01*
X137070079Y-90080228D01*
X137064911Y-90080165D01*
X136844091Y-90113955D01*
X136631756Y-90183357D01*
X136433607Y-90286507D01*
X136429474Y-90289610D01*
X136429471Y-90289612D01*
X136259100Y-90417530D01*
X136254965Y-90420635D01*
X136251393Y-90424373D01*
X136143729Y-90537037D01*
X136100629Y-90582138D01*
X135993201Y-90739621D01*
X135938293Y-90784621D01*
X135867768Y-90792792D01*
X135804021Y-90761538D01*
X135783324Y-90737054D01*
X135702822Y-90612617D01*
X135702820Y-90612614D01*
X135700014Y-90608277D01*
X135549670Y-90443051D01*
X135545619Y-90439852D01*
X135545615Y-90439848D01*
X135378414Y-90307800D01*
X135378410Y-90307798D01*
X135374359Y-90304598D01*
X135178789Y-90196638D01*
X135173920Y-90194914D01*
X135173916Y-90194912D01*
X134973087Y-90123795D01*
X134973083Y-90123794D01*
X134968212Y-90122069D01*
X134963119Y-90121162D01*
X134963116Y-90121161D01*
X134753373Y-90083800D01*
X134753367Y-90083799D01*
X134748284Y-90082894D01*
X134674452Y-90081992D01*
X134530081Y-90080228D01*
X134530079Y-90080228D01*
X134524911Y-90080165D01*
X134304091Y-90113955D01*
X134091756Y-90183357D01*
X133893607Y-90286507D01*
X133889474Y-90289610D01*
X133889471Y-90289612D01*
X133719100Y-90417530D01*
X133714965Y-90420635D01*
X133711393Y-90424373D01*
X133603729Y-90537037D01*
X133560629Y-90582138D01*
X133453201Y-90739621D01*
X133398293Y-90784621D01*
X133327768Y-90792792D01*
X133264021Y-90761538D01*
X133243324Y-90737054D01*
X133162822Y-90612617D01*
X133162820Y-90612614D01*
X133160014Y-90608277D01*
X133009670Y-90443051D01*
X133005619Y-90439852D01*
X133005615Y-90439848D01*
X132838414Y-90307800D01*
X132838410Y-90307798D01*
X132834359Y-90304598D01*
X132638789Y-90196638D01*
X132633920Y-90194914D01*
X132633916Y-90194912D01*
X132433087Y-90123795D01*
X132433083Y-90123794D01*
X132428212Y-90122069D01*
X132423119Y-90121162D01*
X132423116Y-90121161D01*
X132213373Y-90083800D01*
X132213367Y-90083799D01*
X132208284Y-90082894D01*
X132134452Y-90081992D01*
X131990081Y-90080228D01*
X131990079Y-90080228D01*
X131984911Y-90080165D01*
X131764091Y-90113955D01*
X131551756Y-90183357D01*
X131353607Y-90286507D01*
X131349474Y-90289610D01*
X131349471Y-90289612D01*
X131179100Y-90417530D01*
X131174965Y-90420635D01*
X131171393Y-90424373D01*
X131063729Y-90537037D01*
X131020629Y-90582138D01*
X130913201Y-90739621D01*
X130858293Y-90784621D01*
X130787768Y-90792792D01*
X130724021Y-90761538D01*
X130703324Y-90737054D01*
X130622822Y-90612617D01*
X130622820Y-90612614D01*
X130620014Y-90608277D01*
X130469670Y-90443051D01*
X130465619Y-90439852D01*
X130465615Y-90439848D01*
X130298414Y-90307800D01*
X130298410Y-90307798D01*
X130294359Y-90304598D01*
X130098789Y-90196638D01*
X130093920Y-90194914D01*
X130093916Y-90194912D01*
X129893087Y-90123795D01*
X129893083Y-90123794D01*
X129888212Y-90122069D01*
X129883119Y-90121162D01*
X129883116Y-90121161D01*
X129673373Y-90083800D01*
X129673367Y-90083799D01*
X129668284Y-90082894D01*
X129594452Y-90081992D01*
X129450081Y-90080228D01*
X129450079Y-90080228D01*
X129444911Y-90080165D01*
X129224091Y-90113955D01*
X129011756Y-90183357D01*
X128813607Y-90286507D01*
X128809474Y-90289610D01*
X128809471Y-90289612D01*
X128639100Y-90417530D01*
X128634965Y-90420635D01*
X128578537Y-90479684D01*
X128554283Y-90505064D01*
X128492759Y-90540494D01*
X128421846Y-90537037D01*
X128364060Y-90495791D01*
X128345207Y-90462243D01*
X128303767Y-90351703D01*
X128300615Y-90343295D01*
X128213261Y-90226739D01*
X128096705Y-90139385D01*
X127960316Y-90088255D01*
X127898134Y-90081500D01*
X126106500Y-90081500D01*
X126038379Y-90061498D01*
X125991886Y-90007842D01*
X125980500Y-89955500D01*
X125980500Y-85852000D01*
X139802496Y-85852000D01*
X139822458Y-86041928D01*
X139881473Y-86223556D01*
X139976960Y-86388944D01*
X140104747Y-86530866D01*
X140259248Y-86643118D01*
X140265276Y-86645802D01*
X140265278Y-86645803D01*
X140427681Y-86718109D01*
X140433712Y-86720794D01*
X140440167Y-86722166D01*
X140440176Y-86722169D01*
X140496772Y-86734199D01*
X140559669Y-86768350D01*
X141444595Y-87653276D01*
X141478621Y-87715588D01*
X141481500Y-87742371D01*
X141481500Y-98277775D01*
X141461498Y-98345896D01*
X141407842Y-98392389D01*
X141379373Y-98401242D01*
X141376913Y-98401457D01*
X141371599Y-98402881D01*
X141161067Y-98459293D01*
X141161065Y-98459294D01*
X141155757Y-98460716D01*
X141150776Y-98463039D01*
X141150775Y-98463039D01*
X140953238Y-98555151D01*
X140953233Y-98555154D01*
X140948251Y-98557477D01*
X140846500Y-98628724D01*
X140765211Y-98685643D01*
X140765208Y-98685645D01*
X140760700Y-98688802D01*
X140598802Y-98850700D01*
X140467477Y-99038251D01*
X140465154Y-99043233D01*
X140465151Y-99043238D01*
X140373039Y-99240775D01*
X140370716Y-99245757D01*
X140369294Y-99251065D01*
X140369293Y-99251067D01*
X140315625Y-99451357D01*
X140311457Y-99466913D01*
X140291502Y-99695000D01*
X140311457Y-99923087D01*
X140312881Y-99928400D01*
X140312881Y-99928402D01*
X140325743Y-99976401D01*
X140370716Y-100144243D01*
X140373039Y-100149224D01*
X140373039Y-100149225D01*
X140465151Y-100346762D01*
X140465154Y-100346767D01*
X140467477Y-100351749D01*
X140598802Y-100539300D01*
X140760700Y-100701198D01*
X140765208Y-100704355D01*
X140765211Y-100704357D01*
X140843389Y-100759098D01*
X140948251Y-100832523D01*
X140953233Y-100834846D01*
X140953238Y-100834849D01*
X141150775Y-100926961D01*
X141155757Y-100929284D01*
X141161065Y-100930706D01*
X141161067Y-100930707D01*
X141371598Y-100987119D01*
X141371600Y-100987119D01*
X141376913Y-100988543D01*
X141605000Y-101008498D01*
X141833087Y-100988543D01*
X141838400Y-100987119D01*
X141838402Y-100987119D01*
X142048933Y-100930707D01*
X142048935Y-100930706D01*
X142054243Y-100929284D01*
X142059225Y-100926961D01*
X142256762Y-100834849D01*
X142256767Y-100834846D01*
X142261749Y-100832523D01*
X142366611Y-100759098D01*
X142444789Y-100704357D01*
X142444792Y-100704355D01*
X142449300Y-100701198D01*
X142611198Y-100539300D01*
X142742523Y-100351749D01*
X142744846Y-100346767D01*
X142744849Y-100346762D01*
X142836961Y-100149225D01*
X142836961Y-100149224D01*
X142839284Y-100144243D01*
X142884258Y-99976401D01*
X142897119Y-99928402D01*
X142897119Y-99928400D01*
X142898543Y-99923087D01*
X142918498Y-99695000D01*
X142899687Y-99479987D01*
X142911059Y-99415658D01*
X142920648Y-99395140D01*
X142922560Y-99391227D01*
X142955769Y-99326192D01*
X142957510Y-99319077D01*
X142959613Y-99313422D01*
X142961522Y-99307683D01*
X142964622Y-99301050D01*
X142979491Y-99229565D01*
X142980461Y-99225282D01*
X142986762Y-99199531D01*
X142997808Y-99154390D01*
X142998500Y-99143236D01*
X142998535Y-99143238D01*
X142998775Y-99139266D01*
X142999152Y-99135045D01*
X143000641Y-99127885D01*
X142998546Y-99050458D01*
X142998500Y-99047050D01*
X142998500Y-87443063D01*
X142999933Y-87424114D01*
X143002097Y-87409886D01*
X143003198Y-87402651D01*
X143002035Y-87388345D01*
X142998915Y-87349991D01*
X142998500Y-87339777D01*
X142998500Y-87331707D01*
X142998078Y-87328087D01*
X142998077Y-87328069D01*
X142995208Y-87303461D01*
X142994775Y-87299086D01*
X142989454Y-87233661D01*
X142989453Y-87233658D01*
X142988860Y-87226363D01*
X142986604Y-87219399D01*
X142985413Y-87213440D01*
X142984029Y-87207585D01*
X142983182Y-87200319D01*
X142958265Y-87131673D01*
X142956848Y-87127545D01*
X142936607Y-87065064D01*
X142936606Y-87065062D01*
X142934351Y-87058101D01*
X142930555Y-87051846D01*
X142928049Y-87046372D01*
X142925330Y-87040942D01*
X142922833Y-87034063D01*
X142882809Y-86973016D01*
X142880472Y-86969312D01*
X142845509Y-86911693D01*
X142845505Y-86911688D01*
X142842595Y-86906892D01*
X142835197Y-86898516D01*
X142835223Y-86898493D01*
X142832574Y-86895503D01*
X142829866Y-86892264D01*
X142825856Y-86886148D01*
X142820549Y-86881121D01*
X142820546Y-86881117D01*
X142769617Y-86832872D01*
X142767175Y-86830494D01*
X141636125Y-85699444D01*
X141605387Y-85649285D01*
X141552569Y-85486729D01*
X141550527Y-85480444D01*
X141536629Y-85456371D01*
X141458341Y-85320774D01*
X141455040Y-85315056D01*
X141422067Y-85278435D01*
X141331675Y-85178045D01*
X141331674Y-85178044D01*
X141327253Y-85173134D01*
X141172752Y-85060882D01*
X141166724Y-85058198D01*
X141166722Y-85058197D01*
X141004319Y-84985891D01*
X141004318Y-84985891D01*
X140998288Y-84983206D01*
X140888464Y-84959862D01*
X140817944Y-84944872D01*
X140817939Y-84944872D01*
X140811487Y-84943500D01*
X140620513Y-84943500D01*
X140614061Y-84944872D01*
X140614056Y-84944872D01*
X140543536Y-84959862D01*
X140433712Y-84983206D01*
X140427682Y-84985891D01*
X140427681Y-84985891D01*
X140265278Y-85058197D01*
X140265276Y-85058198D01*
X140259248Y-85060882D01*
X140104747Y-85173134D01*
X140100326Y-85178044D01*
X140100325Y-85178045D01*
X140009934Y-85278435D01*
X139976960Y-85315056D01*
X139973659Y-85320774D01*
X139895372Y-85456371D01*
X139881473Y-85480444D01*
X139822458Y-85662072D01*
X139802496Y-85852000D01*
X125980500Y-85852000D01*
X125980500Y-85456371D01*
X126000502Y-85388250D01*
X126017405Y-85367276D01*
X126069756Y-85314925D01*
X126132068Y-85280899D01*
X126158851Y-85278020D01*
X133853410Y-85278020D01*
X133872360Y-85279453D01*
X133886595Y-85281619D01*
X133886599Y-85281619D01*
X133893829Y-85282719D01*
X133901121Y-85282126D01*
X133901124Y-85282126D01*
X133946498Y-85278435D01*
X133956713Y-85278020D01*
X133964773Y-85278020D01*
X133978063Y-85276471D01*
X133992987Y-85274731D01*
X133997362Y-85274298D01*
X134062819Y-85268974D01*
X134062822Y-85268973D01*
X134070117Y-85268380D01*
X134077081Y-85266124D01*
X134083040Y-85264933D01*
X134088895Y-85263549D01*
X134096161Y-85262702D01*
X134164807Y-85237785D01*
X134168935Y-85236368D01*
X134231416Y-85216127D01*
X134231418Y-85216126D01*
X134238379Y-85213871D01*
X134244634Y-85210075D01*
X134250108Y-85207569D01*
X134255538Y-85204850D01*
X134262417Y-85202353D01*
X134323456Y-85162334D01*
X134327160Y-85159997D01*
X134389587Y-85122115D01*
X134397964Y-85114717D01*
X134397988Y-85114744D01*
X134400980Y-85112091D01*
X134404213Y-85109388D01*
X134410332Y-85105376D01*
X134463608Y-85049137D01*
X134465986Y-85046695D01*
X136851441Y-82661240D01*
X136913753Y-82627214D01*
X136965657Y-82626865D01*
X136998597Y-82633567D01*
X137003772Y-82633757D01*
X137003774Y-82633757D01*
X137216673Y-82641564D01*
X137216677Y-82641564D01*
X137221837Y-82641753D01*
X137226957Y-82641097D01*
X137226959Y-82641097D01*
X137438288Y-82614025D01*
X137438289Y-82614025D01*
X137443416Y-82613368D01*
X137448366Y-82611883D01*
X137652429Y-82550661D01*
X137652434Y-82550659D01*
X137657384Y-82549174D01*
X137857994Y-82450896D01*
X138039860Y-82321173D01*
X138198096Y-82163489D01*
X138261391Y-82075405D01*
X138328453Y-81982077D01*
X138329776Y-81983028D01*
X138376645Y-81939857D01*
X138446580Y-81927625D01*
X138512026Y-81955144D01*
X138539875Y-81986994D01*
X138599987Y-82085088D01*
X138746250Y-82253938D01*
X138918126Y-82396632D01*
X139111000Y-82509338D01*
X139319692Y-82589030D01*
X139324760Y-82590061D01*
X139324763Y-82590062D01*
X139432017Y-82611883D01*
X139538597Y-82633567D01*
X139543772Y-82633757D01*
X139543774Y-82633757D01*
X139756673Y-82641564D01*
X139756677Y-82641564D01*
X139761837Y-82641753D01*
X139766957Y-82641097D01*
X139766959Y-82641097D01*
X139978288Y-82614025D01*
X139978289Y-82614025D01*
X139983416Y-82613368D01*
X139988366Y-82611883D01*
X140192429Y-82550661D01*
X140192434Y-82550659D01*
X140197384Y-82549174D01*
X140397994Y-82450896D01*
X140579860Y-82321173D01*
X140738096Y-82163489D01*
X140868453Y-81982077D01*
X140889320Y-81939857D01*
X140965136Y-81786453D01*
X140965137Y-81786451D01*
X140967430Y-81781811D01*
X141032370Y-81568069D01*
X141061529Y-81346590D01*
X141063156Y-81280000D01*
X141045870Y-81069747D01*
X141060223Y-81000219D01*
X141082351Y-80970330D01*
X141309765Y-80742916D01*
X141372077Y-80708890D01*
X141398860Y-80706011D01*
X154698603Y-80706011D01*
X154766724Y-80726013D01*
X154813217Y-80779669D01*
X154823321Y-80849943D01*
X154793827Y-80914523D01*
X154787698Y-80921106D01*
X143654068Y-92054736D01*
X143639656Y-92067122D01*
X143628061Y-92075655D01*
X143628056Y-92075660D01*
X143622161Y-92079998D01*
X143617422Y-92085576D01*
X143617419Y-92085579D01*
X143587944Y-92120274D01*
X143581014Y-92127790D01*
X143575319Y-92133485D01*
X143573039Y-92136367D01*
X143557698Y-92155757D01*
X143554907Y-92159161D01*
X143521486Y-92198500D01*
X143507646Y-92214791D01*
X143504318Y-92221307D01*
X143500951Y-92226356D01*
X143497784Y-92231485D01*
X143493245Y-92237222D01*
X143462324Y-92303381D01*
X143460421Y-92307275D01*
X143427210Y-92372314D01*
X143425471Y-92379422D01*
X143423372Y-92385065D01*
X143421455Y-92390828D01*
X143418357Y-92397456D01*
X143416867Y-92404618D01*
X143416867Y-92404619D01*
X143403493Y-92468918D01*
X143402523Y-92473202D01*
X143385171Y-92544116D01*
X143384823Y-92549718D01*
X143384823Y-92549721D01*
X143384479Y-92555268D01*
X143384479Y-92555270D01*
X143384443Y-92555268D01*
X143384204Y-92559261D01*
X143383830Y-92563453D01*
X143382339Y-92570621D01*
X143382537Y-92577938D01*
X143384433Y-92648027D01*
X143384479Y-92651434D01*
X143384479Y-100346650D01*
X143364477Y-100414771D01*
X143347574Y-100435745D01*
X136671089Y-107112230D01*
X136656677Y-107124616D01*
X136645082Y-107133149D01*
X136645077Y-107133154D01*
X136639182Y-107137492D01*
X136634443Y-107143070D01*
X136634440Y-107143073D01*
X136604965Y-107177768D01*
X136598035Y-107185284D01*
X136592340Y-107190979D01*
X136590060Y-107193861D01*
X136574719Y-107213251D01*
X136571928Y-107216655D01*
X136531137Y-107264669D01*
X136524667Y-107272285D01*
X136521339Y-107278801D01*
X136517972Y-107283850D01*
X136514805Y-107288979D01*
X136510266Y-107294716D01*
X136479345Y-107360875D01*
X136477442Y-107364769D01*
X136444231Y-107429808D01*
X136442492Y-107436916D01*
X136440393Y-107442559D01*
X136438476Y-107448322D01*
X136435378Y-107454950D01*
X136433888Y-107462112D01*
X136433888Y-107462113D01*
X136420514Y-107526412D01*
X136419544Y-107530696D01*
X136402192Y-107601610D01*
X136401500Y-107612764D01*
X136401464Y-107612762D01*
X136401225Y-107616755D01*
X136400851Y-107620947D01*
X136399360Y-107628115D01*
X136399558Y-107635432D01*
X136401454Y-107705521D01*
X136401500Y-107708928D01*
X136401500Y-114377655D01*
X136381498Y-114445776D01*
X136351153Y-114478415D01*
X136259100Y-114547530D01*
X136254965Y-114550635D01*
X136251393Y-114554373D01*
X136173898Y-114635466D01*
X136112374Y-114670895D01*
X136041462Y-114667438D01*
X135983676Y-114626192D01*
X135964823Y-114592644D01*
X135923324Y-114481946D01*
X135914786Y-114466351D01*
X135838285Y-114364276D01*
X135825724Y-114351715D01*
X135723649Y-114275214D01*
X135708054Y-114266676D01*
X135587606Y-114221522D01*
X135572351Y-114217895D01*
X135521486Y-114212369D01*
X135514672Y-114212000D01*
X134892115Y-114212000D01*
X134876876Y-114216475D01*
X134875671Y-114217865D01*
X134874000Y-114225548D01*
X134874000Y-116909884D01*
X134878475Y-116925123D01*
X134879865Y-116926328D01*
X134887548Y-116927999D01*
X135514669Y-116927999D01*
X135521490Y-116927629D01*
X135572352Y-116922105D01*
X135587604Y-116918479D01*
X135708054Y-116873324D01*
X135723649Y-116864786D01*
X135825724Y-116788285D01*
X135838285Y-116775724D01*
X135914786Y-116673649D01*
X135923324Y-116658054D01*
X135964225Y-116548952D01*
X136006867Y-116492188D01*
X136073428Y-116467488D01*
X136142777Y-116482696D01*
X136177444Y-116510684D01*
X136202865Y-116540031D01*
X136202869Y-116540035D01*
X136206250Y-116543938D01*
X136378126Y-116686632D01*
X136571000Y-116799338D01*
X136779692Y-116879030D01*
X136784760Y-116880061D01*
X136784763Y-116880062D01*
X136892017Y-116901883D01*
X136998597Y-116923567D01*
X137003772Y-116923757D01*
X137003774Y-116923757D01*
X137216673Y-116931564D01*
X137216677Y-116931564D01*
X137221837Y-116931753D01*
X137226957Y-116931097D01*
X137226959Y-116931097D01*
X137438288Y-116904025D01*
X137438289Y-116904025D01*
X137443416Y-116903368D01*
X137448366Y-116901883D01*
X137652429Y-116840661D01*
X137652434Y-116840659D01*
X137657384Y-116839174D01*
X137857994Y-116740896D01*
X138039860Y-116611173D01*
X138198096Y-116453489D01*
X138257354Y-116371023D01*
X138328453Y-116272077D01*
X138329776Y-116273028D01*
X138376645Y-116229857D01*
X138446580Y-116217625D01*
X138512026Y-116245144D01*
X138539875Y-116276994D01*
X138599987Y-116375088D01*
X138746250Y-116543938D01*
X138918126Y-116686632D01*
X139111000Y-116799338D01*
X139319692Y-116879030D01*
X139324760Y-116880061D01*
X139324763Y-116880062D01*
X139432017Y-116901883D01*
X139538597Y-116923567D01*
X139543772Y-116923757D01*
X139543774Y-116923757D01*
X139756673Y-116931564D01*
X139756677Y-116931564D01*
X139761837Y-116931753D01*
X139766957Y-116931097D01*
X139766959Y-116931097D01*
X139978288Y-116904025D01*
X139978289Y-116904025D01*
X139983416Y-116903368D01*
X139988366Y-116901883D01*
X140192429Y-116840661D01*
X140192434Y-116840659D01*
X140197384Y-116839174D01*
X140397994Y-116740896D01*
X140579860Y-116611173D01*
X140738096Y-116453489D01*
X140797354Y-116371023D01*
X140868453Y-116272077D01*
X140869776Y-116273028D01*
X140916645Y-116229857D01*
X140986580Y-116217625D01*
X141052026Y-116245144D01*
X141079875Y-116276994D01*
X141139987Y-116375088D01*
X141286250Y-116543938D01*
X141458126Y-116686632D01*
X141651000Y-116799338D01*
X141859692Y-116879030D01*
X141864760Y-116880061D01*
X141864763Y-116880062D01*
X141972017Y-116901883D01*
X142078597Y-116923567D01*
X142083772Y-116923757D01*
X142083774Y-116923757D01*
X142296673Y-116931564D01*
X142296677Y-116931564D01*
X142301837Y-116931753D01*
X142306957Y-116931097D01*
X142306959Y-116931097D01*
X142518288Y-116904025D01*
X142518289Y-116904025D01*
X142523416Y-116903368D01*
X142528366Y-116901883D01*
X142732429Y-116840661D01*
X142732434Y-116840659D01*
X142737384Y-116839174D01*
X142937994Y-116740896D01*
X143119860Y-116611173D01*
X143278096Y-116453489D01*
X143337354Y-116371023D01*
X143408453Y-116272077D01*
X143409776Y-116273028D01*
X143456645Y-116229857D01*
X143526580Y-116217625D01*
X143592026Y-116245144D01*
X143619875Y-116276994D01*
X143679987Y-116375088D01*
X143826250Y-116543938D01*
X143998126Y-116686632D01*
X144191000Y-116799338D01*
X144399692Y-116879030D01*
X144404760Y-116880061D01*
X144404763Y-116880062D01*
X144512017Y-116901883D01*
X144618597Y-116923567D01*
X144623772Y-116923757D01*
X144623774Y-116923757D01*
X144836673Y-116931564D01*
X144836677Y-116931564D01*
X144841837Y-116931753D01*
X144846957Y-116931097D01*
X144846959Y-116931097D01*
X145058288Y-116904025D01*
X145058289Y-116904025D01*
X145063416Y-116903368D01*
X145068366Y-116901883D01*
X145272429Y-116840661D01*
X145272434Y-116840659D01*
X145277384Y-116839174D01*
X145477994Y-116740896D01*
X145659860Y-116611173D01*
X145727331Y-116543938D01*
X145768479Y-116502933D01*
X145830851Y-116469017D01*
X145901658Y-116474205D01*
X145958419Y-116516851D01*
X145975401Y-116547954D01*
X146016676Y-116658054D01*
X146025214Y-116673649D01*
X146101715Y-116775724D01*
X146114276Y-116788285D01*
X146216351Y-116864786D01*
X146231946Y-116873324D01*
X146352394Y-116918478D01*
X146367649Y-116922105D01*
X146418514Y-116927631D01*
X146425328Y-116928000D01*
X147047885Y-116928000D01*
X147063124Y-116923525D01*
X147064329Y-116922135D01*
X147066000Y-116914452D01*
X147066000Y-116909884D01*
X147574000Y-116909884D01*
X147578475Y-116925123D01*
X147579865Y-116926328D01*
X147587548Y-116927999D01*
X148214669Y-116927999D01*
X148221490Y-116927629D01*
X148272352Y-116922105D01*
X148287604Y-116918479D01*
X148408054Y-116873324D01*
X148423649Y-116864786D01*
X148525724Y-116788285D01*
X148538285Y-116775724D01*
X148614786Y-116673649D01*
X148623324Y-116658054D01*
X148664225Y-116548952D01*
X148706867Y-116492188D01*
X148773428Y-116467488D01*
X148842777Y-116482696D01*
X148877444Y-116510684D01*
X148902865Y-116540031D01*
X148902869Y-116540035D01*
X148906250Y-116543938D01*
X149078126Y-116686632D01*
X149271000Y-116799338D01*
X149479692Y-116879030D01*
X149484760Y-116880061D01*
X149484763Y-116880062D01*
X149592017Y-116901883D01*
X149698597Y-116923567D01*
X149703772Y-116923757D01*
X149703774Y-116923757D01*
X149916673Y-116931564D01*
X149916677Y-116931564D01*
X149921837Y-116931753D01*
X149926957Y-116931097D01*
X149926959Y-116931097D01*
X150138288Y-116904025D01*
X150138289Y-116904025D01*
X150143416Y-116903368D01*
X150148366Y-116901883D01*
X150352429Y-116840661D01*
X150352434Y-116840659D01*
X150357384Y-116839174D01*
X150557994Y-116740896D01*
X150739860Y-116611173D01*
X150898096Y-116453489D01*
X150957354Y-116371023D01*
X151028453Y-116272077D01*
X151029776Y-116273028D01*
X151076645Y-116229857D01*
X151146580Y-116217625D01*
X151212026Y-116245144D01*
X151239875Y-116276994D01*
X151299987Y-116375088D01*
X151446250Y-116543938D01*
X151618126Y-116686632D01*
X151811000Y-116799338D01*
X152019692Y-116879030D01*
X152024760Y-116880061D01*
X152024763Y-116880062D01*
X152132017Y-116901883D01*
X152238597Y-116923567D01*
X152243772Y-116923757D01*
X152243774Y-116923757D01*
X152456673Y-116931564D01*
X152456677Y-116931564D01*
X152461837Y-116931753D01*
X152466957Y-116931097D01*
X152466959Y-116931097D01*
X152678288Y-116904025D01*
X152678289Y-116904025D01*
X152683416Y-116903368D01*
X152688366Y-116901883D01*
X152892429Y-116840661D01*
X152892434Y-116840659D01*
X152897384Y-116839174D01*
X153097994Y-116740896D01*
X153279860Y-116611173D01*
X153438096Y-116453489D01*
X153497354Y-116371023D01*
X153568453Y-116272077D01*
X153569776Y-116273028D01*
X153616645Y-116229857D01*
X153686580Y-116217625D01*
X153752026Y-116245144D01*
X153779875Y-116276994D01*
X153839987Y-116375088D01*
X153986250Y-116543938D01*
X154158126Y-116686632D01*
X154351000Y-116799338D01*
X154559692Y-116879030D01*
X154564760Y-116880061D01*
X154564763Y-116880062D01*
X154672017Y-116901883D01*
X154778597Y-116923567D01*
X154783772Y-116923757D01*
X154783774Y-116923757D01*
X154996673Y-116931564D01*
X154996677Y-116931564D01*
X155001837Y-116931753D01*
X155006957Y-116931097D01*
X155006959Y-116931097D01*
X155218288Y-116904025D01*
X155218289Y-116904025D01*
X155223416Y-116903368D01*
X155228366Y-116901883D01*
X155432429Y-116840661D01*
X155432434Y-116840659D01*
X155437384Y-116839174D01*
X155637994Y-116740896D01*
X155819860Y-116611173D01*
X155978096Y-116453489D01*
X156037354Y-116371023D01*
X156108453Y-116272077D01*
X156109776Y-116273028D01*
X156156645Y-116229857D01*
X156226580Y-116217625D01*
X156292026Y-116245144D01*
X156319875Y-116276994D01*
X156379987Y-116375088D01*
X156526250Y-116543938D01*
X156698126Y-116686632D01*
X156891000Y-116799338D01*
X157099692Y-116879030D01*
X157104760Y-116880061D01*
X157104763Y-116880062D01*
X157212017Y-116901883D01*
X157318597Y-116923567D01*
X157323772Y-116923757D01*
X157323774Y-116923757D01*
X157536673Y-116931564D01*
X157536677Y-116931564D01*
X157541837Y-116931753D01*
X157546957Y-116931097D01*
X157546959Y-116931097D01*
X157758288Y-116904025D01*
X157758289Y-116904025D01*
X157763416Y-116903368D01*
X157768366Y-116901883D01*
X157972429Y-116840661D01*
X157972434Y-116840659D01*
X157977384Y-116839174D01*
X158177994Y-116740896D01*
X158359860Y-116611173D01*
X158427331Y-116543938D01*
X158468479Y-116502933D01*
X158530851Y-116469017D01*
X158601658Y-116474205D01*
X158658419Y-116516851D01*
X158675401Y-116547954D01*
X158716676Y-116658054D01*
X158725214Y-116673649D01*
X158801715Y-116775724D01*
X158814276Y-116788285D01*
X158916351Y-116864786D01*
X158931946Y-116873324D01*
X159052394Y-116918478D01*
X159067649Y-116922105D01*
X159118514Y-116927631D01*
X159125328Y-116928000D01*
X159747885Y-116928000D01*
X159763124Y-116923525D01*
X159764329Y-116922135D01*
X159766000Y-116914452D01*
X159766000Y-116909884D01*
X160274000Y-116909884D01*
X160278475Y-116925123D01*
X160279865Y-116926328D01*
X160287548Y-116927999D01*
X160914669Y-116927999D01*
X160921490Y-116927629D01*
X160972352Y-116922105D01*
X160987604Y-116918479D01*
X161108054Y-116873324D01*
X161123649Y-116864786D01*
X161225724Y-116788285D01*
X161238285Y-116775724D01*
X161314786Y-116673649D01*
X161323324Y-116658054D01*
X161364225Y-116548952D01*
X161406867Y-116492188D01*
X161473428Y-116467488D01*
X161542777Y-116482696D01*
X161577444Y-116510684D01*
X161602865Y-116540031D01*
X161602869Y-116540035D01*
X161606250Y-116543938D01*
X161778126Y-116686632D01*
X161971000Y-116799338D01*
X162179692Y-116879030D01*
X162184760Y-116880061D01*
X162184763Y-116880062D01*
X162292017Y-116901883D01*
X162398597Y-116923567D01*
X162403772Y-116923757D01*
X162403774Y-116923757D01*
X162616673Y-116931564D01*
X162616677Y-116931564D01*
X162621837Y-116931753D01*
X162626957Y-116931097D01*
X162626959Y-116931097D01*
X162838288Y-116904025D01*
X162838289Y-116904025D01*
X162843416Y-116903368D01*
X162848366Y-116901883D01*
X163052429Y-116840661D01*
X163052434Y-116840659D01*
X163057384Y-116839174D01*
X163257994Y-116740896D01*
X163439860Y-116611173D01*
X163598096Y-116453489D01*
X163657354Y-116371023D01*
X163728453Y-116272077D01*
X163729776Y-116273028D01*
X163776645Y-116229857D01*
X163846580Y-116217625D01*
X163912026Y-116245144D01*
X163939875Y-116276994D01*
X163999987Y-116375088D01*
X164146250Y-116543938D01*
X164318126Y-116686632D01*
X164511000Y-116799338D01*
X164719692Y-116879030D01*
X164724760Y-116880061D01*
X164724763Y-116880062D01*
X164832017Y-116901883D01*
X164938597Y-116923567D01*
X164943772Y-116923757D01*
X164943774Y-116923757D01*
X165156673Y-116931564D01*
X165156677Y-116931564D01*
X165161837Y-116931753D01*
X165166957Y-116931097D01*
X165166959Y-116931097D01*
X165378288Y-116904025D01*
X165378289Y-116904025D01*
X165383416Y-116903368D01*
X165388366Y-116901883D01*
X165592429Y-116840661D01*
X165592434Y-116840659D01*
X165597384Y-116839174D01*
X165797994Y-116740896D01*
X165979860Y-116611173D01*
X166138096Y-116453489D01*
X166197354Y-116371023D01*
X166268453Y-116272077D01*
X166269776Y-116273028D01*
X166316645Y-116229857D01*
X166386580Y-116217625D01*
X166452026Y-116245144D01*
X166479875Y-116276994D01*
X166539987Y-116375088D01*
X166686250Y-116543938D01*
X166858126Y-116686632D01*
X167051000Y-116799338D01*
X167259692Y-116879030D01*
X167264760Y-116880061D01*
X167264763Y-116880062D01*
X167372017Y-116901883D01*
X167478597Y-116923567D01*
X167483772Y-116923757D01*
X167483774Y-116923757D01*
X167696673Y-116931564D01*
X167696677Y-116931564D01*
X167701837Y-116931753D01*
X167706957Y-116931097D01*
X167706959Y-116931097D01*
X167918288Y-116904025D01*
X167918289Y-116904025D01*
X167923416Y-116903368D01*
X167928366Y-116901883D01*
X168132429Y-116840661D01*
X168132434Y-116840659D01*
X168137384Y-116839174D01*
X168337994Y-116740896D01*
X168519860Y-116611173D01*
X168678096Y-116453489D01*
X168737354Y-116371023D01*
X168808453Y-116272077D01*
X168809776Y-116273028D01*
X168856645Y-116229857D01*
X168926580Y-116217625D01*
X168992026Y-116245144D01*
X169019875Y-116276994D01*
X169079987Y-116375088D01*
X169226250Y-116543938D01*
X169398126Y-116686632D01*
X169591000Y-116799338D01*
X169799692Y-116879030D01*
X169804760Y-116880061D01*
X169804763Y-116880062D01*
X169912017Y-116901883D01*
X170018597Y-116923567D01*
X170023772Y-116923757D01*
X170023774Y-116923757D01*
X170236673Y-116931564D01*
X170236677Y-116931564D01*
X170241837Y-116931753D01*
X170246957Y-116931097D01*
X170246959Y-116931097D01*
X170458288Y-116904025D01*
X170458289Y-116904025D01*
X170463416Y-116903368D01*
X170468366Y-116901883D01*
X170672429Y-116840661D01*
X170672434Y-116840659D01*
X170677384Y-116839174D01*
X170877994Y-116740896D01*
X171059860Y-116611173D01*
X171127331Y-116543938D01*
X171168479Y-116502933D01*
X171230851Y-116469017D01*
X171301658Y-116474205D01*
X171358419Y-116516851D01*
X171375401Y-116547954D01*
X171416676Y-116658054D01*
X171425214Y-116673649D01*
X171501715Y-116775724D01*
X171514276Y-116788285D01*
X171616351Y-116864786D01*
X171631946Y-116873324D01*
X171752394Y-116918478D01*
X171767649Y-116922105D01*
X171818514Y-116927631D01*
X171825328Y-116928000D01*
X172447885Y-116928000D01*
X172463124Y-116923525D01*
X172464329Y-116922135D01*
X172466000Y-116914452D01*
X172466000Y-116909884D01*
X172974000Y-116909884D01*
X172978475Y-116925123D01*
X172979865Y-116926328D01*
X172987548Y-116927999D01*
X173614669Y-116927999D01*
X173621490Y-116927629D01*
X173672352Y-116922105D01*
X173687604Y-116918479D01*
X173808054Y-116873324D01*
X173823649Y-116864786D01*
X173925724Y-116788285D01*
X173938285Y-116775724D01*
X174014786Y-116673649D01*
X174023324Y-116658054D01*
X174064225Y-116548952D01*
X174106867Y-116492188D01*
X174173428Y-116467488D01*
X174242777Y-116482696D01*
X174277444Y-116510684D01*
X174302865Y-116540031D01*
X174302869Y-116540035D01*
X174306250Y-116543938D01*
X174478126Y-116686632D01*
X174671000Y-116799338D01*
X174879692Y-116879030D01*
X174884760Y-116880061D01*
X174884763Y-116880062D01*
X174992017Y-116901883D01*
X175098597Y-116923567D01*
X175103772Y-116923757D01*
X175103774Y-116923757D01*
X175316673Y-116931564D01*
X175316677Y-116931564D01*
X175321837Y-116931753D01*
X175326957Y-116931097D01*
X175326959Y-116931097D01*
X175538288Y-116904025D01*
X175538289Y-116904025D01*
X175543416Y-116903368D01*
X175548366Y-116901883D01*
X175752429Y-116840661D01*
X175752434Y-116840659D01*
X175757384Y-116839174D01*
X175957994Y-116740896D01*
X176139860Y-116611173D01*
X176298096Y-116453489D01*
X176357354Y-116371023D01*
X176428453Y-116272077D01*
X176429776Y-116273028D01*
X176476645Y-116229857D01*
X176546580Y-116217625D01*
X176612026Y-116245144D01*
X176639875Y-116276994D01*
X176699987Y-116375088D01*
X176846250Y-116543938D01*
X177018126Y-116686632D01*
X177211000Y-116799338D01*
X177419692Y-116879030D01*
X177424760Y-116880061D01*
X177424763Y-116880062D01*
X177532017Y-116901883D01*
X177638597Y-116923567D01*
X177643772Y-116923757D01*
X177643774Y-116923757D01*
X177856673Y-116931564D01*
X177856677Y-116931564D01*
X177861837Y-116931753D01*
X177866957Y-116931097D01*
X177866959Y-116931097D01*
X178078288Y-116904025D01*
X178078289Y-116904025D01*
X178083416Y-116903368D01*
X178088366Y-116901883D01*
X178292429Y-116840661D01*
X178292434Y-116840659D01*
X178297384Y-116839174D01*
X178497994Y-116740896D01*
X178679860Y-116611173D01*
X178838096Y-116453489D01*
X178897354Y-116371023D01*
X178965435Y-116276277D01*
X178968453Y-116272077D01*
X178989320Y-116229857D01*
X179065136Y-116076453D01*
X179065137Y-116076451D01*
X179067430Y-116071811D01*
X179132370Y-115858069D01*
X179161529Y-115636590D01*
X179163156Y-115570000D01*
X179144852Y-115347361D01*
X179090431Y-115130702D01*
X179001354Y-114925840D01*
X178933761Y-114821357D01*
X178882822Y-114742617D01*
X178882820Y-114742614D01*
X178880014Y-114738277D01*
X178729670Y-114573051D01*
X178725619Y-114569852D01*
X178725615Y-114569848D01*
X178558414Y-114437800D01*
X178558410Y-114437798D01*
X178554359Y-114434598D01*
X178537221Y-114425137D01*
X178502136Y-114405769D01*
X178358789Y-114326638D01*
X178353920Y-114324914D01*
X178353916Y-114324912D01*
X178153087Y-114253795D01*
X178153083Y-114253794D01*
X178148212Y-114252069D01*
X178143119Y-114251162D01*
X178143116Y-114251161D01*
X177933373Y-114213800D01*
X177933367Y-114213799D01*
X177928284Y-114212894D01*
X177854452Y-114211992D01*
X177710081Y-114210228D01*
X177710079Y-114210228D01*
X177704911Y-114210165D01*
X177484091Y-114243955D01*
X177271756Y-114313357D01*
X177073607Y-114416507D01*
X177069474Y-114419610D01*
X177069471Y-114419612D01*
X176899100Y-114547530D01*
X176894965Y-114550635D01*
X176740629Y-114712138D01*
X176633201Y-114869621D01*
X176578293Y-114914621D01*
X176507768Y-114922792D01*
X176444021Y-114891538D01*
X176423324Y-114867054D01*
X176342822Y-114742617D01*
X176342820Y-114742614D01*
X176340014Y-114738277D01*
X176189670Y-114573051D01*
X176185619Y-114569852D01*
X176185615Y-114569848D01*
X176018414Y-114437800D01*
X176018410Y-114437798D01*
X176014359Y-114434598D01*
X175997221Y-114425137D01*
X175962136Y-114405769D01*
X175818789Y-114326638D01*
X175813920Y-114324914D01*
X175813916Y-114324912D01*
X175613087Y-114253795D01*
X175613083Y-114253794D01*
X175608212Y-114252069D01*
X175603119Y-114251162D01*
X175603116Y-114251161D01*
X175393373Y-114213800D01*
X175393367Y-114213799D01*
X175388284Y-114212894D01*
X175314452Y-114211992D01*
X175170081Y-114210228D01*
X175170079Y-114210228D01*
X175164911Y-114210165D01*
X174944091Y-114243955D01*
X174731756Y-114313357D01*
X174533607Y-114416507D01*
X174529474Y-114419610D01*
X174529471Y-114419612D01*
X174359100Y-114547530D01*
X174354965Y-114550635D01*
X174351393Y-114554373D01*
X174273898Y-114635466D01*
X174212374Y-114670895D01*
X174141462Y-114667438D01*
X174083676Y-114626192D01*
X174064823Y-114592644D01*
X174023324Y-114481946D01*
X174014786Y-114466351D01*
X173938285Y-114364276D01*
X173925724Y-114351715D01*
X173823649Y-114275214D01*
X173808054Y-114266676D01*
X173687606Y-114221522D01*
X173672351Y-114217895D01*
X173621486Y-114212369D01*
X173614672Y-114212000D01*
X172992115Y-114212000D01*
X172976876Y-114216475D01*
X172975671Y-114217865D01*
X172974000Y-114225548D01*
X172974000Y-116909884D01*
X172466000Y-116909884D01*
X172466000Y-114230116D01*
X172461525Y-114214877D01*
X172460135Y-114213672D01*
X172452452Y-114212001D01*
X171825331Y-114212001D01*
X171818510Y-114212371D01*
X171767648Y-114217895D01*
X171752396Y-114221521D01*
X171631946Y-114266676D01*
X171616351Y-114275214D01*
X171514276Y-114351715D01*
X171501715Y-114364276D01*
X171425214Y-114466351D01*
X171416676Y-114481946D01*
X171375297Y-114592322D01*
X171332655Y-114649087D01*
X171266093Y-114673786D01*
X171196744Y-114658578D01*
X171164121Y-114632891D01*
X171113151Y-114576876D01*
X171113145Y-114576870D01*
X171109670Y-114573051D01*
X171105619Y-114569852D01*
X171105615Y-114569848D01*
X170938414Y-114437800D01*
X170938410Y-114437798D01*
X170934359Y-114434598D01*
X170917221Y-114425137D01*
X170882136Y-114405769D01*
X170738789Y-114326638D01*
X170733920Y-114324914D01*
X170733916Y-114324912D01*
X170533087Y-114253795D01*
X170533083Y-114253794D01*
X170528212Y-114252069D01*
X170523119Y-114251162D01*
X170523116Y-114251161D01*
X170313373Y-114213800D01*
X170313367Y-114213799D01*
X170308284Y-114212894D01*
X170234452Y-114211992D01*
X170090081Y-114210228D01*
X170090079Y-114210228D01*
X170084911Y-114210165D01*
X169864091Y-114243955D01*
X169651756Y-114313357D01*
X169453607Y-114416507D01*
X169449474Y-114419610D01*
X169449471Y-114419612D01*
X169279100Y-114547530D01*
X169274965Y-114550635D01*
X169120629Y-114712138D01*
X169013201Y-114869621D01*
X168958293Y-114914621D01*
X168887768Y-114922792D01*
X168824021Y-114891538D01*
X168803324Y-114867054D01*
X168722822Y-114742617D01*
X168722820Y-114742614D01*
X168720014Y-114738277D01*
X168569670Y-114573051D01*
X168565619Y-114569852D01*
X168565615Y-114569848D01*
X168398414Y-114437800D01*
X168398410Y-114437798D01*
X168394359Y-114434598D01*
X168377221Y-114425137D01*
X168342136Y-114405769D01*
X168198789Y-114326638D01*
X168193920Y-114324914D01*
X168193916Y-114324912D01*
X167993087Y-114253795D01*
X167993083Y-114253794D01*
X167988212Y-114252069D01*
X167983119Y-114251162D01*
X167983116Y-114251161D01*
X167773373Y-114213800D01*
X167773367Y-114213799D01*
X167768284Y-114212894D01*
X167694452Y-114211992D01*
X167550081Y-114210228D01*
X167550079Y-114210228D01*
X167544911Y-114210165D01*
X167324091Y-114243955D01*
X167111756Y-114313357D01*
X166913607Y-114416507D01*
X166909474Y-114419610D01*
X166909471Y-114419612D01*
X166739100Y-114547530D01*
X166734965Y-114550635D01*
X166580629Y-114712138D01*
X166473201Y-114869621D01*
X166418293Y-114914621D01*
X166347768Y-114922792D01*
X166284021Y-114891538D01*
X166263324Y-114867054D01*
X166182822Y-114742617D01*
X166182820Y-114742614D01*
X166180014Y-114738277D01*
X166029670Y-114573051D01*
X166025619Y-114569852D01*
X166025615Y-114569848D01*
X165858414Y-114437800D01*
X165858410Y-114437798D01*
X165854359Y-114434598D01*
X165837221Y-114425137D01*
X165802136Y-114405769D01*
X165658789Y-114326638D01*
X165653920Y-114324914D01*
X165653916Y-114324912D01*
X165453087Y-114253795D01*
X165453083Y-114253794D01*
X165448212Y-114252069D01*
X165443119Y-114251162D01*
X165443116Y-114251161D01*
X165233373Y-114213800D01*
X165233367Y-114213799D01*
X165228284Y-114212894D01*
X165154452Y-114211992D01*
X165010081Y-114210228D01*
X165010079Y-114210228D01*
X165004911Y-114210165D01*
X164784091Y-114243955D01*
X164571756Y-114313357D01*
X164373607Y-114416507D01*
X164369474Y-114419610D01*
X164369471Y-114419612D01*
X164199100Y-114547530D01*
X164194965Y-114550635D01*
X164040629Y-114712138D01*
X163933201Y-114869621D01*
X163878293Y-114914621D01*
X163807768Y-114922792D01*
X163744021Y-114891538D01*
X163723324Y-114867054D01*
X163642822Y-114742617D01*
X163642820Y-114742614D01*
X163640014Y-114738277D01*
X163489670Y-114573051D01*
X163485619Y-114569852D01*
X163485615Y-114569848D01*
X163318414Y-114437800D01*
X163318410Y-114437798D01*
X163314359Y-114434598D01*
X163297221Y-114425137D01*
X163262136Y-114405769D01*
X163118789Y-114326638D01*
X163113920Y-114324914D01*
X163113916Y-114324912D01*
X162913087Y-114253795D01*
X162913083Y-114253794D01*
X162908212Y-114252069D01*
X162903119Y-114251162D01*
X162903116Y-114251161D01*
X162693373Y-114213800D01*
X162693367Y-114213799D01*
X162688284Y-114212894D01*
X162614452Y-114211992D01*
X162470081Y-114210228D01*
X162470079Y-114210228D01*
X162464911Y-114210165D01*
X162244091Y-114243955D01*
X162031756Y-114313357D01*
X161833607Y-114416507D01*
X161829474Y-114419610D01*
X161829471Y-114419612D01*
X161659100Y-114547530D01*
X161654965Y-114550635D01*
X161651393Y-114554373D01*
X161573898Y-114635466D01*
X161512374Y-114670895D01*
X161441462Y-114667438D01*
X161383676Y-114626192D01*
X161364823Y-114592644D01*
X161323324Y-114481946D01*
X161314786Y-114466351D01*
X161238285Y-114364276D01*
X161225724Y-114351715D01*
X161123649Y-114275214D01*
X161108054Y-114266676D01*
X160987606Y-114221522D01*
X160972351Y-114217895D01*
X160921486Y-114212369D01*
X160914672Y-114212000D01*
X160292115Y-114212000D01*
X160276876Y-114216475D01*
X160275671Y-114217865D01*
X160274000Y-114225548D01*
X160274000Y-116909884D01*
X159766000Y-116909884D01*
X159766000Y-114230116D01*
X159761525Y-114214877D01*
X159760135Y-114213672D01*
X159752452Y-114212001D01*
X159125331Y-114212001D01*
X159118510Y-114212371D01*
X159067648Y-114217895D01*
X159052396Y-114221521D01*
X158931946Y-114266676D01*
X158916351Y-114275214D01*
X158814276Y-114351715D01*
X158801715Y-114364276D01*
X158725214Y-114466351D01*
X158716676Y-114481946D01*
X158675297Y-114592322D01*
X158632655Y-114649087D01*
X158566093Y-114673786D01*
X158496744Y-114658578D01*
X158464121Y-114632891D01*
X158413151Y-114576876D01*
X158413145Y-114576870D01*
X158409670Y-114573051D01*
X158405619Y-114569852D01*
X158405615Y-114569848D01*
X158238414Y-114437800D01*
X158238410Y-114437798D01*
X158234359Y-114434598D01*
X158217221Y-114425137D01*
X158182136Y-114405769D01*
X158038789Y-114326638D01*
X158033920Y-114324914D01*
X158033916Y-114324912D01*
X157833087Y-114253795D01*
X157833083Y-114253794D01*
X157828212Y-114252069D01*
X157823119Y-114251162D01*
X157823116Y-114251161D01*
X157613373Y-114213800D01*
X157613367Y-114213799D01*
X157608284Y-114212894D01*
X157534452Y-114211992D01*
X157390081Y-114210228D01*
X157390079Y-114210228D01*
X157384911Y-114210165D01*
X157164091Y-114243955D01*
X156951756Y-114313357D01*
X156753607Y-114416507D01*
X156749474Y-114419610D01*
X156749471Y-114419612D01*
X156579100Y-114547530D01*
X156574965Y-114550635D01*
X156420629Y-114712138D01*
X156313201Y-114869621D01*
X156258293Y-114914621D01*
X156187768Y-114922792D01*
X156124021Y-114891538D01*
X156103324Y-114867054D01*
X156022822Y-114742617D01*
X156022820Y-114742614D01*
X156020014Y-114738277D01*
X155869670Y-114573051D01*
X155865619Y-114569852D01*
X155865615Y-114569848D01*
X155698414Y-114437800D01*
X155698410Y-114437798D01*
X155694359Y-114434598D01*
X155677221Y-114425137D01*
X155642136Y-114405769D01*
X155498789Y-114326638D01*
X155493920Y-114324914D01*
X155493916Y-114324912D01*
X155293087Y-114253795D01*
X155293083Y-114253794D01*
X155288212Y-114252069D01*
X155283119Y-114251162D01*
X155283116Y-114251161D01*
X155073373Y-114213800D01*
X155073367Y-114213799D01*
X155068284Y-114212894D01*
X154994452Y-114211992D01*
X154850081Y-114210228D01*
X154850079Y-114210228D01*
X154844911Y-114210165D01*
X154624091Y-114243955D01*
X154411756Y-114313357D01*
X154213607Y-114416507D01*
X154209474Y-114419610D01*
X154209471Y-114419612D01*
X154039100Y-114547530D01*
X154034965Y-114550635D01*
X153880629Y-114712138D01*
X153773201Y-114869621D01*
X153718293Y-114914621D01*
X153647768Y-114922792D01*
X153584021Y-114891538D01*
X153563324Y-114867054D01*
X153482822Y-114742617D01*
X153482820Y-114742614D01*
X153480014Y-114738277D01*
X153329670Y-114573051D01*
X153325619Y-114569852D01*
X153325615Y-114569848D01*
X153158414Y-114437800D01*
X153158410Y-114437798D01*
X153154359Y-114434598D01*
X153137221Y-114425137D01*
X153102136Y-114405769D01*
X152958789Y-114326638D01*
X152953920Y-114324914D01*
X152953916Y-114324912D01*
X152753087Y-114253795D01*
X152753083Y-114253794D01*
X152748212Y-114252069D01*
X152743119Y-114251162D01*
X152743116Y-114251161D01*
X152533373Y-114213800D01*
X152533367Y-114213799D01*
X152528284Y-114212894D01*
X152454452Y-114211992D01*
X152310081Y-114210228D01*
X152310079Y-114210228D01*
X152304911Y-114210165D01*
X152084091Y-114243955D01*
X151871756Y-114313357D01*
X151673607Y-114416507D01*
X151669474Y-114419610D01*
X151669471Y-114419612D01*
X151499100Y-114547530D01*
X151494965Y-114550635D01*
X151340629Y-114712138D01*
X151233201Y-114869621D01*
X151178293Y-114914621D01*
X151107768Y-114922792D01*
X151044021Y-114891538D01*
X151023324Y-114867054D01*
X150942822Y-114742617D01*
X150942820Y-114742614D01*
X150940014Y-114738277D01*
X150789670Y-114573051D01*
X150785619Y-114569852D01*
X150785615Y-114569848D01*
X150618414Y-114437800D01*
X150618410Y-114437798D01*
X150614359Y-114434598D01*
X150597221Y-114425137D01*
X150562136Y-114405769D01*
X150418789Y-114326638D01*
X150413920Y-114324914D01*
X150413916Y-114324912D01*
X150213087Y-114253795D01*
X150213083Y-114253794D01*
X150208212Y-114252069D01*
X150203119Y-114251162D01*
X150203116Y-114251161D01*
X149993373Y-114213800D01*
X149993367Y-114213799D01*
X149988284Y-114212894D01*
X149914452Y-114211992D01*
X149770081Y-114210228D01*
X149770079Y-114210228D01*
X149764911Y-114210165D01*
X149544091Y-114243955D01*
X149331756Y-114313357D01*
X149133607Y-114416507D01*
X149129474Y-114419610D01*
X149129471Y-114419612D01*
X148959100Y-114547530D01*
X148954965Y-114550635D01*
X148951393Y-114554373D01*
X148873898Y-114635466D01*
X148812374Y-114670895D01*
X148741462Y-114667438D01*
X148683676Y-114626192D01*
X148664823Y-114592644D01*
X148623324Y-114481946D01*
X148614786Y-114466351D01*
X148538285Y-114364276D01*
X148525724Y-114351715D01*
X148423649Y-114275214D01*
X148408054Y-114266676D01*
X148287606Y-114221522D01*
X148272351Y-114217895D01*
X148221486Y-114212369D01*
X148214672Y-114212000D01*
X147592115Y-114212000D01*
X147576876Y-114216475D01*
X147575671Y-114217865D01*
X147574000Y-114225548D01*
X147574000Y-116909884D01*
X147066000Y-116909884D01*
X147066000Y-114230116D01*
X147061525Y-114214877D01*
X147060135Y-114213672D01*
X147052452Y-114212001D01*
X146425331Y-114212001D01*
X146418510Y-114212371D01*
X146367648Y-114217895D01*
X146352396Y-114221521D01*
X146231946Y-114266676D01*
X146216351Y-114275214D01*
X146114276Y-114351715D01*
X146101715Y-114364276D01*
X146025214Y-114466351D01*
X146016676Y-114481946D01*
X145975297Y-114592322D01*
X145932655Y-114649087D01*
X145866093Y-114673786D01*
X145796744Y-114658578D01*
X145764121Y-114632891D01*
X145713148Y-114576873D01*
X145713142Y-114576867D01*
X145709670Y-114573051D01*
X145705615Y-114569848D01*
X145586407Y-114475703D01*
X145545345Y-114417785D01*
X145538500Y-114376821D01*
X145538500Y-108035629D01*
X145558502Y-107967508D01*
X145575405Y-107946534D01*
X146206939Y-107315000D01*
X147276502Y-107315000D01*
X147296457Y-107543087D01*
X147297881Y-107548400D01*
X147297881Y-107548402D01*
X147310743Y-107596401D01*
X147355716Y-107764243D01*
X147358039Y-107769224D01*
X147358039Y-107769225D01*
X147450151Y-107966762D01*
X147450154Y-107966767D01*
X147452477Y-107971749D01*
X147583802Y-108159300D01*
X147745700Y-108321198D01*
X147750208Y-108324355D01*
X147750211Y-108324357D01*
X147828389Y-108379098D01*
X147933251Y-108452523D01*
X147938233Y-108454846D01*
X147938238Y-108454849D01*
X148135775Y-108546961D01*
X148140757Y-108549284D01*
X148146065Y-108550706D01*
X148146067Y-108550707D01*
X148356598Y-108607119D01*
X148356600Y-108607119D01*
X148361913Y-108608543D01*
X148590000Y-108628498D01*
X148818087Y-108608543D01*
X148823400Y-108607119D01*
X148823402Y-108607119D01*
X149033933Y-108550707D01*
X149033935Y-108550706D01*
X149039243Y-108549284D01*
X149044225Y-108546961D01*
X149241762Y-108454849D01*
X149241767Y-108454846D01*
X149246749Y-108452523D01*
X149351611Y-108379098D01*
X149429789Y-108324357D01*
X149429792Y-108324355D01*
X149434300Y-108321198D01*
X149596198Y-108159300D01*
X149727523Y-107971749D01*
X149729846Y-107966767D01*
X149729849Y-107966762D01*
X149821961Y-107769225D01*
X149821961Y-107769224D01*
X149824284Y-107764243D01*
X149869258Y-107596401D01*
X149882119Y-107548402D01*
X149882119Y-107548400D01*
X149883543Y-107543087D01*
X149903498Y-107315000D01*
X154261502Y-107315000D01*
X154281457Y-107543087D01*
X154282881Y-107548400D01*
X154282881Y-107548402D01*
X154295743Y-107596401D01*
X154340716Y-107764243D01*
X154343039Y-107769224D01*
X154343039Y-107769225D01*
X154435151Y-107966762D01*
X154435154Y-107966767D01*
X154437477Y-107971749D01*
X154568802Y-108159300D01*
X154730700Y-108321198D01*
X154735208Y-108324355D01*
X154735211Y-108324357D01*
X154813389Y-108379098D01*
X154918251Y-108452523D01*
X154923233Y-108454846D01*
X154923238Y-108454849D01*
X155120775Y-108546961D01*
X155125757Y-108549284D01*
X155131065Y-108550706D01*
X155131067Y-108550707D01*
X155341598Y-108607119D01*
X155341600Y-108607119D01*
X155346913Y-108608543D01*
X155575000Y-108628498D01*
X155803087Y-108608543D01*
X155808400Y-108607119D01*
X155808402Y-108607119D01*
X156018933Y-108550707D01*
X156018935Y-108550706D01*
X156024243Y-108549284D01*
X156029225Y-108546961D01*
X156226762Y-108454849D01*
X156226767Y-108454846D01*
X156231749Y-108452523D01*
X156336611Y-108379098D01*
X156414789Y-108324357D01*
X156414792Y-108324355D01*
X156419300Y-108321198D01*
X156581198Y-108159300D01*
X156712523Y-107971749D01*
X156714846Y-107966767D01*
X156714849Y-107966762D01*
X156806961Y-107769225D01*
X156806961Y-107769224D01*
X156809284Y-107764243D01*
X156854258Y-107596401D01*
X156867119Y-107548402D01*
X156867119Y-107548400D01*
X156868543Y-107543087D01*
X156888498Y-107315000D01*
X161246502Y-107315000D01*
X161266457Y-107543087D01*
X161267881Y-107548400D01*
X161267881Y-107548402D01*
X161280743Y-107596401D01*
X161325716Y-107764243D01*
X161328039Y-107769224D01*
X161328039Y-107769225D01*
X161420151Y-107966762D01*
X161420154Y-107966767D01*
X161422477Y-107971749D01*
X161553802Y-108159300D01*
X161715700Y-108321198D01*
X161720208Y-108324355D01*
X161720211Y-108324357D01*
X161798389Y-108379098D01*
X161903251Y-108452523D01*
X161908233Y-108454846D01*
X161908238Y-108454849D01*
X162105775Y-108546961D01*
X162110757Y-108549284D01*
X162116065Y-108550706D01*
X162116067Y-108550707D01*
X162326598Y-108607119D01*
X162326600Y-108607119D01*
X162331913Y-108608543D01*
X162560000Y-108628498D01*
X162788087Y-108608543D01*
X162793400Y-108607119D01*
X162793402Y-108607119D01*
X163003933Y-108550707D01*
X163003935Y-108550706D01*
X163009243Y-108549284D01*
X163014225Y-108546961D01*
X163211762Y-108454849D01*
X163211767Y-108454846D01*
X163216749Y-108452523D01*
X163321611Y-108379098D01*
X163399789Y-108324357D01*
X163399792Y-108324355D01*
X163404300Y-108321198D01*
X163566198Y-108159300D01*
X163697523Y-107971749D01*
X163699846Y-107966767D01*
X163699849Y-107966762D01*
X163791961Y-107769225D01*
X163791961Y-107769224D01*
X163794284Y-107764243D01*
X163839258Y-107596401D01*
X163852119Y-107548402D01*
X163852119Y-107548400D01*
X163853543Y-107543087D01*
X163873498Y-107315000D01*
X168231502Y-107315000D01*
X168251457Y-107543087D01*
X168252881Y-107548400D01*
X168252881Y-107548402D01*
X168265743Y-107596401D01*
X168310716Y-107764243D01*
X168313039Y-107769224D01*
X168313039Y-107769225D01*
X168405151Y-107966762D01*
X168405154Y-107966767D01*
X168407477Y-107971749D01*
X168538802Y-108159300D01*
X168700700Y-108321198D01*
X168705208Y-108324355D01*
X168705211Y-108324357D01*
X168783389Y-108379098D01*
X168888251Y-108452523D01*
X168893233Y-108454846D01*
X168893238Y-108454849D01*
X169090775Y-108546961D01*
X169095757Y-108549284D01*
X169101065Y-108550706D01*
X169101067Y-108550707D01*
X169311598Y-108607119D01*
X169311600Y-108607119D01*
X169316913Y-108608543D01*
X169545000Y-108628498D01*
X169773087Y-108608543D01*
X169778400Y-108607119D01*
X169778402Y-108607119D01*
X169988933Y-108550707D01*
X169988935Y-108550706D01*
X169994243Y-108549284D01*
X169999225Y-108546961D01*
X170196762Y-108454849D01*
X170196767Y-108454846D01*
X170201749Y-108452523D01*
X170306611Y-108379098D01*
X170384789Y-108324357D01*
X170384792Y-108324355D01*
X170389300Y-108321198D01*
X170551198Y-108159300D01*
X170682523Y-107971749D01*
X170684846Y-107966767D01*
X170684849Y-107966762D01*
X170776961Y-107769225D01*
X170776961Y-107769224D01*
X170779284Y-107764243D01*
X170824258Y-107596401D01*
X170837119Y-107548402D01*
X170837119Y-107548400D01*
X170838543Y-107543087D01*
X170858498Y-107315000D01*
X175216502Y-107315000D01*
X175236457Y-107543087D01*
X175237881Y-107548400D01*
X175237881Y-107548402D01*
X175250743Y-107596401D01*
X175295716Y-107764243D01*
X175298039Y-107769224D01*
X175298039Y-107769225D01*
X175390151Y-107966762D01*
X175390154Y-107966767D01*
X175392477Y-107971749D01*
X175523802Y-108159300D01*
X175685700Y-108321198D01*
X175690208Y-108324355D01*
X175690211Y-108324357D01*
X175768389Y-108379098D01*
X175873251Y-108452523D01*
X175878233Y-108454846D01*
X175878238Y-108454849D01*
X176075775Y-108546961D01*
X176080757Y-108549284D01*
X176086065Y-108550706D01*
X176086067Y-108550707D01*
X176296598Y-108607119D01*
X176296600Y-108607119D01*
X176301913Y-108608543D01*
X176530000Y-108628498D01*
X176758087Y-108608543D01*
X176763400Y-108607119D01*
X176763402Y-108607119D01*
X176973933Y-108550707D01*
X176973935Y-108550706D01*
X176979243Y-108549284D01*
X176984225Y-108546961D01*
X177181762Y-108454849D01*
X177181767Y-108454846D01*
X177186749Y-108452523D01*
X177291611Y-108379098D01*
X177369789Y-108324357D01*
X177369792Y-108324355D01*
X177374300Y-108321198D01*
X177536198Y-108159300D01*
X177667523Y-107971749D01*
X177669846Y-107966767D01*
X177669849Y-107966762D01*
X177761961Y-107769225D01*
X177761961Y-107769224D01*
X177764284Y-107764243D01*
X177809258Y-107596401D01*
X177822119Y-107548402D01*
X177822119Y-107548400D01*
X177823543Y-107543087D01*
X177843498Y-107315000D01*
X177823543Y-107086913D01*
X177822119Y-107081598D01*
X177765707Y-106871067D01*
X177765706Y-106871065D01*
X177764284Y-106865757D01*
X177734316Y-106801489D01*
X177669849Y-106663238D01*
X177669846Y-106663233D01*
X177667523Y-106658251D01*
X177536198Y-106470700D01*
X177374300Y-106308802D01*
X177369792Y-106305645D01*
X177369789Y-106305643D01*
X177291611Y-106250902D01*
X177186749Y-106177477D01*
X177181767Y-106175154D01*
X177181762Y-106175151D01*
X176984225Y-106083039D01*
X176984224Y-106083039D01*
X176979243Y-106080716D01*
X176973935Y-106079294D01*
X176973933Y-106079293D01*
X176763402Y-106022881D01*
X176763400Y-106022881D01*
X176758087Y-106021457D01*
X176530000Y-106001502D01*
X176301913Y-106021457D01*
X176296600Y-106022881D01*
X176296598Y-106022881D01*
X176086067Y-106079293D01*
X176086065Y-106079294D01*
X176080757Y-106080716D01*
X176075776Y-106083039D01*
X176075775Y-106083039D01*
X175878238Y-106175151D01*
X175878233Y-106175154D01*
X175873251Y-106177477D01*
X175768389Y-106250902D01*
X175690211Y-106305643D01*
X175690208Y-106305645D01*
X175685700Y-106308802D01*
X175523802Y-106470700D01*
X175392477Y-106658251D01*
X175390154Y-106663233D01*
X175390151Y-106663238D01*
X175325684Y-106801489D01*
X175295716Y-106865757D01*
X175294294Y-106871065D01*
X175294293Y-106871067D01*
X175237881Y-107081598D01*
X175236457Y-107086913D01*
X175216502Y-107315000D01*
X170858498Y-107315000D01*
X170838543Y-107086913D01*
X170837119Y-107081598D01*
X170780707Y-106871067D01*
X170780706Y-106871065D01*
X170779284Y-106865757D01*
X170749316Y-106801489D01*
X170684849Y-106663238D01*
X170684846Y-106663233D01*
X170682523Y-106658251D01*
X170551198Y-106470700D01*
X170389300Y-106308802D01*
X170384792Y-106305645D01*
X170384789Y-106305643D01*
X170306611Y-106250902D01*
X170201749Y-106177477D01*
X170196767Y-106175154D01*
X170196762Y-106175151D01*
X169999225Y-106083039D01*
X169999224Y-106083039D01*
X169994243Y-106080716D01*
X169988935Y-106079294D01*
X169988933Y-106079293D01*
X169778402Y-106022881D01*
X169778400Y-106022881D01*
X169773087Y-106021457D01*
X169545000Y-106001502D01*
X169316913Y-106021457D01*
X169311600Y-106022881D01*
X169311598Y-106022881D01*
X169101067Y-106079293D01*
X169101065Y-106079294D01*
X169095757Y-106080716D01*
X169090776Y-106083039D01*
X169090775Y-106083039D01*
X168893238Y-106175151D01*
X168893233Y-106175154D01*
X168888251Y-106177477D01*
X168783389Y-106250902D01*
X168705211Y-106305643D01*
X168705208Y-106305645D01*
X168700700Y-106308802D01*
X168538802Y-106470700D01*
X168407477Y-106658251D01*
X168405154Y-106663233D01*
X168405151Y-106663238D01*
X168340684Y-106801489D01*
X168310716Y-106865757D01*
X168309294Y-106871065D01*
X168309293Y-106871067D01*
X168252881Y-107081598D01*
X168251457Y-107086913D01*
X168231502Y-107315000D01*
X163873498Y-107315000D01*
X163853543Y-107086913D01*
X163852119Y-107081598D01*
X163795707Y-106871067D01*
X163795706Y-106871065D01*
X163794284Y-106865757D01*
X163764316Y-106801489D01*
X163699849Y-106663238D01*
X163699846Y-106663233D01*
X163697523Y-106658251D01*
X163566198Y-106470700D01*
X163404300Y-106308802D01*
X163399792Y-106305645D01*
X163399789Y-106305643D01*
X163321611Y-106250902D01*
X163216749Y-106177477D01*
X163211767Y-106175154D01*
X163211762Y-106175151D01*
X163014225Y-106083039D01*
X163014224Y-106083039D01*
X163009243Y-106080716D01*
X163003935Y-106079294D01*
X163003933Y-106079293D01*
X162793402Y-106022881D01*
X162793400Y-106022881D01*
X162788087Y-106021457D01*
X162560000Y-106001502D01*
X162331913Y-106021457D01*
X162326600Y-106022881D01*
X162326598Y-106022881D01*
X162116067Y-106079293D01*
X162116065Y-106079294D01*
X162110757Y-106080716D01*
X162105776Y-106083039D01*
X162105775Y-106083039D01*
X161908238Y-106175151D01*
X161908233Y-106175154D01*
X161903251Y-106177477D01*
X161798389Y-106250902D01*
X161720211Y-106305643D01*
X161720208Y-106305645D01*
X161715700Y-106308802D01*
X161553802Y-106470700D01*
X161422477Y-106658251D01*
X161420154Y-106663233D01*
X161420151Y-106663238D01*
X161355684Y-106801489D01*
X161325716Y-106865757D01*
X161324294Y-106871065D01*
X161324293Y-106871067D01*
X161267881Y-107081598D01*
X161266457Y-107086913D01*
X161246502Y-107315000D01*
X156888498Y-107315000D01*
X156868543Y-107086913D01*
X156867119Y-107081598D01*
X156810707Y-106871067D01*
X156810706Y-106871065D01*
X156809284Y-106865757D01*
X156779316Y-106801489D01*
X156714849Y-106663238D01*
X156714846Y-106663233D01*
X156712523Y-106658251D01*
X156581198Y-106470700D01*
X156419300Y-106308802D01*
X156414792Y-106305645D01*
X156414789Y-106305643D01*
X156336611Y-106250902D01*
X156231749Y-106177477D01*
X156226767Y-106175154D01*
X156226762Y-106175151D01*
X156029225Y-106083039D01*
X156029224Y-106083039D01*
X156024243Y-106080716D01*
X156018935Y-106079294D01*
X156018933Y-106079293D01*
X155808402Y-106022881D01*
X155808400Y-106022881D01*
X155803087Y-106021457D01*
X155575000Y-106001502D01*
X155346913Y-106021457D01*
X155341600Y-106022881D01*
X155341598Y-106022881D01*
X155131067Y-106079293D01*
X155131065Y-106079294D01*
X155125757Y-106080716D01*
X155120776Y-106083039D01*
X155120775Y-106083039D01*
X154923238Y-106175151D01*
X154923233Y-106175154D01*
X154918251Y-106177477D01*
X154813389Y-106250902D01*
X154735211Y-106305643D01*
X154735208Y-106305645D01*
X154730700Y-106308802D01*
X154568802Y-106470700D01*
X154437477Y-106658251D01*
X154435154Y-106663233D01*
X154435151Y-106663238D01*
X154370684Y-106801489D01*
X154340716Y-106865757D01*
X154339294Y-106871065D01*
X154339293Y-106871067D01*
X154282881Y-107081598D01*
X154281457Y-107086913D01*
X154261502Y-107315000D01*
X149903498Y-107315000D01*
X149883543Y-107086913D01*
X149882119Y-107081598D01*
X149825707Y-106871067D01*
X149825706Y-106871065D01*
X149824284Y-106865757D01*
X149794316Y-106801489D01*
X149729849Y-106663238D01*
X149729846Y-106663233D01*
X149727523Y-106658251D01*
X149596198Y-106470700D01*
X149434300Y-106308802D01*
X149429792Y-106305645D01*
X149429789Y-106305643D01*
X149351611Y-106250902D01*
X149246749Y-106177477D01*
X149241767Y-106175154D01*
X149241762Y-106175151D01*
X149044225Y-106083039D01*
X149044224Y-106083039D01*
X149039243Y-106080716D01*
X149033935Y-106079294D01*
X149033933Y-106079293D01*
X148823402Y-106022881D01*
X148823400Y-106022881D01*
X148818087Y-106021457D01*
X148590000Y-106001502D01*
X148361913Y-106021457D01*
X148356600Y-106022881D01*
X148356598Y-106022881D01*
X148146067Y-106079293D01*
X148146065Y-106079294D01*
X148140757Y-106080716D01*
X148135776Y-106083039D01*
X148135775Y-106083039D01*
X147938238Y-106175151D01*
X147938233Y-106175154D01*
X147933251Y-106177477D01*
X147828389Y-106250902D01*
X147750211Y-106305643D01*
X147750208Y-106305645D01*
X147745700Y-106308802D01*
X147583802Y-106470700D01*
X147452477Y-106658251D01*
X147450154Y-106663233D01*
X147450151Y-106663238D01*
X147385684Y-106801489D01*
X147355716Y-106865757D01*
X147354294Y-106871065D01*
X147354293Y-106871067D01*
X147297881Y-107081598D01*
X147296457Y-107086913D01*
X147276502Y-107315000D01*
X146206939Y-107315000D01*
X154058379Y-99463560D01*
X154120691Y-99429534D01*
X154191506Y-99434599D01*
X154248342Y-99477146D01*
X154273153Y-99543666D01*
X154272995Y-99563634D01*
X154261502Y-99695000D01*
X154281457Y-99923087D01*
X154282881Y-99928400D01*
X154282881Y-99928402D01*
X154295743Y-99976401D01*
X154340716Y-100144243D01*
X154343039Y-100149224D01*
X154343039Y-100149225D01*
X154435151Y-100346762D01*
X154435154Y-100346767D01*
X154437477Y-100351749D01*
X154568802Y-100539300D01*
X154730700Y-100701198D01*
X154735208Y-100704355D01*
X154735211Y-100704357D01*
X154813389Y-100759098D01*
X154918251Y-100832523D01*
X154923233Y-100834846D01*
X154923238Y-100834849D01*
X155120775Y-100926961D01*
X155125757Y-100929284D01*
X155131065Y-100930706D01*
X155131067Y-100930707D01*
X155341598Y-100987119D01*
X155341600Y-100987119D01*
X155346913Y-100988543D01*
X155575000Y-101008498D01*
X155803087Y-100988543D01*
X155808400Y-100987119D01*
X155808402Y-100987119D01*
X156018933Y-100930707D01*
X156018935Y-100930706D01*
X156024243Y-100929284D01*
X156029225Y-100926961D01*
X156226762Y-100834849D01*
X156226767Y-100834846D01*
X156231749Y-100832523D01*
X156336611Y-100759098D01*
X156414789Y-100704357D01*
X156414792Y-100704355D01*
X156419300Y-100701198D01*
X156581198Y-100539300D01*
X156712523Y-100351749D01*
X156714846Y-100346767D01*
X156714849Y-100346762D01*
X156806961Y-100149225D01*
X156806961Y-100149224D01*
X156809284Y-100144243D01*
X156854258Y-99976401D01*
X156867119Y-99928402D01*
X156867119Y-99928400D01*
X156868543Y-99923087D01*
X156888498Y-99695000D01*
X161246502Y-99695000D01*
X161266457Y-99923087D01*
X161267881Y-99928400D01*
X161267881Y-99928402D01*
X161280743Y-99976401D01*
X161325716Y-100144243D01*
X161328039Y-100149224D01*
X161328039Y-100149225D01*
X161420151Y-100346762D01*
X161420154Y-100346767D01*
X161422477Y-100351749D01*
X161553802Y-100539300D01*
X161715700Y-100701198D01*
X161720208Y-100704355D01*
X161720211Y-100704357D01*
X161798389Y-100759098D01*
X161903251Y-100832523D01*
X161908233Y-100834846D01*
X161908238Y-100834849D01*
X162105775Y-100926961D01*
X162110757Y-100929284D01*
X162116065Y-100930706D01*
X162116067Y-100930707D01*
X162326598Y-100987119D01*
X162326600Y-100987119D01*
X162331913Y-100988543D01*
X162560000Y-101008498D01*
X162788087Y-100988543D01*
X162793400Y-100987119D01*
X162793402Y-100987119D01*
X163003933Y-100930707D01*
X163003935Y-100930706D01*
X163009243Y-100929284D01*
X163014225Y-100926961D01*
X163211762Y-100834849D01*
X163211767Y-100834846D01*
X163216749Y-100832523D01*
X163321611Y-100759098D01*
X163399789Y-100704357D01*
X163399792Y-100704355D01*
X163404300Y-100701198D01*
X163566198Y-100539300D01*
X163697523Y-100351749D01*
X163699846Y-100346767D01*
X163699849Y-100346762D01*
X163791961Y-100149225D01*
X163791961Y-100149224D01*
X163794284Y-100144243D01*
X163839258Y-99976401D01*
X163852119Y-99928402D01*
X163852119Y-99928400D01*
X163853543Y-99923087D01*
X163873498Y-99695000D01*
X163853543Y-99466913D01*
X163849375Y-99451357D01*
X163795707Y-99251067D01*
X163795706Y-99251065D01*
X163794284Y-99245757D01*
X163791961Y-99240775D01*
X163699849Y-99043238D01*
X163699846Y-99043233D01*
X163697523Y-99038251D01*
X163566198Y-98850700D01*
X163404300Y-98688802D01*
X163399792Y-98685645D01*
X163399789Y-98685643D01*
X163318500Y-98628724D01*
X163216749Y-98557477D01*
X163211767Y-98555154D01*
X163211762Y-98555151D01*
X163014225Y-98463039D01*
X163014224Y-98463039D01*
X163009243Y-98460716D01*
X163003935Y-98459294D01*
X163003933Y-98459293D01*
X162793402Y-98402881D01*
X162793400Y-98402881D01*
X162788087Y-98401457D01*
X162560000Y-98381502D01*
X162331913Y-98401457D01*
X162326600Y-98402881D01*
X162326598Y-98402881D01*
X162116067Y-98459293D01*
X162116065Y-98459294D01*
X162110757Y-98460716D01*
X162105776Y-98463039D01*
X162105775Y-98463039D01*
X161908238Y-98555151D01*
X161908233Y-98555154D01*
X161903251Y-98557477D01*
X161801500Y-98628724D01*
X161720211Y-98685643D01*
X161720208Y-98685645D01*
X161715700Y-98688802D01*
X161553802Y-98850700D01*
X161422477Y-99038251D01*
X161420154Y-99043233D01*
X161420151Y-99043238D01*
X161328039Y-99240775D01*
X161325716Y-99245757D01*
X161324294Y-99251065D01*
X161324293Y-99251067D01*
X161270625Y-99451357D01*
X161266457Y-99466913D01*
X161246502Y-99695000D01*
X156888498Y-99695000D01*
X156874245Y-99532087D01*
X156888234Y-99462482D01*
X156910671Y-99432010D01*
X158773276Y-97569405D01*
X158835588Y-97535379D01*
X158862371Y-97532500D01*
X168080930Y-97532500D01*
X168099880Y-97533933D01*
X168114115Y-97536099D01*
X168114119Y-97536099D01*
X168121349Y-97537199D01*
X168128641Y-97536606D01*
X168128644Y-97536606D01*
X168174018Y-97532915D01*
X168184233Y-97532500D01*
X168192293Y-97532500D01*
X168205583Y-97530951D01*
X168220507Y-97529211D01*
X168224882Y-97528778D01*
X168290339Y-97523454D01*
X168290342Y-97523453D01*
X168297637Y-97522860D01*
X168304601Y-97520604D01*
X168310560Y-97519413D01*
X168316415Y-97518029D01*
X168323681Y-97517182D01*
X168392327Y-97492265D01*
X168396455Y-97490848D01*
X168458936Y-97470607D01*
X168458938Y-97470606D01*
X168465899Y-97468351D01*
X168472154Y-97464555D01*
X168477628Y-97462049D01*
X168483058Y-97459330D01*
X168489937Y-97456833D01*
X168550976Y-97416814D01*
X168554680Y-97414477D01*
X168617107Y-97376595D01*
X168625484Y-97369197D01*
X168625508Y-97369224D01*
X168628500Y-97366571D01*
X168631733Y-97363868D01*
X168637852Y-97359856D01*
X168691128Y-97303617D01*
X168693506Y-97301175D01*
X172763400Y-93231281D01*
X172777812Y-93218895D01*
X172789407Y-93210362D01*
X172789412Y-93210357D01*
X172795307Y-93206019D01*
X172800046Y-93200441D01*
X172800049Y-93200438D01*
X172829524Y-93165743D01*
X172836454Y-93158227D01*
X172842150Y-93152531D01*
X172844413Y-93149670D01*
X172844418Y-93149665D01*
X172859782Y-93130245D01*
X172862571Y-93126844D01*
X172864232Y-93124889D01*
X172909822Y-93071226D01*
X172913148Y-93064713D01*
X172916509Y-93059674D01*
X172919685Y-93054532D01*
X172924223Y-93048795D01*
X172955144Y-92982636D01*
X172957050Y-92978736D01*
X172971072Y-92951276D01*
X172990258Y-92913703D01*
X172991997Y-92906594D01*
X172994093Y-92900960D01*
X172996012Y-92895190D01*
X172999111Y-92888561D01*
X173000830Y-92880300D01*
X173013979Y-92817082D01*
X173014950Y-92812793D01*
X173032297Y-92741901D01*
X173032989Y-92730747D01*
X173033024Y-92730749D01*
X173033264Y-92726777D01*
X173033641Y-92722556D01*
X173035130Y-92715396D01*
X173033035Y-92637969D01*
X173032989Y-92634561D01*
X173032989Y-90045559D01*
X173034422Y-90026609D01*
X173036588Y-90012374D01*
X173036588Y-90012370D01*
X173037688Y-90005140D01*
X173036992Y-89996575D01*
X173033404Y-89952471D01*
X173032989Y-89942256D01*
X173032989Y-89934196D01*
X173029700Y-89905982D01*
X173029267Y-89901607D01*
X173023943Y-89836150D01*
X173023942Y-89836147D01*
X173023349Y-89828852D01*
X173021093Y-89821888D01*
X173019902Y-89815929D01*
X173018518Y-89810074D01*
X173017671Y-89802808D01*
X172992754Y-89734162D01*
X172991337Y-89730034D01*
X172971096Y-89667553D01*
X172971095Y-89667551D01*
X172968840Y-89660590D01*
X172965044Y-89654335D01*
X172962538Y-89648861D01*
X172959819Y-89643431D01*
X172957322Y-89636552D01*
X172917303Y-89575513D01*
X172914956Y-89571794D01*
X172877084Y-89509382D01*
X172869686Y-89501005D01*
X172869713Y-89500981D01*
X172867060Y-89497989D01*
X172864357Y-89494756D01*
X172860345Y-89488637D01*
X172804106Y-89435361D01*
X172801664Y-89432983D01*
X171525770Y-88157089D01*
X171513384Y-88142677D01*
X171504851Y-88131082D01*
X171504846Y-88131077D01*
X171500508Y-88125182D01*
X171494930Y-88120443D01*
X171494927Y-88120440D01*
X171460232Y-88090965D01*
X171452716Y-88084035D01*
X171447021Y-88078340D01*
X171430736Y-88065456D01*
X171424749Y-88060719D01*
X171421345Y-88057928D01*
X171371297Y-88015409D01*
X171371295Y-88015408D01*
X171365715Y-88010667D01*
X171359199Y-88007339D01*
X171354150Y-88003972D01*
X171349021Y-88000805D01*
X171343284Y-87996266D01*
X171277125Y-87965345D01*
X171273225Y-87963439D01*
X171208192Y-87930231D01*
X171201084Y-87928492D01*
X171195441Y-87926393D01*
X171189678Y-87924476D01*
X171183050Y-87921378D01*
X171111583Y-87906513D01*
X171107299Y-87905543D01*
X171036390Y-87888192D01*
X171030788Y-87887844D01*
X171030785Y-87887844D01*
X171025236Y-87887500D01*
X171025238Y-87887464D01*
X171021245Y-87887225D01*
X171017053Y-87886851D01*
X171009885Y-87885360D01*
X170946120Y-87887085D01*
X170932479Y-87887454D01*
X170929072Y-87887500D01*
X163626070Y-87887500D01*
X163607120Y-87886067D01*
X163592885Y-87883901D01*
X163592881Y-87883901D01*
X163585651Y-87882801D01*
X163578359Y-87883394D01*
X163578356Y-87883394D01*
X163532982Y-87887085D01*
X163522767Y-87887500D01*
X163514707Y-87887500D01*
X163511073Y-87887924D01*
X163511067Y-87887924D01*
X163498042Y-87889443D01*
X163486480Y-87890791D01*
X163482132Y-87891221D01*
X163409364Y-87897140D01*
X163402403Y-87899395D01*
X163396463Y-87900582D01*
X163390588Y-87901971D01*
X163383319Y-87902818D01*
X163314670Y-87927736D01*
X163310542Y-87929153D01*
X163248064Y-87949393D01*
X163248062Y-87949394D01*
X163241101Y-87951649D01*
X163234846Y-87955445D01*
X163229372Y-87957951D01*
X163223942Y-87960670D01*
X163217063Y-87963167D01*
X163210943Y-87967180D01*
X163210942Y-87967180D01*
X163156024Y-88003186D01*
X163152320Y-88005523D01*
X163089893Y-88043405D01*
X163081516Y-88050803D01*
X163081492Y-88050776D01*
X163078500Y-88053429D01*
X163075267Y-88056132D01*
X163069148Y-88060144D01*
X163039951Y-88090965D01*
X163015872Y-88116383D01*
X163013494Y-88118825D01*
X161072296Y-90060023D01*
X161009984Y-90094049D01*
X160961105Y-90094975D01*
X160893284Y-90082894D01*
X160822770Y-90082033D01*
X160675082Y-90080228D01*
X160675080Y-90080228D01*
X160669911Y-90080165D01*
X160646156Y-90083800D01*
X160581129Y-90093750D01*
X160510767Y-90084282D01*
X160472976Y-90058295D01*
X157809770Y-87395089D01*
X157797384Y-87380677D01*
X157788851Y-87369082D01*
X157788846Y-87369077D01*
X157784508Y-87363182D01*
X157778930Y-87358443D01*
X157778927Y-87358440D01*
X157744232Y-87328965D01*
X157736716Y-87322035D01*
X157731021Y-87316340D01*
X157724880Y-87311482D01*
X157708749Y-87298719D01*
X157705345Y-87295928D01*
X157655297Y-87253409D01*
X157655295Y-87253408D01*
X157649715Y-87248667D01*
X157643199Y-87245339D01*
X157638150Y-87241972D01*
X157633021Y-87238805D01*
X157627284Y-87234266D01*
X157561125Y-87203345D01*
X157557225Y-87201439D01*
X157555032Y-87200319D01*
X157492192Y-87168231D01*
X157485084Y-87166492D01*
X157479441Y-87164393D01*
X157473678Y-87162476D01*
X157467050Y-87159378D01*
X157395583Y-87144513D01*
X157391299Y-87143543D01*
X157342924Y-87131706D01*
X157320390Y-87126192D01*
X157314788Y-87125844D01*
X157314785Y-87125844D01*
X157309236Y-87125500D01*
X157309238Y-87125464D01*
X157305245Y-87125225D01*
X157301053Y-87124851D01*
X157293885Y-87123360D01*
X157227675Y-87125151D01*
X157216479Y-87125454D01*
X157213072Y-87125500D01*
X155228587Y-87125500D01*
X155154528Y-87101437D01*
X155148098Y-87096765D01*
X155148091Y-87096761D01*
X155142752Y-87092882D01*
X155136724Y-87090198D01*
X155136722Y-87090197D01*
X154974319Y-87017891D01*
X154974318Y-87017891D01*
X154968288Y-87015206D01*
X154874887Y-86995353D01*
X154787944Y-86976872D01*
X154787939Y-86976872D01*
X154781487Y-86975500D01*
X154590513Y-86975500D01*
X154584061Y-86976872D01*
X154584056Y-86976872D01*
X154497113Y-86995353D01*
X154403712Y-87015206D01*
X154397682Y-87017891D01*
X154397681Y-87017891D01*
X154235278Y-87090197D01*
X154235276Y-87090198D01*
X154229248Y-87092882D01*
X154223907Y-87096762D01*
X154223906Y-87096763D01*
X154217473Y-87101437D01*
X154074747Y-87205134D01*
X154070326Y-87210044D01*
X154070325Y-87210045D01*
X153966229Y-87325656D01*
X153946960Y-87347056D01*
X153851473Y-87512444D01*
X153792458Y-87694072D01*
X153791768Y-87700633D01*
X153791768Y-87700635D01*
X153773186Y-87877435D01*
X153772496Y-87884000D01*
X153773186Y-87890565D01*
X153791568Y-88065456D01*
X153792458Y-88073928D01*
X153851473Y-88255556D01*
X153946960Y-88420944D01*
X154074747Y-88562866D01*
X154173843Y-88634864D01*
X154223904Y-88671235D01*
X154229248Y-88675118D01*
X154235276Y-88677802D01*
X154235278Y-88677803D01*
X154397681Y-88750109D01*
X154403712Y-88752794D01*
X154497112Y-88772647D01*
X154584056Y-88791128D01*
X154584061Y-88791128D01*
X154590513Y-88792500D01*
X154781487Y-88792500D01*
X154787939Y-88791128D01*
X154787944Y-88791128D01*
X154874888Y-88772647D01*
X154968288Y-88752794D01*
X154974319Y-88750109D01*
X155136722Y-88677803D01*
X155136724Y-88677802D01*
X155142752Y-88675118D01*
X155148091Y-88671239D01*
X155148098Y-88671235D01*
X155154528Y-88666563D01*
X155228587Y-88642500D01*
X156859629Y-88642500D01*
X156927750Y-88662502D01*
X156948724Y-88679405D01*
X158135724Y-89866405D01*
X158169750Y-89928717D01*
X158164685Y-89999532D01*
X158122138Y-90056368D01*
X158055618Y-90081179D01*
X158046629Y-90081500D01*
X157326866Y-90081500D01*
X157264684Y-90088255D01*
X157128295Y-90139385D01*
X157011739Y-90226739D01*
X156924385Y-90343295D01*
X156873255Y-90479684D01*
X156866500Y-90541866D01*
X156866500Y-90555500D01*
X156846498Y-90623621D01*
X156792842Y-90670114D01*
X156740500Y-90681500D01*
X150943069Y-90681500D01*
X150924121Y-90680067D01*
X150916780Y-90678950D01*
X150909883Y-90677901D01*
X150909881Y-90677901D01*
X150902651Y-90676801D01*
X150895359Y-90677394D01*
X150895356Y-90677394D01*
X150849982Y-90681085D01*
X150839767Y-90681500D01*
X150831707Y-90681500D01*
X150818417Y-90683049D01*
X150803493Y-90684789D01*
X150799118Y-90685222D01*
X150733661Y-90690546D01*
X150733658Y-90690547D01*
X150726363Y-90691140D01*
X150719399Y-90693396D01*
X150713440Y-90694587D01*
X150707585Y-90695971D01*
X150700319Y-90696818D01*
X150631673Y-90721735D01*
X150627545Y-90723152D01*
X150565064Y-90743393D01*
X150565062Y-90743394D01*
X150558101Y-90745649D01*
X150551846Y-90749445D01*
X150546372Y-90751951D01*
X150540942Y-90754670D01*
X150534063Y-90757167D01*
X150473016Y-90797191D01*
X150469327Y-90799518D01*
X150449135Y-90811771D01*
X150411693Y-90834491D01*
X150411688Y-90834495D01*
X150406892Y-90837405D01*
X150398516Y-90844803D01*
X150398493Y-90844777D01*
X150395503Y-90847426D01*
X150392264Y-90850134D01*
X150386148Y-90854144D01*
X150381121Y-90859451D01*
X150381117Y-90859454D01*
X150332872Y-90910383D01*
X150330494Y-90912825D01*
X148101089Y-93142230D01*
X148086677Y-93154616D01*
X148075082Y-93163149D01*
X148075077Y-93163154D01*
X148069182Y-93167492D01*
X148064443Y-93173070D01*
X148064440Y-93173073D01*
X148034965Y-93207768D01*
X148028035Y-93215284D01*
X148022340Y-93220979D01*
X148020060Y-93223861D01*
X148004719Y-93243251D01*
X148001928Y-93246655D01*
X147959409Y-93296703D01*
X147954667Y-93302285D01*
X147951339Y-93308801D01*
X147947972Y-93313850D01*
X147944805Y-93318979D01*
X147940266Y-93324716D01*
X147909345Y-93390875D01*
X147907442Y-93394769D01*
X147874231Y-93459808D01*
X147872492Y-93466916D01*
X147870393Y-93472559D01*
X147868476Y-93478322D01*
X147865378Y-93484950D01*
X147863888Y-93492112D01*
X147863888Y-93492113D01*
X147850514Y-93556412D01*
X147849544Y-93560696D01*
X147832192Y-93631610D01*
X147831500Y-93642764D01*
X147831464Y-93642762D01*
X147831225Y-93646755D01*
X147830851Y-93650947D01*
X147829360Y-93658115D01*
X147829558Y-93665432D01*
X147831454Y-93735521D01*
X147831500Y-93738928D01*
X147831500Y-98563133D01*
X147811498Y-98631254D01*
X147777772Y-98666345D01*
X147745700Y-98688802D01*
X147583802Y-98850700D01*
X147452477Y-99038251D01*
X147450154Y-99043233D01*
X147450151Y-99043238D01*
X147358039Y-99240775D01*
X147355716Y-99245757D01*
X147354294Y-99251065D01*
X147354293Y-99251067D01*
X147300625Y-99451357D01*
X147296457Y-99466913D01*
X147276502Y-99695000D01*
X147296457Y-99923087D01*
X147297881Y-99928400D01*
X147297881Y-99928402D01*
X147310743Y-99976401D01*
X147355716Y-100144243D01*
X147358039Y-100149224D01*
X147358039Y-100149225D01*
X147450151Y-100346762D01*
X147450154Y-100346767D01*
X147452477Y-100351749D01*
X147583802Y-100539300D01*
X147745700Y-100701198D01*
X147750208Y-100704355D01*
X147750211Y-100704357D01*
X147828389Y-100759098D01*
X147933251Y-100832523D01*
X147938233Y-100834846D01*
X147938238Y-100834849D01*
X148135775Y-100926961D01*
X148140757Y-100929284D01*
X148146065Y-100930706D01*
X148146067Y-100930707D01*
X148356598Y-100987119D01*
X148356600Y-100987119D01*
X148361913Y-100988543D01*
X148590000Y-101008498D01*
X148818087Y-100988543D01*
X148823400Y-100987119D01*
X148823402Y-100987119D01*
X149033933Y-100930707D01*
X149033935Y-100930706D01*
X149039243Y-100929284D01*
X149044225Y-100926961D01*
X149241762Y-100834849D01*
X149241767Y-100834846D01*
X149246749Y-100832523D01*
X149351611Y-100759098D01*
X149429789Y-100704357D01*
X149429792Y-100704355D01*
X149434300Y-100701198D01*
X149596198Y-100539300D01*
X149727523Y-100351749D01*
X149729846Y-100346767D01*
X149729849Y-100346762D01*
X149821961Y-100149225D01*
X149821961Y-100149224D01*
X149824284Y-100144243D01*
X149869258Y-99976401D01*
X149882119Y-99928402D01*
X149882119Y-99928400D01*
X149883543Y-99923087D01*
X149903498Y-99695000D01*
X149883543Y-99466913D01*
X149879375Y-99451357D01*
X149825707Y-99251067D01*
X149825706Y-99251065D01*
X149824284Y-99245757D01*
X149821961Y-99240775D01*
X149729849Y-99043238D01*
X149729846Y-99043233D01*
X149727523Y-99038251D01*
X149596198Y-98850700D01*
X149434300Y-98688802D01*
X149402229Y-98666345D01*
X149357901Y-98610890D01*
X149348500Y-98563133D01*
X149348500Y-94092371D01*
X149368502Y-94024250D01*
X149385405Y-94003276D01*
X151153276Y-92235405D01*
X151215588Y-92201379D01*
X151242371Y-92198500D01*
X156740500Y-92198500D01*
X156808621Y-92218502D01*
X156855114Y-92272158D01*
X156866500Y-92324500D01*
X156866500Y-92338134D01*
X156873255Y-92400316D01*
X156924385Y-92536705D01*
X157011739Y-92653261D01*
X157128295Y-92740615D01*
X157264684Y-92791745D01*
X157326866Y-92798500D01*
X159123134Y-92798500D01*
X159185316Y-92791745D01*
X159321705Y-92740615D01*
X159438261Y-92653261D01*
X159525615Y-92536705D01*
X159547799Y-92477529D01*
X159569598Y-92419382D01*
X159612240Y-92362618D01*
X159678802Y-92337918D01*
X159748150Y-92353126D01*
X159782817Y-92381114D01*
X159811250Y-92413938D01*
X159983126Y-92556632D01*
X160176000Y-92669338D01*
X160384692Y-92749030D01*
X160389760Y-92750061D01*
X160389763Y-92750062D01*
X160485590Y-92769558D01*
X160603597Y-92793567D01*
X160608772Y-92793757D01*
X160608774Y-92793757D01*
X160821673Y-92801564D01*
X160821677Y-92801564D01*
X160826837Y-92801753D01*
X160831957Y-92801097D01*
X160831959Y-92801097D01*
X161043288Y-92774025D01*
X161043289Y-92774025D01*
X161048416Y-92773368D01*
X161053366Y-92771883D01*
X161257429Y-92710661D01*
X161257434Y-92710659D01*
X161262384Y-92709174D01*
X161462994Y-92610896D01*
X161644860Y-92481173D01*
X161655012Y-92471057D01*
X161733884Y-92392460D01*
X161803096Y-92323489D01*
X161866391Y-92235405D01*
X161933453Y-92142077D01*
X161934776Y-92143028D01*
X161981645Y-92099857D01*
X162051580Y-92087625D01*
X162117026Y-92115144D01*
X162144875Y-92146994D01*
X162204987Y-92245088D01*
X162351250Y-92413938D01*
X162523126Y-92556632D01*
X162716000Y-92669338D01*
X162924692Y-92749030D01*
X163016214Y-92767650D01*
X163142446Y-92793333D01*
X163205212Y-92826514D01*
X163240074Y-92888362D01*
X163235965Y-92959239D01*
X163206421Y-93005898D01*
X162773724Y-93438595D01*
X162711412Y-93472621D01*
X162684629Y-93475500D01*
X155482587Y-93475500D01*
X155408528Y-93451437D01*
X155402098Y-93446765D01*
X155402091Y-93446761D01*
X155396752Y-93442882D01*
X155390724Y-93440198D01*
X155390722Y-93440197D01*
X155228319Y-93367891D01*
X155228318Y-93367891D01*
X155222288Y-93365206D01*
X155128888Y-93345353D01*
X155041944Y-93326872D01*
X155041939Y-93326872D01*
X155035487Y-93325500D01*
X154844513Y-93325500D01*
X154838061Y-93326872D01*
X154838056Y-93326872D01*
X154751113Y-93345353D01*
X154657712Y-93365206D01*
X154651682Y-93367891D01*
X154651681Y-93367891D01*
X154489278Y-93440197D01*
X154489276Y-93440198D01*
X154483248Y-93442882D01*
X154477907Y-93446762D01*
X154477906Y-93446763D01*
X154442401Y-93472559D01*
X154328747Y-93555134D01*
X154324326Y-93560044D01*
X154324325Y-93560045D01*
X154236023Y-93658115D01*
X154200960Y-93697056D01*
X154105473Y-93862444D01*
X154046458Y-94044072D01*
X154045768Y-94050633D01*
X154045768Y-94050635D01*
X154027186Y-94227435D01*
X154026496Y-94234000D01*
X154038433Y-94347568D01*
X154038933Y-94352329D01*
X154026161Y-94422168D01*
X153977659Y-94474014D01*
X153913623Y-94491500D01*
X153274371Y-94491500D01*
X153206250Y-94471498D01*
X153185276Y-94454595D01*
X152812125Y-94081444D01*
X152781387Y-94031285D01*
X152768370Y-93991221D01*
X152726527Y-93862444D01*
X152631040Y-93697056D01*
X152595978Y-93658115D01*
X152507675Y-93560045D01*
X152507674Y-93560044D01*
X152503253Y-93555134D01*
X152389599Y-93472559D01*
X152354094Y-93446763D01*
X152354093Y-93446762D01*
X152348752Y-93442882D01*
X152342724Y-93440198D01*
X152342722Y-93440197D01*
X152180319Y-93367891D01*
X152180318Y-93367891D01*
X152174288Y-93365206D01*
X152080888Y-93345353D01*
X151993944Y-93326872D01*
X151993939Y-93326872D01*
X151987487Y-93325500D01*
X151796513Y-93325500D01*
X151790061Y-93326872D01*
X151790056Y-93326872D01*
X151703113Y-93345353D01*
X151609712Y-93365206D01*
X151603682Y-93367891D01*
X151603681Y-93367891D01*
X151441278Y-93440197D01*
X151441276Y-93440198D01*
X151435248Y-93442882D01*
X151429907Y-93446762D01*
X151429906Y-93446763D01*
X151394401Y-93472559D01*
X151280747Y-93555134D01*
X151276326Y-93560044D01*
X151276325Y-93560045D01*
X151188023Y-93658115D01*
X151152960Y-93697056D01*
X151057473Y-93862444D01*
X150998458Y-94044072D01*
X150997768Y-94050633D01*
X150997768Y-94050635D01*
X150979186Y-94227435D01*
X150978496Y-94234000D01*
X150979186Y-94240564D01*
X150979186Y-94240565D01*
X150993382Y-94375629D01*
X150998458Y-94423928D01*
X151057473Y-94605556D01*
X151152960Y-94770944D01*
X151157378Y-94775851D01*
X151157379Y-94775852D01*
X151275719Y-94907282D01*
X151280747Y-94912866D01*
X151377347Y-94983050D01*
X151420923Y-95014710D01*
X151435248Y-95025118D01*
X151441276Y-95027802D01*
X151441278Y-95027803D01*
X151547658Y-95075166D01*
X151609712Y-95102794D01*
X151616167Y-95104166D01*
X151616176Y-95104169D01*
X151672772Y-95116199D01*
X151735669Y-95150350D01*
X152324230Y-95738911D01*
X152336616Y-95753323D01*
X152345149Y-95764918D01*
X152345154Y-95764923D01*
X152349492Y-95770818D01*
X152355070Y-95775557D01*
X152355073Y-95775560D01*
X152389768Y-95805035D01*
X152397284Y-95811965D01*
X152402979Y-95817660D01*
X152405861Y-95819940D01*
X152425251Y-95835281D01*
X152428655Y-95838072D01*
X152478703Y-95880591D01*
X152484285Y-95885333D01*
X152490801Y-95888661D01*
X152495850Y-95892028D01*
X152500979Y-95895195D01*
X152506716Y-95899734D01*
X152572875Y-95930655D01*
X152576769Y-95932558D01*
X152641808Y-95965769D01*
X152648916Y-95967508D01*
X152654559Y-95969607D01*
X152660322Y-95971524D01*
X152666950Y-95974622D01*
X152674112Y-95976112D01*
X152674113Y-95976112D01*
X152738412Y-95989486D01*
X152742696Y-95990456D01*
X152813610Y-96007808D01*
X152819212Y-96008156D01*
X152819215Y-96008156D01*
X152824764Y-96008500D01*
X152824762Y-96008536D01*
X152828755Y-96008775D01*
X152832947Y-96009149D01*
X152840115Y-96010640D01*
X152917520Y-96008546D01*
X152920928Y-96008500D01*
X155063887Y-96008500D01*
X155132008Y-96028502D01*
X155178501Y-96082158D01*
X155188605Y-96152432D01*
X155159111Y-96217012D01*
X155152982Y-96223595D01*
X146515595Y-104860982D01*
X146453283Y-104895008D01*
X146382468Y-104889943D01*
X146325632Y-104847396D01*
X146300821Y-104780876D01*
X146300500Y-104771887D01*
X146300500Y-93584371D01*
X146320502Y-93516250D01*
X146337405Y-93495276D01*
X154771765Y-85060916D01*
X154834077Y-85026890D01*
X154860860Y-85024011D01*
X165332419Y-85024011D01*
X165351369Y-85025444D01*
X165365604Y-85027610D01*
X165365608Y-85027610D01*
X165372838Y-85028710D01*
X165380130Y-85028117D01*
X165380133Y-85028117D01*
X165425507Y-85024426D01*
X165435722Y-85024011D01*
X165443782Y-85024011D01*
X165457072Y-85022462D01*
X165471996Y-85020722D01*
X165476371Y-85020289D01*
X165541828Y-85014965D01*
X165541831Y-85014964D01*
X165549126Y-85014371D01*
X165556090Y-85012115D01*
X165562049Y-85010924D01*
X165567904Y-85009540D01*
X165575170Y-85008693D01*
X165643816Y-84983776D01*
X165647944Y-84982359D01*
X165710425Y-84962118D01*
X165710427Y-84962117D01*
X165717388Y-84959862D01*
X165723643Y-84956066D01*
X165729117Y-84953560D01*
X165734547Y-84950841D01*
X165741426Y-84948344D01*
X165784551Y-84920070D01*
X165802465Y-84908325D01*
X165806169Y-84905988D01*
X165868596Y-84868106D01*
X165876973Y-84860708D01*
X165876997Y-84860735D01*
X165879989Y-84858082D01*
X165883222Y-84855379D01*
X165889341Y-84851367D01*
X165942617Y-84795128D01*
X165944995Y-84792686D01*
X168076441Y-82661240D01*
X168138753Y-82627214D01*
X168190657Y-82626865D01*
X168223597Y-82633567D01*
X168228772Y-82633757D01*
X168228774Y-82633757D01*
X168441673Y-82641564D01*
X168441677Y-82641564D01*
X168446837Y-82641753D01*
X168451957Y-82641097D01*
X168451959Y-82641097D01*
X168663288Y-82614025D01*
X168663289Y-82614025D01*
X168668416Y-82613368D01*
X168673366Y-82611883D01*
X168877429Y-82550661D01*
X168877434Y-82550659D01*
X168882384Y-82549174D01*
X169082994Y-82450896D01*
X169264860Y-82321173D01*
X169423096Y-82163489D01*
X169486391Y-82075405D01*
X169553453Y-81982077D01*
X169554776Y-81983028D01*
X169601645Y-81939857D01*
X169671580Y-81927625D01*
X169737026Y-81955144D01*
X169764875Y-81986994D01*
X169824987Y-82085088D01*
X169971250Y-82253938D01*
X170143126Y-82396632D01*
X170336000Y-82509338D01*
X170544692Y-82589030D01*
X170549760Y-82590061D01*
X170549763Y-82590062D01*
X170657017Y-82611883D01*
X170763597Y-82633567D01*
X170768772Y-82633757D01*
X170768774Y-82633757D01*
X170981673Y-82641564D01*
X170981677Y-82641564D01*
X170986837Y-82641753D01*
X171126908Y-82623809D01*
X171197017Y-82634993D01*
X171232012Y-82659693D01*
X173702595Y-85130276D01*
X173736621Y-85192588D01*
X173739500Y-85219371D01*
X173739500Y-94375629D01*
X173719498Y-94443750D01*
X173702595Y-94464724D01*
X169807990Y-98359329D01*
X169745678Y-98393355D01*
X169707913Y-98395755D01*
X169550475Y-98381981D01*
X169545000Y-98381502D01*
X169316913Y-98401457D01*
X169311600Y-98402881D01*
X169311598Y-98402881D01*
X169101067Y-98459293D01*
X169101065Y-98459294D01*
X169095757Y-98460716D01*
X169090776Y-98463039D01*
X169090775Y-98463039D01*
X168893238Y-98555151D01*
X168893233Y-98555154D01*
X168888251Y-98557477D01*
X168786500Y-98628724D01*
X168705211Y-98685643D01*
X168705208Y-98685645D01*
X168700700Y-98688802D01*
X168538802Y-98850700D01*
X168407477Y-99038251D01*
X168405154Y-99043233D01*
X168405151Y-99043238D01*
X168313039Y-99240775D01*
X168310716Y-99245757D01*
X168309294Y-99251065D01*
X168309293Y-99251067D01*
X168255625Y-99451357D01*
X168251457Y-99466913D01*
X168231502Y-99695000D01*
X168251457Y-99923087D01*
X168252881Y-99928400D01*
X168252881Y-99928402D01*
X168265743Y-99976401D01*
X168310716Y-100144243D01*
X168313039Y-100149224D01*
X168313039Y-100149225D01*
X168405151Y-100346762D01*
X168405154Y-100346767D01*
X168407477Y-100351749D01*
X168538802Y-100539300D01*
X168700700Y-100701198D01*
X168705208Y-100704355D01*
X168705211Y-100704357D01*
X168783389Y-100759098D01*
X168888251Y-100832523D01*
X168893233Y-100834846D01*
X168893238Y-100834849D01*
X169090775Y-100926961D01*
X169095757Y-100929284D01*
X169101065Y-100930706D01*
X169101067Y-100930707D01*
X169311598Y-100987119D01*
X169311600Y-100987119D01*
X169316913Y-100988543D01*
X169545000Y-101008498D01*
X169773087Y-100988543D01*
X169778400Y-100987119D01*
X169778402Y-100987119D01*
X169988933Y-100930707D01*
X169988935Y-100930706D01*
X169994243Y-100929284D01*
X169999225Y-100926961D01*
X170196762Y-100834849D01*
X170196767Y-100834846D01*
X170201749Y-100832523D01*
X170306611Y-100759098D01*
X170384789Y-100704357D01*
X170384792Y-100704355D01*
X170389300Y-100701198D01*
X170551198Y-100539300D01*
X170682523Y-100351749D01*
X170684846Y-100346767D01*
X170684849Y-100346762D01*
X170776961Y-100149225D01*
X170776961Y-100149224D01*
X170779284Y-100144243D01*
X170824258Y-99976401D01*
X170837119Y-99928402D01*
X170837119Y-99928400D01*
X170838543Y-99923087D01*
X170858498Y-99695000D01*
X170844245Y-99532087D01*
X170858234Y-99462482D01*
X170880671Y-99432010D01*
X174986911Y-95325770D01*
X175001323Y-95313384D01*
X175012918Y-95304851D01*
X175012923Y-95304846D01*
X175018818Y-95300508D01*
X175023557Y-95294930D01*
X175023560Y-95294927D01*
X175053035Y-95260232D01*
X175059965Y-95252716D01*
X175065661Y-95247020D01*
X175067924Y-95244159D01*
X175067929Y-95244154D01*
X175083293Y-95224734D01*
X175086082Y-95221333D01*
X175121331Y-95179842D01*
X175133333Y-95165715D01*
X175136659Y-95159202D01*
X175140020Y-95154163D01*
X175143196Y-95149021D01*
X175147734Y-95143284D01*
X175178655Y-95077125D01*
X175180561Y-95073225D01*
X175213769Y-95008192D01*
X175215508Y-95001083D01*
X175217604Y-94995449D01*
X175219523Y-94989679D01*
X175222622Y-94983050D01*
X175237491Y-94911565D01*
X175238461Y-94907282D01*
X175254473Y-94841844D01*
X175255808Y-94836390D01*
X175256500Y-94825236D01*
X175256535Y-94825238D01*
X175256775Y-94821266D01*
X175257152Y-94817045D01*
X175258641Y-94809885D01*
X175256546Y-94732458D01*
X175256500Y-94729050D01*
X175256500Y-84920070D01*
X175257933Y-84901120D01*
X175260099Y-84886885D01*
X175260099Y-84886881D01*
X175261199Y-84879651D01*
X175259661Y-84860735D01*
X175256915Y-84826982D01*
X175256500Y-84816767D01*
X175256500Y-84808707D01*
X175253211Y-84780493D01*
X175252778Y-84776118D01*
X175247454Y-84710661D01*
X175247453Y-84710658D01*
X175246860Y-84703363D01*
X175244604Y-84696399D01*
X175243413Y-84690440D01*
X175242029Y-84684585D01*
X175241182Y-84677319D01*
X175216265Y-84608673D01*
X175214848Y-84604545D01*
X175194607Y-84542064D01*
X175194606Y-84542062D01*
X175192351Y-84535101D01*
X175188555Y-84528846D01*
X175186049Y-84523372D01*
X175183330Y-84517942D01*
X175180833Y-84511063D01*
X175152764Y-84468251D01*
X175140814Y-84450024D01*
X175138467Y-84446305D01*
X175100595Y-84383893D01*
X175093197Y-84375516D01*
X175093224Y-84375492D01*
X175090571Y-84372500D01*
X175087868Y-84369267D01*
X175083856Y-84363148D01*
X175027617Y-84309872D01*
X175025175Y-84307494D01*
X172304609Y-81586928D01*
X172270583Y-81524616D01*
X172268782Y-81481389D01*
X172286529Y-81346590D01*
X172288156Y-81280000D01*
X172269852Y-81057361D01*
X172222960Y-80870676D01*
X172225764Y-80799735D01*
X172266477Y-80741572D01*
X172332172Y-80714653D01*
X172401992Y-80727524D01*
X172434259Y-80750886D01*
X175734595Y-84051222D01*
X175768621Y-84113534D01*
X175771500Y-84140317D01*
X175771500Y-98563133D01*
X175751498Y-98631254D01*
X175717772Y-98666345D01*
X175685700Y-98688802D01*
X175523802Y-98850700D01*
X175392477Y-99038251D01*
X175390154Y-99043233D01*
X175390151Y-99043238D01*
X175298039Y-99240775D01*
X175295716Y-99245757D01*
X175294294Y-99251065D01*
X175294293Y-99251067D01*
X175240625Y-99451357D01*
X175236457Y-99466913D01*
X175216502Y-99695000D01*
X175236457Y-99923087D01*
X175237881Y-99928400D01*
X175237881Y-99928402D01*
X175250743Y-99976401D01*
X175295716Y-100144243D01*
X175298039Y-100149224D01*
X175298039Y-100149225D01*
X175390151Y-100346762D01*
X175390154Y-100346767D01*
X175392477Y-100351749D01*
X175523802Y-100539300D01*
X175685700Y-100701198D01*
X175690208Y-100704355D01*
X175690211Y-100704357D01*
X175768389Y-100759098D01*
X175873251Y-100832523D01*
X175878233Y-100834846D01*
X175878238Y-100834849D01*
X176075775Y-100926961D01*
X176080757Y-100929284D01*
X176086065Y-100930706D01*
X176086067Y-100930707D01*
X176296598Y-100987119D01*
X176296600Y-100987119D01*
X176301913Y-100988543D01*
X176530000Y-101008498D01*
X176758087Y-100988543D01*
X176763400Y-100987119D01*
X176763402Y-100987119D01*
X176973933Y-100930707D01*
X176973935Y-100930706D01*
X176979243Y-100929284D01*
X176984225Y-100926961D01*
X177181762Y-100834849D01*
X177181767Y-100834846D01*
X177186749Y-100832523D01*
X177291611Y-100759098D01*
X177369789Y-100704357D01*
X177369792Y-100704355D01*
X177374300Y-100701198D01*
X177536198Y-100539300D01*
X177667523Y-100351749D01*
X177669846Y-100346767D01*
X177669849Y-100346762D01*
X177761961Y-100149225D01*
X177761961Y-100149224D01*
X177764284Y-100144243D01*
X177809258Y-99976401D01*
X177822119Y-99928402D01*
X177822119Y-99928400D01*
X177823543Y-99923087D01*
X177843498Y-99695000D01*
X177823543Y-99466913D01*
X177819375Y-99451357D01*
X177765707Y-99251067D01*
X177765706Y-99251065D01*
X177764284Y-99245757D01*
X177761961Y-99240775D01*
X177669849Y-99043238D01*
X177669846Y-99043233D01*
X177667523Y-99038251D01*
X177536198Y-98850700D01*
X177374300Y-98688802D01*
X177342229Y-98666345D01*
X177297901Y-98610890D01*
X177288500Y-98563133D01*
X177288500Y-83841015D01*
X177289933Y-83822064D01*
X177292099Y-83807829D01*
X177292099Y-83807827D01*
X177293199Y-83800597D01*
X177288915Y-83747928D01*
X177288500Y-83737713D01*
X177288500Y-83729653D01*
X177285211Y-83701439D01*
X177284778Y-83697064D01*
X177279454Y-83631607D01*
X177279453Y-83631604D01*
X177278860Y-83624309D01*
X177276604Y-83617345D01*
X177275413Y-83611386D01*
X177274029Y-83605531D01*
X177273182Y-83598265D01*
X177248265Y-83529619D01*
X177246848Y-83525491D01*
X177226607Y-83463010D01*
X177226606Y-83463008D01*
X177224351Y-83456047D01*
X177220555Y-83449792D01*
X177218049Y-83444318D01*
X177215330Y-83438888D01*
X177212833Y-83432009D01*
X177172809Y-83370962D01*
X177170472Y-83367258D01*
X177135509Y-83309639D01*
X177135505Y-83309634D01*
X177132595Y-83304838D01*
X177125197Y-83296462D01*
X177125223Y-83296439D01*
X177122574Y-83293449D01*
X177119866Y-83290210D01*
X177115856Y-83284094D01*
X177110549Y-83279067D01*
X177110546Y-83279063D01*
X177059617Y-83230818D01*
X177057175Y-83228440D01*
X172587824Y-78759089D01*
X172575438Y-78744677D01*
X172566905Y-78733082D01*
X172566900Y-78733077D01*
X172562562Y-78727182D01*
X172556984Y-78722443D01*
X172556981Y-78722440D01*
X172522286Y-78692965D01*
X172514770Y-78686035D01*
X172509075Y-78680340D01*
X172492790Y-78667456D01*
X172486803Y-78662719D01*
X172483399Y-78659928D01*
X172433351Y-78617409D01*
X172433349Y-78617408D01*
X172427769Y-78612667D01*
X172421253Y-78609339D01*
X172416204Y-78605972D01*
X172411075Y-78602805D01*
X172405338Y-78598266D01*
X172339179Y-78567345D01*
X172335279Y-78565439D01*
X172270246Y-78532231D01*
X172263138Y-78530492D01*
X172257495Y-78528393D01*
X172251732Y-78526476D01*
X172245104Y-78523378D01*
X172173637Y-78508513D01*
X172169353Y-78507543D01*
X172098444Y-78490192D01*
X172092842Y-78489844D01*
X172092839Y-78489844D01*
X172087290Y-78489500D01*
X172087292Y-78489464D01*
X172083299Y-78489225D01*
X172079107Y-78488851D01*
X172071939Y-78487360D01*
X172008174Y-78489085D01*
X171994533Y-78489454D01*
X171991126Y-78489500D01*
X131639070Y-78489500D01*
X131620120Y-78488067D01*
X131605885Y-78485901D01*
X131605881Y-78485901D01*
X131598651Y-78484801D01*
X131591359Y-78485394D01*
X131591356Y-78485394D01*
X131545982Y-78489085D01*
X131535767Y-78489500D01*
X131527707Y-78489500D01*
X131524073Y-78489924D01*
X131524067Y-78489924D01*
X131511042Y-78491443D01*
X131499480Y-78492791D01*
X131495132Y-78493221D01*
X131422364Y-78499140D01*
X131415403Y-78501395D01*
X131409463Y-78502582D01*
X131403588Y-78503971D01*
X131396319Y-78504818D01*
X131327670Y-78529736D01*
X131323542Y-78531153D01*
X131261064Y-78551393D01*
X131261062Y-78551394D01*
X131254101Y-78553649D01*
X131247846Y-78557445D01*
X131242372Y-78559951D01*
X131236942Y-78562670D01*
X131230063Y-78565167D01*
X131223943Y-78569180D01*
X131223942Y-78569180D01*
X131169024Y-78605186D01*
X131165320Y-78607523D01*
X131102893Y-78645405D01*
X131094516Y-78652803D01*
X131094492Y-78652776D01*
X131091500Y-78655429D01*
X131088267Y-78658132D01*
X131082148Y-78662144D01*
X131052951Y-78692965D01*
X131028872Y-78718383D01*
X131026494Y-78720825D01*
X129847296Y-79900023D01*
X129784984Y-79934049D01*
X129736105Y-79934975D01*
X129668284Y-79922894D01*
X129594452Y-79921992D01*
X129450081Y-79920228D01*
X129450079Y-79920228D01*
X129444911Y-79920165D01*
X129224091Y-79953955D01*
X129011756Y-80023357D01*
X128813607Y-80126507D01*
X128809474Y-80129610D01*
X128809471Y-80129612D01*
X128695729Y-80215012D01*
X128634965Y-80260635D01*
X128480629Y-80422138D01*
X128373201Y-80579621D01*
X128318293Y-80624621D01*
X128247768Y-80632792D01*
X128184021Y-80601538D01*
X128163324Y-80577054D01*
X128082822Y-80452617D01*
X128082820Y-80452614D01*
X128080014Y-80448277D01*
X127929670Y-80283051D01*
X127925619Y-80279852D01*
X127925615Y-80279848D01*
X127758414Y-80147800D01*
X127758410Y-80147798D01*
X127754359Y-80144598D01*
X127558789Y-80036638D01*
X127553920Y-80034914D01*
X127553916Y-80034912D01*
X127353087Y-79963795D01*
X127353083Y-79963794D01*
X127348212Y-79962069D01*
X127343119Y-79961162D01*
X127343116Y-79961161D01*
X127133373Y-79923800D01*
X127133367Y-79923799D01*
X127128284Y-79922894D01*
X127054452Y-79921992D01*
X126910081Y-79920228D01*
X126910079Y-79920228D01*
X126904911Y-79920165D01*
X126684091Y-79953955D01*
X126471756Y-80023357D01*
X126273607Y-80126507D01*
X126269474Y-80129610D01*
X126269471Y-80129612D01*
X126155729Y-80215012D01*
X126094965Y-80260635D01*
X125940629Y-80422138D01*
X125814743Y-80606680D01*
X125768635Y-80706011D01*
X125734445Y-80779669D01*
X125720688Y-80809305D01*
X125660989Y-81024570D01*
X125637251Y-81246695D01*
X125650110Y-81469715D01*
X125651247Y-81474760D01*
X125651966Y-81479877D01*
X125650518Y-81480081D01*
X125646398Y-81544274D01*
X125617119Y-81590200D01*
X123334059Y-83873260D01*
X123319647Y-83885646D01*
X123308052Y-83894179D01*
X123308047Y-83894184D01*
X123302152Y-83898522D01*
X123297413Y-83904100D01*
X123297410Y-83904103D01*
X123267935Y-83938798D01*
X123261005Y-83946314D01*
X123255310Y-83952009D01*
X123253030Y-83954891D01*
X123237689Y-83974281D01*
X123234898Y-83977685D01*
X123192379Y-84027733D01*
X123187637Y-84033315D01*
X123184309Y-84039831D01*
X123180942Y-84044880D01*
X123177775Y-84050009D01*
X123173236Y-84055746D01*
X123142315Y-84121905D01*
X123140412Y-84125799D01*
X123107201Y-84190838D01*
X123105462Y-84197946D01*
X123103363Y-84203589D01*
X123101446Y-84209352D01*
X123098348Y-84215980D01*
X123096858Y-84223142D01*
X123096858Y-84223143D01*
X123083484Y-84287442D01*
X123082514Y-84291726D01*
X123065162Y-84362640D01*
X123064470Y-84373794D01*
X123064434Y-84373792D01*
X123064195Y-84377785D01*
X123063821Y-84381977D01*
X123062330Y-84389145D01*
X123062528Y-84396462D01*
X123064424Y-84466551D01*
X123064470Y-84469958D01*
X123064470Y-111764427D01*
X123063037Y-111783377D01*
X123059771Y-111804846D01*
X123060364Y-111812138D01*
X123060364Y-111812141D01*
X123064055Y-111857515D01*
X123064470Y-111867730D01*
X123064470Y-111875790D01*
X123065560Y-111885137D01*
X123067759Y-111904004D01*
X123068192Y-111908379D01*
X123074110Y-111981134D01*
X123076366Y-111988098D01*
X123077557Y-111994057D01*
X123078941Y-111999912D01*
X123079788Y-112007178D01*
X123104705Y-112075824D01*
X123106122Y-112079952D01*
X123128619Y-112149396D01*
X123132415Y-112155651D01*
X123134921Y-112161125D01*
X123137640Y-112166555D01*
X123140137Y-112173434D01*
X123144150Y-112179554D01*
X123144150Y-112179555D01*
X123180156Y-112234473D01*
X123182493Y-112238177D01*
X123220375Y-112300604D01*
X123224091Y-112304812D01*
X123224092Y-112304813D01*
X123227773Y-112308981D01*
X123227746Y-112309005D01*
X123230399Y-112311997D01*
X123233102Y-112315230D01*
X123237114Y-112321349D01*
X123242426Y-112326381D01*
X123293353Y-112374625D01*
X123295795Y-112377003D01*
X125884096Y-114965304D01*
X125918122Y-115027616D01*
X125921001Y-115054399D01*
X125921001Y-121901500D01*
X125900999Y-121969621D01*
X125847343Y-122016114D01*
X125795001Y-122027500D01*
X125634513Y-122027500D01*
X125628061Y-122028872D01*
X125628056Y-122028872D01*
X125568700Y-122041489D01*
X125447712Y-122067206D01*
X125441682Y-122069891D01*
X125441681Y-122069891D01*
X125279278Y-122142197D01*
X125279276Y-122142198D01*
X125273248Y-122144882D01*
X125118747Y-122257134D01*
X125114326Y-122262044D01*
X125114325Y-122262045D01*
X125011143Y-122376641D01*
X124990960Y-122399056D01*
X124895473Y-122564444D01*
X124843938Y-122723053D01*
X124840613Y-122733285D01*
X124809875Y-122783444D01*
X122150724Y-125442595D01*
X122088412Y-125476621D01*
X122061629Y-125479500D01*
X121083939Y-125479500D01*
X121015818Y-125459498D01*
X120978147Y-125421941D01*
X120970818Y-125410612D01*
X120968014Y-125406277D01*
X120817670Y-125241051D01*
X120813619Y-125237852D01*
X120813615Y-125237848D01*
X120646414Y-125105800D01*
X120646410Y-125105798D01*
X120642359Y-125102598D01*
X120601053Y-125079796D01*
X120551084Y-125029364D01*
X120536312Y-124959921D01*
X120561428Y-124893516D01*
X120588780Y-124866909D01*
X120632603Y-124835650D01*
X120767860Y-124739173D01*
X120926096Y-124581489D01*
X120985594Y-124498689D01*
X121053435Y-124404277D01*
X121056453Y-124400077D01*
X121155430Y-124199811D01*
X121220370Y-123986069D01*
X121249529Y-123764590D01*
X121251156Y-123698000D01*
X121232852Y-123475361D01*
X121178431Y-123258702D01*
X121089354Y-123053840D01*
X120990837Y-122901556D01*
X120970822Y-122870617D01*
X120970820Y-122870614D01*
X120968014Y-122866277D01*
X120817670Y-122701051D01*
X120813619Y-122697852D01*
X120813615Y-122697848D01*
X120646414Y-122565800D01*
X120646410Y-122565798D01*
X120642359Y-122562598D01*
X120601053Y-122539796D01*
X120551084Y-122489364D01*
X120536312Y-122419921D01*
X120561428Y-122353516D01*
X120588780Y-122326909D01*
X120657498Y-122277893D01*
X120767860Y-122199173D01*
X120809537Y-122157642D01*
X120849209Y-122118107D01*
X120926096Y-122041489D01*
X120963161Y-121989908D01*
X121053435Y-121864277D01*
X121056453Y-121860077D01*
X121078421Y-121815629D01*
X121153136Y-121664453D01*
X121153137Y-121664451D01*
X121155430Y-121659811D01*
X121213048Y-121470169D01*
X121218865Y-121451023D01*
X121218865Y-121451021D01*
X121220370Y-121446069D01*
X121249529Y-121224590D01*
X121251156Y-121158000D01*
X121232852Y-120935361D01*
X121178431Y-120718702D01*
X121089354Y-120513840D01*
X121045386Y-120445876D01*
X120970822Y-120330617D01*
X120970820Y-120330614D01*
X120968014Y-120326277D01*
X120817670Y-120161051D01*
X120813619Y-120157852D01*
X120813615Y-120157848D01*
X120646414Y-120025800D01*
X120646410Y-120025798D01*
X120642359Y-120022598D01*
X120601053Y-119999796D01*
X120551084Y-119949364D01*
X120536312Y-119879921D01*
X120561428Y-119813516D01*
X120588780Y-119786909D01*
X120632603Y-119755650D01*
X120767860Y-119659173D01*
X120926096Y-119501489D01*
X120985594Y-119418689D01*
X121053435Y-119324277D01*
X121056453Y-119320077D01*
X121155430Y-119119811D01*
X121220370Y-118906069D01*
X121249529Y-118684590D01*
X121251156Y-118618000D01*
X121232852Y-118395361D01*
X121178431Y-118178702D01*
X121089354Y-117973840D01*
X120968014Y-117786277D01*
X120817670Y-117621051D01*
X120813619Y-117617852D01*
X120813615Y-117617848D01*
X120646414Y-117485800D01*
X120646410Y-117485798D01*
X120642359Y-117482598D01*
X120601053Y-117459796D01*
X120551084Y-117409364D01*
X120536312Y-117339921D01*
X120561428Y-117273516D01*
X120588780Y-117246909D01*
X120632603Y-117215650D01*
X120767860Y-117119173D01*
X120926096Y-116961489D01*
X120947464Y-116931753D01*
X121053435Y-116784277D01*
X121056453Y-116780077D01*
X121075818Y-116740896D01*
X121153136Y-116584453D01*
X121153137Y-116584451D01*
X121155430Y-116579811D01*
X121220370Y-116366069D01*
X121249529Y-116144590D01*
X121251156Y-116078000D01*
X121232852Y-115855361D01*
X121178431Y-115638702D01*
X121089354Y-115433840D01*
X120968014Y-115246277D01*
X120817670Y-115081051D01*
X120813619Y-115077852D01*
X120813615Y-115077848D01*
X120646414Y-114945800D01*
X120646410Y-114945798D01*
X120642359Y-114942598D01*
X120601053Y-114919796D01*
X120551084Y-114869364D01*
X120536312Y-114799921D01*
X120561428Y-114733516D01*
X120588780Y-114706909D01*
X120644116Y-114667438D01*
X120767860Y-114579173D01*
X120774004Y-114573051D01*
X120906904Y-114440614D01*
X120926096Y-114421489D01*
X120967208Y-114364276D01*
X121053435Y-114244277D01*
X121056453Y-114240077D01*
X121063408Y-114226006D01*
X121153136Y-114044453D01*
X121153137Y-114044451D01*
X121155430Y-114039811D01*
X121220370Y-113826069D01*
X121249529Y-113604590D01*
X121251156Y-113538000D01*
X121232852Y-113315361D01*
X121178431Y-113098702D01*
X121089354Y-112893840D01*
X120968014Y-112706277D01*
X120817670Y-112541051D01*
X120813619Y-112537852D01*
X120813615Y-112537848D01*
X120646414Y-112405800D01*
X120646410Y-112405798D01*
X120642359Y-112402598D01*
X120601053Y-112379796D01*
X120551084Y-112329364D01*
X120536312Y-112259921D01*
X120561428Y-112193516D01*
X120588780Y-112166909D01*
X120632603Y-112135650D01*
X120767860Y-112039173D01*
X120926096Y-111881489D01*
X120985594Y-111798689D01*
X121053435Y-111704277D01*
X121056453Y-111700077D01*
X121155430Y-111499811D01*
X121220370Y-111286069D01*
X121249529Y-111064590D01*
X121251156Y-110998000D01*
X121232852Y-110775361D01*
X121178431Y-110558702D01*
X121089354Y-110353840D01*
X120968014Y-110166277D01*
X120817670Y-110001051D01*
X120813619Y-109997852D01*
X120813615Y-109997848D01*
X120646414Y-109865800D01*
X120646410Y-109865798D01*
X120642359Y-109862598D01*
X120601053Y-109839796D01*
X120551084Y-109789364D01*
X120536312Y-109719921D01*
X120561428Y-109653516D01*
X120588780Y-109626909D01*
X120645612Y-109586371D01*
X120767860Y-109499173D01*
X120926096Y-109341489D01*
X120985594Y-109258689D01*
X121053435Y-109164277D01*
X121056453Y-109160077D01*
X121066003Y-109140755D01*
X121153136Y-108964453D01*
X121153137Y-108964451D01*
X121155430Y-108959811D01*
X121201490Y-108808211D01*
X121218865Y-108751023D01*
X121218865Y-108751021D01*
X121220370Y-108746069D01*
X121249529Y-108524590D01*
X121251156Y-108458000D01*
X121232852Y-108235361D01*
X121178431Y-108018702D01*
X121089354Y-107813840D01*
X120968014Y-107626277D01*
X120817670Y-107461051D01*
X120813619Y-107457852D01*
X120813615Y-107457848D01*
X120646414Y-107325800D01*
X120646410Y-107325798D01*
X120642359Y-107322598D01*
X120601053Y-107299796D01*
X120551084Y-107249364D01*
X120536312Y-107179921D01*
X120561428Y-107113516D01*
X120588780Y-107086909D01*
X120632603Y-107055650D01*
X120767860Y-106959173D01*
X120926096Y-106801489D01*
X120985594Y-106718689D01*
X121053435Y-106624277D01*
X121056453Y-106620077D01*
X121155430Y-106419811D01*
X121220370Y-106206069D01*
X121249529Y-105984590D01*
X121251156Y-105918000D01*
X121232852Y-105695361D01*
X121178431Y-105478702D01*
X121089354Y-105273840D01*
X121030575Y-105182982D01*
X120970822Y-105090617D01*
X120970820Y-105090614D01*
X120968014Y-105086277D01*
X120817670Y-104921051D01*
X120813619Y-104917852D01*
X120813615Y-104917848D01*
X120646414Y-104785800D01*
X120646410Y-104785798D01*
X120642359Y-104782598D01*
X120601053Y-104759796D01*
X120551084Y-104709364D01*
X120536312Y-104639921D01*
X120561428Y-104573516D01*
X120588780Y-104546909D01*
X120632603Y-104515650D01*
X120767860Y-104419173D01*
X120926096Y-104261489D01*
X120985594Y-104178689D01*
X121053435Y-104084277D01*
X121056453Y-104080077D01*
X121155430Y-103879811D01*
X121220370Y-103666069D01*
X121249529Y-103444590D01*
X121251156Y-103378000D01*
X121232852Y-103155361D01*
X121178431Y-102938702D01*
X121089354Y-102733840D01*
X120968014Y-102546277D01*
X120817670Y-102381051D01*
X120813619Y-102377852D01*
X120813615Y-102377848D01*
X120646414Y-102245800D01*
X120646410Y-102245798D01*
X120642359Y-102242598D01*
X120601053Y-102219796D01*
X120551084Y-102169364D01*
X120536312Y-102099921D01*
X120561428Y-102033516D01*
X120588780Y-102006909D01*
X120632603Y-101975650D01*
X120767860Y-101879173D01*
X120926096Y-101721489D01*
X120985594Y-101638689D01*
X121053435Y-101544277D01*
X121056453Y-101540077D01*
X121155430Y-101339811D01*
X121220370Y-101126069D01*
X121249529Y-100904590D01*
X121251156Y-100838000D01*
X121232852Y-100615361D01*
X121178431Y-100398702D01*
X121089354Y-100193840D01*
X120968014Y-100006277D01*
X120964532Y-100002450D01*
X120820798Y-99844488D01*
X120789746Y-99780642D01*
X120798141Y-99710143D01*
X120843317Y-99655375D01*
X120869761Y-99641706D01*
X120976297Y-99601767D01*
X120984705Y-99598615D01*
X121101261Y-99511261D01*
X121188615Y-99394705D01*
X121239745Y-99258316D01*
X121246500Y-99196134D01*
X121246500Y-97399866D01*
X121239745Y-97337684D01*
X121188615Y-97201295D01*
X121101261Y-97084739D01*
X120984705Y-96997385D01*
X120848316Y-96946255D01*
X120786134Y-96939500D01*
X118989866Y-96939500D01*
X118927684Y-96946255D01*
X118791295Y-96997385D01*
X118674739Y-97084739D01*
X118587385Y-97201295D01*
X118536255Y-97337684D01*
X118529500Y-97399866D01*
X118529500Y-99196134D01*
X118536255Y-99258316D01*
X118587385Y-99394705D01*
X118674739Y-99511261D01*
X118791295Y-99598615D01*
X118799704Y-99601767D01*
X118799705Y-99601768D01*
X118908451Y-99642535D01*
X118965216Y-99685176D01*
X118989916Y-99751738D01*
X118974709Y-99821087D01*
X118955316Y-99847568D01*
X118828629Y-99980138D01*
X118702743Y-100164680D01*
X118687003Y-100198590D01*
X118618224Y-100346762D01*
X118608688Y-100367305D01*
X118548989Y-100582570D01*
X118525251Y-100804695D01*
X118525548Y-100809848D01*
X118525548Y-100809851D01*
X118532517Y-100930707D01*
X118538110Y-101027715D01*
X118539247Y-101032761D01*
X118539248Y-101032767D01*
X118559119Y-101120939D01*
X118587222Y-101245639D01*
X118671266Y-101452616D01*
X118787987Y-101643088D01*
X118934250Y-101811938D01*
X119106126Y-101954632D01*
X119176595Y-101995811D01*
X119179445Y-101997476D01*
X119228169Y-102049114D01*
X119241240Y-102118897D01*
X119214509Y-102184669D01*
X119174055Y-102218027D01*
X119161607Y-102224507D01*
X119157474Y-102227610D01*
X119157471Y-102227612D01*
X118987100Y-102355530D01*
X118982965Y-102358635D01*
X118828629Y-102520138D01*
X118702743Y-102704680D01*
X118608688Y-102907305D01*
X118548989Y-103122570D01*
X118525251Y-103344695D01*
X118525548Y-103349848D01*
X118525548Y-103349851D01*
X118531011Y-103444590D01*
X118538110Y-103567715D01*
X118539247Y-103572761D01*
X118539248Y-103572767D01*
X118559119Y-103660939D01*
X118587222Y-103785639D01*
X118671266Y-103992616D01*
X118787987Y-104183088D01*
X118934250Y-104351938D01*
X119106126Y-104494632D01*
X119176595Y-104535811D01*
X119179445Y-104537476D01*
X119228169Y-104589114D01*
X119241240Y-104658897D01*
X119214509Y-104724669D01*
X119174055Y-104758027D01*
X119161607Y-104764507D01*
X119157474Y-104767610D01*
X119157471Y-104767612D01*
X118987100Y-104895530D01*
X118982965Y-104898635D01*
X118828629Y-105060138D01*
X118825715Y-105064410D01*
X118825714Y-105064411D01*
X118770216Y-105145768D01*
X118702743Y-105244680D01*
X118687003Y-105278590D01*
X118631664Y-105397808D01*
X118608688Y-105447305D01*
X118548989Y-105662570D01*
X118525251Y-105884695D01*
X118525548Y-105889848D01*
X118525548Y-105889851D01*
X118533650Y-106030371D01*
X118538110Y-106107715D01*
X118539247Y-106112761D01*
X118539248Y-106112767D01*
X118553832Y-106177477D01*
X118587222Y-106325639D01*
X118671266Y-106532616D01*
X118787987Y-106723088D01*
X118934250Y-106891938D01*
X119106126Y-107034632D01*
X119176595Y-107075811D01*
X119179445Y-107077476D01*
X119228169Y-107129114D01*
X119241240Y-107198897D01*
X119214509Y-107264669D01*
X119174055Y-107298027D01*
X119161607Y-107304507D01*
X119157474Y-107307610D01*
X119157471Y-107307612D01*
X118994721Y-107429808D01*
X118982965Y-107438635D01*
X118828629Y-107600138D01*
X118825715Y-107604410D01*
X118825714Y-107604411D01*
X118740556Y-107729249D01*
X118702743Y-107784680D01*
X118687003Y-107818590D01*
X118618224Y-107966762D01*
X118608688Y-107987305D01*
X118548989Y-108202570D01*
X118525251Y-108424695D01*
X118525548Y-108429848D01*
X118525548Y-108429851D01*
X118532517Y-108550707D01*
X118538110Y-108647715D01*
X118539247Y-108652761D01*
X118539248Y-108652767D01*
X118559119Y-108740939D01*
X118587222Y-108865639D01*
X118636141Y-108986113D01*
X118663992Y-109054701D01*
X118671266Y-109072616D01*
X118787987Y-109263088D01*
X118934250Y-109431938D01*
X119106126Y-109574632D01*
X119126215Y-109586371D01*
X119179445Y-109617476D01*
X119228169Y-109669114D01*
X119241240Y-109738897D01*
X119214509Y-109804669D01*
X119174055Y-109838027D01*
X119161607Y-109844507D01*
X119157474Y-109847610D01*
X119157471Y-109847612D01*
X119133247Y-109865800D01*
X118982965Y-109978635D01*
X118828629Y-110140138D01*
X118702743Y-110324680D01*
X118608688Y-110527305D01*
X118548989Y-110742570D01*
X118525251Y-110964695D01*
X118525548Y-110969848D01*
X118525548Y-110969851D01*
X118531011Y-111064590D01*
X118538110Y-111187715D01*
X118539247Y-111192761D01*
X118539248Y-111192767D01*
X118559119Y-111280939D01*
X118587222Y-111405639D01*
X118671266Y-111612616D01*
X118673965Y-111617020D01*
X118770136Y-111773957D01*
X118787987Y-111803088D01*
X118934250Y-111971938D01*
X119106126Y-112114632D01*
X119153702Y-112142433D01*
X119179445Y-112157476D01*
X119228169Y-112209114D01*
X119241240Y-112278897D01*
X119214509Y-112344669D01*
X119174055Y-112378027D01*
X119161607Y-112384507D01*
X119157474Y-112387610D01*
X119157471Y-112387612D01*
X119133247Y-112405800D01*
X118982965Y-112518635D01*
X118828629Y-112680138D01*
X118702743Y-112864680D01*
X118608688Y-113067305D01*
X118548989Y-113282570D01*
X118525251Y-113504695D01*
X118525548Y-113509848D01*
X118525548Y-113509851D01*
X118531011Y-113604590D01*
X118538110Y-113727715D01*
X118539247Y-113732761D01*
X118539248Y-113732767D01*
X118559119Y-113820939D01*
X118587222Y-113945639D01*
X118671266Y-114152616D01*
X118787987Y-114343088D01*
X118934250Y-114511938D01*
X119106126Y-114654632D01*
X119176595Y-114695811D01*
X119179445Y-114697476D01*
X119228169Y-114749114D01*
X119241240Y-114818897D01*
X119214509Y-114884669D01*
X119174055Y-114918027D01*
X119161607Y-114924507D01*
X119157474Y-114927610D01*
X119157471Y-114927612D01*
X118987100Y-115055530D01*
X118982965Y-115058635D01*
X118828629Y-115220138D01*
X118702743Y-115404680D01*
X118608688Y-115607305D01*
X118548989Y-115822570D01*
X118525251Y-116044695D01*
X118525548Y-116049848D01*
X118525548Y-116049851D01*
X118531011Y-116144590D01*
X118538110Y-116267715D01*
X118539247Y-116272761D01*
X118539248Y-116272767D01*
X118540201Y-116276994D01*
X118587222Y-116485639D01*
X118671266Y-116692616D01*
X118699011Y-116737892D01*
X118784370Y-116877185D01*
X118787987Y-116883088D01*
X118934250Y-117051938D01*
X119106126Y-117194632D01*
X119176595Y-117235811D01*
X119179445Y-117237476D01*
X119228169Y-117289114D01*
X119241240Y-117358897D01*
X119214509Y-117424669D01*
X119174055Y-117458027D01*
X119161607Y-117464507D01*
X119157474Y-117467610D01*
X119157471Y-117467612D01*
X119133247Y-117485800D01*
X118982965Y-117598635D01*
X118828629Y-117760138D01*
X118702743Y-117944680D01*
X118608688Y-118147305D01*
X118548989Y-118362570D01*
X118525251Y-118584695D01*
X118525548Y-118589848D01*
X118525548Y-118589851D01*
X118531011Y-118684590D01*
X118538110Y-118807715D01*
X118539247Y-118812761D01*
X118539248Y-118812767D01*
X118559119Y-118900939D01*
X118587222Y-119025639D01*
X118671266Y-119232616D01*
X118787987Y-119423088D01*
X118934250Y-119591938D01*
X119106126Y-119734632D01*
X119176595Y-119775811D01*
X119179445Y-119777476D01*
X119228169Y-119829114D01*
X119241240Y-119898897D01*
X119214509Y-119964669D01*
X119174055Y-119998027D01*
X119161607Y-120004507D01*
X119157474Y-120007610D01*
X119157471Y-120007612D01*
X119133247Y-120025800D01*
X118982965Y-120138635D01*
X118828629Y-120300138D01*
X118702743Y-120484680D01*
X118666017Y-120563800D01*
X118611218Y-120681855D01*
X118608688Y-120687305D01*
X118548989Y-120902570D01*
X118525251Y-121124695D01*
X118525548Y-121129848D01*
X118525548Y-121129851D01*
X118533715Y-121271492D01*
X118538110Y-121347715D01*
X118539247Y-121352761D01*
X118539248Y-121352767D01*
X118549631Y-121398838D01*
X118587222Y-121565639D01*
X118671266Y-121772616D01*
X118694370Y-121810319D01*
X118768751Y-121931697D01*
X118787987Y-121963088D01*
X118934250Y-122131938D01*
X119106126Y-122274632D01*
X119111707Y-122277893D01*
X119179445Y-122317476D01*
X119228169Y-122369114D01*
X119241240Y-122438897D01*
X119214509Y-122504669D01*
X119174055Y-122538027D01*
X119161607Y-122544507D01*
X119157474Y-122547610D01*
X119157471Y-122547612D01*
X118992918Y-122671162D01*
X118982965Y-122678635D01*
X118828629Y-122840138D01*
X118702743Y-123024680D01*
X118659380Y-123118099D01*
X118611095Y-123222120D01*
X118608688Y-123227305D01*
X118548989Y-123442570D01*
X118525251Y-123664695D01*
X118525548Y-123669848D01*
X118525548Y-123669851D01*
X118531011Y-123764590D01*
X118538110Y-123887715D01*
X118539247Y-123892761D01*
X118539248Y-123892767D01*
X118559119Y-123980939D01*
X118587222Y-124105639D01*
X118671266Y-124312616D01*
X118787987Y-124503088D01*
X118934250Y-124671938D01*
X119106126Y-124814632D01*
X119176595Y-124855811D01*
X119179445Y-124857476D01*
X119228169Y-124909114D01*
X119241240Y-124978897D01*
X119214509Y-125044669D01*
X119174055Y-125078027D01*
X119161607Y-125084507D01*
X119157474Y-125087610D01*
X119157471Y-125087612D01*
X119133247Y-125105800D01*
X118982965Y-125218635D01*
X118828629Y-125380138D01*
X118825715Y-125384410D01*
X118825714Y-125384411D01*
X118786024Y-125442595D01*
X118702743Y-125564680D01*
X118655840Y-125665724D01*
X118650010Y-125678285D01*
X118608688Y-125767305D01*
X118548989Y-125982570D01*
X118525251Y-126204695D01*
X118525548Y-126209848D01*
X118525548Y-126209851D01*
X118526143Y-126220169D01*
X118538110Y-126427715D01*
X118539247Y-126432761D01*
X118539248Y-126432767D01*
X118543791Y-126452924D01*
X118587222Y-126645639D01*
X118671266Y-126852616D01*
X118787987Y-127043088D01*
X118934250Y-127211938D01*
X119106126Y-127354632D01*
X119161088Y-127386749D01*
X119179445Y-127397476D01*
X119228169Y-127449114D01*
X119241240Y-127518897D01*
X119214509Y-127584669D01*
X119174055Y-127618027D01*
X119161607Y-127624507D01*
X119157474Y-127627610D01*
X119157471Y-127627612D01*
X118987100Y-127755530D01*
X118982965Y-127758635D01*
X118949358Y-127793803D01*
X118835530Y-127912917D01*
X118828629Y-127920138D01*
X118702743Y-128104680D01*
X118682492Y-128148307D01*
X118625698Y-128270661D01*
X118608688Y-128307305D01*
X118548989Y-128522570D01*
X118525251Y-128744695D01*
X118538110Y-128967715D01*
X118539247Y-128972761D01*
X118539248Y-128972767D01*
X118563304Y-129079508D01*
X118587222Y-129185639D01*
X118636752Y-129307617D01*
X118664876Y-129376878D01*
X118671266Y-129392616D01*
X118687808Y-129419610D01*
X118753895Y-129527454D01*
X118787987Y-129583088D01*
X118934250Y-129751938D01*
X119106126Y-129894632D01*
X119176595Y-129935811D01*
X119179445Y-129937476D01*
X119228169Y-129989114D01*
X119241240Y-130058897D01*
X119214509Y-130124669D01*
X119174055Y-130158027D01*
X119161607Y-130164507D01*
X119157474Y-130167610D01*
X119157471Y-130167612D01*
X119133247Y-130185800D01*
X118982965Y-130298635D01*
X118828629Y-130460138D01*
X118702743Y-130644680D01*
X118608688Y-130847305D01*
X118548989Y-131062570D01*
X118525251Y-131284695D01*
X117348500Y-131284695D01*
X117348500Y-80063250D01*
X117350246Y-80042345D01*
X117352770Y-80027344D01*
X117352770Y-80027341D01*
X117353576Y-80022552D01*
X117353729Y-80010000D01*
X117352003Y-79997947D01*
X117351001Y-79971845D01*
X117365340Y-79753078D01*
X117367491Y-79736738D01*
X117416111Y-79492307D01*
X117420375Y-79476394D01*
X117500485Y-79240398D01*
X117506791Y-79225174D01*
X117617016Y-79001658D01*
X117625257Y-78987384D01*
X117763713Y-78780171D01*
X117773746Y-78767095D01*
X117938068Y-78579722D01*
X117949722Y-78568068D01*
X118137095Y-78403746D01*
X118150171Y-78393713D01*
X118357384Y-78255257D01*
X118371658Y-78247016D01*
X118595174Y-78136791D01*
X118610400Y-78130484D01*
X118846394Y-78050375D01*
X118862304Y-78046112D01*
X118984522Y-78021801D01*
X119106738Y-77997491D01*
X119123078Y-77995340D01*
X119271866Y-77985587D01*
X119338237Y-77981237D01*
X119361350Y-77982267D01*
X119364854Y-77982310D01*
X119373724Y-77983691D01*
X119382626Y-77982527D01*
X119382628Y-77982527D01*
X119399449Y-77980327D01*
X119405286Y-77979564D01*
X119421621Y-77978500D01*
X177750633Y-77978500D01*
X177770018Y-77980000D01*
G37*
%TD.AperFunction*%
%TD*%
M02*
