%TF.GenerationSoftware,KiCad,Pcbnew,(6.0.4)*%
%TF.CreationDate,2022-08-14T09:33:52+08:00*%
%TF.ProjectId,led_clock_board,6c65645f-636c-46f6-936b-5f626f617264,rev?*%
%TF.SameCoordinates,Original*%
%TF.FileFunction,Copper,L1,Top*%
%TF.FilePolarity,Positive*%
%FSLAX46Y46*%
G04 Gerber Fmt 4.6, Leading zero omitted, Abs format (unit mm)*
G04 Created by KiCad (PCBNEW (6.0.4)) date 2022-08-14 09:33:52*
%MOMM*%
%LPD*%
G01*
G04 APERTURE LIST*
%TA.AperFunction,ComponentPad*%
%ADD10R,1.700000X1.700000*%
%TD*%
%TA.AperFunction,ComponentPad*%
%ADD11O,1.700000X1.700000*%
%TD*%
%TA.AperFunction,ComponentPad*%
%ADD12C,1.600000*%
%TD*%
%TA.AperFunction,ComponentPad*%
%ADD13O,1.600000X1.600000*%
%TD*%
%TA.AperFunction,SMDPad,CuDef*%
%ADD14R,1.700000X3.500000*%
%TD*%
%TA.AperFunction,SMDPad,CuDef*%
%ADD15R,3.500000X1.700000*%
%TD*%
%TA.AperFunction,ViaPad*%
%ADD16C,0.800000*%
%TD*%
%TA.AperFunction,Conductor*%
%ADD17C,0.500000*%
%TD*%
%TA.AperFunction,Conductor*%
%ADD18C,1.000000*%
%TD*%
G04 APERTURE END LIST*
D10*
%TO.P,LED_SEG2,1,E*%
%TO.N,/SEG_E*%
X158225000Y-91440000D03*
D11*
%TO.P,LED_SEG2,2,D*%
%TO.N,/SEG_D*%
X160765000Y-91440000D03*
%TO.P,LED_SEG2,3,DP*%
%TO.N,/SEG_DP*%
X163305000Y-91440000D03*
%TO.P,LED_SEG2,4,C*%
%TO.N,/SEG_C*%
X165845000Y-91440000D03*
%TO.P,LED_SEG2,5,G*%
%TO.N,/SEG_G*%
X168385000Y-91440000D03*
%TO.P,LED_SEG2,6,4*%
%TO.N,/DIG_8*%
X170925000Y-91440000D03*
%TO.P,LED_SEG2,7,B*%
%TO.N,/SEG_B*%
X170925000Y-81280000D03*
%TO.P,LED_SEG2,8,3*%
%TO.N,/DIG_7*%
X168385000Y-81280000D03*
%TO.P,LED_SEG2,9,2*%
%TO.N,/DIG_6*%
X165845000Y-81280000D03*
%TO.P,LED_SEG2,10,F*%
%TO.N,/SEG_F*%
X163305000Y-81280000D03*
%TO.P,LED_SEG2,11,A*%
%TO.N,/SEG_A*%
X160765000Y-81280000D03*
%TO.P,LED_SEG2,12,1*%
%TO.N,/DIG_5*%
X158225000Y-81280000D03*
%TD*%
D12*
%TO.P,R4,1*%
%TO.N,/SEG_D*%
X155575000Y-99695000D03*
D13*
%TO.P,R4,2*%
%TO.N,Net-(R4-Pad2)*%
X155575000Y-107315000D03*
%TD*%
D12*
%TO.P,R3,1*%
%TO.N,/SEG_C*%
X162560000Y-99695000D03*
D13*
%TO.P,R3,2*%
%TO.N,Net-(R3-Pad2)*%
X162560000Y-107315000D03*
%TD*%
D11*
%TO.P,J1,16,Pin_16*%
%TO.N,GND*%
X119888000Y-136398000D03*
%TO.P,J1,15,Pin_15*%
X119888000Y-133858000D03*
%TO.P,J1,14,Pin_14*%
%TO.N,+3V3*%
X119888000Y-131318000D03*
%TO.P,J1,13,Pin_13*%
%TO.N,/SWDIO*%
X119888000Y-128778000D03*
%TO.P,J1,12,Pin_12*%
%TO.N,/SWCLK*%
X119888000Y-126238000D03*
%TO.P,J1,11,Pin_11*%
%TO.N,Net-(J1-Pad11)*%
X119888000Y-123698000D03*
%TO.P,J1,10,Pin_10*%
%TO.N,Net-(J1-Pad10)*%
X119888000Y-121158000D03*
%TO.P,J1,9,Pin_9*%
%TO.N,Net-(J1-Pad9)*%
X119888000Y-118618000D03*
%TO.P,J1,8,Pin_8*%
%TO.N,Net-(J1-Pad8)*%
X119888000Y-116078000D03*
%TO.P,J1,7,Pin_7*%
%TO.N,Net-(J1-Pad7)*%
X119888000Y-113538000D03*
%TO.P,J1,6,Pin_6*%
%TO.N,Net-(J1-Pad6)*%
X119888000Y-110998000D03*
%TO.P,J1,5,Pin_5*%
%TO.N,Net-(J1-Pad5)*%
X119888000Y-108458000D03*
%TO.P,J1,4,Pin_4*%
%TO.N,Net-(J1-Pad4)*%
X119888000Y-105918000D03*
%TO.P,J1,3,Pin_3*%
%TO.N,Net-(J1-Pad3)*%
X119888000Y-103378000D03*
%TO.P,J1,2,Pin_2*%
%TO.N,/GPIO0*%
X119888000Y-100838000D03*
D10*
%TO.P,J1,1,Pin_1*%
%TO.N,/GPIO1*%
X119888000Y-98298000D03*
%TD*%
D12*
%TO.P,R1,1*%
%TO.N,/SEG_A*%
X176530000Y-99695000D03*
D13*
%TO.P,R1,2*%
%TO.N,Net-(R1-Pad2)*%
X176530000Y-107315000D03*
%TD*%
D12*
%TO.P,R6,1*%
%TO.N,/SEG_F*%
X141605000Y-99695000D03*
D13*
%TO.P,R6,2*%
%TO.N,Net-(R6-Pad2)*%
X141605000Y-107315000D03*
%TD*%
D14*
%TO.P,U1,1,GPIO0*%
%TO.N,/GPIO0*%
X177800000Y-114670000D03*
D11*
X177800000Y-115570000D03*
%TO.P,U1,2,GPIO1*%
%TO.N,/GPIO1*%
X175260000Y-115570000D03*
D14*
X175260000Y-114670000D03*
D10*
%TO.P,U1,3,GND*%
%TO.N,GND*%
X172720000Y-115570000D03*
D14*
X172720000Y-114670000D03*
D11*
%TO.P,U1,4,GPIO2*%
%TO.N,Net-(R1-Pad2)*%
X170180000Y-115570000D03*
D14*
X170180000Y-114670000D03*
%TO.P,U1,5,GPIO3*%
%TO.N,Net-(R2-Pad2)*%
X167640000Y-114670000D03*
D11*
X167640000Y-115570000D03*
D14*
%TO.P,U1,6,GPIO4*%
%TO.N,Net-(R3-Pad2)*%
X165100000Y-114670000D03*
D11*
X165100000Y-115570000D03*
%TO.P,U1,7,GPIO5*%
%TO.N,Net-(R4-Pad2)*%
X162560000Y-115570000D03*
D14*
X162560000Y-114670000D03*
D10*
%TO.P,U1,8,GND*%
%TO.N,GND*%
X160020000Y-115570000D03*
D14*
X160020000Y-114670000D03*
%TO.P,U1,9,GPIO6*%
%TO.N,Net-(R5-Pad2)*%
X157480000Y-114670000D03*
D11*
X157480000Y-115570000D03*
%TO.P,U1,10,GPIO7*%
%TO.N,Net-(R6-Pad2)*%
X154940000Y-115570000D03*
D14*
X154940000Y-114670000D03*
%TO.P,U1,11,GPIO8*%
%TO.N,Net-(R7-Pad2)*%
X152400000Y-114670000D03*
D11*
X152400000Y-115570000D03*
D14*
%TO.P,U1,12,GPIO9*%
%TO.N,Net-(R8-Pad2)*%
X149860000Y-114670000D03*
D11*
X149860000Y-115570000D03*
D10*
%TO.P,U1,13,GND*%
%TO.N,GND*%
X147320000Y-115570000D03*
D14*
X147320000Y-114670000D03*
%TO.P,U1,14,GPIO10*%
%TO.N,/DIG_8*%
X144780000Y-114670000D03*
D11*
X144780000Y-115570000D03*
%TO.P,U1,15,GPIO11*%
%TO.N,/DIG_7*%
X142240000Y-115570000D03*
D14*
X142240000Y-114670000D03*
D11*
%TO.P,U1,16,GPIO12*%
%TO.N,/DIG_6*%
X139700000Y-115570000D03*
D14*
X139700000Y-114670000D03*
%TO.P,U1,17,GPIO13*%
%TO.N,/DIG_5*%
X137160000Y-114670000D03*
D11*
X137160000Y-115570000D03*
D10*
%TO.P,U1,18,GND*%
%TO.N,GND*%
X134620000Y-115570000D03*
D14*
X134620000Y-114670000D03*
%TO.P,U1,19,GPIO14*%
%TO.N,/DIG_4*%
X132080000Y-114670000D03*
D11*
X132080000Y-115570000D03*
D14*
%TO.P,U1,20,GPIO15*%
%TO.N,/DIG_3*%
X129540000Y-114670000D03*
D11*
X129540000Y-115570000D03*
%TO.P,U1,21,GPIO16*%
%TO.N,/DIG_2*%
X129540000Y-133350000D03*
D14*
X129540000Y-134250000D03*
%TO.P,U1,22,GPIO17*%
%TO.N,/DIG_1*%
X132080000Y-134250000D03*
D11*
X132080000Y-133350000D03*
D10*
%TO.P,U1,23,GND*%
%TO.N,GND*%
X134620000Y-133350000D03*
D14*
X134620000Y-134250000D03*
%TO.P,U1,24,GPIO18*%
%TO.N,Net-(J1-Pad11)*%
X137160000Y-134250000D03*
D11*
X137160000Y-133350000D03*
%TO.P,U1,25,GPIO19*%
%TO.N,Net-(J1-Pad10)*%
X139700000Y-133350000D03*
D14*
X139700000Y-134250000D03*
%TO.P,U1,26,GPIO20*%
%TO.N,Net-(J1-Pad9)*%
X142240000Y-134250000D03*
D11*
X142240000Y-133350000D03*
%TO.P,U1,27,GPIO21*%
%TO.N,Net-(J1-Pad8)*%
X144780000Y-133350000D03*
D14*
X144780000Y-134250000D03*
D10*
%TO.P,U1,28,GND*%
%TO.N,GND*%
X147320000Y-133350000D03*
D14*
X147320000Y-134250000D03*
%TO.P,U1,29,GPIO22*%
%TO.N,unconnected-(U1-Pad29)*%
X149860000Y-134250000D03*
D11*
X149860000Y-133350000D03*
%TO.P,U1,30,RUN*%
%TO.N,unconnected-(U1-Pad30)*%
X152400000Y-133350000D03*
D14*
X152400000Y-134250000D03*
D11*
%TO.P,U1,31,GPIO26_ADC0*%
%TO.N,Net-(J1-Pad7)*%
X154940000Y-133350000D03*
D14*
X154940000Y-134250000D03*
%TO.P,U1,32,GPIO27_ADC1*%
%TO.N,Net-(J1-Pad6)*%
X157480000Y-134250000D03*
D11*
X157480000Y-133350000D03*
D10*
%TO.P,U1,33,AGND*%
%TO.N,Net-(J1-Pad5)*%
X160020000Y-133350000D03*
D14*
X160020000Y-134250000D03*
D11*
%TO.P,U1,34,GPIO28_ADC2*%
%TO.N,Net-(J1-Pad4)*%
X162560000Y-133350000D03*
D14*
X162560000Y-134250000D03*
D11*
%TO.P,U1,35,ADC_VREF*%
%TO.N,Net-(J1-Pad3)*%
X165100000Y-133350000D03*
D14*
X165100000Y-134250000D03*
%TO.P,U1,36,3V3*%
%TO.N,+3V3*%
X167640000Y-134250000D03*
D11*
X167640000Y-133350000D03*
%TO.P,U1,37,3V3_EN*%
%TO.N,unconnected-(U1-Pad37)*%
X170180000Y-133350000D03*
D14*
X170180000Y-134250000D03*
%TO.P,U1,38,GND*%
%TO.N,GND*%
X172720000Y-134250000D03*
D10*
X172720000Y-133350000D03*
D14*
%TO.P,U1,39,VSYS*%
%TO.N,unconnected-(U1-Pad39)*%
X175260000Y-134250000D03*
D11*
X175260000Y-133350000D03*
%TO.P,U1,40,VBUS*%
%TO.N,unconnected-(U1-Pad40)*%
X177800000Y-133350000D03*
D14*
X177800000Y-134250000D03*
D15*
%TO.P,U1,41,SWCLK*%
%TO.N,/SWCLK*%
X128870000Y-121920000D03*
D11*
X129770000Y-121920000D03*
D15*
%TO.P,U1,42,GND*%
%TO.N,GND*%
X128870000Y-124460000D03*
D10*
X129770000Y-124460000D03*
D15*
%TO.P,U1,43,SWDIO*%
%TO.N,/SWDIO*%
X128870000Y-127000000D03*
D11*
X129770000Y-127000000D03*
%TD*%
D12*
%TO.P,R8,1*%
%TO.N,/SEG_DP*%
X127635000Y-99695000D03*
D13*
%TO.P,R8,2*%
%TO.N,Net-(R8-Pad2)*%
X127635000Y-107315000D03*
%TD*%
D12*
%TO.P,R7,1*%
%TO.N,/SEG_G*%
X134620000Y-99695000D03*
D13*
%TO.P,R7,2*%
%TO.N,Net-(R7-Pad2)*%
X134620000Y-107315000D03*
%TD*%
D10*
%TO.P,LED_SEG1,1,E*%
%TO.N,/SEG_E*%
X127000000Y-91440000D03*
D11*
%TO.P,LED_SEG1,2,D*%
%TO.N,/SEG_D*%
X129540000Y-91440000D03*
%TO.P,LED_SEG1,3,DP*%
%TO.N,/SEG_DP*%
X132080000Y-91440000D03*
%TO.P,LED_SEG1,4,C*%
%TO.N,/SEG_C*%
X134620000Y-91440000D03*
%TO.P,LED_SEG1,5,G*%
%TO.N,/SEG_G*%
X137160000Y-91440000D03*
%TO.P,LED_SEG1,6,4*%
%TO.N,/DIG_4*%
X139700000Y-91440000D03*
%TO.P,LED_SEG1,7,B*%
%TO.N,/SEG_B*%
X139700000Y-81280000D03*
%TO.P,LED_SEG1,8,3*%
%TO.N,/DIG_3*%
X137160000Y-81280000D03*
%TO.P,LED_SEG1,9,2*%
%TO.N,/DIG_2*%
X134620000Y-81280000D03*
%TO.P,LED_SEG1,10,F*%
%TO.N,/SEG_F*%
X132080000Y-81280000D03*
%TO.P,LED_SEG1,11,A*%
%TO.N,/SEG_A*%
X129540000Y-81280000D03*
%TO.P,LED_SEG1,12,1*%
%TO.N,/DIG_1*%
X127000000Y-81280000D03*
%TD*%
D12*
%TO.P,R5,1*%
%TO.N,/SEG_E*%
X148590000Y-99695000D03*
D13*
%TO.P,R5,2*%
%TO.N,Net-(R5-Pad2)*%
X148590000Y-107315000D03*
%TD*%
D12*
%TO.P,R2,1*%
%TO.N,/SEG_B*%
X169545000Y-99695000D03*
D13*
%TO.P,R2,2*%
%TO.N,Net-(R2-Pad2)*%
X169545000Y-107315000D03*
%TD*%
D16*
%TO.N,GND*%
X170180000Y-127000000D03*
%TO.N,/SEG_D*%
X154686000Y-87884000D03*
%TO.N,/SEG_C*%
X154940000Y-94234000D03*
%TO.N,/SEG_G*%
X151892000Y-94234000D03*
%TO.N,/SEG_F*%
X140716000Y-85852000D03*
%TO.N,/SWCLK*%
X125730000Y-122936000D03*
%TO.N,/SWDIO*%
X125730000Y-127000000D03*
%TD*%
D17*
%TO.N,/SEG_C*%
X134620000Y-91440000D02*
X138430000Y-95250000D01*
X138430000Y-95250000D02*
X153924000Y-95250000D01*
X153924000Y-95250000D02*
X154940000Y-94234000D01*
%TO.N,/SEG_G*%
X139954000Y-94234000D02*
X151892000Y-94234000D01*
X137160000Y-91440000D02*
X139954000Y-94234000D01*
%TO.N,/SEG_D*%
X129540000Y-91440000D02*
X134874000Y-96774000D01*
X134874000Y-96774000D02*
X152654000Y-96774000D01*
X152654000Y-96774000D02*
X155575000Y-99695000D01*
%TO.N,/SEG_DP*%
X132080000Y-91440000D02*
X136652000Y-96012000D01*
X136652000Y-96012000D02*
X159935081Y-96012000D01*
X159935081Y-96012000D02*
X163305000Y-92642081D01*
X163305000Y-92642081D02*
X163305000Y-91440000D01*
%TO.N,/SEG_A*%
X160765000Y-81280000D02*
X165337000Y-85852000D01*
X165337000Y-85852000D02*
X170942000Y-85852000D01*
X176530000Y-91440000D02*
X176530000Y-99695000D01*
X170942000Y-85852000D02*
X176530000Y-91440000D01*
%TO.N,/GPIO1*%
X175260000Y-115570000D02*
X173736000Y-117094000D01*
X173736000Y-117094000D02*
X127000005Y-117094000D01*
X127000005Y-117094000D02*
X126371065Y-116465060D01*
X126371065Y-116465060D02*
X126371065Y-104019065D01*
X126371065Y-104019065D02*
X120650000Y-98298000D01*
X120650000Y-98298000D02*
X119888000Y-98298000D01*
%TO.N,Net-(R1-Pad2)*%
X176530000Y-107315000D02*
X175895000Y-107315000D01*
X170180000Y-113030000D02*
X170180000Y-115570000D01*
X175895000Y-107315000D02*
X170180000Y-113030000D01*
%TO.N,Net-(R2-Pad2)*%
X169545000Y-107315000D02*
X167640000Y-109220000D01*
X167640000Y-109220000D02*
X167640000Y-115570000D01*
%TO.N,Net-(R6-Pad2)*%
X154940000Y-113710978D02*
X154940000Y-115570000D01*
X150066001Y-108836979D02*
X154940000Y-113710978D01*
X143126979Y-108836979D02*
X150066001Y-108836979D01*
%TO.N,Net-(R8-Pad2)*%
X130556000Y-110236000D02*
X146655127Y-110236000D01*
X146655127Y-110236000D02*
X149860000Y-113440873D01*
%TO.N,Net-(R6-Pad2)*%
X141605000Y-107315000D02*
X143126979Y-108836979D01*
%TO.N,Net-(R7-Pad2)*%
X152400000Y-113710978D02*
X152400000Y-115570000D01*
X148225511Y-109536489D02*
X152400000Y-113710978D01*
X136841489Y-109536489D02*
X148225511Y-109536489D01*
%TO.N,Net-(R8-Pad2)*%
X149860000Y-113440873D02*
X149860000Y-115570000D01*
%TO.N,Net-(R7-Pad2)*%
X134620000Y-107315000D02*
X136841489Y-109536489D01*
%TO.N,Net-(R8-Pad2)*%
X127635000Y-107315000D02*
X130556000Y-110236000D01*
D18*
%TO.N,+3V3*%
X167640000Y-133350000D02*
X167640000Y-135709022D01*
X167640000Y-135709022D02*
X165173022Y-138176000D01*
X127762000Y-138176000D02*
X120904000Y-131318000D01*
X165173022Y-138176000D02*
X127762000Y-138176000D01*
X120904000Y-131318000D02*
X119888000Y-131318000D01*
D17*
%TO.N,Net-(J1-Pad7)*%
X122174000Y-118364000D02*
X122174000Y-114554000D01*
X122174000Y-114554000D02*
X121158000Y-113538000D01*
X124718043Y-120908043D02*
X122174000Y-118364000D01*
X124718043Y-128346841D02*
X124718043Y-120908043D01*
X125336672Y-128965470D02*
X124718043Y-128346841D01*
%TO.N,Net-(J1-Pad8)*%
X124018533Y-121251275D02*
X121441511Y-118674253D01*
X121441511Y-118674253D02*
X121441511Y-117123511D01*
X121441511Y-117123511D02*
X120396000Y-116078000D01*
X124018533Y-128636588D02*
X124018533Y-121251275D01*
X125046926Y-129664981D02*
X124018533Y-128636588D01*
X141094981Y-129664981D02*
X125046926Y-129664981D01*
%TO.N,Net-(J1-Pad9)*%
X123319022Y-121541022D02*
X120396000Y-118618000D01*
%TO.N,Net-(J1-Pad10)*%
X122619511Y-123381511D02*
X120396000Y-121158000D01*
%TO.N,Net-(J1-Pad11)*%
X121920000Y-129505830D02*
X121920000Y-125222000D01*
X121920000Y-125222000D02*
X120396000Y-123698000D01*
%TO.N,Net-(J1-Pad9)*%
X120396000Y-118618000D02*
X119888000Y-118618000D01*
X123319022Y-128926336D02*
X123319022Y-121541022D01*
X124819666Y-130426980D02*
X123319022Y-128926336D01*
X142240000Y-133350000D02*
X139316980Y-130426980D01*
X139316980Y-130426980D02*
X124819666Y-130426980D01*
%TO.N,Net-(J1-Pad7)*%
X154940000Y-133350000D02*
X150555470Y-128965470D01*
X121158000Y-113538000D02*
X119888000Y-113538000D01*
%TO.N,Net-(J1-Pad8)*%
X144780000Y-133350000D02*
X141094981Y-129664981D01*
%TO.N,Net-(J1-Pad10)*%
X122619511Y-129216083D02*
X122619511Y-123381511D01*
X124529919Y-131126491D02*
X122619511Y-129216083D01*
X139700000Y-133350000D02*
X137476491Y-131126491D01*
X137476491Y-131126491D02*
X124529919Y-131126491D01*
X120396000Y-121158000D02*
X119888000Y-121158000D01*
%TO.N,Net-(J1-Pad4)*%
X148431467Y-119221467D02*
X126159698Y-119221467D01*
%TO.N,Net-(J1-Pad8)*%
X120396000Y-116078000D02*
X119888000Y-116078000D01*
%TO.N,Net-(J1-Pad6)*%
X120904000Y-110998000D02*
X119888000Y-110998000D01*
%TO.N,Net-(J1-Pad11)*%
X137160000Y-133350000D02*
X135636002Y-131826002D01*
X135636002Y-131826002D02*
X124240172Y-131826002D01*
%TO.N,/GPIO0*%
X125671553Y-116754806D02*
X125671553Y-105605553D01*
X125671553Y-105605553D02*
X120904000Y-100838000D01*
X120904000Y-100838000D02*
X119888000Y-100838000D01*
%TO.N,Net-(J1-Pad7)*%
X150555470Y-128965470D02*
X125336672Y-128965470D01*
%TO.N,Net-(J1-Pad4)*%
X124272533Y-117334302D02*
X124272533Y-109286533D01*
%TO.N,Net-(J1-Pad3)*%
X150271957Y-118521957D02*
X165100000Y-133350000D01*
%TO.N,Net-(J1-Pad11)*%
X120396000Y-123698000D02*
X119888000Y-123698000D01*
X124240172Y-131826002D02*
X121920000Y-129505830D01*
%TO.N,Net-(J1-Pad6)*%
X157480000Y-133350000D02*
X144750489Y-120620489D01*
X144750489Y-120620489D02*
X125446489Y-120620489D01*
X125446489Y-120620489D02*
X122873511Y-118047511D01*
X122873511Y-118047511D02*
X122873510Y-112967510D01*
X122873510Y-112967510D02*
X120904000Y-110998000D01*
%TO.N,Net-(J1-Pad5)*%
X160020000Y-133350000D02*
X146590978Y-119920978D01*
X146590978Y-119920978D02*
X125762978Y-119920978D01*
X125762978Y-119920978D02*
X123573022Y-117731022D01*
X123573022Y-117731022D02*
X123573022Y-111127022D01*
X123573022Y-111127022D02*
X120904000Y-108458000D01*
X120904000Y-108458000D02*
X119888000Y-108458000D01*
%TO.N,Net-(J1-Pad4)*%
X162560000Y-133350000D02*
X148431467Y-119221467D01*
X126159698Y-119221467D02*
X124272533Y-117334302D01*
X124272533Y-109286533D02*
X120904000Y-105918000D01*
X120904000Y-105918000D02*
X119888000Y-105918000D01*
%TO.N,Net-(J1-Pad3)*%
X119888000Y-103378000D02*
X120904000Y-103378000D01*
X120904000Y-103378000D02*
X124972044Y-107446044D01*
X124972044Y-107446044D02*
X124972044Y-117044555D01*
X124972044Y-117044555D02*
X126449445Y-118521956D01*
X126449445Y-118521956D02*
X150271957Y-118521957D01*
%TO.N,/GPIO0*%
X177800000Y-115570000D02*
X175576490Y-117793510D01*
X175576490Y-117793510D02*
X126710258Y-117793511D01*
X126710258Y-117793511D02*
X125671553Y-116754806D01*
%TO.N,/SWDIO*%
X129770000Y-127000000D02*
X125730000Y-127000000D01*
%TO.N,/SWCLK*%
X129770000Y-121920000D02*
X126746000Y-121920000D01*
X126746000Y-121920000D02*
X125730000Y-122936000D01*
%TO.N,Net-(R3-Pad2)*%
X165100000Y-109855000D02*
X165100000Y-115570000D01*
X162560000Y-107315000D02*
X165100000Y-109855000D01*
%TO.N,/SEG_E*%
X155079297Y-86934499D02*
X158225000Y-90080202D01*
X127000000Y-91440000D02*
X131505501Y-86934499D01*
X158225000Y-90080202D02*
X158225000Y-91440000D01*
X131505501Y-86934499D02*
X155079297Y-86934499D01*
%TO.N,/SEG_D*%
X129540000Y-91440000D02*
X133096000Y-87884000D01*
X133096000Y-87884000D02*
X154686000Y-87884000D01*
%TO.N,/SEG_C*%
X162560000Y-99695000D02*
X162560000Y-94725000D01*
X162560000Y-94725000D02*
X165845000Y-91440000D01*
%TO.N,/SEG_F*%
X132080000Y-81280000D02*
X136652000Y-85852000D01*
X132080000Y-81280000D02*
X134112000Y-79248000D01*
X134112000Y-79248000D02*
X161273000Y-79248000D01*
X161273000Y-79248000D02*
X163305000Y-81280000D01*
X136652000Y-85852000D02*
X140716000Y-85852000D01*
%TO.N,Net-(R4-Pad2)*%
X162560000Y-113168630D02*
X162560000Y-115570000D01*
X156706370Y-107315000D02*
X162560000Y-113168630D01*
X155575000Y-107315000D02*
X156706370Y-107315000D01*
%TO.N,Net-(R5-Pad2)*%
X157480000Y-113538000D02*
X157480000Y-115570000D01*
X151257000Y-107315000D02*
X157480000Y-113538000D01*
X148590000Y-107315000D02*
X151257000Y-107315000D01*
%TD*%
%TA.AperFunction,Conductor*%
%TO.N,GND*%
G36*
X177770018Y-77980000D02*
G01*
X177784851Y-77982310D01*
X177784855Y-77982310D01*
X177793724Y-77983691D01*
X177802626Y-77982527D01*
X177802629Y-77982527D01*
X177810012Y-77981561D01*
X177834591Y-77980767D01*
X177861442Y-77982527D01*
X178056922Y-77995340D01*
X178073262Y-77997491D01*
X178195478Y-78021801D01*
X178317696Y-78046112D01*
X178333606Y-78050375D01*
X178569600Y-78130484D01*
X178584826Y-78136791D01*
X178808342Y-78247016D01*
X178822616Y-78255257D01*
X179029829Y-78393713D01*
X179042905Y-78403746D01*
X179230278Y-78568068D01*
X179241932Y-78579722D01*
X179406254Y-78767095D01*
X179416287Y-78780171D01*
X179554743Y-78987384D01*
X179562984Y-79001658D01*
X179673209Y-79225174D01*
X179679515Y-79240398D01*
X179759625Y-79476394D01*
X179763889Y-79492307D01*
X179812509Y-79736738D01*
X179814660Y-79753078D01*
X179828763Y-79968236D01*
X179827733Y-79991350D01*
X179827690Y-79994854D01*
X179826309Y-80003724D01*
X179827473Y-80012626D01*
X179827473Y-80012628D01*
X179830436Y-80035283D01*
X179831500Y-80051621D01*
X179831500Y-138380633D01*
X179830000Y-138400018D01*
X179827690Y-138414851D01*
X179827690Y-138414855D01*
X179826309Y-138423724D01*
X179827473Y-138432626D01*
X179827473Y-138432629D01*
X179828439Y-138440012D01*
X179829233Y-138464591D01*
X179814660Y-138686922D01*
X179812509Y-138703262D01*
X179767118Y-138931462D01*
X179763889Y-138947693D01*
X179759625Y-138963606D01*
X179683184Y-139188794D01*
X179679516Y-139199600D01*
X179673209Y-139214826D01*
X179562984Y-139438342D01*
X179554743Y-139452616D01*
X179416287Y-139659829D01*
X179406254Y-139672905D01*
X179241932Y-139860278D01*
X179230278Y-139871932D01*
X179042905Y-140036254D01*
X179029829Y-140046287D01*
X178822616Y-140184743D01*
X178808342Y-140192984D01*
X178584826Y-140303209D01*
X178569602Y-140309515D01*
X178333606Y-140389625D01*
X178317696Y-140393888D01*
X178195478Y-140418199D01*
X178073262Y-140442509D01*
X178056922Y-140444660D01*
X177908134Y-140454413D01*
X177841763Y-140458763D01*
X177818650Y-140457733D01*
X177815146Y-140457690D01*
X177806276Y-140456309D01*
X177797374Y-140457473D01*
X177797372Y-140457473D01*
X177783915Y-140459233D01*
X177774714Y-140460436D01*
X177758379Y-140461500D01*
X119429367Y-140461500D01*
X119409982Y-140460000D01*
X119395149Y-140457690D01*
X119395145Y-140457690D01*
X119386276Y-140456309D01*
X119377374Y-140457473D01*
X119377371Y-140457473D01*
X119369988Y-140458439D01*
X119345409Y-140459233D01*
X119300799Y-140456309D01*
X119123078Y-140444660D01*
X119106738Y-140442509D01*
X118984522Y-140418199D01*
X118862304Y-140393888D01*
X118846394Y-140389625D01*
X118610398Y-140309515D01*
X118595174Y-140303209D01*
X118371658Y-140192984D01*
X118357384Y-140184743D01*
X118150171Y-140046287D01*
X118137095Y-140036254D01*
X117949722Y-139871932D01*
X117938068Y-139860278D01*
X117773746Y-139672905D01*
X117763713Y-139659829D01*
X117625257Y-139452616D01*
X117617016Y-139438342D01*
X117506791Y-139214826D01*
X117500484Y-139199600D01*
X117496816Y-139188794D01*
X117420375Y-138963606D01*
X117416111Y-138947693D01*
X117412883Y-138931462D01*
X117367491Y-138703262D01*
X117365340Y-138686922D01*
X117351476Y-138475407D01*
X117352650Y-138452232D01*
X117352334Y-138452204D01*
X117352770Y-138447344D01*
X117353576Y-138442552D01*
X117353729Y-138430000D01*
X117349773Y-138402376D01*
X117348500Y-138384514D01*
X117348500Y-136665966D01*
X118556257Y-136665966D01*
X118586565Y-136800446D01*
X118589645Y-136810275D01*
X118669770Y-137007603D01*
X118674413Y-137016794D01*
X118785694Y-137198388D01*
X118791777Y-137206699D01*
X118931213Y-137367667D01*
X118938580Y-137374883D01*
X119102434Y-137510916D01*
X119110881Y-137516831D01*
X119294756Y-137624279D01*
X119304042Y-137628729D01*
X119503001Y-137704703D01*
X119512899Y-137707579D01*
X119616250Y-137728606D01*
X119630299Y-137727410D01*
X119634000Y-137717065D01*
X119634000Y-137716517D01*
X120142000Y-137716517D01*
X120146064Y-137730359D01*
X120159478Y-137732393D01*
X120166184Y-137731534D01*
X120176262Y-137729392D01*
X120380255Y-137668191D01*
X120389842Y-137664433D01*
X120581095Y-137570739D01*
X120589945Y-137565464D01*
X120763328Y-137441792D01*
X120771200Y-137435139D01*
X120922052Y-137284812D01*
X120928730Y-137276965D01*
X121053003Y-137104020D01*
X121058313Y-137095183D01*
X121152670Y-136904267D01*
X121156469Y-136894672D01*
X121218377Y-136690910D01*
X121220555Y-136680837D01*
X121221986Y-136669962D01*
X121219775Y-136655778D01*
X121206617Y-136652000D01*
X120160115Y-136652000D01*
X120144876Y-136656475D01*
X120143671Y-136657865D01*
X120142000Y-136665548D01*
X120142000Y-137716517D01*
X119634000Y-137716517D01*
X119634000Y-136670115D01*
X119629525Y-136654876D01*
X119628135Y-136653671D01*
X119620452Y-136652000D01*
X118571225Y-136652000D01*
X118557694Y-136655973D01*
X118556257Y-136665966D01*
X117348500Y-136665966D01*
X117348500Y-136132183D01*
X118552389Y-136132183D01*
X118553912Y-136140607D01*
X118566292Y-136144000D01*
X119615885Y-136144000D01*
X119631124Y-136139525D01*
X119632329Y-136138135D01*
X119634000Y-136130452D01*
X119634000Y-136125885D01*
X120142000Y-136125885D01*
X120146475Y-136141124D01*
X120147865Y-136142329D01*
X120155548Y-136144000D01*
X121206344Y-136144000D01*
X121219875Y-136140027D01*
X121221180Y-136130947D01*
X121179214Y-135963875D01*
X121175894Y-135954124D01*
X121090972Y-135758814D01*
X121086105Y-135749739D01*
X120970426Y-135570926D01*
X120964136Y-135562757D01*
X120820806Y-135405240D01*
X120813273Y-135398215D01*
X120646139Y-135266222D01*
X120637552Y-135260517D01*
X120600116Y-135239851D01*
X120550146Y-135189419D01*
X120535374Y-135119976D01*
X120560490Y-135053571D01*
X120587842Y-135026964D01*
X120763327Y-134901792D01*
X120771200Y-134895139D01*
X120922052Y-134744812D01*
X120928730Y-134736965D01*
X121053003Y-134564020D01*
X121058313Y-134555183D01*
X121152670Y-134364267D01*
X121156469Y-134354672D01*
X121218377Y-134150910D01*
X121220555Y-134140837D01*
X121221986Y-134129962D01*
X121219775Y-134115778D01*
X121206617Y-134112000D01*
X120160115Y-134112000D01*
X120144876Y-134116475D01*
X120143671Y-134117865D01*
X120142000Y-134125548D01*
X120142000Y-136125885D01*
X119634000Y-136125885D01*
X119634000Y-134130115D01*
X119629525Y-134114876D01*
X119628135Y-134113671D01*
X119620452Y-134112000D01*
X118571225Y-134112000D01*
X118557694Y-134115973D01*
X118556257Y-134125966D01*
X118586565Y-134260446D01*
X118589645Y-134270275D01*
X118669770Y-134467603D01*
X118674413Y-134476794D01*
X118785694Y-134658388D01*
X118791777Y-134666699D01*
X118931213Y-134827667D01*
X118938580Y-134834883D01*
X119102434Y-134970916D01*
X119110881Y-134976831D01*
X119180479Y-135017501D01*
X119229203Y-135069140D01*
X119242274Y-135138923D01*
X119215543Y-135204694D01*
X119175087Y-135238053D01*
X119166462Y-135242542D01*
X119157738Y-135248036D01*
X118987433Y-135375905D01*
X118979726Y-135382748D01*
X118832590Y-135536717D01*
X118826104Y-135544727D01*
X118706098Y-135720649D01*
X118701000Y-135729623D01*
X118611338Y-135922783D01*
X118607775Y-135932470D01*
X118552389Y-136132183D01*
X117348500Y-136132183D01*
X117348500Y-131284695D01*
X118525251Y-131284695D01*
X118525548Y-131289848D01*
X118525548Y-131289851D01*
X118531932Y-131400575D01*
X118538110Y-131507715D01*
X118539247Y-131512761D01*
X118539248Y-131512767D01*
X118563304Y-131619508D01*
X118587222Y-131725639D01*
X118607836Y-131776405D01*
X118661893Y-131909532D01*
X118671266Y-131932616D01*
X118787987Y-132123088D01*
X118934250Y-132291938D01*
X119106126Y-132434632D01*
X119135619Y-132451866D01*
X119179955Y-132477774D01*
X119228679Y-132529412D01*
X119241750Y-132599195D01*
X119215019Y-132664967D01*
X119174562Y-132698327D01*
X119166457Y-132702546D01*
X119157738Y-132708036D01*
X118987433Y-132835905D01*
X118979726Y-132842748D01*
X118832590Y-132996717D01*
X118826104Y-133004727D01*
X118706098Y-133180649D01*
X118701000Y-133189623D01*
X118611338Y-133382783D01*
X118607775Y-133392470D01*
X118552389Y-133592183D01*
X118553912Y-133600607D01*
X118566292Y-133604000D01*
X121206344Y-133604000D01*
X121219875Y-133600027D01*
X121221180Y-133590947D01*
X121179214Y-133423875D01*
X121175894Y-133414123D01*
X121134342Y-133318558D01*
X121125523Y-133248111D01*
X121156189Y-133184079D01*
X121216606Y-133146792D01*
X121287591Y-133148088D01*
X121338985Y-133179220D01*
X123880415Y-135720649D01*
X127005145Y-138845379D01*
X127014247Y-138855522D01*
X127037968Y-138885025D01*
X127042696Y-138888992D01*
X127076421Y-138917291D01*
X127080070Y-138920473D01*
X127081883Y-138922117D01*
X127084075Y-138924309D01*
X127117276Y-138951580D01*
X127118164Y-138952318D01*
X127131627Y-138963614D01*
X127184753Y-139008193D01*
X127184756Y-139008195D01*
X127189474Y-139012154D01*
X127194147Y-139014723D01*
X127198262Y-139018103D01*
X127203691Y-139021014D01*
X127203694Y-139021016D01*
X127280180Y-139062028D01*
X127281338Y-139062657D01*
X127357388Y-139104465D01*
X127362787Y-139107433D01*
X127367865Y-139109044D01*
X127372563Y-139111563D01*
X127461498Y-139138753D01*
X127462702Y-139139128D01*
X127551306Y-139167235D01*
X127556597Y-139167828D01*
X127561698Y-139169388D01*
X127654311Y-139178795D01*
X127655431Y-139178915D01*
X127705227Y-139184500D01*
X127708756Y-139184500D01*
X127709739Y-139184555D01*
X127715426Y-139185003D01*
X127735683Y-139187060D01*
X127752336Y-139188752D01*
X127752339Y-139188752D01*
X127758463Y-139189374D01*
X127804112Y-139185059D01*
X127815969Y-139184500D01*
X165111179Y-139184500D01*
X165124786Y-139185237D01*
X165156284Y-139188659D01*
X165156289Y-139188659D01*
X165162410Y-139189324D01*
X165188660Y-139187027D01*
X165212410Y-139184950D01*
X165217236Y-139184621D01*
X165219708Y-139184500D01*
X165222791Y-139184500D01*
X165234760Y-139183326D01*
X165265528Y-139180310D01*
X165266841Y-139180188D01*
X165311106Y-139176315D01*
X165359435Y-139172087D01*
X165364554Y-139170600D01*
X165369855Y-139170080D01*
X165458856Y-139143209D01*
X165459989Y-139142874D01*
X165543436Y-139118630D01*
X165543440Y-139118628D01*
X165549358Y-139116909D01*
X165554090Y-139114456D01*
X165559191Y-139112916D01*
X165571382Y-139106434D01*
X165641282Y-139069269D01*
X165642448Y-139068657D01*
X165719475Y-139028729D01*
X165724948Y-139025892D01*
X165729111Y-139022569D01*
X165733818Y-139020066D01*
X165740019Y-139015009D01*
X165748376Y-139008193D01*
X165805940Y-138961245D01*
X165806796Y-138960554D01*
X165845995Y-138929262D01*
X165848499Y-138926758D01*
X165849217Y-138926116D01*
X165853550Y-138922415D01*
X165887084Y-138895065D01*
X165916310Y-138859737D01*
X165924299Y-138850958D01*
X168229851Y-136545405D01*
X168292163Y-136511380D01*
X168318946Y-136508500D01*
X168538134Y-136508500D01*
X168600316Y-136501745D01*
X168736705Y-136450615D01*
X168834436Y-136377370D01*
X168900941Y-136352522D01*
X168970324Y-136367575D01*
X168985562Y-136377368D01*
X169083295Y-136450615D01*
X169219684Y-136501745D01*
X169281866Y-136508500D01*
X171078134Y-136508500D01*
X171140316Y-136501745D01*
X171276705Y-136450615D01*
X171343677Y-136400422D01*
X171374852Y-136377058D01*
X171441358Y-136352210D01*
X171510741Y-136367263D01*
X171525982Y-136377058D01*
X171616351Y-136444786D01*
X171631946Y-136453324D01*
X171752394Y-136498478D01*
X171767649Y-136502105D01*
X171818514Y-136507631D01*
X171825328Y-136508000D01*
X172447885Y-136508000D01*
X172463124Y-136503525D01*
X172464329Y-136502135D01*
X172466000Y-136494452D01*
X172466000Y-136489884D01*
X172974000Y-136489884D01*
X172978475Y-136505123D01*
X172979865Y-136506328D01*
X172987548Y-136507999D01*
X173614669Y-136507999D01*
X173621490Y-136507629D01*
X173672352Y-136502105D01*
X173687604Y-136498479D01*
X173808054Y-136453324D01*
X173823649Y-136444786D01*
X173914018Y-136377058D01*
X173980525Y-136352210D01*
X174049907Y-136367263D01*
X174065148Y-136377058D01*
X174096323Y-136400422D01*
X174163295Y-136450615D01*
X174299684Y-136501745D01*
X174361866Y-136508500D01*
X176158134Y-136508500D01*
X176220316Y-136501745D01*
X176356705Y-136450615D01*
X176454436Y-136377370D01*
X176520941Y-136352522D01*
X176590324Y-136367575D01*
X176605562Y-136377368D01*
X176703295Y-136450615D01*
X176839684Y-136501745D01*
X176901866Y-136508500D01*
X178698134Y-136508500D01*
X178760316Y-136501745D01*
X178896705Y-136450615D01*
X179013261Y-136363261D01*
X179100615Y-136246705D01*
X179151745Y-136110316D01*
X179158500Y-136048134D01*
X179158500Y-133447856D01*
X179159578Y-133431409D01*
X179161092Y-133419908D01*
X179161529Y-133416590D01*
X179163156Y-133350000D01*
X179158924Y-133298524D01*
X179158500Y-133288200D01*
X179158500Y-132451866D01*
X179151745Y-132389684D01*
X179100615Y-132253295D01*
X179013261Y-132136739D01*
X178896705Y-132049385D01*
X178760316Y-131998255D01*
X178698134Y-131991500D01*
X177814985Y-131991500D01*
X177813446Y-131991491D01*
X177710081Y-131990228D01*
X177710079Y-131990228D01*
X177704911Y-131990165D01*
X177699797Y-131990948D01*
X177696289Y-131991193D01*
X177687496Y-131991500D01*
X176901866Y-131991500D01*
X176839684Y-131998255D01*
X176703295Y-132049385D01*
X176610823Y-132118689D01*
X176605565Y-132122630D01*
X176539059Y-132147478D01*
X176469676Y-132132425D01*
X176454435Y-132122630D01*
X176449177Y-132118689D01*
X176356705Y-132049385D01*
X176220316Y-131998255D01*
X176158134Y-131991500D01*
X175274985Y-131991500D01*
X175273446Y-131991491D01*
X175170081Y-131990228D01*
X175170079Y-131990228D01*
X175164911Y-131990165D01*
X175159797Y-131990948D01*
X175156289Y-131991193D01*
X175147496Y-131991500D01*
X174361866Y-131991500D01*
X174299684Y-131998255D01*
X174163295Y-132049385D01*
X174096323Y-132099578D01*
X174065148Y-132122942D01*
X173998642Y-132147790D01*
X173929259Y-132132737D01*
X173914018Y-132122942D01*
X173823649Y-132055214D01*
X173808054Y-132046676D01*
X173687606Y-132001522D01*
X173672351Y-131997895D01*
X173621486Y-131992369D01*
X173614672Y-131992000D01*
X172992115Y-131992000D01*
X172976876Y-131996475D01*
X172975671Y-131997865D01*
X172974000Y-132005548D01*
X172974000Y-136489884D01*
X172466000Y-136489884D01*
X172466000Y-132010116D01*
X172461525Y-131994877D01*
X172460135Y-131993672D01*
X172452452Y-131992001D01*
X171825331Y-131992001D01*
X171818510Y-131992371D01*
X171767648Y-131997895D01*
X171752396Y-132001521D01*
X171631946Y-132046676D01*
X171616351Y-132055214D01*
X171525982Y-132122942D01*
X171459475Y-132147790D01*
X171390093Y-132132737D01*
X171374852Y-132122942D01*
X171343677Y-132099578D01*
X171276705Y-132049385D01*
X171140316Y-131998255D01*
X171078134Y-131991500D01*
X170194985Y-131991500D01*
X170193446Y-131991491D01*
X170090081Y-131990228D01*
X170090079Y-131990228D01*
X170084911Y-131990165D01*
X170079797Y-131990948D01*
X170076289Y-131991193D01*
X170067496Y-131991500D01*
X169281866Y-131991500D01*
X169219684Y-131998255D01*
X169083295Y-132049385D01*
X168990823Y-132118689D01*
X168985565Y-132122630D01*
X168919059Y-132147478D01*
X168849676Y-132132425D01*
X168834435Y-132122630D01*
X168829177Y-132118689D01*
X168736705Y-132049385D01*
X168600316Y-131998255D01*
X168538134Y-131991500D01*
X167654985Y-131991500D01*
X167653446Y-131991491D01*
X167550081Y-131990228D01*
X167550079Y-131990228D01*
X167544911Y-131990165D01*
X167539797Y-131990948D01*
X167536289Y-131991193D01*
X167527496Y-131991500D01*
X166741866Y-131991500D01*
X166679684Y-131998255D01*
X166543295Y-132049385D01*
X166450823Y-132118689D01*
X166445565Y-132122630D01*
X166379059Y-132147478D01*
X166309676Y-132132425D01*
X166294435Y-132122630D01*
X166289177Y-132118689D01*
X166196705Y-132049385D01*
X166060316Y-131998255D01*
X165998134Y-131991500D01*
X165114985Y-131991500D01*
X165113446Y-131991491D01*
X165010081Y-131990228D01*
X165010079Y-131990228D01*
X165004911Y-131990165D01*
X164999797Y-131990948D01*
X164996289Y-131991193D01*
X164987496Y-131991500D01*
X164866371Y-131991500D01*
X164798250Y-131971498D01*
X164777276Y-131954595D01*
X159707681Y-126885000D01*
X173376693Y-126885000D01*
X173395885Y-127104371D01*
X173452880Y-127317076D01*
X173470393Y-127354632D01*
X173543618Y-127511666D01*
X173543621Y-127511671D01*
X173545944Y-127516653D01*
X173549100Y-127521160D01*
X173549101Y-127521162D01*
X173636374Y-127645800D01*
X173672251Y-127697038D01*
X173827962Y-127852749D01*
X174008346Y-127979056D01*
X174207924Y-128072120D01*
X174420629Y-128129115D01*
X174640000Y-128148307D01*
X174859371Y-128129115D01*
X175072076Y-128072120D01*
X175271654Y-127979056D01*
X175452038Y-127852749D01*
X175607749Y-127697038D01*
X175643627Y-127645800D01*
X175730899Y-127521162D01*
X175730900Y-127521160D01*
X175734056Y-127516653D01*
X175736379Y-127511671D01*
X175736382Y-127511666D01*
X175809607Y-127354632D01*
X175827120Y-127317076D01*
X175871763Y-127150469D01*
X176257095Y-127150469D01*
X176257392Y-127155622D01*
X176257392Y-127155625D01*
X176269017Y-127357242D01*
X176270427Y-127381697D01*
X176271564Y-127386743D01*
X176271565Y-127386749D01*
X176299296Y-127509797D01*
X176321346Y-127607642D01*
X176323288Y-127612424D01*
X176323289Y-127612428D01*
X176390459Y-127777848D01*
X176408484Y-127822237D01*
X176529501Y-128019719D01*
X176681147Y-128194784D01*
X176859349Y-128342730D01*
X177059322Y-128459584D01*
X177064147Y-128461426D01*
X177064148Y-128461427D01*
X177086114Y-128469815D01*
X177275694Y-128542209D01*
X177280760Y-128543240D01*
X177280761Y-128543240D01*
X177333846Y-128554040D01*
X177502656Y-128588385D01*
X177633324Y-128593176D01*
X177728949Y-128596683D01*
X177728953Y-128596683D01*
X177734113Y-128596872D01*
X177739233Y-128596216D01*
X177739235Y-128596216D01*
X177812270Y-128586860D01*
X177963847Y-128567442D01*
X177968795Y-128565957D01*
X177968802Y-128565956D01*
X178180747Y-128502369D01*
X178185690Y-128500886D01*
X178249114Y-128469815D01*
X178389049Y-128401262D01*
X178389052Y-128401260D01*
X178393684Y-128398991D01*
X178582243Y-128264494D01*
X178746303Y-128101005D01*
X178881458Y-127912917D01*
X178887086Y-127901531D01*
X178981784Y-127709922D01*
X178981785Y-127709920D01*
X178984078Y-127705280D01*
X179051408Y-127483671D01*
X179081640Y-127254041D01*
X179083327Y-127185000D01*
X179073592Y-127066590D01*
X179064773Y-126959318D01*
X179064772Y-126959312D01*
X179064349Y-126954167D01*
X179007925Y-126729533D01*
X179003707Y-126719832D01*
X178917630Y-126521868D01*
X178917628Y-126521865D01*
X178915570Y-126517131D01*
X178789764Y-126322665D01*
X178633887Y-126151358D01*
X178629836Y-126148159D01*
X178629832Y-126148155D01*
X178456177Y-126011011D01*
X178456172Y-126011008D01*
X178452123Y-126007810D01*
X178447607Y-126005317D01*
X178447604Y-126005315D01*
X178253879Y-125898373D01*
X178253875Y-125898371D01*
X178249355Y-125895876D01*
X178244486Y-125894152D01*
X178244482Y-125894150D01*
X178035903Y-125820288D01*
X178035899Y-125820287D01*
X178031028Y-125818562D01*
X178025935Y-125817655D01*
X178025932Y-125817654D01*
X177808095Y-125778851D01*
X177808089Y-125778850D01*
X177803006Y-125777945D01*
X177730096Y-125777054D01*
X177576581Y-125775179D01*
X177576579Y-125775179D01*
X177571411Y-125775116D01*
X177342464Y-125810150D01*
X177122314Y-125882106D01*
X177117726Y-125884494D01*
X177117722Y-125884496D01*
X176938894Y-125977588D01*
X176916872Y-125989052D01*
X176912739Y-125992155D01*
X176912736Y-125992157D01*
X176771142Y-126098469D01*
X176731655Y-126128117D01*
X176571639Y-126295564D01*
X176568725Y-126299836D01*
X176568724Y-126299837D01*
X176553152Y-126322665D01*
X176441119Y-126486899D01*
X176343602Y-126696981D01*
X176281707Y-126920169D01*
X176257095Y-127150469D01*
X175871763Y-127150469D01*
X175884115Y-127104371D01*
X175903307Y-126885000D01*
X175884115Y-126665629D01*
X175827120Y-126452924D01*
X175768405Y-126327009D01*
X175736382Y-126258334D01*
X175736379Y-126258329D01*
X175734056Y-126253347D01*
X175703600Y-126209851D01*
X175610908Y-126077473D01*
X175610906Y-126077470D01*
X175607749Y-126072962D01*
X175452038Y-125917251D01*
X175421845Y-125896109D01*
X175311096Y-125818562D01*
X175271654Y-125790944D01*
X175072076Y-125697880D01*
X174859371Y-125640885D01*
X174640000Y-125621693D01*
X174420629Y-125640885D01*
X174207924Y-125697880D01*
X174120509Y-125738642D01*
X174013334Y-125788618D01*
X174013329Y-125788621D01*
X174008347Y-125790944D01*
X174003840Y-125794100D01*
X174003838Y-125794101D01*
X173832473Y-125914092D01*
X173832470Y-125914094D01*
X173827962Y-125917251D01*
X173672251Y-126072962D01*
X173669094Y-126077470D01*
X173669092Y-126077473D01*
X173576400Y-126209851D01*
X173545944Y-126253347D01*
X173543621Y-126258329D01*
X173543618Y-126258334D01*
X173511595Y-126327009D01*
X173452880Y-126452924D01*
X173395885Y-126665629D01*
X173376693Y-126885000D01*
X159707681Y-126885000D01*
X154857681Y-122035000D01*
X173376693Y-122035000D01*
X173395885Y-122254371D01*
X173452880Y-122467076D01*
X173496415Y-122560438D01*
X173543618Y-122661666D01*
X173543621Y-122661671D01*
X173545944Y-122666653D01*
X173549100Y-122671160D01*
X173549101Y-122671162D01*
X173667420Y-122840138D01*
X173672251Y-122847038D01*
X173827962Y-123002749D01*
X173832471Y-123005906D01*
X173832473Y-123005908D01*
X173890824Y-123046766D01*
X174008346Y-123129056D01*
X174207924Y-123222120D01*
X174420629Y-123279115D01*
X174640000Y-123298307D01*
X174859371Y-123279115D01*
X175072076Y-123222120D01*
X175271654Y-123129056D01*
X175389176Y-123046766D01*
X175447527Y-123005908D01*
X175447529Y-123005906D01*
X175452038Y-123002749D01*
X175607749Y-122847038D01*
X175612581Y-122840138D01*
X175730899Y-122671162D01*
X175730900Y-122671160D01*
X175734056Y-122666653D01*
X175736379Y-122661671D01*
X175736382Y-122661666D01*
X175783585Y-122560438D01*
X175827120Y-122467076D01*
X175884115Y-122254371D01*
X175903307Y-122035000D01*
X175884115Y-121815629D01*
X175853258Y-121700469D01*
X176257095Y-121700469D01*
X176257392Y-121705622D01*
X176257392Y-121705625D01*
X176266189Y-121858200D01*
X176270427Y-121931697D01*
X176271564Y-121936743D01*
X176271565Y-121936749D01*
X176294941Y-122040475D01*
X176321346Y-122157642D01*
X176323288Y-122162424D01*
X176323289Y-122162428D01*
X176386248Y-122317476D01*
X176408484Y-122372237D01*
X176529501Y-122569719D01*
X176681147Y-122744784D01*
X176859349Y-122892730D01*
X177059322Y-123009584D01*
X177275694Y-123092209D01*
X177280760Y-123093240D01*
X177280761Y-123093240D01*
X177333846Y-123104040D01*
X177502656Y-123138385D01*
X177633324Y-123143176D01*
X177728949Y-123146683D01*
X177728953Y-123146683D01*
X177734113Y-123146872D01*
X177739233Y-123146216D01*
X177739235Y-123146216D01*
X177840362Y-123133261D01*
X177963847Y-123117442D01*
X177968795Y-123115957D01*
X177968802Y-123115956D01*
X178180747Y-123052369D01*
X178185690Y-123050886D01*
X178229600Y-123029375D01*
X178389049Y-122951262D01*
X178389052Y-122951260D01*
X178393684Y-122948991D01*
X178582243Y-122814494D01*
X178746303Y-122651005D01*
X178881458Y-122462917D01*
X178893330Y-122438897D01*
X178981784Y-122259922D01*
X178981785Y-122259920D01*
X178984078Y-122255280D01*
X179051408Y-122033671D01*
X179081640Y-121804041D01*
X179083327Y-121735000D01*
X179072905Y-121608235D01*
X179064773Y-121509318D01*
X179064772Y-121509312D01*
X179064349Y-121504167D01*
X179007925Y-121279533D01*
X179005866Y-121274797D01*
X178917630Y-121071868D01*
X178917628Y-121071865D01*
X178915570Y-121067131D01*
X178789764Y-120872665D01*
X178767212Y-120847880D01*
X178714914Y-120790406D01*
X178633887Y-120701358D01*
X178629836Y-120698159D01*
X178629832Y-120698155D01*
X178456177Y-120561011D01*
X178456172Y-120561008D01*
X178452123Y-120557810D01*
X178447607Y-120555317D01*
X178447604Y-120555315D01*
X178253879Y-120448373D01*
X178253875Y-120448371D01*
X178249355Y-120445876D01*
X178244486Y-120444152D01*
X178244482Y-120444150D01*
X178035903Y-120370288D01*
X178035899Y-120370287D01*
X178031028Y-120368562D01*
X178025935Y-120367655D01*
X178025932Y-120367654D01*
X177808095Y-120328851D01*
X177808089Y-120328850D01*
X177803006Y-120327945D01*
X177730096Y-120327054D01*
X177576581Y-120325179D01*
X177576579Y-120325179D01*
X177571411Y-120325116D01*
X177342464Y-120360150D01*
X177122314Y-120432106D01*
X177117726Y-120434494D01*
X177117722Y-120434496D01*
X176965304Y-120513840D01*
X176916872Y-120539052D01*
X176912739Y-120542155D01*
X176912736Y-120542157D01*
X176887625Y-120561011D01*
X176731655Y-120678117D01*
X176722875Y-120687305D01*
X176584352Y-120832261D01*
X176571639Y-120845564D01*
X176568725Y-120849836D01*
X176568724Y-120849837D01*
X176553152Y-120872665D01*
X176441119Y-121036899D01*
X176343602Y-121246981D01*
X176281707Y-121470169D01*
X176257095Y-121700469D01*
X175853258Y-121700469D01*
X175827120Y-121602924D01*
X175739907Y-121415894D01*
X175736382Y-121408334D01*
X175736379Y-121408329D01*
X175734056Y-121403347D01*
X175730899Y-121398838D01*
X175610908Y-121227473D01*
X175610906Y-121227470D01*
X175607749Y-121222962D01*
X175452038Y-121067251D01*
X175445672Y-121062793D01*
X175372759Y-121011739D01*
X175271654Y-120940944D01*
X175072076Y-120847880D01*
X174859371Y-120790885D01*
X174640000Y-120771693D01*
X174420629Y-120790885D01*
X174207924Y-120847880D01*
X174130518Y-120883975D01*
X174013334Y-120938618D01*
X174013329Y-120938621D01*
X174008347Y-120940944D01*
X174003840Y-120944100D01*
X174003838Y-120944101D01*
X173832473Y-121064092D01*
X173832470Y-121064094D01*
X173827962Y-121067251D01*
X173672251Y-121222962D01*
X173669094Y-121227470D01*
X173669092Y-121227473D01*
X173549101Y-121398838D01*
X173545944Y-121403347D01*
X173543621Y-121408329D01*
X173543618Y-121408334D01*
X173540093Y-121415894D01*
X173452880Y-121602924D01*
X173395885Y-121815629D01*
X173376693Y-122035000D01*
X154857681Y-122035000D01*
X151589786Y-118767105D01*
X151555760Y-118704793D01*
X151560825Y-118633978D01*
X151603372Y-118577142D01*
X151669892Y-118552331D01*
X151678881Y-118552010D01*
X175509420Y-118552010D01*
X175528370Y-118553443D01*
X175542605Y-118555609D01*
X175542609Y-118555609D01*
X175549839Y-118556709D01*
X175557131Y-118556116D01*
X175557134Y-118556116D01*
X175602508Y-118552425D01*
X175612723Y-118552010D01*
X175620783Y-118552010D01*
X175634073Y-118550461D01*
X175648997Y-118548721D01*
X175653372Y-118548288D01*
X175718829Y-118542964D01*
X175718832Y-118542963D01*
X175726127Y-118542370D01*
X175733091Y-118540114D01*
X175739050Y-118538923D01*
X175744905Y-118537539D01*
X175752171Y-118536692D01*
X175820817Y-118511775D01*
X175824945Y-118510358D01*
X175887426Y-118490117D01*
X175887428Y-118490116D01*
X175894389Y-118487861D01*
X175900644Y-118484065D01*
X175906118Y-118481559D01*
X175911548Y-118478840D01*
X175918427Y-118476343D01*
X175979466Y-118436324D01*
X175983170Y-118433987D01*
X176045597Y-118396105D01*
X176053974Y-118388707D01*
X176053998Y-118388734D01*
X176056990Y-118386081D01*
X176060223Y-118383378D01*
X176066342Y-118379366D01*
X176119618Y-118323127D01*
X176121996Y-118320685D01*
X177477276Y-116965405D01*
X177539588Y-116931379D01*
X177566371Y-116928500D01*
X177770826Y-116928500D01*
X177775443Y-116928585D01*
X177856673Y-116931564D01*
X177856677Y-116931564D01*
X177861837Y-116931753D01*
X177866957Y-116931097D01*
X177866959Y-116931097D01*
X177879261Y-116929521D01*
X177895271Y-116928500D01*
X178698134Y-116928500D01*
X178760316Y-116921745D01*
X178896705Y-116870615D01*
X179013261Y-116783261D01*
X179100615Y-116666705D01*
X179151745Y-116530316D01*
X179158500Y-116468134D01*
X179158500Y-115667856D01*
X179159578Y-115651409D01*
X179161092Y-115639908D01*
X179161529Y-115636590D01*
X179163156Y-115570000D01*
X179158924Y-115518524D01*
X179158500Y-115508200D01*
X179158500Y-112871866D01*
X179151745Y-112809684D01*
X179100615Y-112673295D01*
X179013261Y-112556739D01*
X178896705Y-112469385D01*
X178760316Y-112418255D01*
X178698134Y-112411500D01*
X176901866Y-112411500D01*
X176839684Y-112418255D01*
X176703295Y-112469385D01*
X176605565Y-112542630D01*
X176539059Y-112567478D01*
X176469676Y-112552425D01*
X176454435Y-112542630D01*
X176356705Y-112469385D01*
X176220316Y-112418255D01*
X176158134Y-112411500D01*
X174361866Y-112411500D01*
X174299684Y-112418255D01*
X174163295Y-112469385D01*
X174101724Y-112515530D01*
X174065148Y-112542942D01*
X173998642Y-112567790D01*
X173929259Y-112552737D01*
X173914018Y-112542942D01*
X173823649Y-112475214D01*
X173808054Y-112466676D01*
X173687606Y-112421522D01*
X173672351Y-112417895D01*
X173621486Y-112412369D01*
X173614672Y-112412000D01*
X172992115Y-112412000D01*
X172976876Y-112416475D01*
X172975671Y-112417865D01*
X172974000Y-112425548D01*
X172974000Y-115698000D01*
X172953998Y-115766121D01*
X172900342Y-115812614D01*
X172848000Y-115824000D01*
X172592000Y-115824000D01*
X172523879Y-115803998D01*
X172477386Y-115750342D01*
X172466000Y-115698000D01*
X172466000Y-112430116D01*
X172461525Y-112414877D01*
X172460135Y-112413672D01*
X172452452Y-112412001D01*
X172174870Y-112412001D01*
X172106749Y-112391999D01*
X172060256Y-112338343D01*
X172050152Y-112268069D01*
X172079646Y-112203489D01*
X172085775Y-112196906D01*
X175781477Y-108501204D01*
X175843789Y-108467178D01*
X175914604Y-108472243D01*
X175923812Y-108476100D01*
X176080757Y-108549284D01*
X176086065Y-108550706D01*
X176086067Y-108550707D01*
X176296598Y-108607119D01*
X176296600Y-108607119D01*
X176301913Y-108608543D01*
X176530000Y-108628498D01*
X176758087Y-108608543D01*
X176763400Y-108607119D01*
X176763402Y-108607119D01*
X176973933Y-108550707D01*
X176973935Y-108550706D01*
X176979243Y-108549284D01*
X177082352Y-108501204D01*
X177181762Y-108454849D01*
X177181767Y-108454846D01*
X177186749Y-108452523D01*
X177335926Y-108348068D01*
X177369789Y-108324357D01*
X177369793Y-108324354D01*
X177374300Y-108321198D01*
X177536198Y-108159300D01*
X177565099Y-108118026D01*
X177653135Y-107992297D01*
X177667523Y-107971749D01*
X177669846Y-107966767D01*
X177669849Y-107966762D01*
X177761961Y-107769225D01*
X177761961Y-107769224D01*
X177764284Y-107764243D01*
X177775250Y-107723320D01*
X177822119Y-107548402D01*
X177822119Y-107548400D01*
X177823543Y-107543087D01*
X177843498Y-107315000D01*
X177823543Y-107086913D01*
X177822119Y-107081598D01*
X177765707Y-106871067D01*
X177765706Y-106871065D01*
X177764284Y-106865757D01*
X177733792Y-106800366D01*
X177669849Y-106663238D01*
X177669846Y-106663233D01*
X177667523Y-106658251D01*
X177558654Y-106502770D01*
X177539357Y-106475211D01*
X177539355Y-106475208D01*
X177536198Y-106470700D01*
X177374300Y-106308802D01*
X177369792Y-106305645D01*
X177369789Y-106305643D01*
X177291611Y-106250902D01*
X177186749Y-106177477D01*
X177181767Y-106175154D01*
X177181762Y-106175151D01*
X176984225Y-106083039D01*
X176984224Y-106083039D01*
X176979243Y-106080716D01*
X176973935Y-106079294D01*
X176973933Y-106079293D01*
X176763402Y-106022881D01*
X176763400Y-106022881D01*
X176758087Y-106021457D01*
X176530000Y-106001502D01*
X176301913Y-106021457D01*
X176296600Y-106022881D01*
X176296598Y-106022881D01*
X176086067Y-106079293D01*
X176086065Y-106079294D01*
X176080757Y-106080716D01*
X176075776Y-106083039D01*
X176075775Y-106083039D01*
X175878238Y-106175151D01*
X175878233Y-106175154D01*
X175873251Y-106177477D01*
X175768389Y-106250902D01*
X175690211Y-106305643D01*
X175690208Y-106305645D01*
X175685700Y-106308802D01*
X175523802Y-106470700D01*
X175520645Y-106475208D01*
X175520643Y-106475211D01*
X175501346Y-106502770D01*
X175392477Y-106658251D01*
X175390154Y-106663233D01*
X175390151Y-106663238D01*
X175326208Y-106800366D01*
X175301108Y-106836211D01*
X169762724Y-112374595D01*
X169700412Y-112408621D01*
X169673629Y-112411500D01*
X169281866Y-112411500D01*
X169219684Y-112418255D01*
X169083295Y-112469385D01*
X168985565Y-112542630D01*
X168919059Y-112567478D01*
X168849676Y-112552425D01*
X168834435Y-112542630D01*
X168736705Y-112469385D01*
X168600316Y-112418255D01*
X168538134Y-112411500D01*
X168524500Y-112411500D01*
X168456379Y-112391498D01*
X168409886Y-112337842D01*
X168398500Y-112285500D01*
X168398500Y-109586372D01*
X168418502Y-109518251D01*
X168435404Y-109497277D01*
X168855661Y-109077020D01*
X169282009Y-108650671D01*
X169344322Y-108616646D01*
X169382087Y-108614245D01*
X169539525Y-108628019D01*
X169545000Y-108628498D01*
X169773087Y-108608543D01*
X169778400Y-108607119D01*
X169778402Y-108607119D01*
X169988933Y-108550707D01*
X169988935Y-108550706D01*
X169994243Y-108549284D01*
X170097352Y-108501204D01*
X170196762Y-108454849D01*
X170196767Y-108454846D01*
X170201749Y-108452523D01*
X170350926Y-108348068D01*
X170384789Y-108324357D01*
X170384793Y-108324354D01*
X170389300Y-108321198D01*
X170551198Y-108159300D01*
X170580099Y-108118026D01*
X170668135Y-107992297D01*
X170682523Y-107971749D01*
X170684846Y-107966767D01*
X170684849Y-107966762D01*
X170776961Y-107769225D01*
X170776961Y-107769224D01*
X170779284Y-107764243D01*
X170790250Y-107723320D01*
X170837119Y-107548402D01*
X170837119Y-107548400D01*
X170838543Y-107543087D01*
X170858498Y-107315000D01*
X170838543Y-107086913D01*
X170837119Y-107081598D01*
X170780707Y-106871067D01*
X170780706Y-106871065D01*
X170779284Y-106865757D01*
X170748792Y-106800366D01*
X170684849Y-106663238D01*
X170684846Y-106663233D01*
X170682523Y-106658251D01*
X170573654Y-106502770D01*
X170554357Y-106475211D01*
X170554355Y-106475208D01*
X170551198Y-106470700D01*
X170389300Y-106308802D01*
X170384792Y-106305645D01*
X170384789Y-106305643D01*
X170306611Y-106250902D01*
X170201749Y-106177477D01*
X170196767Y-106175154D01*
X170196762Y-106175151D01*
X169999225Y-106083039D01*
X169999224Y-106083039D01*
X169994243Y-106080716D01*
X169988935Y-106079294D01*
X169988933Y-106079293D01*
X169778402Y-106022881D01*
X169778400Y-106022881D01*
X169773087Y-106021457D01*
X169545000Y-106001502D01*
X169316913Y-106021457D01*
X169311600Y-106022881D01*
X169311598Y-106022881D01*
X169101067Y-106079293D01*
X169101065Y-106079294D01*
X169095757Y-106080716D01*
X169090776Y-106083039D01*
X169090775Y-106083039D01*
X168893238Y-106175151D01*
X168893233Y-106175154D01*
X168888251Y-106177477D01*
X168783389Y-106250902D01*
X168705211Y-106305643D01*
X168705208Y-106305645D01*
X168700700Y-106308802D01*
X168538802Y-106470700D01*
X168535645Y-106475208D01*
X168535643Y-106475211D01*
X168516346Y-106502770D01*
X168407477Y-106658251D01*
X168405154Y-106663233D01*
X168405151Y-106663238D01*
X168341208Y-106800366D01*
X168310716Y-106865757D01*
X168309294Y-106871065D01*
X168309293Y-106871067D01*
X168252881Y-107081598D01*
X168251457Y-107086913D01*
X168231502Y-107315000D01*
X168231981Y-107320475D01*
X168245755Y-107477913D01*
X168231766Y-107547518D01*
X168209329Y-107577990D01*
X167151089Y-108636230D01*
X167136677Y-108648616D01*
X167125082Y-108657149D01*
X167125077Y-108657154D01*
X167119182Y-108661492D01*
X167114443Y-108667070D01*
X167114440Y-108667073D01*
X167084965Y-108701768D01*
X167078035Y-108709284D01*
X167072340Y-108714979D01*
X167070060Y-108717861D01*
X167054719Y-108737251D01*
X167051928Y-108740655D01*
X167009409Y-108790703D01*
X167004667Y-108796285D01*
X167001339Y-108802801D01*
X166997972Y-108807850D01*
X166994805Y-108812979D01*
X166990266Y-108818716D01*
X166959345Y-108884875D01*
X166957442Y-108888769D01*
X166924231Y-108953808D01*
X166922492Y-108960916D01*
X166920393Y-108966559D01*
X166918476Y-108972322D01*
X166915378Y-108978950D01*
X166913888Y-108986112D01*
X166913888Y-108986113D01*
X166900514Y-109050412D01*
X166899544Y-109054696D01*
X166882192Y-109125610D01*
X166881500Y-109136764D01*
X166881464Y-109136762D01*
X166881225Y-109140755D01*
X166880851Y-109144947D01*
X166879360Y-109152115D01*
X166879558Y-109159432D01*
X166881454Y-109229521D01*
X166881500Y-109232928D01*
X166881500Y-112285500D01*
X166861498Y-112353621D01*
X166807842Y-112400114D01*
X166755500Y-112411500D01*
X166741866Y-112411500D01*
X166679684Y-112418255D01*
X166543295Y-112469385D01*
X166445565Y-112542630D01*
X166379059Y-112567478D01*
X166309676Y-112552425D01*
X166294435Y-112542630D01*
X166196705Y-112469385D01*
X166060316Y-112418255D01*
X165998134Y-112411500D01*
X165984500Y-112411500D01*
X165916379Y-112391498D01*
X165869886Y-112337842D01*
X165858500Y-112285500D01*
X165858500Y-109922063D01*
X165859933Y-109903114D01*
X165862097Y-109888886D01*
X165863198Y-109881651D01*
X165861649Y-109862598D01*
X165858915Y-109828991D01*
X165858500Y-109818777D01*
X165858500Y-109810707D01*
X165858078Y-109807087D01*
X165858077Y-109807069D01*
X165855208Y-109782461D01*
X165854775Y-109778086D01*
X165849454Y-109712661D01*
X165849453Y-109712658D01*
X165848860Y-109705363D01*
X165846604Y-109698399D01*
X165845413Y-109692440D01*
X165844029Y-109686585D01*
X165843182Y-109679319D01*
X165818265Y-109610673D01*
X165816848Y-109606545D01*
X165796607Y-109544064D01*
X165796606Y-109544062D01*
X165794351Y-109537101D01*
X165790555Y-109530846D01*
X165788049Y-109525372D01*
X165785330Y-109519942D01*
X165782833Y-109513063D01*
X165742809Y-109452016D01*
X165740472Y-109448312D01*
X165739645Y-109446948D01*
X165708445Y-109395532D01*
X165705509Y-109390693D01*
X165705505Y-109390688D01*
X165702595Y-109385892D01*
X165695197Y-109377516D01*
X165695223Y-109377493D01*
X165692574Y-109374503D01*
X165689866Y-109371264D01*
X165685856Y-109365148D01*
X165680549Y-109360121D01*
X165680546Y-109360117D01*
X165629617Y-109311872D01*
X165627175Y-109309494D01*
X163895671Y-107577990D01*
X163861645Y-107515678D01*
X163859245Y-107477913D01*
X163873019Y-107320475D01*
X163873498Y-107315000D01*
X163853543Y-107086913D01*
X163852119Y-107081598D01*
X163795707Y-106871067D01*
X163795706Y-106871065D01*
X163794284Y-106865757D01*
X163763792Y-106800366D01*
X163699849Y-106663238D01*
X163699846Y-106663233D01*
X163697523Y-106658251D01*
X163588654Y-106502770D01*
X163569357Y-106475211D01*
X163569355Y-106475208D01*
X163566198Y-106470700D01*
X163404300Y-106308802D01*
X163399792Y-106305645D01*
X163399789Y-106305643D01*
X163321611Y-106250902D01*
X163216749Y-106177477D01*
X163211767Y-106175154D01*
X163211762Y-106175151D01*
X163014225Y-106083039D01*
X163014224Y-106083039D01*
X163009243Y-106080716D01*
X163003935Y-106079294D01*
X163003933Y-106079293D01*
X162793402Y-106022881D01*
X162793400Y-106022881D01*
X162788087Y-106021457D01*
X162560000Y-106001502D01*
X162331913Y-106021457D01*
X162326600Y-106022881D01*
X162326598Y-106022881D01*
X162116067Y-106079293D01*
X162116065Y-106079294D01*
X162110757Y-106080716D01*
X162105776Y-106083039D01*
X162105775Y-106083039D01*
X161908238Y-106175151D01*
X161908233Y-106175154D01*
X161903251Y-106177477D01*
X161798389Y-106250902D01*
X161720211Y-106305643D01*
X161720208Y-106305645D01*
X161715700Y-106308802D01*
X161553802Y-106470700D01*
X161550645Y-106475208D01*
X161550643Y-106475211D01*
X161531346Y-106502770D01*
X161422477Y-106658251D01*
X161420154Y-106663233D01*
X161420151Y-106663238D01*
X161356208Y-106800366D01*
X161325716Y-106865757D01*
X161324294Y-106871065D01*
X161324293Y-106871067D01*
X161267881Y-107081598D01*
X161266457Y-107086913D01*
X161246502Y-107315000D01*
X161266457Y-107543087D01*
X161267881Y-107548400D01*
X161267881Y-107548402D01*
X161314751Y-107723320D01*
X161325716Y-107764243D01*
X161328039Y-107769224D01*
X161328039Y-107769225D01*
X161420151Y-107966762D01*
X161420154Y-107966767D01*
X161422477Y-107971749D01*
X161436865Y-107992297D01*
X161524902Y-108118026D01*
X161553802Y-108159300D01*
X161715700Y-108321198D01*
X161720207Y-108324354D01*
X161720211Y-108324357D01*
X161754074Y-108348068D01*
X161903251Y-108452523D01*
X161908233Y-108454846D01*
X161908238Y-108454849D01*
X162007648Y-108501204D01*
X162110757Y-108549284D01*
X162116065Y-108550706D01*
X162116067Y-108550707D01*
X162326598Y-108607119D01*
X162326600Y-108607119D01*
X162331913Y-108608543D01*
X162560000Y-108628498D01*
X162565475Y-108628019D01*
X162722913Y-108614245D01*
X162792518Y-108628234D01*
X162822990Y-108650671D01*
X164304595Y-110132276D01*
X164338621Y-110194588D01*
X164341500Y-110221371D01*
X164341500Y-112285500D01*
X164321498Y-112353621D01*
X164267842Y-112400114D01*
X164215500Y-112411500D01*
X164201866Y-112411500D01*
X164139684Y-112418255D01*
X164003295Y-112469385D01*
X163905565Y-112542630D01*
X163839059Y-112567478D01*
X163769676Y-112552425D01*
X163754435Y-112542630D01*
X163656705Y-112469385D01*
X163520316Y-112418255D01*
X163458134Y-112411500D01*
X162927741Y-112411500D01*
X162859620Y-112391498D01*
X162838646Y-112374595D01*
X157290140Y-106826089D01*
X157277754Y-106811677D01*
X157269221Y-106800082D01*
X157269216Y-106800077D01*
X157264878Y-106794182D01*
X157259300Y-106789443D01*
X157259297Y-106789440D01*
X157224602Y-106759965D01*
X157217086Y-106753035D01*
X157211391Y-106747340D01*
X157205250Y-106742482D01*
X157189119Y-106729719D01*
X157185715Y-106726928D01*
X157135667Y-106684409D01*
X157135665Y-106684408D01*
X157130085Y-106679667D01*
X157123569Y-106676339D01*
X157118520Y-106672972D01*
X157113391Y-106669805D01*
X157107654Y-106665266D01*
X157041495Y-106634345D01*
X157037595Y-106632439D01*
X156972562Y-106599231D01*
X156965454Y-106597492D01*
X156959811Y-106595393D01*
X156954048Y-106593476D01*
X156947420Y-106590378D01*
X156875953Y-106575513D01*
X156871669Y-106574543D01*
X156800760Y-106557192D01*
X156795158Y-106556844D01*
X156795155Y-106556844D01*
X156789606Y-106556500D01*
X156789608Y-106556464D01*
X156785615Y-106556225D01*
X156781423Y-106555851D01*
X156774255Y-106554360D01*
X156710024Y-106556098D01*
X156641389Y-106537946D01*
X156603405Y-106502414D01*
X156584361Y-106475216D01*
X156584355Y-106475209D01*
X156581198Y-106470700D01*
X156419300Y-106308802D01*
X156414792Y-106305645D01*
X156414789Y-106305643D01*
X156336611Y-106250902D01*
X156231749Y-106177477D01*
X156226767Y-106175154D01*
X156226762Y-106175151D01*
X156029225Y-106083039D01*
X156029224Y-106083039D01*
X156024243Y-106080716D01*
X156018935Y-106079294D01*
X156018933Y-106079293D01*
X155808402Y-106022881D01*
X155808400Y-106022881D01*
X155803087Y-106021457D01*
X155575000Y-106001502D01*
X155346913Y-106021457D01*
X155341600Y-106022881D01*
X155341598Y-106022881D01*
X155131067Y-106079293D01*
X155131065Y-106079294D01*
X155125757Y-106080716D01*
X155120776Y-106083039D01*
X155120775Y-106083039D01*
X154923238Y-106175151D01*
X154923233Y-106175154D01*
X154918251Y-106177477D01*
X154813389Y-106250902D01*
X154735211Y-106305643D01*
X154735208Y-106305645D01*
X154730700Y-106308802D01*
X154568802Y-106470700D01*
X154565645Y-106475208D01*
X154565643Y-106475211D01*
X154546346Y-106502770D01*
X154437477Y-106658251D01*
X154435154Y-106663233D01*
X154435151Y-106663238D01*
X154371208Y-106800366D01*
X154340716Y-106865757D01*
X154339294Y-106871065D01*
X154339293Y-106871067D01*
X154282881Y-107081598D01*
X154281457Y-107086913D01*
X154261502Y-107315000D01*
X154281457Y-107543087D01*
X154282881Y-107548400D01*
X154282881Y-107548402D01*
X154329751Y-107723320D01*
X154340716Y-107764243D01*
X154343039Y-107769224D01*
X154343039Y-107769225D01*
X154435151Y-107966762D01*
X154435154Y-107966767D01*
X154437477Y-107971749D01*
X154451865Y-107992297D01*
X154539902Y-108118026D01*
X154568802Y-108159300D01*
X154730700Y-108321198D01*
X154735207Y-108324354D01*
X154735211Y-108324357D01*
X154769074Y-108348068D01*
X154918251Y-108452523D01*
X154923233Y-108454846D01*
X154923238Y-108454849D01*
X155022648Y-108501204D01*
X155125757Y-108549284D01*
X155131065Y-108550706D01*
X155131067Y-108550707D01*
X155341598Y-108607119D01*
X155341600Y-108607119D01*
X155346913Y-108608543D01*
X155575000Y-108628498D01*
X155803087Y-108608543D01*
X155808400Y-108607119D01*
X155808402Y-108607119D01*
X156018933Y-108550707D01*
X156018935Y-108550706D01*
X156024243Y-108549284D01*
X156127352Y-108501204D01*
X156226762Y-108454849D01*
X156226767Y-108454846D01*
X156231749Y-108452523D01*
X156401508Y-108333656D01*
X156414793Y-108324354D01*
X156414794Y-108324353D01*
X156419300Y-108321198D01*
X156423190Y-108317308D01*
X156423196Y-108317303D01*
X156440499Y-108300000D01*
X156502811Y-108265974D01*
X156573626Y-108271039D01*
X156618689Y-108300000D01*
X160515594Y-112196905D01*
X160549620Y-112259217D01*
X160544555Y-112330032D01*
X160502008Y-112386868D01*
X160435488Y-112411679D01*
X160426499Y-112412000D01*
X160292115Y-112412000D01*
X160276876Y-112416475D01*
X160275671Y-112417865D01*
X160274000Y-112425548D01*
X160274000Y-115698000D01*
X160253998Y-115766121D01*
X160200342Y-115812614D01*
X160148000Y-115824000D01*
X159892000Y-115824000D01*
X159823879Y-115803998D01*
X159777386Y-115750342D01*
X159766000Y-115698000D01*
X159766000Y-112430116D01*
X159761525Y-112414877D01*
X159760135Y-112413672D01*
X159752452Y-112412001D01*
X159125331Y-112412001D01*
X159118510Y-112412371D01*
X159067648Y-112417895D01*
X159052396Y-112421521D01*
X158931946Y-112466676D01*
X158916351Y-112475214D01*
X158825982Y-112542942D01*
X158759475Y-112567790D01*
X158690093Y-112552737D01*
X158674852Y-112542942D01*
X158638276Y-112515530D01*
X158576705Y-112469385D01*
X158440316Y-112418255D01*
X158378134Y-112411500D01*
X157478371Y-112411500D01*
X157410250Y-112391498D01*
X157389276Y-112374595D01*
X151840770Y-106826089D01*
X151828384Y-106811677D01*
X151819851Y-106800082D01*
X151819846Y-106800077D01*
X151815508Y-106794182D01*
X151809930Y-106789443D01*
X151809927Y-106789440D01*
X151775232Y-106759965D01*
X151767716Y-106753035D01*
X151762021Y-106747340D01*
X151755880Y-106742482D01*
X151739749Y-106729719D01*
X151736345Y-106726928D01*
X151686297Y-106684409D01*
X151686295Y-106684408D01*
X151680715Y-106679667D01*
X151674199Y-106676339D01*
X151669150Y-106672972D01*
X151664021Y-106669805D01*
X151658284Y-106665266D01*
X151592125Y-106634345D01*
X151588225Y-106632439D01*
X151523192Y-106599231D01*
X151516084Y-106597492D01*
X151510441Y-106595393D01*
X151504678Y-106593476D01*
X151498050Y-106590378D01*
X151426583Y-106575513D01*
X151422299Y-106574543D01*
X151351390Y-106557192D01*
X151345788Y-106556844D01*
X151345785Y-106556844D01*
X151340236Y-106556500D01*
X151340238Y-106556464D01*
X151336245Y-106556225D01*
X151332053Y-106555851D01*
X151324885Y-106554360D01*
X151260639Y-106556098D01*
X151247479Y-106556454D01*
X151244072Y-106556500D01*
X149721867Y-106556500D01*
X149653746Y-106536498D01*
X149618655Y-106502772D01*
X149596198Y-106470700D01*
X149434300Y-106308802D01*
X149429792Y-106305645D01*
X149429789Y-106305643D01*
X149351611Y-106250902D01*
X149246749Y-106177477D01*
X149241767Y-106175154D01*
X149241762Y-106175151D01*
X149044225Y-106083039D01*
X149044224Y-106083039D01*
X149039243Y-106080716D01*
X149033935Y-106079294D01*
X149033933Y-106079293D01*
X148823402Y-106022881D01*
X148823400Y-106022881D01*
X148818087Y-106021457D01*
X148590000Y-106001502D01*
X148361913Y-106021457D01*
X148356600Y-106022881D01*
X148356598Y-106022881D01*
X148146067Y-106079293D01*
X148146065Y-106079294D01*
X148140757Y-106080716D01*
X148135776Y-106083039D01*
X148135775Y-106083039D01*
X147938238Y-106175151D01*
X147938233Y-106175154D01*
X147933251Y-106177477D01*
X147828389Y-106250902D01*
X147750211Y-106305643D01*
X147750208Y-106305645D01*
X147745700Y-106308802D01*
X147583802Y-106470700D01*
X147580645Y-106475208D01*
X147580643Y-106475211D01*
X147561346Y-106502770D01*
X147452477Y-106658251D01*
X147450154Y-106663233D01*
X147450151Y-106663238D01*
X147386208Y-106800366D01*
X147355716Y-106865757D01*
X147354294Y-106871065D01*
X147354293Y-106871067D01*
X147297881Y-107081598D01*
X147296457Y-107086913D01*
X147276502Y-107315000D01*
X147296457Y-107543087D01*
X147297881Y-107548400D01*
X147297881Y-107548402D01*
X147344751Y-107723320D01*
X147355716Y-107764243D01*
X147358039Y-107769224D01*
X147358039Y-107769225D01*
X147365246Y-107784680D01*
X147417172Y-107896035D01*
X147418661Y-107899229D01*
X147429322Y-107969421D01*
X147400342Y-108034233D01*
X147340922Y-108073090D01*
X147304466Y-108078479D01*
X143493350Y-108078479D01*
X143425229Y-108058477D01*
X143404255Y-108041574D01*
X142940671Y-107577990D01*
X142906645Y-107515678D01*
X142904245Y-107477913D01*
X142918019Y-107320475D01*
X142918498Y-107315000D01*
X142898543Y-107086913D01*
X142897119Y-107081598D01*
X142840707Y-106871067D01*
X142840706Y-106871065D01*
X142839284Y-106865757D01*
X142808792Y-106800366D01*
X142744849Y-106663238D01*
X142744846Y-106663233D01*
X142742523Y-106658251D01*
X142633654Y-106502770D01*
X142614357Y-106475211D01*
X142614355Y-106475208D01*
X142611198Y-106470700D01*
X142449300Y-106308802D01*
X142444792Y-106305645D01*
X142444789Y-106305643D01*
X142366611Y-106250902D01*
X142261749Y-106177477D01*
X142256767Y-106175154D01*
X142256762Y-106175151D01*
X142059225Y-106083039D01*
X142059224Y-106083039D01*
X142054243Y-106080716D01*
X142048935Y-106079294D01*
X142048933Y-106079293D01*
X141838402Y-106022881D01*
X141838400Y-106022881D01*
X141833087Y-106021457D01*
X141605000Y-106001502D01*
X141376913Y-106021457D01*
X141371600Y-106022881D01*
X141371598Y-106022881D01*
X141161067Y-106079293D01*
X141161065Y-106079294D01*
X141155757Y-106080716D01*
X141150776Y-106083039D01*
X141150775Y-106083039D01*
X140953238Y-106175151D01*
X140953233Y-106175154D01*
X140948251Y-106177477D01*
X140843389Y-106250902D01*
X140765211Y-106305643D01*
X140765208Y-106305645D01*
X140760700Y-106308802D01*
X140598802Y-106470700D01*
X140595645Y-106475208D01*
X140595643Y-106475211D01*
X140576346Y-106502770D01*
X140467477Y-106658251D01*
X140465154Y-106663233D01*
X140465151Y-106663238D01*
X140401208Y-106800366D01*
X140370716Y-106865757D01*
X140369294Y-106871065D01*
X140369293Y-106871067D01*
X140312881Y-107081598D01*
X140311457Y-107086913D01*
X140291502Y-107315000D01*
X140311457Y-107543087D01*
X140312881Y-107548400D01*
X140312881Y-107548402D01*
X140359751Y-107723320D01*
X140370716Y-107764243D01*
X140373039Y-107769224D01*
X140373039Y-107769225D01*
X140465151Y-107966762D01*
X140465154Y-107966767D01*
X140467477Y-107971749D01*
X140481865Y-107992297D01*
X140569902Y-108118026D01*
X140598802Y-108159300D01*
X140760700Y-108321198D01*
X140765207Y-108324354D01*
X140765211Y-108324357D01*
X140799074Y-108348068D01*
X140948251Y-108452523D01*
X140953233Y-108454846D01*
X140953238Y-108454849D01*
X141131116Y-108537794D01*
X141184401Y-108584711D01*
X141203862Y-108652988D01*
X141183320Y-108720948D01*
X141129298Y-108767014D01*
X141077866Y-108777989D01*
X137207860Y-108777989D01*
X137139739Y-108757987D01*
X137118765Y-108741084D01*
X135955671Y-107577990D01*
X135921645Y-107515678D01*
X135919245Y-107477913D01*
X135933019Y-107320475D01*
X135933498Y-107315000D01*
X135913543Y-107086913D01*
X135912119Y-107081598D01*
X135855707Y-106871067D01*
X135855706Y-106871065D01*
X135854284Y-106865757D01*
X135823792Y-106800366D01*
X135759849Y-106663238D01*
X135759846Y-106663233D01*
X135757523Y-106658251D01*
X135648654Y-106502770D01*
X135629357Y-106475211D01*
X135629355Y-106475208D01*
X135626198Y-106470700D01*
X135464300Y-106308802D01*
X135459792Y-106305645D01*
X135459789Y-106305643D01*
X135381611Y-106250902D01*
X135276749Y-106177477D01*
X135271767Y-106175154D01*
X135271762Y-106175151D01*
X135074225Y-106083039D01*
X135074224Y-106083039D01*
X135069243Y-106080716D01*
X135063935Y-106079294D01*
X135063933Y-106079293D01*
X134853402Y-106022881D01*
X134853400Y-106022881D01*
X134848087Y-106021457D01*
X134620000Y-106001502D01*
X134391913Y-106021457D01*
X134386600Y-106022881D01*
X134386598Y-106022881D01*
X134176067Y-106079293D01*
X134176065Y-106079294D01*
X134170757Y-106080716D01*
X134165776Y-106083039D01*
X134165775Y-106083039D01*
X133968238Y-106175151D01*
X133968233Y-106175154D01*
X133963251Y-106177477D01*
X133858389Y-106250902D01*
X133780211Y-106305643D01*
X133780208Y-106305645D01*
X133775700Y-106308802D01*
X133613802Y-106470700D01*
X133610645Y-106475208D01*
X133610643Y-106475211D01*
X133591346Y-106502770D01*
X133482477Y-106658251D01*
X133480154Y-106663233D01*
X133480151Y-106663238D01*
X133416208Y-106800366D01*
X133385716Y-106865757D01*
X133384294Y-106871065D01*
X133384293Y-106871067D01*
X133327881Y-107081598D01*
X133326457Y-107086913D01*
X133306502Y-107315000D01*
X133326457Y-107543087D01*
X133327881Y-107548400D01*
X133327881Y-107548402D01*
X133374751Y-107723320D01*
X133385716Y-107764243D01*
X133388039Y-107769224D01*
X133388039Y-107769225D01*
X133480151Y-107966762D01*
X133480154Y-107966767D01*
X133482477Y-107971749D01*
X133496865Y-107992297D01*
X133584902Y-108118026D01*
X133613802Y-108159300D01*
X133775700Y-108321198D01*
X133780207Y-108324354D01*
X133780211Y-108324357D01*
X133814074Y-108348068D01*
X133963251Y-108452523D01*
X133968233Y-108454846D01*
X133968238Y-108454849D01*
X134067648Y-108501204D01*
X134170757Y-108549284D01*
X134176065Y-108550706D01*
X134176067Y-108550707D01*
X134386598Y-108607119D01*
X134386600Y-108607119D01*
X134391913Y-108608543D01*
X134620000Y-108628498D01*
X134625475Y-108628019D01*
X134782913Y-108614245D01*
X134852518Y-108628234D01*
X134882990Y-108650671D01*
X135494724Y-109262405D01*
X135528750Y-109324717D01*
X135523685Y-109395532D01*
X135481138Y-109452368D01*
X135414618Y-109477179D01*
X135405629Y-109477500D01*
X130922371Y-109477500D01*
X130854250Y-109457498D01*
X130833276Y-109440595D01*
X128970671Y-107577990D01*
X128936645Y-107515678D01*
X128934245Y-107477913D01*
X128948019Y-107320475D01*
X128948498Y-107315000D01*
X128928543Y-107086913D01*
X128927119Y-107081598D01*
X128870707Y-106871067D01*
X128870706Y-106871065D01*
X128869284Y-106865757D01*
X128838792Y-106800366D01*
X128774849Y-106663238D01*
X128774846Y-106663233D01*
X128772523Y-106658251D01*
X128663654Y-106502770D01*
X128644357Y-106475211D01*
X128644355Y-106475208D01*
X128641198Y-106470700D01*
X128479300Y-106308802D01*
X128474792Y-106305645D01*
X128474789Y-106305643D01*
X128396611Y-106250902D01*
X128291749Y-106177477D01*
X128286767Y-106175154D01*
X128286762Y-106175151D01*
X128089225Y-106083039D01*
X128089224Y-106083039D01*
X128084243Y-106080716D01*
X128078935Y-106079294D01*
X128078933Y-106079293D01*
X127868402Y-106022881D01*
X127868400Y-106022881D01*
X127863087Y-106021457D01*
X127635000Y-106001502D01*
X127406913Y-106021457D01*
X127288175Y-106053273D01*
X127217200Y-106051583D01*
X127158404Y-106011789D01*
X127130456Y-105946525D01*
X127129565Y-105931566D01*
X127129565Y-104086135D01*
X127130998Y-104067185D01*
X127133164Y-104052950D01*
X127133164Y-104052946D01*
X127134264Y-104045716D01*
X127129980Y-103993047D01*
X127129565Y-103982832D01*
X127129565Y-103974772D01*
X127126274Y-103946545D01*
X127125843Y-103942186D01*
X127120518Y-103876725D01*
X127119925Y-103869429D01*
X127117670Y-103862468D01*
X127116483Y-103856528D01*
X127115094Y-103850653D01*
X127114247Y-103843384D01*
X127089329Y-103774735D01*
X127087912Y-103770607D01*
X127067672Y-103708129D01*
X127067671Y-103708127D01*
X127065416Y-103701166D01*
X127061620Y-103694911D01*
X127059114Y-103689437D01*
X127056395Y-103684007D01*
X127053898Y-103677128D01*
X127013879Y-103616089D01*
X127011532Y-103612370D01*
X126973660Y-103549958D01*
X126966262Y-103541581D01*
X126966289Y-103541557D01*
X126963636Y-103538565D01*
X126960933Y-103535332D01*
X126956921Y-103529213D01*
X126900682Y-103475937D01*
X126898240Y-103473559D01*
X123119681Y-99695000D01*
X126321502Y-99695000D01*
X126341457Y-99923087D01*
X126342881Y-99928400D01*
X126342881Y-99928402D01*
X126388344Y-100098069D01*
X126400716Y-100144243D01*
X126403039Y-100149224D01*
X126403039Y-100149225D01*
X126495151Y-100346762D01*
X126495154Y-100346767D01*
X126497477Y-100351749D01*
X126628802Y-100539300D01*
X126790700Y-100701198D01*
X126795208Y-100704355D01*
X126795211Y-100704357D01*
X126873389Y-100759098D01*
X126978251Y-100832523D01*
X126983233Y-100834846D01*
X126983238Y-100834849D01*
X127180775Y-100926961D01*
X127185757Y-100929284D01*
X127191065Y-100930706D01*
X127191067Y-100930707D01*
X127401598Y-100987119D01*
X127401600Y-100987119D01*
X127406913Y-100988543D01*
X127635000Y-101008498D01*
X127863087Y-100988543D01*
X127868400Y-100987119D01*
X127868402Y-100987119D01*
X128078933Y-100930707D01*
X128078935Y-100930706D01*
X128084243Y-100929284D01*
X128089225Y-100926961D01*
X128286762Y-100834849D01*
X128286767Y-100834846D01*
X128291749Y-100832523D01*
X128396611Y-100759098D01*
X128474789Y-100704357D01*
X128474792Y-100704355D01*
X128479300Y-100701198D01*
X128641198Y-100539300D01*
X128772523Y-100351749D01*
X128774846Y-100346767D01*
X128774849Y-100346762D01*
X128866961Y-100149225D01*
X128866961Y-100149224D01*
X128869284Y-100144243D01*
X128881657Y-100098069D01*
X128927119Y-99928402D01*
X128927119Y-99928400D01*
X128928543Y-99923087D01*
X128948498Y-99695000D01*
X133306502Y-99695000D01*
X133326457Y-99923087D01*
X133327881Y-99928400D01*
X133327881Y-99928402D01*
X133373344Y-100098069D01*
X133385716Y-100144243D01*
X133388039Y-100149224D01*
X133388039Y-100149225D01*
X133480151Y-100346762D01*
X133480154Y-100346767D01*
X133482477Y-100351749D01*
X133613802Y-100539300D01*
X133775700Y-100701198D01*
X133780208Y-100704355D01*
X133780211Y-100704357D01*
X133858389Y-100759098D01*
X133963251Y-100832523D01*
X133968233Y-100834846D01*
X133968238Y-100834849D01*
X134165775Y-100926961D01*
X134170757Y-100929284D01*
X134176065Y-100930706D01*
X134176067Y-100930707D01*
X134386598Y-100987119D01*
X134386600Y-100987119D01*
X134391913Y-100988543D01*
X134620000Y-101008498D01*
X134848087Y-100988543D01*
X134853400Y-100987119D01*
X134853402Y-100987119D01*
X135063933Y-100930707D01*
X135063935Y-100930706D01*
X135069243Y-100929284D01*
X135074225Y-100926961D01*
X135271762Y-100834849D01*
X135271767Y-100834846D01*
X135276749Y-100832523D01*
X135381611Y-100759098D01*
X135459789Y-100704357D01*
X135459792Y-100704355D01*
X135464300Y-100701198D01*
X135626198Y-100539300D01*
X135757523Y-100351749D01*
X135759846Y-100346767D01*
X135759849Y-100346762D01*
X135851961Y-100149225D01*
X135851961Y-100149224D01*
X135854284Y-100144243D01*
X135866657Y-100098069D01*
X135912119Y-99928402D01*
X135912119Y-99928400D01*
X135913543Y-99923087D01*
X135933498Y-99695000D01*
X140291502Y-99695000D01*
X140311457Y-99923087D01*
X140312881Y-99928400D01*
X140312881Y-99928402D01*
X140358344Y-100098069D01*
X140370716Y-100144243D01*
X140373039Y-100149224D01*
X140373039Y-100149225D01*
X140465151Y-100346762D01*
X140465154Y-100346767D01*
X140467477Y-100351749D01*
X140598802Y-100539300D01*
X140760700Y-100701198D01*
X140765208Y-100704355D01*
X140765211Y-100704357D01*
X140843389Y-100759098D01*
X140948251Y-100832523D01*
X140953233Y-100834846D01*
X140953238Y-100834849D01*
X141150775Y-100926961D01*
X141155757Y-100929284D01*
X141161065Y-100930706D01*
X141161067Y-100930707D01*
X141371598Y-100987119D01*
X141371600Y-100987119D01*
X141376913Y-100988543D01*
X141605000Y-101008498D01*
X141833087Y-100988543D01*
X141838400Y-100987119D01*
X141838402Y-100987119D01*
X142048933Y-100930707D01*
X142048935Y-100930706D01*
X142054243Y-100929284D01*
X142059225Y-100926961D01*
X142256762Y-100834849D01*
X142256767Y-100834846D01*
X142261749Y-100832523D01*
X142366611Y-100759098D01*
X142444789Y-100704357D01*
X142444792Y-100704355D01*
X142449300Y-100701198D01*
X142611198Y-100539300D01*
X142742523Y-100351749D01*
X142744846Y-100346767D01*
X142744849Y-100346762D01*
X142836961Y-100149225D01*
X142836961Y-100149224D01*
X142839284Y-100144243D01*
X142851657Y-100098069D01*
X142897119Y-99928402D01*
X142897119Y-99928400D01*
X142898543Y-99923087D01*
X142918498Y-99695000D01*
X147276502Y-99695000D01*
X147296457Y-99923087D01*
X147297881Y-99928400D01*
X147297881Y-99928402D01*
X147343344Y-100098069D01*
X147355716Y-100144243D01*
X147358039Y-100149224D01*
X147358039Y-100149225D01*
X147450151Y-100346762D01*
X147450154Y-100346767D01*
X147452477Y-100351749D01*
X147583802Y-100539300D01*
X147745700Y-100701198D01*
X147750208Y-100704355D01*
X147750211Y-100704357D01*
X147828389Y-100759098D01*
X147933251Y-100832523D01*
X147938233Y-100834846D01*
X147938238Y-100834849D01*
X148135775Y-100926961D01*
X148140757Y-100929284D01*
X148146065Y-100930706D01*
X148146067Y-100930707D01*
X148356598Y-100987119D01*
X148356600Y-100987119D01*
X148361913Y-100988543D01*
X148590000Y-101008498D01*
X148818087Y-100988543D01*
X148823400Y-100987119D01*
X148823402Y-100987119D01*
X149033933Y-100930707D01*
X149033935Y-100930706D01*
X149039243Y-100929284D01*
X149044225Y-100926961D01*
X149241762Y-100834849D01*
X149241767Y-100834846D01*
X149246749Y-100832523D01*
X149351611Y-100759098D01*
X149429789Y-100704357D01*
X149429792Y-100704355D01*
X149434300Y-100701198D01*
X149596198Y-100539300D01*
X149727523Y-100351749D01*
X149729846Y-100346767D01*
X149729849Y-100346762D01*
X149821961Y-100149225D01*
X149821961Y-100149224D01*
X149824284Y-100144243D01*
X149836657Y-100098069D01*
X149882119Y-99928402D01*
X149882119Y-99928400D01*
X149883543Y-99923087D01*
X149903498Y-99695000D01*
X149883543Y-99466913D01*
X149824284Y-99245757D01*
X149799551Y-99192717D01*
X149729849Y-99043238D01*
X149729846Y-99043233D01*
X149727523Y-99038251D01*
X149596198Y-98850700D01*
X149434300Y-98688802D01*
X149429792Y-98685645D01*
X149429789Y-98685643D01*
X149323030Y-98610890D01*
X149246749Y-98557477D01*
X149241767Y-98555154D01*
X149241762Y-98555151D01*
X149044225Y-98463039D01*
X149044224Y-98463039D01*
X149039243Y-98460716D01*
X149033935Y-98459294D01*
X149033933Y-98459293D01*
X148823402Y-98402881D01*
X148823400Y-98402881D01*
X148818087Y-98401457D01*
X148590000Y-98381502D01*
X148361913Y-98401457D01*
X148356600Y-98402881D01*
X148356598Y-98402881D01*
X148146067Y-98459293D01*
X148146065Y-98459294D01*
X148140757Y-98460716D01*
X148135776Y-98463039D01*
X148135775Y-98463039D01*
X147938238Y-98555151D01*
X147938233Y-98555154D01*
X147933251Y-98557477D01*
X147856970Y-98610890D01*
X147750211Y-98685643D01*
X147750208Y-98685645D01*
X147745700Y-98688802D01*
X147583802Y-98850700D01*
X147452477Y-99038251D01*
X147450154Y-99043233D01*
X147450151Y-99043238D01*
X147380449Y-99192717D01*
X147355716Y-99245757D01*
X147296457Y-99466913D01*
X147276502Y-99695000D01*
X142918498Y-99695000D01*
X142898543Y-99466913D01*
X142839284Y-99245757D01*
X142814551Y-99192717D01*
X142744849Y-99043238D01*
X142744846Y-99043233D01*
X142742523Y-99038251D01*
X142611198Y-98850700D01*
X142449300Y-98688802D01*
X142444792Y-98685645D01*
X142444789Y-98685643D01*
X142338030Y-98610890D01*
X142261749Y-98557477D01*
X142256767Y-98555154D01*
X142256762Y-98555151D01*
X142059225Y-98463039D01*
X142059224Y-98463039D01*
X142054243Y-98460716D01*
X142048935Y-98459294D01*
X142048933Y-98459293D01*
X141838402Y-98402881D01*
X141838400Y-98402881D01*
X141833087Y-98401457D01*
X141605000Y-98381502D01*
X141376913Y-98401457D01*
X141371600Y-98402881D01*
X141371598Y-98402881D01*
X141161067Y-98459293D01*
X141161065Y-98459294D01*
X141155757Y-98460716D01*
X141150776Y-98463039D01*
X141150775Y-98463039D01*
X140953238Y-98555151D01*
X140953233Y-98555154D01*
X140948251Y-98557477D01*
X140871970Y-98610890D01*
X140765211Y-98685643D01*
X140765208Y-98685645D01*
X140760700Y-98688802D01*
X140598802Y-98850700D01*
X140467477Y-99038251D01*
X140465154Y-99043233D01*
X140465151Y-99043238D01*
X140395449Y-99192717D01*
X140370716Y-99245757D01*
X140311457Y-99466913D01*
X140291502Y-99695000D01*
X135933498Y-99695000D01*
X135913543Y-99466913D01*
X135854284Y-99245757D01*
X135829551Y-99192717D01*
X135759849Y-99043238D01*
X135759846Y-99043233D01*
X135757523Y-99038251D01*
X135626198Y-98850700D01*
X135464300Y-98688802D01*
X135459792Y-98685645D01*
X135459789Y-98685643D01*
X135353030Y-98610890D01*
X135276749Y-98557477D01*
X135271767Y-98555154D01*
X135271762Y-98555151D01*
X135074225Y-98463039D01*
X135074224Y-98463039D01*
X135069243Y-98460716D01*
X135063935Y-98459294D01*
X135063933Y-98459293D01*
X134853402Y-98402881D01*
X134853400Y-98402881D01*
X134848087Y-98401457D01*
X134620000Y-98381502D01*
X134391913Y-98401457D01*
X134386600Y-98402881D01*
X134386598Y-98402881D01*
X134176067Y-98459293D01*
X134176065Y-98459294D01*
X134170757Y-98460716D01*
X134165776Y-98463039D01*
X134165775Y-98463039D01*
X133968238Y-98555151D01*
X133968233Y-98555154D01*
X133963251Y-98557477D01*
X133886970Y-98610890D01*
X133780211Y-98685643D01*
X133780208Y-98685645D01*
X133775700Y-98688802D01*
X133613802Y-98850700D01*
X133482477Y-99038251D01*
X133480154Y-99043233D01*
X133480151Y-99043238D01*
X133410449Y-99192717D01*
X133385716Y-99245757D01*
X133326457Y-99466913D01*
X133306502Y-99695000D01*
X128948498Y-99695000D01*
X128928543Y-99466913D01*
X128869284Y-99245757D01*
X128844551Y-99192717D01*
X128774849Y-99043238D01*
X128774846Y-99043233D01*
X128772523Y-99038251D01*
X128641198Y-98850700D01*
X128479300Y-98688802D01*
X128474792Y-98685645D01*
X128474789Y-98685643D01*
X128368030Y-98610890D01*
X128291749Y-98557477D01*
X128286767Y-98555154D01*
X128286762Y-98555151D01*
X128089225Y-98463039D01*
X128089224Y-98463039D01*
X128084243Y-98460716D01*
X128078935Y-98459294D01*
X128078933Y-98459293D01*
X127868402Y-98402881D01*
X127868400Y-98402881D01*
X127863087Y-98401457D01*
X127635000Y-98381502D01*
X127406913Y-98401457D01*
X127401600Y-98402881D01*
X127401598Y-98402881D01*
X127191067Y-98459293D01*
X127191065Y-98459294D01*
X127185757Y-98460716D01*
X127180776Y-98463039D01*
X127180775Y-98463039D01*
X126983238Y-98555151D01*
X126983233Y-98555154D01*
X126978251Y-98557477D01*
X126901970Y-98610890D01*
X126795211Y-98685643D01*
X126795208Y-98685645D01*
X126790700Y-98688802D01*
X126628802Y-98850700D01*
X126497477Y-99038251D01*
X126495154Y-99043233D01*
X126495151Y-99043238D01*
X126425449Y-99192717D01*
X126400716Y-99245757D01*
X126341457Y-99466913D01*
X126321502Y-99695000D01*
X123119681Y-99695000D01*
X121283405Y-97858724D01*
X121249379Y-97796412D01*
X121246500Y-97769629D01*
X121246500Y-97399866D01*
X121239745Y-97337684D01*
X121188615Y-97201295D01*
X121101261Y-97084739D01*
X120984705Y-96997385D01*
X120848316Y-96946255D01*
X120786134Y-96939500D01*
X118989866Y-96939500D01*
X118927684Y-96946255D01*
X118791295Y-96997385D01*
X118674739Y-97084739D01*
X118587385Y-97201295D01*
X118536255Y-97337684D01*
X118529500Y-97399866D01*
X118529500Y-99196134D01*
X118536255Y-99258316D01*
X118587385Y-99394705D01*
X118674739Y-99511261D01*
X118791295Y-99598615D01*
X118799704Y-99601767D01*
X118799705Y-99601768D01*
X118908451Y-99642535D01*
X118965216Y-99685176D01*
X118989916Y-99751738D01*
X118974709Y-99821087D01*
X118955316Y-99847568D01*
X118828629Y-99980138D01*
X118702743Y-100164680D01*
X118700564Y-100169375D01*
X118618224Y-100346762D01*
X118608688Y-100367305D01*
X118548989Y-100582570D01*
X118525251Y-100804695D01*
X118525548Y-100809848D01*
X118525548Y-100809851D01*
X118532517Y-100930707D01*
X118538110Y-101027715D01*
X118539247Y-101032761D01*
X118539248Y-101032767D01*
X118563304Y-101139508D01*
X118587222Y-101245639D01*
X118671266Y-101452616D01*
X118787987Y-101643088D01*
X118934250Y-101811938D01*
X119106126Y-101954632D01*
X119176595Y-101995811D01*
X119179445Y-101997476D01*
X119228169Y-102049114D01*
X119241240Y-102118897D01*
X119214509Y-102184669D01*
X119174055Y-102218027D01*
X119161607Y-102224507D01*
X119157474Y-102227610D01*
X119157471Y-102227612D01*
X119133247Y-102245800D01*
X118982965Y-102358635D01*
X118828629Y-102520138D01*
X118702743Y-102704680D01*
X118691795Y-102728266D01*
X118617144Y-102889089D01*
X118608688Y-102907305D01*
X118548989Y-103122570D01*
X118525251Y-103344695D01*
X118538110Y-103567715D01*
X118539247Y-103572761D01*
X118539248Y-103572767D01*
X118561388Y-103671007D01*
X118587222Y-103785639D01*
X118671266Y-103992616D01*
X118787987Y-104183088D01*
X118934250Y-104351938D01*
X119106126Y-104494632D01*
X119176595Y-104535811D01*
X119179445Y-104537476D01*
X119228169Y-104589114D01*
X119241240Y-104658897D01*
X119214509Y-104724669D01*
X119174055Y-104758027D01*
X119161607Y-104764507D01*
X119157474Y-104767610D01*
X119157471Y-104767612D01*
X119133247Y-104785800D01*
X118982965Y-104898635D01*
X118828629Y-105060138D01*
X118702743Y-105244680D01*
X118691795Y-105268266D01*
X118617144Y-105429089D01*
X118608688Y-105447305D01*
X118548989Y-105662570D01*
X118525251Y-105884695D01*
X118525548Y-105889848D01*
X118525548Y-105889851D01*
X118534971Y-106053273D01*
X118538110Y-106107715D01*
X118539247Y-106112761D01*
X118539248Y-106112767D01*
X118553832Y-106177477D01*
X118587222Y-106325639D01*
X118671266Y-106532616D01*
X118709736Y-106595393D01*
X118764285Y-106684409D01*
X118787987Y-106723088D01*
X118934250Y-106891938D01*
X119106126Y-107034632D01*
X119176595Y-107075811D01*
X119179445Y-107077476D01*
X119228169Y-107129114D01*
X119241240Y-107198897D01*
X119214509Y-107264669D01*
X119174055Y-107298027D01*
X119161607Y-107304507D01*
X119157474Y-107307610D01*
X119157471Y-107307612D01*
X119133247Y-107325800D01*
X118982965Y-107438635D01*
X118828629Y-107600138D01*
X118702743Y-107784680D01*
X118691795Y-107808266D01*
X118617144Y-107969089D01*
X118608688Y-107987305D01*
X118548989Y-108202570D01*
X118525251Y-108424695D01*
X118525548Y-108429848D01*
X118525548Y-108429851D01*
X118532517Y-108550707D01*
X118538110Y-108647715D01*
X118539247Y-108652761D01*
X118539248Y-108652767D01*
X118551169Y-108705663D01*
X118587222Y-108865639D01*
X118636141Y-108986113D01*
X118663992Y-109054701D01*
X118671266Y-109072616D01*
X118787987Y-109263088D01*
X118934250Y-109431938D01*
X119106126Y-109574632D01*
X119126217Y-109586372D01*
X119179445Y-109617476D01*
X119228169Y-109669114D01*
X119241240Y-109738897D01*
X119214509Y-109804669D01*
X119174055Y-109838027D01*
X119161607Y-109844507D01*
X119157474Y-109847610D01*
X119157471Y-109847612D01*
X118987100Y-109975530D01*
X118982965Y-109978635D01*
X118828629Y-110140138D01*
X118702743Y-110324680D01*
X118691795Y-110348266D01*
X118617144Y-110509089D01*
X118608688Y-110527305D01*
X118548989Y-110742570D01*
X118525251Y-110964695D01*
X118525548Y-110969848D01*
X118525548Y-110969851D01*
X118527093Y-110996641D01*
X118538110Y-111187715D01*
X118539247Y-111192761D01*
X118539248Y-111192767D01*
X118563304Y-111299508D01*
X118587222Y-111405639D01*
X118601663Y-111441203D01*
X118666051Y-111599772D01*
X118671266Y-111612616D01*
X118787987Y-111803088D01*
X118934250Y-111971938D01*
X119106126Y-112114632D01*
X119176595Y-112155811D01*
X119179445Y-112157476D01*
X119228169Y-112209114D01*
X119241240Y-112278897D01*
X119214509Y-112344669D01*
X119174055Y-112378027D01*
X119161607Y-112384507D01*
X119157474Y-112387610D01*
X119157471Y-112387612D01*
X119041386Y-112474771D01*
X118982965Y-112518635D01*
X118950376Y-112552737D01*
X118874205Y-112632446D01*
X118828629Y-112680138D01*
X118702743Y-112864680D01*
X118608688Y-113067305D01*
X118548989Y-113282570D01*
X118525251Y-113504695D01*
X118538110Y-113727715D01*
X118539247Y-113732761D01*
X118539248Y-113732767D01*
X118563304Y-113839508D01*
X118587222Y-113945639D01*
X118671266Y-114152616D01*
X118787987Y-114343088D01*
X118934250Y-114511938D01*
X119106126Y-114654632D01*
X119176595Y-114695811D01*
X119179445Y-114697476D01*
X119228169Y-114749114D01*
X119241240Y-114818897D01*
X119214509Y-114884669D01*
X119174055Y-114918027D01*
X119161607Y-114924507D01*
X119157474Y-114927610D01*
X119157471Y-114927612D01*
X119133247Y-114945800D01*
X118982965Y-115058635D01*
X118828629Y-115220138D01*
X118702743Y-115404680D01*
X118687003Y-115438589D01*
X118639071Y-115541851D01*
X118608688Y-115607305D01*
X118548989Y-115822570D01*
X118525251Y-116044695D01*
X118538110Y-116267715D01*
X118539247Y-116272761D01*
X118539248Y-116272767D01*
X118550820Y-116324114D01*
X118587222Y-116485639D01*
X118608368Y-116537715D01*
X118663663Y-116673891D01*
X118671266Y-116692616D01*
X118673965Y-116697020D01*
X118780344Y-116870615D01*
X118787987Y-116883088D01*
X118934250Y-117051938D01*
X119106126Y-117194632D01*
X119176595Y-117235811D01*
X119179445Y-117237476D01*
X119228169Y-117289114D01*
X119241240Y-117358897D01*
X119214509Y-117424669D01*
X119174055Y-117458027D01*
X119161607Y-117464507D01*
X119157474Y-117467610D01*
X119157471Y-117467612D01*
X119094752Y-117514703D01*
X118982965Y-117598635D01*
X118828629Y-117760138D01*
X118702743Y-117944680D01*
X118608688Y-118147305D01*
X118548989Y-118362570D01*
X118525251Y-118584695D01*
X118525548Y-118589848D01*
X118525548Y-118589851D01*
X118532176Y-118704793D01*
X118538110Y-118807715D01*
X118539247Y-118812761D01*
X118539248Y-118812767D01*
X118563304Y-118919508D01*
X118587222Y-119025639D01*
X118671266Y-119232616D01*
X118787987Y-119423088D01*
X118934250Y-119591938D01*
X119106126Y-119734632D01*
X119176595Y-119775811D01*
X119179445Y-119777476D01*
X119228169Y-119829114D01*
X119241240Y-119898897D01*
X119214509Y-119964669D01*
X119174055Y-119998027D01*
X119161607Y-120004507D01*
X119157474Y-120007610D01*
X119157471Y-120007612D01*
X118990803Y-120132750D01*
X118982965Y-120138635D01*
X118828629Y-120300138D01*
X118702743Y-120484680D01*
X118655715Y-120585993D01*
X118611218Y-120681855D01*
X118608688Y-120687305D01*
X118548989Y-120902570D01*
X118525251Y-121124695D01*
X118525548Y-121129848D01*
X118525548Y-121129851D01*
X118533906Y-121274797D01*
X118538110Y-121347715D01*
X118539247Y-121352761D01*
X118539248Y-121352767D01*
X118550647Y-121403347D01*
X118587222Y-121565639D01*
X118671266Y-121772616D01*
X118694370Y-121810319D01*
X118777302Y-121945651D01*
X118787987Y-121963088D01*
X118934250Y-122131938D01*
X119106126Y-122274632D01*
X119176595Y-122315811D01*
X119179445Y-122317476D01*
X119228169Y-122369114D01*
X119241240Y-122438897D01*
X119214509Y-122504669D01*
X119174055Y-122538027D01*
X119161607Y-122544507D01*
X119157474Y-122547610D01*
X119157471Y-122547612D01*
X118992918Y-122671162D01*
X118982965Y-122678635D01*
X118979393Y-122682373D01*
X118849657Y-122818134D01*
X118828629Y-122840138D01*
X118702743Y-123024680D01*
X118659380Y-123118099D01*
X118611095Y-123222120D01*
X118608688Y-123227305D01*
X118548989Y-123442570D01*
X118525251Y-123664695D01*
X118538110Y-123887715D01*
X118539247Y-123892761D01*
X118539248Y-123892767D01*
X118555870Y-123966520D01*
X118587222Y-124105639D01*
X118671266Y-124312616D01*
X118787987Y-124503088D01*
X118934250Y-124671938D01*
X119106126Y-124814632D01*
X119176595Y-124855811D01*
X119179445Y-124857476D01*
X119228169Y-124909114D01*
X119241240Y-124978897D01*
X119214509Y-125044669D01*
X119174055Y-125078027D01*
X119161607Y-125084507D01*
X119157474Y-125087610D01*
X119157471Y-125087612D01*
X118987100Y-125215530D01*
X118982965Y-125218635D01*
X118828629Y-125380138D01*
X118825715Y-125384410D01*
X118825714Y-125384411D01*
X118740556Y-125509249D01*
X118702743Y-125564680D01*
X118608688Y-125767305D01*
X118548989Y-125982570D01*
X118525251Y-126204695D01*
X118525548Y-126209848D01*
X118525548Y-126209851D01*
X118527373Y-126241500D01*
X118538110Y-126427715D01*
X118539247Y-126432761D01*
X118539248Y-126432767D01*
X118543791Y-126452924D01*
X118587222Y-126645639D01*
X118671266Y-126852616D01*
X118787987Y-127043088D01*
X118934250Y-127211938D01*
X119106126Y-127354632D01*
X119161088Y-127386749D01*
X119179445Y-127397476D01*
X119228169Y-127449114D01*
X119241240Y-127518897D01*
X119214509Y-127584669D01*
X119174055Y-127618027D01*
X119161607Y-127624507D01*
X119157474Y-127627610D01*
X119157471Y-127627612D01*
X118987100Y-127755530D01*
X118982965Y-127758635D01*
X118949358Y-127793803D01*
X118835530Y-127912917D01*
X118828629Y-127920138D01*
X118702743Y-128104680D01*
X118664546Y-128186968D01*
X118627169Y-128267492D01*
X118608688Y-128307305D01*
X118548989Y-128522570D01*
X118525251Y-128744695D01*
X118538110Y-128967715D01*
X118539247Y-128972761D01*
X118539248Y-128972767D01*
X118563304Y-129079508D01*
X118587222Y-129185639D01*
X118671266Y-129392616D01*
X118787987Y-129583088D01*
X118934250Y-129751938D01*
X119106126Y-129894632D01*
X119176595Y-129935811D01*
X119179445Y-129937476D01*
X119228169Y-129989114D01*
X119241240Y-130058897D01*
X119214509Y-130124669D01*
X119174055Y-130158027D01*
X119161607Y-130164507D01*
X119157474Y-130167610D01*
X119157471Y-130167612D01*
X119004612Y-130282382D01*
X118982965Y-130298635D01*
X118973116Y-130308941D01*
X118839643Y-130448613D01*
X118828629Y-130460138D01*
X118825715Y-130464410D01*
X118825714Y-130464411D01*
X118797720Y-130505449D01*
X118702743Y-130644680D01*
X118608688Y-130847305D01*
X118548989Y-131062570D01*
X118525251Y-131284695D01*
X117348500Y-131284695D01*
X117348500Y-81246695D01*
X125637251Y-81246695D01*
X125637548Y-81251848D01*
X125637548Y-81251851D01*
X125643011Y-81346590D01*
X125650110Y-81469715D01*
X125651247Y-81474761D01*
X125651248Y-81474767D01*
X125671119Y-81562939D01*
X125699222Y-81687639D01*
X125783266Y-81894616D01*
X125834019Y-81977438D01*
X125897291Y-82080688D01*
X125899987Y-82085088D01*
X126046250Y-82253938D01*
X126218126Y-82396632D01*
X126411000Y-82509338D01*
X126619692Y-82589030D01*
X126624760Y-82590061D01*
X126624763Y-82590062D01*
X126732017Y-82611883D01*
X126838597Y-82633567D01*
X126843772Y-82633757D01*
X126843774Y-82633757D01*
X127056673Y-82641564D01*
X127056677Y-82641564D01*
X127061837Y-82641753D01*
X127066957Y-82641097D01*
X127066959Y-82641097D01*
X127278288Y-82614025D01*
X127278289Y-82614025D01*
X127283416Y-82613368D01*
X127288366Y-82611883D01*
X127492429Y-82550661D01*
X127492434Y-82550659D01*
X127497384Y-82549174D01*
X127697994Y-82450896D01*
X127879860Y-82321173D01*
X128038096Y-82163489D01*
X128097594Y-82080689D01*
X128168453Y-81982077D01*
X128169776Y-81983028D01*
X128216645Y-81939857D01*
X128286580Y-81927625D01*
X128352026Y-81955144D01*
X128379875Y-81986994D01*
X128439987Y-82085088D01*
X128586250Y-82253938D01*
X128758126Y-82396632D01*
X128951000Y-82509338D01*
X129159692Y-82589030D01*
X129164760Y-82590061D01*
X129164763Y-82590062D01*
X129272017Y-82611883D01*
X129378597Y-82633567D01*
X129383772Y-82633757D01*
X129383774Y-82633757D01*
X129596673Y-82641564D01*
X129596677Y-82641564D01*
X129601837Y-82641753D01*
X129606957Y-82641097D01*
X129606959Y-82641097D01*
X129818288Y-82614025D01*
X129818289Y-82614025D01*
X129823416Y-82613368D01*
X129828366Y-82611883D01*
X130032429Y-82550661D01*
X130032434Y-82550659D01*
X130037384Y-82549174D01*
X130237994Y-82450896D01*
X130419860Y-82321173D01*
X130578096Y-82163489D01*
X130637594Y-82080689D01*
X130708453Y-81982077D01*
X130709776Y-81983028D01*
X130756645Y-81939857D01*
X130826580Y-81927625D01*
X130892026Y-81955144D01*
X130919875Y-81986994D01*
X130979987Y-82085088D01*
X131126250Y-82253938D01*
X131298126Y-82396632D01*
X131491000Y-82509338D01*
X131699692Y-82589030D01*
X131704760Y-82590061D01*
X131704763Y-82590062D01*
X131812017Y-82611883D01*
X131918597Y-82633567D01*
X131923772Y-82633757D01*
X131923774Y-82633757D01*
X132136673Y-82641564D01*
X132136677Y-82641564D01*
X132141837Y-82641753D01*
X132281908Y-82623809D01*
X132352017Y-82634993D01*
X132387012Y-82659693D01*
X135688223Y-85960904D01*
X135722249Y-86023216D01*
X135717184Y-86094031D01*
X135674637Y-86150867D01*
X135608117Y-86175678D01*
X135599128Y-86175999D01*
X131572571Y-86175999D01*
X131553621Y-86174566D01*
X131539386Y-86172400D01*
X131539382Y-86172400D01*
X131532152Y-86171300D01*
X131524860Y-86171893D01*
X131524857Y-86171893D01*
X131479483Y-86175584D01*
X131469268Y-86175999D01*
X131461208Y-86175999D01*
X131457574Y-86176423D01*
X131457568Y-86176423D01*
X131444543Y-86177942D01*
X131432981Y-86179290D01*
X131428633Y-86179720D01*
X131406560Y-86181515D01*
X131363163Y-86185045D01*
X131363160Y-86185046D01*
X131355865Y-86185639D01*
X131348901Y-86187895D01*
X131342962Y-86189082D01*
X131337091Y-86190469D01*
X131329820Y-86191317D01*
X131322944Y-86193813D01*
X131322935Y-86193815D01*
X131261203Y-86216224D01*
X131257099Y-86217634D01*
X131187602Y-86240147D01*
X131181347Y-86243943D01*
X131175888Y-86246442D01*
X131170440Y-86249170D01*
X131163564Y-86251666D01*
X131102511Y-86291694D01*
X131098838Y-86294012D01*
X131036394Y-86331904D01*
X131028018Y-86339301D01*
X131027994Y-86339274D01*
X131025000Y-86341929D01*
X131021769Y-86344631D01*
X131015649Y-86348643D01*
X130988256Y-86377560D01*
X130962373Y-86404882D01*
X130959995Y-86407324D01*
X127322724Y-90044595D01*
X127260412Y-90078621D01*
X127233629Y-90081500D01*
X126101866Y-90081500D01*
X126039684Y-90088255D01*
X125903295Y-90139385D01*
X125786739Y-90226739D01*
X125699385Y-90343295D01*
X125648255Y-90479684D01*
X125641500Y-90541866D01*
X125641500Y-92338134D01*
X125648255Y-92400316D01*
X125699385Y-92536705D01*
X125786739Y-92653261D01*
X125903295Y-92740615D01*
X126039684Y-92791745D01*
X126101866Y-92798500D01*
X127898134Y-92798500D01*
X127960316Y-92791745D01*
X128096705Y-92740615D01*
X128213261Y-92653261D01*
X128300615Y-92536705D01*
X128328067Y-92463478D01*
X128344598Y-92419382D01*
X128387240Y-92362618D01*
X128453802Y-92337918D01*
X128523150Y-92353126D01*
X128557817Y-92381114D01*
X128586250Y-92413938D01*
X128758126Y-92556632D01*
X128951000Y-92669338D01*
X129159692Y-92749030D01*
X129164760Y-92750061D01*
X129164763Y-92750062D01*
X129272017Y-92771883D01*
X129378597Y-92793567D01*
X129383772Y-92793757D01*
X129383774Y-92793757D01*
X129596673Y-92801564D01*
X129596677Y-92801564D01*
X129601837Y-92801753D01*
X129741908Y-92783809D01*
X129812017Y-92794993D01*
X129847012Y-92819693D01*
X134290230Y-97262911D01*
X134302616Y-97277323D01*
X134311149Y-97288918D01*
X134311154Y-97288923D01*
X134315492Y-97294818D01*
X134321070Y-97299557D01*
X134321073Y-97299560D01*
X134355768Y-97329035D01*
X134363284Y-97335965D01*
X134368979Y-97341660D01*
X134371861Y-97343940D01*
X134391251Y-97359281D01*
X134394655Y-97362072D01*
X134444703Y-97404591D01*
X134450285Y-97409333D01*
X134456801Y-97412661D01*
X134461850Y-97416028D01*
X134466979Y-97419195D01*
X134472716Y-97423734D01*
X134538875Y-97454655D01*
X134542769Y-97456558D01*
X134607808Y-97489769D01*
X134614916Y-97491508D01*
X134620559Y-97493607D01*
X134626322Y-97495524D01*
X134632950Y-97498622D01*
X134640112Y-97500112D01*
X134640113Y-97500112D01*
X134704412Y-97513486D01*
X134708696Y-97514456D01*
X134779610Y-97531808D01*
X134785212Y-97532156D01*
X134785215Y-97532156D01*
X134790764Y-97532500D01*
X134790762Y-97532536D01*
X134794755Y-97532775D01*
X134798947Y-97533149D01*
X134806115Y-97534640D01*
X134883520Y-97532546D01*
X134886928Y-97532500D01*
X152287629Y-97532500D01*
X152355750Y-97552502D01*
X152376724Y-97569405D01*
X154239329Y-99432010D01*
X154273355Y-99494322D01*
X154275755Y-99532087D01*
X154261502Y-99695000D01*
X154281457Y-99923087D01*
X154282881Y-99928400D01*
X154282881Y-99928402D01*
X154328344Y-100098069D01*
X154340716Y-100144243D01*
X154343039Y-100149224D01*
X154343039Y-100149225D01*
X154435151Y-100346762D01*
X154435154Y-100346767D01*
X154437477Y-100351749D01*
X154568802Y-100539300D01*
X154730700Y-100701198D01*
X154735208Y-100704355D01*
X154735211Y-100704357D01*
X154813389Y-100759098D01*
X154918251Y-100832523D01*
X154923233Y-100834846D01*
X154923238Y-100834849D01*
X155120775Y-100926961D01*
X155125757Y-100929284D01*
X155131065Y-100930706D01*
X155131067Y-100930707D01*
X155341598Y-100987119D01*
X155341600Y-100987119D01*
X155346913Y-100988543D01*
X155575000Y-101008498D01*
X155803087Y-100988543D01*
X155808400Y-100987119D01*
X155808402Y-100987119D01*
X156018933Y-100930707D01*
X156018935Y-100930706D01*
X156024243Y-100929284D01*
X156029225Y-100926961D01*
X156226762Y-100834849D01*
X156226767Y-100834846D01*
X156231749Y-100832523D01*
X156336611Y-100759098D01*
X156414789Y-100704357D01*
X156414792Y-100704355D01*
X156419300Y-100701198D01*
X156581198Y-100539300D01*
X156712523Y-100351749D01*
X156714846Y-100346767D01*
X156714849Y-100346762D01*
X156806961Y-100149225D01*
X156806961Y-100149224D01*
X156809284Y-100144243D01*
X156821657Y-100098069D01*
X156867119Y-99928402D01*
X156867119Y-99928400D01*
X156868543Y-99923087D01*
X156888498Y-99695000D01*
X156868543Y-99466913D01*
X156809284Y-99245757D01*
X156784551Y-99192717D01*
X156714849Y-99043238D01*
X156714846Y-99043233D01*
X156712523Y-99038251D01*
X156581198Y-98850700D01*
X156419300Y-98688802D01*
X156414792Y-98685645D01*
X156414789Y-98685643D01*
X156308030Y-98610890D01*
X156231749Y-98557477D01*
X156226767Y-98555154D01*
X156226762Y-98555151D01*
X156029225Y-98463039D01*
X156029224Y-98463039D01*
X156024243Y-98460716D01*
X156018935Y-98459294D01*
X156018933Y-98459293D01*
X155808402Y-98402881D01*
X155808400Y-98402881D01*
X155803087Y-98401457D01*
X155575000Y-98381502D01*
X155569525Y-98381981D01*
X155412087Y-98395755D01*
X155342482Y-98381766D01*
X155312010Y-98359329D01*
X153938276Y-96985595D01*
X153904250Y-96923283D01*
X153909315Y-96852468D01*
X153951862Y-96795632D01*
X154018382Y-96770821D01*
X154027371Y-96770500D01*
X159868011Y-96770500D01*
X159886961Y-96771933D01*
X159901196Y-96774099D01*
X159901200Y-96774099D01*
X159908430Y-96775199D01*
X159915722Y-96774606D01*
X159915725Y-96774606D01*
X159961099Y-96770915D01*
X159971314Y-96770500D01*
X159979374Y-96770500D01*
X159992664Y-96768951D01*
X160007588Y-96767211D01*
X160011963Y-96766778D01*
X160077420Y-96761454D01*
X160077423Y-96761453D01*
X160084718Y-96760860D01*
X160091682Y-96758604D01*
X160097641Y-96757413D01*
X160103496Y-96756029D01*
X160110762Y-96755182D01*
X160179408Y-96730265D01*
X160183536Y-96728848D01*
X160246017Y-96708607D01*
X160246019Y-96708606D01*
X160252980Y-96706351D01*
X160259235Y-96702555D01*
X160264709Y-96700049D01*
X160270139Y-96697330D01*
X160277018Y-96694833D01*
X160338057Y-96654814D01*
X160341761Y-96652477D01*
X160404188Y-96614595D01*
X160412565Y-96607197D01*
X160412589Y-96607224D01*
X160415581Y-96604571D01*
X160418814Y-96601868D01*
X160424933Y-96597856D01*
X160478209Y-96541617D01*
X160480587Y-96539175D01*
X161586405Y-95433357D01*
X161648717Y-95399331D01*
X161719532Y-95404396D01*
X161776368Y-95446943D01*
X161801179Y-95513463D01*
X161801500Y-95522452D01*
X161801500Y-98563133D01*
X161781498Y-98631254D01*
X161747772Y-98666345D01*
X161715700Y-98688802D01*
X161553802Y-98850700D01*
X161422477Y-99038251D01*
X161420154Y-99043233D01*
X161420151Y-99043238D01*
X161350449Y-99192717D01*
X161325716Y-99245757D01*
X161266457Y-99466913D01*
X161246502Y-99695000D01*
X161266457Y-99923087D01*
X161267881Y-99928400D01*
X161267881Y-99928402D01*
X161313344Y-100098069D01*
X161325716Y-100144243D01*
X161328039Y-100149224D01*
X161328039Y-100149225D01*
X161420151Y-100346762D01*
X161420154Y-100346767D01*
X161422477Y-100351749D01*
X161553802Y-100539300D01*
X161715700Y-100701198D01*
X161720208Y-100704355D01*
X161720211Y-100704357D01*
X161798389Y-100759098D01*
X161903251Y-100832523D01*
X161908233Y-100834846D01*
X161908238Y-100834849D01*
X162105775Y-100926961D01*
X162110757Y-100929284D01*
X162116065Y-100930706D01*
X162116067Y-100930707D01*
X162326598Y-100987119D01*
X162326600Y-100987119D01*
X162331913Y-100988543D01*
X162560000Y-101008498D01*
X162788087Y-100988543D01*
X162793400Y-100987119D01*
X162793402Y-100987119D01*
X163003933Y-100930707D01*
X163003935Y-100930706D01*
X163009243Y-100929284D01*
X163014225Y-100926961D01*
X163211762Y-100834849D01*
X163211767Y-100834846D01*
X163216749Y-100832523D01*
X163321611Y-100759098D01*
X163399789Y-100704357D01*
X163399792Y-100704355D01*
X163404300Y-100701198D01*
X163566198Y-100539300D01*
X163697523Y-100351749D01*
X163699846Y-100346767D01*
X163699849Y-100346762D01*
X163791961Y-100149225D01*
X163791961Y-100149224D01*
X163794284Y-100144243D01*
X163806657Y-100098069D01*
X163852119Y-99928402D01*
X163852119Y-99928400D01*
X163853543Y-99923087D01*
X163873498Y-99695000D01*
X168231502Y-99695000D01*
X168251457Y-99923087D01*
X168252881Y-99928400D01*
X168252881Y-99928402D01*
X168298344Y-100098069D01*
X168310716Y-100144243D01*
X168313039Y-100149224D01*
X168313039Y-100149225D01*
X168405151Y-100346762D01*
X168405154Y-100346767D01*
X168407477Y-100351749D01*
X168538802Y-100539300D01*
X168700700Y-100701198D01*
X168705208Y-100704355D01*
X168705211Y-100704357D01*
X168783389Y-100759098D01*
X168888251Y-100832523D01*
X168893233Y-100834846D01*
X168893238Y-100834849D01*
X169090775Y-100926961D01*
X169095757Y-100929284D01*
X169101065Y-100930706D01*
X169101067Y-100930707D01*
X169311598Y-100987119D01*
X169311600Y-100987119D01*
X169316913Y-100988543D01*
X169545000Y-101008498D01*
X169773087Y-100988543D01*
X169778400Y-100987119D01*
X169778402Y-100987119D01*
X169988933Y-100930707D01*
X169988935Y-100930706D01*
X169994243Y-100929284D01*
X169999225Y-100926961D01*
X170196762Y-100834849D01*
X170196767Y-100834846D01*
X170201749Y-100832523D01*
X170306611Y-100759098D01*
X170384789Y-100704357D01*
X170384792Y-100704355D01*
X170389300Y-100701198D01*
X170551198Y-100539300D01*
X170682523Y-100351749D01*
X170684846Y-100346767D01*
X170684849Y-100346762D01*
X170776961Y-100149225D01*
X170776961Y-100149224D01*
X170779284Y-100144243D01*
X170791657Y-100098069D01*
X170837119Y-99928402D01*
X170837119Y-99928400D01*
X170838543Y-99923087D01*
X170858498Y-99695000D01*
X170838543Y-99466913D01*
X170779284Y-99245757D01*
X170754551Y-99192717D01*
X170684849Y-99043238D01*
X170684846Y-99043233D01*
X170682523Y-99038251D01*
X170551198Y-98850700D01*
X170389300Y-98688802D01*
X170384792Y-98685645D01*
X170384789Y-98685643D01*
X170278030Y-98610890D01*
X170201749Y-98557477D01*
X170196767Y-98555154D01*
X170196762Y-98555151D01*
X169999225Y-98463039D01*
X169999224Y-98463039D01*
X169994243Y-98460716D01*
X169988935Y-98459294D01*
X169988933Y-98459293D01*
X169778402Y-98402881D01*
X169778400Y-98402881D01*
X169773087Y-98401457D01*
X169545000Y-98381502D01*
X169316913Y-98401457D01*
X169311600Y-98402881D01*
X169311598Y-98402881D01*
X169101067Y-98459293D01*
X169101065Y-98459294D01*
X169095757Y-98460716D01*
X169090776Y-98463039D01*
X169090775Y-98463039D01*
X168893238Y-98555151D01*
X168893233Y-98555154D01*
X168888251Y-98557477D01*
X168811970Y-98610890D01*
X168705211Y-98685643D01*
X168705208Y-98685645D01*
X168700700Y-98688802D01*
X168538802Y-98850700D01*
X168407477Y-99038251D01*
X168405154Y-99043233D01*
X168405151Y-99043238D01*
X168335449Y-99192717D01*
X168310716Y-99245757D01*
X168251457Y-99466913D01*
X168231502Y-99695000D01*
X163873498Y-99695000D01*
X163853543Y-99466913D01*
X163794284Y-99245757D01*
X163769551Y-99192717D01*
X163699849Y-99043238D01*
X163699846Y-99043233D01*
X163697523Y-99038251D01*
X163566198Y-98850700D01*
X163404300Y-98688802D01*
X163372229Y-98666345D01*
X163327901Y-98610890D01*
X163318500Y-98563133D01*
X163318500Y-95091371D01*
X163338502Y-95023250D01*
X163355405Y-95002276D01*
X165536441Y-92821240D01*
X165598753Y-92787214D01*
X165650657Y-92786865D01*
X165683597Y-92793567D01*
X165688772Y-92793757D01*
X165688774Y-92793757D01*
X165901673Y-92801564D01*
X165901677Y-92801564D01*
X165906837Y-92801753D01*
X165911957Y-92801097D01*
X165911959Y-92801097D01*
X166123288Y-92774025D01*
X166123289Y-92774025D01*
X166128416Y-92773368D01*
X166133366Y-92771883D01*
X166337429Y-92710661D01*
X166337434Y-92710659D01*
X166342384Y-92709174D01*
X166542994Y-92610896D01*
X166724860Y-92481173D01*
X166883096Y-92323489D01*
X167013453Y-92142077D01*
X167014776Y-92143028D01*
X167061645Y-92099857D01*
X167131580Y-92087625D01*
X167197026Y-92115144D01*
X167224875Y-92146994D01*
X167284987Y-92245088D01*
X167431250Y-92413938D01*
X167603126Y-92556632D01*
X167796000Y-92669338D01*
X168004692Y-92749030D01*
X168009760Y-92750061D01*
X168009763Y-92750062D01*
X168117017Y-92771883D01*
X168223597Y-92793567D01*
X168228772Y-92793757D01*
X168228774Y-92793757D01*
X168441673Y-92801564D01*
X168441677Y-92801564D01*
X168446837Y-92801753D01*
X168451957Y-92801097D01*
X168451959Y-92801097D01*
X168663288Y-92774025D01*
X168663289Y-92774025D01*
X168668416Y-92773368D01*
X168673366Y-92771883D01*
X168877429Y-92710661D01*
X168877434Y-92710659D01*
X168882384Y-92709174D01*
X169082994Y-92610896D01*
X169264860Y-92481173D01*
X169423096Y-92323489D01*
X169553453Y-92142077D01*
X169554776Y-92143028D01*
X169601645Y-92099857D01*
X169671580Y-92087625D01*
X169737026Y-92115144D01*
X169764875Y-92146994D01*
X169824987Y-92245088D01*
X169971250Y-92413938D01*
X170143126Y-92556632D01*
X170336000Y-92669338D01*
X170544692Y-92749030D01*
X170549760Y-92750061D01*
X170549763Y-92750062D01*
X170657017Y-92771883D01*
X170763597Y-92793567D01*
X170768772Y-92793757D01*
X170768774Y-92793757D01*
X170981673Y-92801564D01*
X170981677Y-92801564D01*
X170986837Y-92801753D01*
X170991957Y-92801097D01*
X170991959Y-92801097D01*
X171203288Y-92774025D01*
X171203289Y-92774025D01*
X171208416Y-92773368D01*
X171213366Y-92771883D01*
X171417429Y-92710661D01*
X171417434Y-92710659D01*
X171422384Y-92709174D01*
X171622994Y-92610896D01*
X171804860Y-92481173D01*
X171963096Y-92323489D01*
X172093453Y-92142077D01*
X172114320Y-92099857D01*
X172190136Y-91946453D01*
X172190137Y-91946451D01*
X172192430Y-91941811D01*
X172257370Y-91728069D01*
X172286529Y-91506590D01*
X172286750Y-91497534D01*
X172288074Y-91443365D01*
X172288074Y-91443361D01*
X172288156Y-91440000D01*
X172269852Y-91217361D01*
X172215431Y-91000702D01*
X172126354Y-90795840D01*
X172005014Y-90608277D01*
X171854670Y-90443051D01*
X171850619Y-90439852D01*
X171850615Y-90439848D01*
X171683414Y-90307800D01*
X171683410Y-90307798D01*
X171679359Y-90304598D01*
X171483789Y-90196638D01*
X171478920Y-90194914D01*
X171478916Y-90194912D01*
X171278087Y-90123795D01*
X171278083Y-90123794D01*
X171273212Y-90122069D01*
X171268119Y-90121162D01*
X171268116Y-90121161D01*
X171058373Y-90083800D01*
X171058367Y-90083799D01*
X171053284Y-90082894D01*
X170979452Y-90081992D01*
X170835081Y-90080228D01*
X170835079Y-90080228D01*
X170829911Y-90080165D01*
X170609091Y-90113955D01*
X170396756Y-90183357D01*
X170198607Y-90286507D01*
X170194474Y-90289610D01*
X170194471Y-90289612D01*
X170024100Y-90417530D01*
X170019965Y-90420635D01*
X170016393Y-90424373D01*
X169908729Y-90537037D01*
X169865629Y-90582138D01*
X169758201Y-90739621D01*
X169703293Y-90784621D01*
X169632768Y-90792792D01*
X169569021Y-90761538D01*
X169548324Y-90737054D01*
X169467822Y-90612617D01*
X169467820Y-90612614D01*
X169465014Y-90608277D01*
X169314670Y-90443051D01*
X169310619Y-90439852D01*
X169310615Y-90439848D01*
X169143414Y-90307800D01*
X169143410Y-90307798D01*
X169139359Y-90304598D01*
X168943789Y-90196638D01*
X168938920Y-90194914D01*
X168938916Y-90194912D01*
X168738087Y-90123795D01*
X168738083Y-90123794D01*
X168733212Y-90122069D01*
X168728119Y-90121162D01*
X168728116Y-90121161D01*
X168518373Y-90083800D01*
X168518367Y-90083799D01*
X168513284Y-90082894D01*
X168439452Y-90081992D01*
X168295081Y-90080228D01*
X168295079Y-90080228D01*
X168289911Y-90080165D01*
X168069091Y-90113955D01*
X167856756Y-90183357D01*
X167658607Y-90286507D01*
X167654474Y-90289610D01*
X167654471Y-90289612D01*
X167484100Y-90417530D01*
X167479965Y-90420635D01*
X167476393Y-90424373D01*
X167368729Y-90537037D01*
X167325629Y-90582138D01*
X167218201Y-90739621D01*
X167163293Y-90784621D01*
X167092768Y-90792792D01*
X167029021Y-90761538D01*
X167008324Y-90737054D01*
X166927822Y-90612617D01*
X166927820Y-90612614D01*
X166925014Y-90608277D01*
X166774670Y-90443051D01*
X166770619Y-90439852D01*
X166770615Y-90439848D01*
X166603414Y-90307800D01*
X166603410Y-90307798D01*
X166599359Y-90304598D01*
X166403789Y-90196638D01*
X166398920Y-90194914D01*
X166398916Y-90194912D01*
X166198087Y-90123795D01*
X166198083Y-90123794D01*
X166193212Y-90122069D01*
X166188119Y-90121162D01*
X166188116Y-90121161D01*
X165978373Y-90083800D01*
X165978367Y-90083799D01*
X165973284Y-90082894D01*
X165899452Y-90081992D01*
X165755081Y-90080228D01*
X165755079Y-90080228D01*
X165749911Y-90080165D01*
X165529091Y-90113955D01*
X165316756Y-90183357D01*
X165118607Y-90286507D01*
X165114474Y-90289610D01*
X165114471Y-90289612D01*
X164944100Y-90417530D01*
X164939965Y-90420635D01*
X164936393Y-90424373D01*
X164828729Y-90537037D01*
X164785629Y-90582138D01*
X164678201Y-90739621D01*
X164623293Y-90784621D01*
X164552768Y-90792792D01*
X164489021Y-90761538D01*
X164468324Y-90737054D01*
X164387822Y-90612617D01*
X164387820Y-90612614D01*
X164385014Y-90608277D01*
X164234670Y-90443051D01*
X164230619Y-90439852D01*
X164230615Y-90439848D01*
X164063414Y-90307800D01*
X164063410Y-90307798D01*
X164059359Y-90304598D01*
X163863789Y-90196638D01*
X163858920Y-90194914D01*
X163858916Y-90194912D01*
X163658087Y-90123795D01*
X163658083Y-90123794D01*
X163653212Y-90122069D01*
X163648119Y-90121162D01*
X163648116Y-90121161D01*
X163438373Y-90083800D01*
X163438367Y-90083799D01*
X163433284Y-90082894D01*
X163359452Y-90081992D01*
X163215081Y-90080228D01*
X163215079Y-90080228D01*
X163209911Y-90080165D01*
X162989091Y-90113955D01*
X162776756Y-90183357D01*
X162578607Y-90286507D01*
X162574474Y-90289610D01*
X162574471Y-90289612D01*
X162404100Y-90417530D01*
X162399965Y-90420635D01*
X162396393Y-90424373D01*
X162288729Y-90537037D01*
X162245629Y-90582138D01*
X162138201Y-90739621D01*
X162083293Y-90784621D01*
X162012768Y-90792792D01*
X161949021Y-90761538D01*
X161928324Y-90737054D01*
X161847822Y-90612617D01*
X161847820Y-90612614D01*
X161845014Y-90608277D01*
X161694670Y-90443051D01*
X161690619Y-90439852D01*
X161690615Y-90439848D01*
X161523414Y-90307800D01*
X161523410Y-90307798D01*
X161519359Y-90304598D01*
X161323789Y-90196638D01*
X161318920Y-90194914D01*
X161318916Y-90194912D01*
X161118087Y-90123795D01*
X161118083Y-90123794D01*
X161113212Y-90122069D01*
X161108119Y-90121162D01*
X161108116Y-90121161D01*
X160898373Y-90083800D01*
X160898367Y-90083799D01*
X160893284Y-90082894D01*
X160819452Y-90081992D01*
X160675081Y-90080228D01*
X160675079Y-90080228D01*
X160669911Y-90080165D01*
X160449091Y-90113955D01*
X160236756Y-90183357D01*
X160038607Y-90286507D01*
X160034474Y-90289610D01*
X160034471Y-90289612D01*
X159864100Y-90417530D01*
X159859965Y-90420635D01*
X159803537Y-90479684D01*
X159779283Y-90505064D01*
X159717759Y-90540494D01*
X159646846Y-90537037D01*
X159589060Y-90495791D01*
X159570207Y-90462243D01*
X159528767Y-90351703D01*
X159525615Y-90343295D01*
X159438261Y-90226739D01*
X159321705Y-90139385D01*
X159185316Y-90088255D01*
X159123134Y-90081500D01*
X159102304Y-90081500D01*
X159034183Y-90061498D01*
X158987690Y-90007842D01*
X158976719Y-89965715D01*
X158974453Y-89937862D01*
X158973860Y-89930566D01*
X158971605Y-89923605D01*
X158970418Y-89917665D01*
X158969029Y-89911790D01*
X158968182Y-89904521D01*
X158943264Y-89835872D01*
X158941847Y-89831744D01*
X158921607Y-89769266D01*
X158921606Y-89769264D01*
X158919351Y-89762303D01*
X158915555Y-89756048D01*
X158913049Y-89750574D01*
X158910330Y-89745144D01*
X158907833Y-89738265D01*
X158867814Y-89677226D01*
X158865467Y-89673507D01*
X158827595Y-89611095D01*
X158820197Y-89602718D01*
X158820224Y-89602694D01*
X158817571Y-89599702D01*
X158814868Y-89596469D01*
X158810856Y-89590350D01*
X158754617Y-89537074D01*
X158752175Y-89534696D01*
X155663067Y-86445588D01*
X155650681Y-86431176D01*
X155642148Y-86419581D01*
X155642143Y-86419576D01*
X155637805Y-86413681D01*
X155632227Y-86408942D01*
X155632224Y-86408939D01*
X155597529Y-86379464D01*
X155590013Y-86372534D01*
X155584318Y-86366839D01*
X155568033Y-86353955D01*
X155562046Y-86349218D01*
X155558642Y-86346427D01*
X155508594Y-86303908D01*
X155508592Y-86303907D01*
X155503012Y-86299166D01*
X155496496Y-86295838D01*
X155491447Y-86292471D01*
X155486318Y-86289304D01*
X155480581Y-86284765D01*
X155414422Y-86253844D01*
X155410522Y-86251938D01*
X155345489Y-86218730D01*
X155338381Y-86216991D01*
X155332738Y-86214892D01*
X155326975Y-86212975D01*
X155320347Y-86209877D01*
X155248880Y-86195012D01*
X155244596Y-86194042D01*
X155173687Y-86176691D01*
X155168085Y-86176343D01*
X155168082Y-86176343D01*
X155162533Y-86175999D01*
X155162535Y-86175963D01*
X155158542Y-86175724D01*
X155154350Y-86175350D01*
X155147182Y-86173859D01*
X155083417Y-86175584D01*
X155069776Y-86175953D01*
X155066369Y-86175999D01*
X141735388Y-86175999D01*
X141667267Y-86155997D01*
X141620774Y-86102341D01*
X141610078Y-86036829D01*
X141628814Y-85858565D01*
X141629504Y-85852000D01*
X141609542Y-85662072D01*
X141550527Y-85480444D01*
X141455040Y-85315056D01*
X141435772Y-85293656D01*
X141331675Y-85178045D01*
X141331674Y-85178044D01*
X141327253Y-85173134D01*
X141214701Y-85091360D01*
X141178094Y-85064763D01*
X141178093Y-85064762D01*
X141172752Y-85060882D01*
X141166724Y-85058198D01*
X141166722Y-85058197D01*
X141004319Y-84985891D01*
X141004318Y-84985891D01*
X140998288Y-84983206D01*
X140904887Y-84963353D01*
X140817944Y-84944872D01*
X140817939Y-84944872D01*
X140811487Y-84943500D01*
X140620513Y-84943500D01*
X140614061Y-84944872D01*
X140614056Y-84944872D01*
X140527113Y-84963353D01*
X140433712Y-84983206D01*
X140427682Y-84985891D01*
X140427681Y-84985891D01*
X140265278Y-85058197D01*
X140265276Y-85058198D01*
X140259248Y-85060882D01*
X140253909Y-85064761D01*
X140253902Y-85064765D01*
X140247472Y-85069437D01*
X140173413Y-85093500D01*
X137018371Y-85093500D01*
X136950250Y-85073498D01*
X136929276Y-85056595D01*
X134714909Y-82842228D01*
X134680883Y-82779916D01*
X134685948Y-82709101D01*
X134728495Y-82652265D01*
X134787994Y-82628154D01*
X134898288Y-82614025D01*
X134898289Y-82614025D01*
X134903416Y-82613368D01*
X134908366Y-82611883D01*
X135112429Y-82550661D01*
X135112434Y-82550659D01*
X135117384Y-82549174D01*
X135317994Y-82450896D01*
X135499860Y-82321173D01*
X135658096Y-82163489D01*
X135717594Y-82080689D01*
X135788453Y-81982077D01*
X135789776Y-81983028D01*
X135836645Y-81939857D01*
X135906580Y-81927625D01*
X135972026Y-81955144D01*
X135999875Y-81986994D01*
X136059987Y-82085088D01*
X136206250Y-82253938D01*
X136378126Y-82396632D01*
X136571000Y-82509338D01*
X136779692Y-82589030D01*
X136784760Y-82590061D01*
X136784763Y-82590062D01*
X136892017Y-82611883D01*
X136998597Y-82633567D01*
X137003772Y-82633757D01*
X137003774Y-82633757D01*
X137216673Y-82641564D01*
X137216677Y-82641564D01*
X137221837Y-82641753D01*
X137226957Y-82641097D01*
X137226959Y-82641097D01*
X137438288Y-82614025D01*
X137438289Y-82614025D01*
X137443416Y-82613368D01*
X137448366Y-82611883D01*
X137652429Y-82550661D01*
X137652434Y-82550659D01*
X137657384Y-82549174D01*
X137857994Y-82450896D01*
X138039860Y-82321173D01*
X138198096Y-82163489D01*
X138257594Y-82080689D01*
X138328453Y-81982077D01*
X138329776Y-81983028D01*
X138376645Y-81939857D01*
X138446580Y-81927625D01*
X138512026Y-81955144D01*
X138539875Y-81986994D01*
X138599987Y-82085088D01*
X138746250Y-82253938D01*
X138918126Y-82396632D01*
X139111000Y-82509338D01*
X139319692Y-82589030D01*
X139324760Y-82590061D01*
X139324763Y-82590062D01*
X139432017Y-82611883D01*
X139538597Y-82633567D01*
X139543772Y-82633757D01*
X139543774Y-82633757D01*
X139756673Y-82641564D01*
X139756677Y-82641564D01*
X139761837Y-82641753D01*
X139766957Y-82641097D01*
X139766959Y-82641097D01*
X139978288Y-82614025D01*
X139978289Y-82614025D01*
X139983416Y-82613368D01*
X139988366Y-82611883D01*
X140192429Y-82550661D01*
X140192434Y-82550659D01*
X140197384Y-82549174D01*
X140397994Y-82450896D01*
X140579860Y-82321173D01*
X140738096Y-82163489D01*
X140797594Y-82080689D01*
X140865435Y-81986277D01*
X140868453Y-81982077D01*
X140889320Y-81939857D01*
X140965136Y-81786453D01*
X140965137Y-81786451D01*
X140967430Y-81781811D01*
X141032370Y-81568069D01*
X141061529Y-81346590D01*
X141063156Y-81280000D01*
X141044852Y-81057361D01*
X140990431Y-80840702D01*
X140901354Y-80635840D01*
X140780014Y-80448277D01*
X140629670Y-80283051D01*
X140625619Y-80279852D01*
X140625615Y-80279848D01*
X140564246Y-80231382D01*
X140523183Y-80173465D01*
X140519951Y-80102542D01*
X140555577Y-80041130D01*
X140618748Y-80008728D01*
X140642338Y-80006500D01*
X157280772Y-80006500D01*
X157348893Y-80026502D01*
X157395386Y-80080158D01*
X157405490Y-80150432D01*
X157375996Y-80215012D01*
X157356425Y-80233260D01*
X157319965Y-80260635D01*
X157165629Y-80422138D01*
X157039743Y-80606680D01*
X156945688Y-80809305D01*
X156885989Y-81024570D01*
X156862251Y-81246695D01*
X156862548Y-81251848D01*
X156862548Y-81251851D01*
X156868011Y-81346590D01*
X156875110Y-81469715D01*
X156876247Y-81474761D01*
X156876248Y-81474767D01*
X156896119Y-81562939D01*
X156924222Y-81687639D01*
X157008266Y-81894616D01*
X157059019Y-81977438D01*
X157122291Y-82080688D01*
X157124987Y-82085088D01*
X157271250Y-82253938D01*
X157443126Y-82396632D01*
X157636000Y-82509338D01*
X157844692Y-82589030D01*
X157849760Y-82590061D01*
X157849763Y-82590062D01*
X157957017Y-82611883D01*
X158063597Y-82633567D01*
X158068772Y-82633757D01*
X158068774Y-82633757D01*
X158281673Y-82641564D01*
X158281677Y-82641564D01*
X158286837Y-82641753D01*
X158291957Y-82641097D01*
X158291959Y-82641097D01*
X158503288Y-82614025D01*
X158503289Y-82614025D01*
X158508416Y-82613368D01*
X158513366Y-82611883D01*
X158717429Y-82550661D01*
X158717434Y-82550659D01*
X158722384Y-82549174D01*
X158922994Y-82450896D01*
X159104860Y-82321173D01*
X159263096Y-82163489D01*
X159322594Y-82080689D01*
X159393453Y-81982077D01*
X159394776Y-81983028D01*
X159441645Y-81939857D01*
X159511580Y-81927625D01*
X159577026Y-81955144D01*
X159604875Y-81986994D01*
X159664987Y-82085088D01*
X159811250Y-82253938D01*
X159983126Y-82396632D01*
X160176000Y-82509338D01*
X160384692Y-82589030D01*
X160389760Y-82590061D01*
X160389763Y-82590062D01*
X160497017Y-82611883D01*
X160603597Y-82633567D01*
X160608772Y-82633757D01*
X160608774Y-82633757D01*
X160821673Y-82641564D01*
X160821677Y-82641564D01*
X160826837Y-82641753D01*
X160966908Y-82623809D01*
X161037017Y-82634993D01*
X161072012Y-82659693D01*
X164753230Y-86340911D01*
X164765616Y-86355323D01*
X164774149Y-86366918D01*
X164774154Y-86366923D01*
X164778492Y-86372818D01*
X164784070Y-86377557D01*
X164784073Y-86377560D01*
X164818768Y-86407035D01*
X164826284Y-86413965D01*
X164831979Y-86419660D01*
X164834861Y-86421940D01*
X164854251Y-86437281D01*
X164857655Y-86440072D01*
X164864148Y-86445588D01*
X164913285Y-86487333D01*
X164919801Y-86490661D01*
X164924850Y-86494028D01*
X164929979Y-86497195D01*
X164935716Y-86501734D01*
X165001875Y-86532655D01*
X165005769Y-86534558D01*
X165070808Y-86567769D01*
X165077916Y-86569508D01*
X165083559Y-86571607D01*
X165089322Y-86573524D01*
X165095950Y-86576622D01*
X165103112Y-86578112D01*
X165103113Y-86578112D01*
X165167412Y-86591486D01*
X165171696Y-86592456D01*
X165242610Y-86609808D01*
X165248212Y-86610156D01*
X165248215Y-86610156D01*
X165253764Y-86610500D01*
X165253762Y-86610536D01*
X165257755Y-86610775D01*
X165261947Y-86611149D01*
X165269115Y-86612640D01*
X165346520Y-86610546D01*
X165349928Y-86610500D01*
X170575629Y-86610500D01*
X170643750Y-86630502D01*
X170664724Y-86647405D01*
X175734595Y-91717276D01*
X175768621Y-91779588D01*
X175771500Y-91806371D01*
X175771500Y-98563133D01*
X175751498Y-98631254D01*
X175717772Y-98666345D01*
X175685700Y-98688802D01*
X175523802Y-98850700D01*
X175392477Y-99038251D01*
X175390154Y-99043233D01*
X175390151Y-99043238D01*
X175320449Y-99192717D01*
X175295716Y-99245757D01*
X175236457Y-99466913D01*
X175216502Y-99695000D01*
X175236457Y-99923087D01*
X175237881Y-99928400D01*
X175237881Y-99928402D01*
X175283344Y-100098069D01*
X175295716Y-100144243D01*
X175298039Y-100149224D01*
X175298039Y-100149225D01*
X175390151Y-100346762D01*
X175390154Y-100346767D01*
X175392477Y-100351749D01*
X175523802Y-100539300D01*
X175685700Y-100701198D01*
X175690208Y-100704355D01*
X175690211Y-100704357D01*
X175768389Y-100759098D01*
X175873251Y-100832523D01*
X175878233Y-100834846D01*
X175878238Y-100834849D01*
X176075775Y-100926961D01*
X176080757Y-100929284D01*
X176086065Y-100930706D01*
X176086067Y-100930707D01*
X176296598Y-100987119D01*
X176296600Y-100987119D01*
X176301913Y-100988543D01*
X176530000Y-101008498D01*
X176758087Y-100988543D01*
X176763400Y-100987119D01*
X176763402Y-100987119D01*
X176973933Y-100930707D01*
X176973935Y-100930706D01*
X176979243Y-100929284D01*
X176984225Y-100926961D01*
X177181762Y-100834849D01*
X177181767Y-100834846D01*
X177186749Y-100832523D01*
X177291611Y-100759098D01*
X177369789Y-100704357D01*
X177369792Y-100704355D01*
X177374300Y-100701198D01*
X177536198Y-100539300D01*
X177667523Y-100351749D01*
X177669846Y-100346767D01*
X177669849Y-100346762D01*
X177761961Y-100149225D01*
X177761961Y-100149224D01*
X177764284Y-100144243D01*
X177776657Y-100098069D01*
X177822119Y-99928402D01*
X177822119Y-99928400D01*
X177823543Y-99923087D01*
X177843498Y-99695000D01*
X177823543Y-99466913D01*
X177764284Y-99245757D01*
X177739551Y-99192717D01*
X177669849Y-99043238D01*
X177669846Y-99043233D01*
X177667523Y-99038251D01*
X177536198Y-98850700D01*
X177374300Y-98688802D01*
X177342229Y-98666345D01*
X177297901Y-98610890D01*
X177288500Y-98563133D01*
X177288500Y-91507063D01*
X177289933Y-91488114D01*
X177292097Y-91473886D01*
X177293198Y-91466651D01*
X177291031Y-91440000D01*
X177288915Y-91413991D01*
X177288500Y-91403777D01*
X177288500Y-91395707D01*
X177288078Y-91392087D01*
X177288077Y-91392069D01*
X177285208Y-91367461D01*
X177284775Y-91363086D01*
X177279454Y-91297661D01*
X177279453Y-91297658D01*
X177278860Y-91290363D01*
X177276604Y-91283399D01*
X177275413Y-91277440D01*
X177274029Y-91271585D01*
X177273182Y-91264319D01*
X177248265Y-91195673D01*
X177246848Y-91191545D01*
X177226607Y-91129064D01*
X177226606Y-91129062D01*
X177224351Y-91122101D01*
X177220555Y-91115846D01*
X177218049Y-91110372D01*
X177215330Y-91104942D01*
X177212833Y-91098063D01*
X177172809Y-91037016D01*
X177170472Y-91033312D01*
X177135509Y-90975693D01*
X177135505Y-90975688D01*
X177132595Y-90970892D01*
X177125197Y-90962516D01*
X177125223Y-90962493D01*
X177122574Y-90959503D01*
X177119866Y-90956264D01*
X177115856Y-90950148D01*
X177110549Y-90945121D01*
X177110546Y-90945117D01*
X177059617Y-90896872D01*
X177057175Y-90894494D01*
X171525770Y-85363089D01*
X171513384Y-85348677D01*
X171504851Y-85337082D01*
X171504846Y-85337077D01*
X171500508Y-85331182D01*
X171494930Y-85326443D01*
X171494927Y-85326440D01*
X171460232Y-85296965D01*
X171452716Y-85290035D01*
X171447021Y-85284340D01*
X171440880Y-85279482D01*
X171424749Y-85266719D01*
X171421345Y-85263928D01*
X171371297Y-85221409D01*
X171371295Y-85221408D01*
X171365715Y-85216667D01*
X171359199Y-85213339D01*
X171354150Y-85209972D01*
X171349021Y-85206805D01*
X171343284Y-85202266D01*
X171277125Y-85171345D01*
X171273225Y-85169439D01*
X171272857Y-85169251D01*
X171208192Y-85136231D01*
X171201084Y-85134492D01*
X171195441Y-85132393D01*
X171189678Y-85130476D01*
X171183050Y-85127378D01*
X171111583Y-85112513D01*
X171107299Y-85111543D01*
X171036390Y-85094192D01*
X171030788Y-85093844D01*
X171030785Y-85093844D01*
X171025236Y-85093500D01*
X171025238Y-85093464D01*
X171021245Y-85093225D01*
X171017053Y-85092851D01*
X171009885Y-85091360D01*
X170943675Y-85093151D01*
X170932479Y-85093454D01*
X170929072Y-85093500D01*
X165703371Y-85093500D01*
X165635250Y-85073498D01*
X165614276Y-85056595D01*
X163399909Y-82842228D01*
X163365883Y-82779916D01*
X163370948Y-82709101D01*
X163413495Y-82652265D01*
X163472994Y-82628154D01*
X163583288Y-82614025D01*
X163583289Y-82614025D01*
X163588416Y-82613368D01*
X163593366Y-82611883D01*
X163797429Y-82550661D01*
X163797434Y-82550659D01*
X163802384Y-82549174D01*
X164002994Y-82450896D01*
X164184860Y-82321173D01*
X164343096Y-82163489D01*
X164402594Y-82080689D01*
X164473453Y-81982077D01*
X164474776Y-81983028D01*
X164521645Y-81939857D01*
X164591580Y-81927625D01*
X164657026Y-81955144D01*
X164684875Y-81986994D01*
X164744987Y-82085088D01*
X164891250Y-82253938D01*
X165063126Y-82396632D01*
X165256000Y-82509338D01*
X165464692Y-82589030D01*
X165469760Y-82590061D01*
X165469763Y-82590062D01*
X165577017Y-82611883D01*
X165683597Y-82633567D01*
X165688772Y-82633757D01*
X165688774Y-82633757D01*
X165901673Y-82641564D01*
X165901677Y-82641564D01*
X165906837Y-82641753D01*
X165911957Y-82641097D01*
X165911959Y-82641097D01*
X166123288Y-82614025D01*
X166123289Y-82614025D01*
X166128416Y-82613368D01*
X166133366Y-82611883D01*
X166337429Y-82550661D01*
X166337434Y-82550659D01*
X166342384Y-82549174D01*
X166542994Y-82450896D01*
X166724860Y-82321173D01*
X166883096Y-82163489D01*
X166942594Y-82080689D01*
X167013453Y-81982077D01*
X167014776Y-81983028D01*
X167061645Y-81939857D01*
X167131580Y-81927625D01*
X167197026Y-81955144D01*
X167224875Y-81986994D01*
X167284987Y-82085088D01*
X167431250Y-82253938D01*
X167603126Y-82396632D01*
X167796000Y-82509338D01*
X168004692Y-82589030D01*
X168009760Y-82590061D01*
X168009763Y-82590062D01*
X168117017Y-82611883D01*
X168223597Y-82633567D01*
X168228772Y-82633757D01*
X168228774Y-82633757D01*
X168441673Y-82641564D01*
X168441677Y-82641564D01*
X168446837Y-82641753D01*
X168451957Y-82641097D01*
X168451959Y-82641097D01*
X168663288Y-82614025D01*
X168663289Y-82614025D01*
X168668416Y-82613368D01*
X168673366Y-82611883D01*
X168877429Y-82550661D01*
X168877434Y-82550659D01*
X168882384Y-82549174D01*
X169082994Y-82450896D01*
X169264860Y-82321173D01*
X169423096Y-82163489D01*
X169482594Y-82080689D01*
X169553453Y-81982077D01*
X169554776Y-81983028D01*
X169601645Y-81939857D01*
X169671580Y-81927625D01*
X169737026Y-81955144D01*
X169764875Y-81986994D01*
X169824987Y-82085088D01*
X169971250Y-82253938D01*
X170143126Y-82396632D01*
X170336000Y-82509338D01*
X170544692Y-82589030D01*
X170549760Y-82590061D01*
X170549763Y-82590062D01*
X170657017Y-82611883D01*
X170763597Y-82633567D01*
X170768772Y-82633757D01*
X170768774Y-82633757D01*
X170981673Y-82641564D01*
X170981677Y-82641564D01*
X170986837Y-82641753D01*
X170991957Y-82641097D01*
X170991959Y-82641097D01*
X171203288Y-82614025D01*
X171203289Y-82614025D01*
X171208416Y-82613368D01*
X171213366Y-82611883D01*
X171417429Y-82550661D01*
X171417434Y-82550659D01*
X171422384Y-82549174D01*
X171622994Y-82450896D01*
X171804860Y-82321173D01*
X171963096Y-82163489D01*
X172022594Y-82080689D01*
X172090435Y-81986277D01*
X172093453Y-81982077D01*
X172114320Y-81939857D01*
X172190136Y-81786453D01*
X172190137Y-81786451D01*
X172192430Y-81781811D01*
X172257370Y-81568069D01*
X172286529Y-81346590D01*
X172288156Y-81280000D01*
X172269852Y-81057361D01*
X172215431Y-80840702D01*
X172126354Y-80635840D01*
X172005014Y-80448277D01*
X171854670Y-80283051D01*
X171850619Y-80279852D01*
X171850615Y-80279848D01*
X171683414Y-80147800D01*
X171683410Y-80147798D01*
X171679359Y-80144598D01*
X171483789Y-80036638D01*
X171478920Y-80034914D01*
X171478916Y-80034912D01*
X171278087Y-79963795D01*
X171278083Y-79963794D01*
X171273212Y-79962069D01*
X171268119Y-79961162D01*
X171268116Y-79961161D01*
X171058373Y-79923800D01*
X171058367Y-79923799D01*
X171053284Y-79922894D01*
X170979452Y-79921992D01*
X170835081Y-79920228D01*
X170835079Y-79920228D01*
X170829911Y-79920165D01*
X170609091Y-79953955D01*
X170396756Y-80023357D01*
X170198607Y-80126507D01*
X170194474Y-80129610D01*
X170194471Y-80129612D01*
X170080729Y-80215012D01*
X170019965Y-80260635D01*
X169865629Y-80422138D01*
X169758201Y-80579621D01*
X169703293Y-80624621D01*
X169632768Y-80632792D01*
X169569021Y-80601538D01*
X169548324Y-80577054D01*
X169467822Y-80452617D01*
X169467820Y-80452614D01*
X169465014Y-80448277D01*
X169314670Y-80283051D01*
X169310619Y-80279852D01*
X169310615Y-80279848D01*
X169143414Y-80147800D01*
X169143410Y-80147798D01*
X169139359Y-80144598D01*
X168943789Y-80036638D01*
X168938920Y-80034914D01*
X168938916Y-80034912D01*
X168738087Y-79963795D01*
X168738083Y-79963794D01*
X168733212Y-79962069D01*
X168728119Y-79961162D01*
X168728116Y-79961161D01*
X168518373Y-79923800D01*
X168518367Y-79923799D01*
X168513284Y-79922894D01*
X168439452Y-79921992D01*
X168295081Y-79920228D01*
X168295079Y-79920228D01*
X168289911Y-79920165D01*
X168069091Y-79953955D01*
X167856756Y-80023357D01*
X167658607Y-80126507D01*
X167654474Y-80129610D01*
X167654471Y-80129612D01*
X167540729Y-80215012D01*
X167479965Y-80260635D01*
X167325629Y-80422138D01*
X167218201Y-80579621D01*
X167163293Y-80624621D01*
X167092768Y-80632792D01*
X167029021Y-80601538D01*
X167008324Y-80577054D01*
X166927822Y-80452617D01*
X166927820Y-80452614D01*
X166925014Y-80448277D01*
X166774670Y-80283051D01*
X166770619Y-80279852D01*
X166770615Y-80279848D01*
X166603414Y-80147800D01*
X166603410Y-80147798D01*
X166599359Y-80144598D01*
X166403789Y-80036638D01*
X166398920Y-80034914D01*
X166398916Y-80034912D01*
X166198087Y-79963795D01*
X166198083Y-79963794D01*
X166193212Y-79962069D01*
X166188119Y-79961162D01*
X166188116Y-79961161D01*
X165978373Y-79923800D01*
X165978367Y-79923799D01*
X165973284Y-79922894D01*
X165899452Y-79921992D01*
X165755081Y-79920228D01*
X165755079Y-79920228D01*
X165749911Y-79920165D01*
X165529091Y-79953955D01*
X165316756Y-80023357D01*
X165118607Y-80126507D01*
X165114474Y-80129610D01*
X165114471Y-80129612D01*
X165000729Y-80215012D01*
X164939965Y-80260635D01*
X164785629Y-80422138D01*
X164678201Y-80579621D01*
X164623293Y-80624621D01*
X164552768Y-80632792D01*
X164489021Y-80601538D01*
X164468324Y-80577054D01*
X164387822Y-80452617D01*
X164387820Y-80452614D01*
X164385014Y-80448277D01*
X164234670Y-80283051D01*
X164230619Y-80279852D01*
X164230615Y-80279848D01*
X164063414Y-80147800D01*
X164063410Y-80147798D01*
X164059359Y-80144598D01*
X163863789Y-80036638D01*
X163858920Y-80034914D01*
X163858916Y-80034912D01*
X163658087Y-79963795D01*
X163658083Y-79963794D01*
X163653212Y-79962069D01*
X163648119Y-79961162D01*
X163648116Y-79961161D01*
X163438373Y-79923800D01*
X163438367Y-79923799D01*
X163433284Y-79922894D01*
X163362770Y-79922033D01*
X163215082Y-79920228D01*
X163215080Y-79920228D01*
X163209911Y-79920165D01*
X163186156Y-79923800D01*
X163106385Y-79936006D01*
X163036023Y-79926538D01*
X162998232Y-79900551D01*
X161856770Y-78759089D01*
X161844384Y-78744677D01*
X161835851Y-78733082D01*
X161835846Y-78733077D01*
X161831508Y-78727182D01*
X161825930Y-78722443D01*
X161825927Y-78722440D01*
X161791232Y-78692965D01*
X161783716Y-78686035D01*
X161778021Y-78680340D01*
X161761736Y-78667456D01*
X161755749Y-78662719D01*
X161752345Y-78659928D01*
X161702297Y-78617409D01*
X161702295Y-78617408D01*
X161696715Y-78612667D01*
X161690199Y-78609339D01*
X161685150Y-78605972D01*
X161680021Y-78602805D01*
X161674284Y-78598266D01*
X161608125Y-78567345D01*
X161604225Y-78565439D01*
X161539192Y-78532231D01*
X161532084Y-78530492D01*
X161526441Y-78528393D01*
X161520678Y-78526476D01*
X161514050Y-78523378D01*
X161442583Y-78508513D01*
X161438299Y-78507543D01*
X161367390Y-78490192D01*
X161361788Y-78489844D01*
X161361785Y-78489844D01*
X161356236Y-78489500D01*
X161356238Y-78489464D01*
X161352245Y-78489225D01*
X161348053Y-78488851D01*
X161340885Y-78487360D01*
X161277120Y-78489085D01*
X161263479Y-78489454D01*
X161260072Y-78489500D01*
X134179070Y-78489500D01*
X134160120Y-78488067D01*
X134145885Y-78485901D01*
X134145881Y-78485901D01*
X134138651Y-78484801D01*
X134131359Y-78485394D01*
X134131356Y-78485394D01*
X134085982Y-78489085D01*
X134075767Y-78489500D01*
X134067707Y-78489500D01*
X134064073Y-78489924D01*
X134064067Y-78489924D01*
X134051042Y-78491443D01*
X134039480Y-78492791D01*
X134035132Y-78493221D01*
X133962364Y-78499140D01*
X133955403Y-78501395D01*
X133949463Y-78502582D01*
X133943588Y-78503971D01*
X133936319Y-78504818D01*
X133867670Y-78529736D01*
X133863542Y-78531153D01*
X133801064Y-78551393D01*
X133801062Y-78551394D01*
X133794101Y-78553649D01*
X133787846Y-78557445D01*
X133782372Y-78559951D01*
X133776942Y-78562670D01*
X133770063Y-78565167D01*
X133763943Y-78569180D01*
X133763942Y-78569180D01*
X133709024Y-78605186D01*
X133705320Y-78607523D01*
X133642893Y-78645405D01*
X133634516Y-78652803D01*
X133634492Y-78652776D01*
X133631500Y-78655429D01*
X133628267Y-78658132D01*
X133622148Y-78662144D01*
X133592951Y-78692965D01*
X133568872Y-78718383D01*
X133566494Y-78720825D01*
X132387296Y-79900023D01*
X132324984Y-79934049D01*
X132276105Y-79934975D01*
X132208284Y-79922894D01*
X132134452Y-79921992D01*
X131990081Y-79920228D01*
X131990079Y-79920228D01*
X131984911Y-79920165D01*
X131764091Y-79953955D01*
X131551756Y-80023357D01*
X131353607Y-80126507D01*
X131349474Y-80129610D01*
X131349471Y-80129612D01*
X131235729Y-80215012D01*
X131174965Y-80260635D01*
X131020629Y-80422138D01*
X130913201Y-80579621D01*
X130858293Y-80624621D01*
X130787768Y-80632792D01*
X130724021Y-80601538D01*
X130703324Y-80577054D01*
X130622822Y-80452617D01*
X130622820Y-80452614D01*
X130620014Y-80448277D01*
X130469670Y-80283051D01*
X130465619Y-80279852D01*
X130465615Y-80279848D01*
X130298414Y-80147800D01*
X130298410Y-80147798D01*
X130294359Y-80144598D01*
X130098789Y-80036638D01*
X130093920Y-80034914D01*
X130093916Y-80034912D01*
X129893087Y-79963795D01*
X129893083Y-79963794D01*
X129888212Y-79962069D01*
X129883119Y-79961162D01*
X129883116Y-79961161D01*
X129673373Y-79923800D01*
X129673367Y-79923799D01*
X129668284Y-79922894D01*
X129594452Y-79921992D01*
X129450081Y-79920228D01*
X129450079Y-79920228D01*
X129444911Y-79920165D01*
X129224091Y-79953955D01*
X129011756Y-80023357D01*
X128813607Y-80126507D01*
X128809474Y-80129610D01*
X128809471Y-80129612D01*
X128695729Y-80215012D01*
X128634965Y-80260635D01*
X128480629Y-80422138D01*
X128373201Y-80579621D01*
X128318293Y-80624621D01*
X128247768Y-80632792D01*
X128184021Y-80601538D01*
X128163324Y-80577054D01*
X128082822Y-80452617D01*
X128082820Y-80452614D01*
X128080014Y-80448277D01*
X127929670Y-80283051D01*
X127925619Y-80279852D01*
X127925615Y-80279848D01*
X127758414Y-80147800D01*
X127758410Y-80147798D01*
X127754359Y-80144598D01*
X127558789Y-80036638D01*
X127553920Y-80034914D01*
X127553916Y-80034912D01*
X127353087Y-79963795D01*
X127353083Y-79963794D01*
X127348212Y-79962069D01*
X127343119Y-79961162D01*
X127343116Y-79961161D01*
X127133373Y-79923800D01*
X127133367Y-79923799D01*
X127128284Y-79922894D01*
X127054452Y-79921992D01*
X126910081Y-79920228D01*
X126910079Y-79920228D01*
X126904911Y-79920165D01*
X126684091Y-79953955D01*
X126471756Y-80023357D01*
X126273607Y-80126507D01*
X126269474Y-80129610D01*
X126269471Y-80129612D01*
X126155729Y-80215012D01*
X126094965Y-80260635D01*
X125940629Y-80422138D01*
X125814743Y-80606680D01*
X125720688Y-80809305D01*
X125660989Y-81024570D01*
X125637251Y-81246695D01*
X117348500Y-81246695D01*
X117348500Y-80063250D01*
X117350246Y-80042345D01*
X117352770Y-80027344D01*
X117352770Y-80027341D01*
X117353576Y-80022552D01*
X117353729Y-80010000D01*
X117352003Y-79997947D01*
X117351001Y-79971845D01*
X117365340Y-79753078D01*
X117367491Y-79736738D01*
X117416111Y-79492307D01*
X117420375Y-79476394D01*
X117500485Y-79240398D01*
X117506791Y-79225174D01*
X117617016Y-79001658D01*
X117625257Y-78987384D01*
X117763713Y-78780171D01*
X117773746Y-78767095D01*
X117938068Y-78579722D01*
X117949722Y-78568068D01*
X118137095Y-78403746D01*
X118150171Y-78393713D01*
X118357384Y-78255257D01*
X118371658Y-78247016D01*
X118595174Y-78136791D01*
X118610400Y-78130484D01*
X118846394Y-78050375D01*
X118862304Y-78046112D01*
X118984522Y-78021801D01*
X119106738Y-77997491D01*
X119123078Y-77995340D01*
X119271866Y-77985587D01*
X119338237Y-77981237D01*
X119361350Y-77982267D01*
X119364854Y-77982310D01*
X119373724Y-77983691D01*
X119382626Y-77982527D01*
X119382628Y-77982527D01*
X119399449Y-77980327D01*
X119405286Y-77979564D01*
X119421621Y-77978500D01*
X177750633Y-77978500D01*
X177770018Y-77980000D01*
G37*
%TD.AperFunction*%
%TA.AperFunction,Conductor*%
G36*
X150257220Y-129743972D02*
G01*
X150278194Y-129760875D01*
X152293724Y-131776405D01*
X152327750Y-131838717D01*
X152322685Y-131909532D01*
X152280138Y-131966368D01*
X152213618Y-131991179D01*
X152204629Y-131991500D01*
X151501866Y-131991500D01*
X151439684Y-131998255D01*
X151303295Y-132049385D01*
X151210823Y-132118689D01*
X151205565Y-132122630D01*
X151139059Y-132147478D01*
X151069676Y-132132425D01*
X151054435Y-132122630D01*
X151049177Y-132118689D01*
X150956705Y-132049385D01*
X150820316Y-131998255D01*
X150758134Y-131991500D01*
X149874985Y-131991500D01*
X149873446Y-131991491D01*
X149770081Y-131990228D01*
X149770079Y-131990228D01*
X149764911Y-131990165D01*
X149759797Y-131990948D01*
X149756289Y-131991193D01*
X149747496Y-131991500D01*
X148961866Y-131991500D01*
X148899684Y-131998255D01*
X148763295Y-132049385D01*
X148696323Y-132099578D01*
X148665148Y-132122942D01*
X148598642Y-132147790D01*
X148529259Y-132132737D01*
X148514018Y-132122942D01*
X148423649Y-132055214D01*
X148408054Y-132046676D01*
X148287606Y-132001522D01*
X148272351Y-131997895D01*
X148221486Y-131992369D01*
X148214672Y-131992000D01*
X147592115Y-131992000D01*
X147576876Y-131996475D01*
X147575671Y-131997865D01*
X147574000Y-132005548D01*
X147574000Y-136489884D01*
X147578475Y-136505123D01*
X147579865Y-136506328D01*
X147587548Y-136507999D01*
X148214669Y-136507999D01*
X148221490Y-136507629D01*
X148272352Y-136502105D01*
X148287604Y-136498479D01*
X148408054Y-136453324D01*
X148423649Y-136444786D01*
X148514018Y-136377058D01*
X148580525Y-136352210D01*
X148649907Y-136367263D01*
X148665148Y-136377058D01*
X148696323Y-136400422D01*
X148763295Y-136450615D01*
X148899684Y-136501745D01*
X148961866Y-136508500D01*
X150758134Y-136508500D01*
X150820316Y-136501745D01*
X150956705Y-136450615D01*
X151054436Y-136377370D01*
X151120941Y-136352522D01*
X151190324Y-136367575D01*
X151205562Y-136377368D01*
X151303295Y-136450615D01*
X151439684Y-136501745D01*
X151501866Y-136508500D01*
X153298134Y-136508500D01*
X153360316Y-136501745D01*
X153496705Y-136450615D01*
X153594436Y-136377370D01*
X153660941Y-136352522D01*
X153730324Y-136367575D01*
X153745562Y-136377368D01*
X153843295Y-136450615D01*
X153979684Y-136501745D01*
X154041866Y-136508500D01*
X155838134Y-136508500D01*
X155900316Y-136501745D01*
X156036705Y-136450615D01*
X156134436Y-136377370D01*
X156200941Y-136352522D01*
X156270324Y-136367575D01*
X156285562Y-136377368D01*
X156383295Y-136450615D01*
X156519684Y-136501745D01*
X156581866Y-136508500D01*
X158378134Y-136508500D01*
X158440316Y-136501745D01*
X158576705Y-136450615D01*
X158674436Y-136377370D01*
X158740941Y-136352522D01*
X158810324Y-136367575D01*
X158825562Y-136377368D01*
X158923295Y-136450615D01*
X159059684Y-136501745D01*
X159121866Y-136508500D01*
X160918134Y-136508500D01*
X160980316Y-136501745D01*
X161116705Y-136450615D01*
X161214436Y-136377370D01*
X161280941Y-136352522D01*
X161350324Y-136367575D01*
X161365562Y-136377368D01*
X161463295Y-136450615D01*
X161599684Y-136501745D01*
X161661866Y-136508500D01*
X163458134Y-136508500D01*
X163520316Y-136501745D01*
X163656705Y-136450615D01*
X163754436Y-136377370D01*
X163820941Y-136352522D01*
X163890324Y-136367575D01*
X163905562Y-136377368D01*
X164003295Y-136450615D01*
X164139684Y-136501745D01*
X164201866Y-136508500D01*
X165110098Y-136508500D01*
X165178219Y-136528502D01*
X165224712Y-136582158D01*
X165234816Y-136652432D01*
X165205322Y-136717012D01*
X165199193Y-136723595D01*
X164792193Y-137130595D01*
X164729881Y-137164621D01*
X164703098Y-137167500D01*
X128231924Y-137167500D01*
X128163803Y-137147498D01*
X128142829Y-137130595D01*
X123682766Y-132670532D01*
X123648740Y-132608220D01*
X123653805Y-132537405D01*
X123696352Y-132480569D01*
X123762872Y-132455758D01*
X123836501Y-132473847D01*
X123838888Y-132475736D01*
X123905047Y-132506657D01*
X123908941Y-132508560D01*
X123973980Y-132541771D01*
X123981089Y-132543510D01*
X123986723Y-132545606D01*
X123992493Y-132547525D01*
X123999122Y-132550624D01*
X124006285Y-132552114D01*
X124006288Y-132552115D01*
X124057002Y-132562663D01*
X124070607Y-132565493D01*
X124074873Y-132566459D01*
X124145782Y-132583810D01*
X124151384Y-132584158D01*
X124151387Y-132584158D01*
X124156936Y-132584502D01*
X124156934Y-132584537D01*
X124160906Y-132584777D01*
X124165127Y-132585154D01*
X124172287Y-132586643D01*
X124249714Y-132584548D01*
X124253122Y-132584502D01*
X128055500Y-132584502D01*
X128123621Y-132604504D01*
X128170114Y-132658160D01*
X128181500Y-132710502D01*
X128181500Y-133270219D01*
X128180787Y-133283607D01*
X128177251Y-133316695D01*
X128177548Y-133321848D01*
X128177548Y-133321851D01*
X128181291Y-133386763D01*
X128181500Y-133394016D01*
X128181500Y-136048134D01*
X128188255Y-136110316D01*
X128239385Y-136246705D01*
X128326739Y-136363261D01*
X128443295Y-136450615D01*
X128579684Y-136501745D01*
X128641866Y-136508500D01*
X130438134Y-136508500D01*
X130500316Y-136501745D01*
X130636705Y-136450615D01*
X130734436Y-136377370D01*
X130800941Y-136352522D01*
X130870324Y-136367575D01*
X130885562Y-136377368D01*
X130983295Y-136450615D01*
X131119684Y-136501745D01*
X131181866Y-136508500D01*
X132978134Y-136508500D01*
X133040316Y-136501745D01*
X133176705Y-136450615D01*
X133243677Y-136400422D01*
X133274852Y-136377058D01*
X133341358Y-136352210D01*
X133410741Y-136367263D01*
X133425982Y-136377058D01*
X133516351Y-136444786D01*
X133531946Y-136453324D01*
X133652394Y-136498478D01*
X133667649Y-136502105D01*
X133718514Y-136507631D01*
X133725328Y-136508000D01*
X134347885Y-136508000D01*
X134363124Y-136503525D01*
X134364329Y-136502135D01*
X134366000Y-136494452D01*
X134366000Y-132710502D01*
X134386002Y-132642381D01*
X134439658Y-132595888D01*
X134492000Y-132584502D01*
X134748000Y-132584502D01*
X134816121Y-132604504D01*
X134862614Y-132658160D01*
X134874000Y-132710502D01*
X134874000Y-136489884D01*
X134878475Y-136505123D01*
X134879865Y-136506328D01*
X134887548Y-136507999D01*
X135514669Y-136507999D01*
X135521490Y-136507629D01*
X135572352Y-136502105D01*
X135587604Y-136498479D01*
X135708054Y-136453324D01*
X135723649Y-136444786D01*
X135814018Y-136377058D01*
X135880525Y-136352210D01*
X135949907Y-136367263D01*
X135965148Y-136377058D01*
X135996323Y-136400422D01*
X136063295Y-136450615D01*
X136199684Y-136501745D01*
X136261866Y-136508500D01*
X138058134Y-136508500D01*
X138120316Y-136501745D01*
X138256705Y-136450615D01*
X138354436Y-136377370D01*
X138420941Y-136352522D01*
X138490324Y-136367575D01*
X138505562Y-136377368D01*
X138603295Y-136450615D01*
X138739684Y-136501745D01*
X138801866Y-136508500D01*
X140598134Y-136508500D01*
X140660316Y-136501745D01*
X140796705Y-136450615D01*
X140894436Y-136377370D01*
X140960941Y-136352522D01*
X141030324Y-136367575D01*
X141045562Y-136377368D01*
X141143295Y-136450615D01*
X141279684Y-136501745D01*
X141341866Y-136508500D01*
X143138134Y-136508500D01*
X143200316Y-136501745D01*
X143336705Y-136450615D01*
X143434436Y-136377370D01*
X143500941Y-136352522D01*
X143570324Y-136367575D01*
X143585562Y-136377368D01*
X143683295Y-136450615D01*
X143819684Y-136501745D01*
X143881866Y-136508500D01*
X145678134Y-136508500D01*
X145740316Y-136501745D01*
X145876705Y-136450615D01*
X145943677Y-136400422D01*
X145974852Y-136377058D01*
X146041358Y-136352210D01*
X146110741Y-136367263D01*
X146125982Y-136377058D01*
X146216351Y-136444786D01*
X146231946Y-136453324D01*
X146352394Y-136498478D01*
X146367649Y-136502105D01*
X146418514Y-136507631D01*
X146425328Y-136508000D01*
X147047885Y-136508000D01*
X147063124Y-136503525D01*
X147064329Y-136502135D01*
X147066000Y-136494452D01*
X147066000Y-132010116D01*
X147061525Y-131994877D01*
X147060135Y-131993672D01*
X147052452Y-131992001D01*
X146425331Y-131992001D01*
X146418510Y-131992371D01*
X146367648Y-131997895D01*
X146352396Y-132001521D01*
X146231946Y-132046676D01*
X146216351Y-132055214D01*
X146125982Y-132122942D01*
X146059475Y-132147790D01*
X145990093Y-132132737D01*
X145974852Y-132122942D01*
X145943677Y-132099578D01*
X145876705Y-132049385D01*
X145740316Y-131998255D01*
X145678134Y-131991500D01*
X144794985Y-131991500D01*
X144793446Y-131991491D01*
X144690081Y-131990228D01*
X144690079Y-131990228D01*
X144684911Y-131990165D01*
X144679797Y-131990948D01*
X144676289Y-131991193D01*
X144667496Y-131991500D01*
X144546371Y-131991500D01*
X144478250Y-131971498D01*
X144457276Y-131954595D01*
X142441746Y-129939065D01*
X142407720Y-129876753D01*
X142412785Y-129805938D01*
X142455332Y-129749102D01*
X142521852Y-129724291D01*
X142530841Y-129723970D01*
X150189099Y-129723970D01*
X150257220Y-129743972D01*
G37*
%TD.AperFunction*%
%TA.AperFunction,Conductor*%
G36*
X144452239Y-121398991D02*
G01*
X144473213Y-121415894D01*
X154833724Y-131776405D01*
X154867750Y-131838717D01*
X154862685Y-131909532D01*
X154820138Y-131966368D01*
X154753618Y-131991179D01*
X154744629Y-131991500D01*
X154706371Y-131991500D01*
X154638250Y-131971498D01*
X154617276Y-131954595D01*
X151139240Y-128476559D01*
X151126854Y-128462147D01*
X151118321Y-128450552D01*
X151118316Y-128450547D01*
X151113978Y-128444652D01*
X151108400Y-128439913D01*
X151108397Y-128439910D01*
X151073702Y-128410435D01*
X151066186Y-128403505D01*
X151060491Y-128397810D01*
X151054350Y-128392952D01*
X151038219Y-128380189D01*
X151034815Y-128377398D01*
X150984767Y-128334879D01*
X150984765Y-128334878D01*
X150979185Y-128330137D01*
X150972669Y-128326809D01*
X150967620Y-128323442D01*
X150962491Y-128320275D01*
X150956754Y-128315736D01*
X150890595Y-128284815D01*
X150886695Y-128282909D01*
X150821662Y-128249701D01*
X150814554Y-128247962D01*
X150808911Y-128245863D01*
X150803148Y-128243946D01*
X150796520Y-128240848D01*
X150725053Y-128225983D01*
X150720769Y-128225013D01*
X150649860Y-128207662D01*
X150644258Y-128207314D01*
X150644255Y-128207314D01*
X150638706Y-128206970D01*
X150638708Y-128206934D01*
X150634715Y-128206695D01*
X150630523Y-128206321D01*
X150623355Y-128204830D01*
X150557145Y-128206621D01*
X150545949Y-128206924D01*
X150542542Y-128206970D01*
X131211077Y-128206970D01*
X131142956Y-128186968D01*
X131096463Y-128133312D01*
X131086359Y-128063038D01*
X131093095Y-128036741D01*
X131118971Y-127967718D01*
X131118973Y-127967712D01*
X131121745Y-127960316D01*
X131128500Y-127898134D01*
X131128500Y-127097856D01*
X131129578Y-127081409D01*
X131131092Y-127069908D01*
X131131529Y-127066590D01*
X131133156Y-127000000D01*
X131128924Y-126948524D01*
X131128500Y-126938200D01*
X131128500Y-126101866D01*
X131121745Y-126039684D01*
X131070615Y-125903295D01*
X130997058Y-125805148D01*
X130972210Y-125738642D01*
X130987263Y-125669259D01*
X130997058Y-125654018D01*
X131064786Y-125563649D01*
X131073324Y-125548054D01*
X131118478Y-125427606D01*
X131122105Y-125412351D01*
X131127631Y-125361486D01*
X131128000Y-125354672D01*
X131128000Y-124732115D01*
X131123525Y-124716876D01*
X131122135Y-124715671D01*
X131114452Y-124714000D01*
X126630116Y-124714000D01*
X126614877Y-124718475D01*
X126613672Y-124719865D01*
X126612001Y-124727548D01*
X126612001Y-125354669D01*
X126612371Y-125361490D01*
X126617895Y-125412352D01*
X126621521Y-125427604D01*
X126666676Y-125548054D01*
X126675214Y-125563649D01*
X126742942Y-125654018D01*
X126767790Y-125720525D01*
X126752737Y-125789907D01*
X126742942Y-125805148D01*
X126669385Y-125903295D01*
X126618255Y-126039684D01*
X126611500Y-126101866D01*
X126611500Y-126115500D01*
X126591498Y-126183621D01*
X126537842Y-126230114D01*
X126485500Y-126241500D01*
X126272587Y-126241500D01*
X126198528Y-126217437D01*
X126192098Y-126212765D01*
X126192091Y-126212761D01*
X126186752Y-126208882D01*
X126180724Y-126206198D01*
X126180722Y-126206197D01*
X126018319Y-126133891D01*
X126018318Y-126133891D01*
X126012288Y-126131206D01*
X125890331Y-126105283D01*
X125831944Y-126092872D01*
X125831939Y-126092872D01*
X125825487Y-126091500D01*
X125634513Y-126091500D01*
X125628056Y-126092872D01*
X125621485Y-126093563D01*
X125621338Y-126092162D01*
X125557947Y-126087324D01*
X125501315Y-126044507D01*
X125476823Y-125977869D01*
X125476543Y-125969480D01*
X125476543Y-123966520D01*
X125496545Y-123898399D01*
X125550201Y-123851906D01*
X125620475Y-123841802D01*
X125627726Y-123843093D01*
X125628058Y-123843128D01*
X125634513Y-123844500D01*
X125825487Y-123844500D01*
X125831939Y-123843128D01*
X125831944Y-123843128D01*
X125918887Y-123824647D01*
X126012288Y-123804794D01*
X126054186Y-123786140D01*
X126180722Y-123729803D01*
X126180724Y-123729802D01*
X126186752Y-123727118D01*
X126195037Y-123721099D01*
X126265573Y-123669851D01*
X126341253Y-123614866D01*
X126392366Y-123558099D01*
X126452809Y-123520861D01*
X126523793Y-123522212D01*
X126582778Y-123561726D01*
X126611036Y-123626857D01*
X126612000Y-123642411D01*
X126612000Y-124187885D01*
X126616475Y-124203124D01*
X126617865Y-124204329D01*
X126625548Y-124206000D01*
X131109884Y-124206000D01*
X131125123Y-124201525D01*
X131126328Y-124200135D01*
X131127999Y-124192452D01*
X131127999Y-123565331D01*
X131127629Y-123558510D01*
X131122105Y-123507648D01*
X131118479Y-123492396D01*
X131073324Y-123371946D01*
X131064786Y-123356351D01*
X130997058Y-123265982D01*
X130972210Y-123199475D01*
X130987263Y-123130093D01*
X130997058Y-123114852D01*
X131065229Y-123023891D01*
X131070615Y-123016705D01*
X131121745Y-122880316D01*
X131128500Y-122818134D01*
X131128500Y-122017856D01*
X131129578Y-122001409D01*
X131131092Y-121989908D01*
X131131529Y-121986590D01*
X131132896Y-121930642D01*
X131133074Y-121923365D01*
X131133074Y-121923361D01*
X131133156Y-121920000D01*
X131128924Y-121868524D01*
X131128500Y-121858200D01*
X131128500Y-121504989D01*
X131148502Y-121436868D01*
X131202158Y-121390375D01*
X131254500Y-121378989D01*
X144384118Y-121378989D01*
X144452239Y-121398991D01*
G37*
%TD.AperFunction*%
%TA.AperFunction,Conductor*%
G36*
X127288168Y-108576725D02*
G01*
X127406913Y-108608543D01*
X127635000Y-108628498D01*
X127640475Y-108628019D01*
X127797913Y-108614245D01*
X127867518Y-108628234D01*
X127897990Y-108650671D01*
X129972230Y-110724911D01*
X129984616Y-110739323D01*
X129993149Y-110750918D01*
X129993154Y-110750923D01*
X129997492Y-110756818D01*
X130003070Y-110761557D01*
X130003073Y-110761560D01*
X130037768Y-110791035D01*
X130045284Y-110797965D01*
X130050980Y-110803661D01*
X130053841Y-110805924D01*
X130053846Y-110805929D01*
X130073266Y-110821293D01*
X130076667Y-110824082D01*
X130132285Y-110871333D01*
X130138798Y-110874659D01*
X130143837Y-110878020D01*
X130148979Y-110881196D01*
X130154716Y-110885734D01*
X130220875Y-110916655D01*
X130224769Y-110918558D01*
X130289808Y-110951769D01*
X130296917Y-110953508D01*
X130302551Y-110955604D01*
X130308321Y-110957523D01*
X130314950Y-110960622D01*
X130322113Y-110962112D01*
X130322116Y-110962113D01*
X130372830Y-110972661D01*
X130386435Y-110975491D01*
X130390701Y-110976457D01*
X130461610Y-110993808D01*
X130467212Y-110994156D01*
X130467215Y-110994156D01*
X130472764Y-110994500D01*
X130472762Y-110994535D01*
X130476734Y-110994775D01*
X130480955Y-110995152D01*
X130488115Y-110996641D01*
X130565542Y-110994546D01*
X130568950Y-110994500D01*
X146288756Y-110994500D01*
X146356877Y-111014502D01*
X146377851Y-111031405D01*
X147580294Y-112233848D01*
X147614320Y-112296160D01*
X147609255Y-112366975D01*
X147586424Y-112405454D01*
X147575672Y-112417863D01*
X147574000Y-112425548D01*
X147574000Y-115698000D01*
X147553998Y-115766121D01*
X147500342Y-115812614D01*
X147448000Y-115824000D01*
X147192000Y-115824000D01*
X147123879Y-115803998D01*
X147077386Y-115750342D01*
X147066000Y-115698000D01*
X147066000Y-112430116D01*
X147061525Y-112414877D01*
X147060135Y-112413672D01*
X147052452Y-112412001D01*
X146425331Y-112412001D01*
X146418510Y-112412371D01*
X146367648Y-112417895D01*
X146352396Y-112421521D01*
X146231946Y-112466676D01*
X146216351Y-112475214D01*
X146125982Y-112542942D01*
X146059475Y-112567790D01*
X145990093Y-112552737D01*
X145974852Y-112542942D01*
X145938276Y-112515530D01*
X145876705Y-112469385D01*
X145740316Y-112418255D01*
X145678134Y-112411500D01*
X143881866Y-112411500D01*
X143819684Y-112418255D01*
X143683295Y-112469385D01*
X143585565Y-112542630D01*
X143519059Y-112567478D01*
X143449676Y-112552425D01*
X143434435Y-112542630D01*
X143336705Y-112469385D01*
X143200316Y-112418255D01*
X143138134Y-112411500D01*
X141341866Y-112411500D01*
X141279684Y-112418255D01*
X141143295Y-112469385D01*
X141045565Y-112542630D01*
X140979059Y-112567478D01*
X140909676Y-112552425D01*
X140894435Y-112542630D01*
X140796705Y-112469385D01*
X140660316Y-112418255D01*
X140598134Y-112411500D01*
X138801866Y-112411500D01*
X138739684Y-112418255D01*
X138603295Y-112469385D01*
X138505565Y-112542630D01*
X138439059Y-112567478D01*
X138369676Y-112552425D01*
X138354435Y-112542630D01*
X138256705Y-112469385D01*
X138120316Y-112418255D01*
X138058134Y-112411500D01*
X136261866Y-112411500D01*
X136199684Y-112418255D01*
X136063295Y-112469385D01*
X136001724Y-112515530D01*
X135965148Y-112542942D01*
X135898642Y-112567790D01*
X135829259Y-112552737D01*
X135814018Y-112542942D01*
X135723649Y-112475214D01*
X135708054Y-112466676D01*
X135587606Y-112421522D01*
X135572351Y-112417895D01*
X135521486Y-112412369D01*
X135514672Y-112412000D01*
X134892115Y-112412000D01*
X134876876Y-112416475D01*
X134875671Y-112417865D01*
X134874000Y-112425548D01*
X134874000Y-115698000D01*
X134853998Y-115766121D01*
X134800342Y-115812614D01*
X134748000Y-115824000D01*
X134492000Y-115824000D01*
X134423879Y-115803998D01*
X134377386Y-115750342D01*
X134366000Y-115698000D01*
X134366000Y-112430116D01*
X134361525Y-112414877D01*
X134360135Y-112413672D01*
X134352452Y-112412001D01*
X133725331Y-112412001D01*
X133718510Y-112412371D01*
X133667648Y-112417895D01*
X133652396Y-112421521D01*
X133531946Y-112466676D01*
X133516351Y-112475214D01*
X133425982Y-112542942D01*
X133359475Y-112567790D01*
X133290093Y-112552737D01*
X133274852Y-112542942D01*
X133238276Y-112515530D01*
X133176705Y-112469385D01*
X133040316Y-112418255D01*
X132978134Y-112411500D01*
X131181866Y-112411500D01*
X131119684Y-112418255D01*
X130983295Y-112469385D01*
X130885565Y-112542630D01*
X130819059Y-112567478D01*
X130749676Y-112552425D01*
X130734435Y-112542630D01*
X130636705Y-112469385D01*
X130500316Y-112418255D01*
X130438134Y-112411500D01*
X128641866Y-112411500D01*
X128579684Y-112418255D01*
X128443295Y-112469385D01*
X128326739Y-112556739D01*
X128239385Y-112673295D01*
X128188255Y-112809684D01*
X128181500Y-112871866D01*
X128181500Y-115490219D01*
X128180787Y-115503607D01*
X128177251Y-115536695D01*
X128177548Y-115541848D01*
X128177548Y-115541851D01*
X128181291Y-115606763D01*
X128181500Y-115614016D01*
X128181500Y-116209500D01*
X128161498Y-116277621D01*
X128107842Y-116324114D01*
X128055500Y-116335500D01*
X127366376Y-116335500D01*
X127298255Y-116315498D01*
X127277281Y-116298595D01*
X127166470Y-116187784D01*
X127132444Y-116125472D01*
X127129565Y-116098689D01*
X127129565Y-108698434D01*
X127149567Y-108630313D01*
X127203223Y-108583820D01*
X127273497Y-108573716D01*
X127288168Y-108576725D01*
G37*
%TD.AperFunction*%
%TD*%
M02*
