%TF.GenerationSoftware,KiCad,Pcbnew,(6.0.4)*%
%TF.CreationDate,2022-08-14T09:33:53+08:00*%
%TF.ProjectId,led_clock_board,6c65645f-636c-46f6-936b-5f626f617264,rev?*%
%TF.SameCoordinates,Original*%
%TF.FileFunction,Legend,Bot*%
%TF.FilePolarity,Positive*%
%FSLAX46Y46*%
G04 Gerber Fmt 4.6, Leading zero omitted, Abs format (unit mm)*
G04 Created by KiCad (PCBNEW (6.0.4)) date 2022-08-14 09:33:53*
%MOMM*%
%LPD*%
G01*
G04 APERTURE LIST*
%ADD10C,0.160000*%
%ADD11R,1.700000X1.700000*%
%ADD12O,1.700000X1.700000*%
%ADD13C,1.600000*%
%ADD14O,1.600000X1.600000*%
%ADD15O,1.800000X1.800000*%
%ADD16O,1.500000X1.500000*%
G04 APERTURE END LIST*
D10*
X142945809Y-130500380D02*
X143422000Y-130500380D01*
X143422000Y-129500380D01*
X142612476Y-129976571D02*
X142279142Y-129976571D01*
X142136285Y-130500380D02*
X142612476Y-130500380D01*
X142612476Y-129500380D01*
X142136285Y-129500380D01*
X141707714Y-130500380D02*
X141707714Y-129500380D01*
X141469619Y-129500380D01*
X141326761Y-129548000D01*
X141231523Y-129643238D01*
X141183904Y-129738476D01*
X141136285Y-129928952D01*
X141136285Y-130071809D01*
X141183904Y-130262285D01*
X141231523Y-130357523D01*
X141326761Y-130452761D01*
X141469619Y-130500380D01*
X141707714Y-130500380D01*
X139374380Y-130405142D02*
X139422000Y-130452761D01*
X139564857Y-130500380D01*
X139660095Y-130500380D01*
X139802952Y-130452761D01*
X139898190Y-130357523D01*
X139945809Y-130262285D01*
X139993428Y-130071809D01*
X139993428Y-129928952D01*
X139945809Y-129738476D01*
X139898190Y-129643238D01*
X139802952Y-129548000D01*
X139660095Y-129500380D01*
X139564857Y-129500380D01*
X139422000Y-129548000D01*
X139374380Y-129595619D01*
X138802952Y-130500380D02*
X138898190Y-130452761D01*
X138945809Y-130357523D01*
X138945809Y-129500380D01*
X138279142Y-130500380D02*
X138374380Y-130452761D01*
X138422000Y-130405142D01*
X138469619Y-130309904D01*
X138469619Y-130024190D01*
X138422000Y-129928952D01*
X138374380Y-129881333D01*
X138279142Y-129833714D01*
X138136285Y-129833714D01*
X138041047Y-129881333D01*
X137993428Y-129928952D01*
X137945809Y-130024190D01*
X137945809Y-130309904D01*
X137993428Y-130405142D01*
X138041047Y-130452761D01*
X138136285Y-130500380D01*
X138279142Y-130500380D01*
X137088666Y-130452761D02*
X137183904Y-130500380D01*
X137374380Y-130500380D01*
X137469619Y-130452761D01*
X137517238Y-130405142D01*
X137564857Y-130309904D01*
X137564857Y-130024190D01*
X137517238Y-129928952D01*
X137469619Y-129881333D01*
X137374380Y-129833714D01*
X137183904Y-129833714D01*
X137088666Y-129881333D01*
X136660095Y-130500380D02*
X136660095Y-129500380D01*
X136564857Y-130119428D02*
X136279142Y-130500380D01*
X136279142Y-129833714D02*
X136660095Y-130214666D01*
X135183904Y-129833714D02*
X134945809Y-130500380D01*
X134707714Y-129833714D01*
X134136285Y-129500380D02*
X134041047Y-129500380D01*
X133945809Y-129548000D01*
X133898190Y-129595619D01*
X133850571Y-129690857D01*
X133802952Y-129881333D01*
X133802952Y-130119428D01*
X133850571Y-130309904D01*
X133898190Y-130405142D01*
X133945809Y-130452761D01*
X134041047Y-130500380D01*
X134136285Y-130500380D01*
X134231523Y-130452761D01*
X134279142Y-130405142D01*
X134326761Y-130309904D01*
X134374380Y-130119428D01*
X134374380Y-129881333D01*
X134326761Y-129690857D01*
X134279142Y-129595619D01*
X134231523Y-129548000D01*
X134136285Y-129500380D01*
X133374380Y-130405142D02*
X133326761Y-130452761D01*
X133374380Y-130500380D01*
X133422000Y-130452761D01*
X133374380Y-130405142D01*
X133374380Y-130500380D01*
X132374380Y-130500380D02*
X132945809Y-130500380D01*
X132660095Y-130500380D02*
X132660095Y-129500380D01*
X132755333Y-129643238D01*
X132850571Y-129738476D01*
X132945809Y-129786095D01*
%LPC*%
D11*
%TO.C,LED_SEG2*%
X158225000Y-91440000D03*
D12*
X160765000Y-91440000D03*
X163305000Y-91440000D03*
X165845000Y-91440000D03*
X168385000Y-91440000D03*
X170925000Y-91440000D03*
X170925000Y-81280000D03*
X168385000Y-81280000D03*
X165845000Y-81280000D03*
X163305000Y-81280000D03*
X160765000Y-81280000D03*
X158225000Y-81280000D03*
%TD*%
D13*
%TO.C,R4*%
X155575000Y-99695000D03*
D14*
X155575000Y-107315000D03*
%TD*%
D13*
%TO.C,R3*%
X162560000Y-99695000D03*
D14*
X162560000Y-107315000D03*
%TD*%
D12*
%TO.C,J1*%
X119888000Y-136398000D03*
X119888000Y-133858000D03*
X119888000Y-131318000D03*
X119888000Y-128778000D03*
X119888000Y-126238000D03*
X119888000Y-123698000D03*
X119888000Y-121158000D03*
X119888000Y-118618000D03*
X119888000Y-116078000D03*
X119888000Y-113538000D03*
X119888000Y-110998000D03*
X119888000Y-108458000D03*
X119888000Y-105918000D03*
X119888000Y-103378000D03*
X119888000Y-100838000D03*
D11*
X119888000Y-98298000D03*
%TD*%
D13*
%TO.C,R1*%
X176530000Y-99695000D03*
D14*
X176530000Y-107315000D03*
%TD*%
D13*
%TO.C,R6*%
X141605000Y-99695000D03*
D14*
X141605000Y-107315000D03*
%TD*%
D15*
%TO.C,U1*%
X177670000Y-121735000D03*
D16*
X174640000Y-126885000D03*
X174640000Y-122035000D03*
D15*
X177670000Y-127185000D03*
D12*
X177800000Y-115570000D03*
X175260000Y-115570000D03*
D11*
X172720000Y-115570000D03*
D12*
X170180000Y-115570000D03*
X167640000Y-115570000D03*
X165100000Y-115570000D03*
X162560000Y-115570000D03*
D11*
X160020000Y-115570000D03*
D12*
X157480000Y-115570000D03*
X154940000Y-115570000D03*
X152400000Y-115570000D03*
X149860000Y-115570000D03*
D11*
X147320000Y-115570000D03*
D12*
X144780000Y-115570000D03*
X142240000Y-115570000D03*
X139700000Y-115570000D03*
X137160000Y-115570000D03*
D11*
X134620000Y-115570000D03*
D12*
X132080000Y-115570000D03*
X129540000Y-115570000D03*
X129540000Y-133350000D03*
X132080000Y-133350000D03*
D11*
X134620000Y-133350000D03*
D12*
X137160000Y-133350000D03*
X139700000Y-133350000D03*
X142240000Y-133350000D03*
X144780000Y-133350000D03*
D11*
X147320000Y-133350000D03*
D12*
X149860000Y-133350000D03*
X152400000Y-133350000D03*
X154940000Y-133350000D03*
X157480000Y-133350000D03*
D11*
X160020000Y-133350000D03*
D12*
X162560000Y-133350000D03*
X165100000Y-133350000D03*
X167640000Y-133350000D03*
X170180000Y-133350000D03*
D11*
X172720000Y-133350000D03*
D12*
X175260000Y-133350000D03*
X177800000Y-133350000D03*
X129770000Y-121920000D03*
D11*
X129770000Y-124460000D03*
D12*
X129770000Y-127000000D03*
%TD*%
D13*
%TO.C,R8*%
X127635000Y-99695000D03*
D14*
X127635000Y-107315000D03*
%TD*%
D13*
%TO.C,R7*%
X134620000Y-99695000D03*
D14*
X134620000Y-107315000D03*
%TD*%
D11*
%TO.C,LED_SEG1*%
X127000000Y-91440000D03*
D12*
X129540000Y-91440000D03*
X132080000Y-91440000D03*
X134620000Y-91440000D03*
X137160000Y-91440000D03*
X139700000Y-91440000D03*
X139700000Y-81280000D03*
X137160000Y-81280000D03*
X134620000Y-81280000D03*
X132080000Y-81280000D03*
X129540000Y-81280000D03*
X127000000Y-81280000D03*
%TD*%
D13*
%TO.C,R5*%
X148590000Y-99695000D03*
D14*
X148590000Y-107315000D03*
%TD*%
D13*
%TO.C,R2*%
X169545000Y-99695000D03*
D14*
X169545000Y-107315000D03*
%TD*%
M02*
