%FSLAX45Y45*%
G04 Gerber Fmt 4.5, Leading zero omitted, Abs format (unit mm)*
G04 Created by KiCad (PCBNEW (6.0.4)) date 2022-08-14 09:35:26*
%MOMM*%
%LPD*%
G01*
G04 APERTURE LIST*
%TA.AperFunction,Profile*%
%ADD10C,0.100000*%
%TD*%
%ADD11C,0.200000*%
%ADD12C,0.040000*%
%ADD13C,0.080000*%
%ADD14C,0.100000*%
%ADD15C,0.102000*%
G04 APERTURE END LIST*
D10*
X11938000Y-7747000D02*
G75*
G03*
X11684000Y-8001000I0J-254000D01*
G01*
X11938000Y-7747000D02*
X17780000Y-7747000D01*
X18034000Y-8001000D02*
G75*
G03*
X17780000Y-7747000I-254000J0D01*
G01*
X17780000Y-14097000D02*
X11938000Y-14097000D01*
X11684000Y-13843000D02*
X11684000Y-8001000D01*
X11684000Y-13843000D02*
G75*
G03*
X11938000Y-14097000I254000J0D01*
G01*
X17780000Y-14097000D02*
G75*
G03*
X18034000Y-13843000I0J254000D01*
G01*
X18034000Y-8001000D02*
X18034000Y-13843000D01*
D11*
D12*
X12553000Y-12273600D02*
X12593000Y-12313600D01*
X12593000Y-12273600D02*
X12553000Y-12313600D01*
X12553000Y-12680000D02*
X12593000Y-12720000D01*
X12593000Y-12680000D02*
X12553000Y-12720000D01*
X14051600Y-8565200D02*
X14091600Y-8605200D01*
X14091600Y-8565200D02*
X14051600Y-8605200D01*
X15169200Y-9403400D02*
X15209200Y-9443400D01*
X15209200Y-9403400D02*
X15169200Y-9443400D01*
X15448600Y-8768400D02*
X15488600Y-8808400D01*
X15488600Y-8768400D02*
X15448600Y-8808400D01*
X15474000Y-9403400D02*
X15514000Y-9443400D01*
X15514000Y-9403400D02*
X15474000Y-9443400D01*
X16998000Y-12680000D02*
X17038000Y-12720000D01*
X17038000Y-12680000D02*
X16998000Y-12720000D01*
D13*
X12803500Y-9969500D02*
G75*
G03*
X12803500Y-9969500I-40000J0D01*
G01*
X12803500Y-10731500D02*
G75*
G03*
X12803500Y-10731500I-40000J0D01*
G01*
X13502000Y-9969500D02*
G75*
G03*
X13502000Y-9969500I-40000J0D01*
G01*
X13502000Y-10731500D02*
G75*
G03*
X13502000Y-10731500I-40000J0D01*
G01*
X14200500Y-9969500D02*
G75*
G03*
X14200500Y-9969500I-40000J0D01*
G01*
X14200500Y-10731500D02*
G75*
G03*
X14200500Y-10731500I-40000J0D01*
G01*
X14899000Y-9969500D02*
G75*
G03*
X14899000Y-9969500I-40000J0D01*
G01*
X14899000Y-10731500D02*
G75*
G03*
X14899000Y-10731500I-40000J0D01*
G01*
X15597500Y-9969500D02*
G75*
G03*
X15597500Y-9969500I-40000J0D01*
G01*
X15597500Y-10731500D02*
G75*
G03*
X15597500Y-10731500I-40000J0D01*
G01*
X16296000Y-9969500D02*
G75*
G03*
X16296000Y-9969500I-40000J0D01*
G01*
X16296000Y-10731500D02*
G75*
G03*
X16296000Y-10731500I-40000J0D01*
G01*
X16994500Y-9969500D02*
G75*
G03*
X16994500Y-9969500I-40000J0D01*
G01*
X16994500Y-10731500D02*
G75*
G03*
X16994500Y-10731500I-40000J0D01*
G01*
X17693000Y-9969500D02*
G75*
G03*
X17693000Y-9969500I-40000J0D01*
G01*
X17693000Y-10731500D02*
G75*
G03*
X17693000Y-10731500I-40000J0D01*
G01*
D14*
X11988800Y-9779800D02*
X11988800Y-9879800D01*
X11938800Y-9829800D02*
X12038800Y-9829800D01*
X11988800Y-10033800D02*
X11988800Y-10133800D01*
X11938800Y-10083800D02*
X12038800Y-10083800D01*
X11988800Y-10287800D02*
X11988800Y-10387800D01*
X11938800Y-10337800D02*
X12038800Y-10337800D01*
X11988800Y-10541800D02*
X11988800Y-10641800D01*
X11938800Y-10591800D02*
X12038800Y-10591800D01*
X11988800Y-10795800D02*
X11988800Y-10895800D01*
X11938800Y-10845800D02*
X12038800Y-10845800D01*
X11988800Y-11049800D02*
X11988800Y-11149800D01*
X11938800Y-11099800D02*
X12038800Y-11099800D01*
X11988800Y-11303800D02*
X11988800Y-11403800D01*
X11938800Y-11353800D02*
X12038800Y-11353800D01*
X11988800Y-11557800D02*
X11988800Y-11657800D01*
X11938800Y-11607800D02*
X12038800Y-11607800D01*
X11988800Y-11811800D02*
X11988800Y-11911800D01*
X11938800Y-11861800D02*
X12038800Y-11861800D01*
X11988800Y-12065800D02*
X11988800Y-12165800D01*
X11938800Y-12115800D02*
X12038800Y-12115800D01*
X11988800Y-12319800D02*
X11988800Y-12419800D01*
X11938800Y-12369800D02*
X12038800Y-12369800D01*
X11988800Y-12573800D02*
X11988800Y-12673800D01*
X11938800Y-12623800D02*
X12038800Y-12623800D01*
X11988800Y-12827800D02*
X11988800Y-12927800D01*
X11938800Y-12877800D02*
X12038800Y-12877800D01*
X11988800Y-13081800D02*
X11988800Y-13181800D01*
X11938800Y-13131800D02*
X12038800Y-13131800D01*
X11988800Y-13335800D02*
X11988800Y-13435800D01*
X11938800Y-13385800D02*
X12038800Y-13385800D01*
X11988800Y-13589800D02*
X11988800Y-13689800D01*
X11938800Y-13639800D02*
X12038800Y-13639800D01*
X12700000Y-8078000D02*
X12700000Y-8178000D01*
X12650000Y-8128000D02*
X12750000Y-8128000D01*
X12700000Y-9094000D02*
X12700000Y-9194000D01*
X12650000Y-9144000D02*
X12750000Y-9144000D01*
X12954000Y-8078000D02*
X12954000Y-8178000D01*
X12904000Y-8128000D02*
X13004000Y-8128000D01*
X12954000Y-9094000D02*
X12954000Y-9194000D01*
X12904000Y-9144000D02*
X13004000Y-9144000D01*
X13208000Y-8078000D02*
X13208000Y-8178000D01*
X13158000Y-8128000D02*
X13258000Y-8128000D01*
X13208000Y-9094000D02*
X13208000Y-9194000D01*
X13158000Y-9144000D02*
X13258000Y-9144000D01*
X13462000Y-8078000D02*
X13462000Y-8178000D01*
X13412000Y-8128000D02*
X13512000Y-8128000D01*
X13462000Y-9094000D02*
X13462000Y-9194000D01*
X13412000Y-9144000D02*
X13512000Y-9144000D01*
X13716000Y-8078000D02*
X13716000Y-8178000D01*
X13666000Y-8128000D02*
X13766000Y-8128000D01*
X13716000Y-9094000D02*
X13716000Y-9194000D01*
X13666000Y-9144000D02*
X13766000Y-9144000D01*
X13970000Y-8078000D02*
X13970000Y-8178000D01*
X13920000Y-8128000D02*
X14020000Y-8128000D01*
X13970000Y-9094000D02*
X13970000Y-9194000D01*
X13920000Y-9144000D02*
X14020000Y-9144000D01*
X15822500Y-8078000D02*
X15822500Y-8178000D01*
X15772500Y-8128000D02*
X15872500Y-8128000D01*
X15822500Y-9094000D02*
X15822500Y-9194000D01*
X15772500Y-9144000D02*
X15872500Y-9144000D01*
X16076500Y-8078000D02*
X16076500Y-8178000D01*
X16026500Y-8128000D02*
X16126500Y-8128000D01*
X16076500Y-9094000D02*
X16076500Y-9194000D01*
X16026500Y-9144000D02*
X16126500Y-9144000D01*
X16330500Y-8078000D02*
X16330500Y-8178000D01*
X16280500Y-8128000D02*
X16380500Y-8128000D01*
X16330500Y-9094000D02*
X16330500Y-9194000D01*
X16280500Y-9144000D02*
X16380500Y-9144000D01*
X16584500Y-8078000D02*
X16584500Y-8178000D01*
X16534500Y-8128000D02*
X16634500Y-8128000D01*
X16584500Y-9094000D02*
X16584500Y-9194000D01*
X16534500Y-9144000D02*
X16634500Y-9144000D01*
X16838500Y-8078000D02*
X16838500Y-8178000D01*
X16788500Y-8128000D02*
X16888500Y-8128000D01*
X16838500Y-9094000D02*
X16838500Y-9194000D01*
X16788500Y-9144000D02*
X16888500Y-9144000D01*
X17092500Y-8078000D02*
X17092500Y-8178000D01*
X17042500Y-8128000D02*
X17142500Y-8128000D01*
X17092500Y-9094000D02*
X17092500Y-9194000D01*
X17042500Y-9144000D02*
X17142500Y-9144000D01*
D15*
X12990063Y-11593063D02*
X12990063Y-11520937D01*
X12917937Y-11520937D01*
X12917937Y-11593063D01*
X12990063Y-11593063D01*
X12990063Y-13371063D02*
X12990063Y-13298937D01*
X12917937Y-13298937D01*
X12917937Y-13371063D01*
X12990063Y-13371063D01*
X13013063Y-12228063D02*
X13013063Y-12155937D01*
X12940937Y-12155937D01*
X12940937Y-12228063D01*
X13013063Y-12228063D01*
X13013063Y-12482063D02*
X13013063Y-12409937D01*
X12940937Y-12409937D01*
X12940937Y-12482063D01*
X13013063Y-12482063D01*
X13013063Y-12736063D02*
X13013063Y-12663937D01*
X12940937Y-12663937D01*
X12940937Y-12736063D01*
X13013063Y-12736063D01*
X13244063Y-11593063D02*
X13244063Y-11520937D01*
X13171937Y-11520937D01*
X13171937Y-11593063D01*
X13244063Y-11593063D01*
X13244063Y-13371063D02*
X13244063Y-13298937D01*
X13171937Y-13298937D01*
X13171937Y-13371063D01*
X13244063Y-13371063D01*
X13498063Y-11593063D02*
X13498063Y-11520937D01*
X13425937Y-11520937D01*
X13425937Y-11593063D01*
X13498063Y-11593063D01*
X13498063Y-13371063D02*
X13498063Y-13298937D01*
X13425937Y-13298937D01*
X13425937Y-13371063D01*
X13498063Y-13371063D01*
X13752063Y-11593063D02*
X13752063Y-11520937D01*
X13679937Y-11520937D01*
X13679937Y-11593063D01*
X13752063Y-11593063D01*
X13752063Y-13371063D02*
X13752063Y-13298937D01*
X13679937Y-13298937D01*
X13679937Y-13371063D01*
X13752063Y-13371063D01*
X14006063Y-11593063D02*
X14006063Y-11520937D01*
X13933937Y-11520937D01*
X13933937Y-11593063D01*
X14006063Y-11593063D01*
X14006063Y-13371063D02*
X14006063Y-13298937D01*
X13933937Y-13298937D01*
X13933937Y-13371063D01*
X14006063Y-13371063D01*
X14260063Y-11593063D02*
X14260063Y-11520937D01*
X14187937Y-11520937D01*
X14187937Y-11593063D01*
X14260063Y-11593063D01*
X14260063Y-13371063D02*
X14260063Y-13298937D01*
X14187937Y-13298937D01*
X14187937Y-13371063D01*
X14260063Y-13371063D01*
X14514063Y-11593063D02*
X14514063Y-11520937D01*
X14441937Y-11520937D01*
X14441937Y-11593063D01*
X14514063Y-11593063D01*
X14514063Y-13371063D02*
X14514063Y-13298937D01*
X14441937Y-13298937D01*
X14441937Y-13371063D01*
X14514063Y-13371063D01*
X14768063Y-11593063D02*
X14768063Y-11520937D01*
X14695937Y-11520937D01*
X14695937Y-11593063D01*
X14768063Y-11593063D01*
X14768063Y-13371063D02*
X14768063Y-13298937D01*
X14695937Y-13298937D01*
X14695937Y-13371063D01*
X14768063Y-13371063D01*
X15022063Y-11593063D02*
X15022063Y-11520937D01*
X14949937Y-11520937D01*
X14949937Y-11593063D01*
X15022063Y-11593063D01*
X15022063Y-13371063D02*
X15022063Y-13298937D01*
X14949937Y-13298937D01*
X14949937Y-13371063D01*
X15022063Y-13371063D01*
X15276063Y-11593063D02*
X15276063Y-11520937D01*
X15203937Y-11520937D01*
X15203937Y-11593063D01*
X15276063Y-11593063D01*
X15276063Y-13371063D02*
X15276063Y-13298937D01*
X15203937Y-13298937D01*
X15203937Y-13371063D01*
X15276063Y-13371063D01*
X15530063Y-11593063D02*
X15530063Y-11520937D01*
X15457937Y-11520937D01*
X15457937Y-11593063D01*
X15530063Y-11593063D01*
X15530063Y-13371063D02*
X15530063Y-13298937D01*
X15457937Y-13298937D01*
X15457937Y-13371063D01*
X15530063Y-13371063D01*
X15784063Y-11593063D02*
X15784063Y-11520937D01*
X15711937Y-11520937D01*
X15711937Y-11593063D01*
X15784063Y-11593063D01*
X15784063Y-13371063D02*
X15784063Y-13298937D01*
X15711937Y-13298937D01*
X15711937Y-13371063D01*
X15784063Y-13371063D01*
X16038063Y-11593063D02*
X16038063Y-11520937D01*
X15965937Y-11520937D01*
X15965937Y-11593063D01*
X16038063Y-11593063D01*
X16038063Y-13371063D02*
X16038063Y-13298937D01*
X15965937Y-13298937D01*
X15965937Y-13371063D01*
X16038063Y-13371063D01*
X16292063Y-11593063D02*
X16292063Y-11520937D01*
X16219937Y-11520937D01*
X16219937Y-11593063D01*
X16292063Y-11593063D01*
X16292063Y-13371063D02*
X16292063Y-13298937D01*
X16219937Y-13298937D01*
X16219937Y-13371063D01*
X16292063Y-13371063D01*
X16546063Y-11593063D02*
X16546063Y-11520937D01*
X16473937Y-11520937D01*
X16473937Y-11593063D01*
X16546063Y-11593063D01*
X16546063Y-13371063D02*
X16546063Y-13298937D01*
X16473937Y-13298937D01*
X16473937Y-13371063D01*
X16546063Y-13371063D01*
X16800063Y-11593063D02*
X16800063Y-11520937D01*
X16727937Y-11520937D01*
X16727937Y-11593063D01*
X16800063Y-11593063D01*
X16800063Y-13371063D02*
X16800063Y-13298937D01*
X16727937Y-13298937D01*
X16727937Y-13371063D01*
X16800063Y-13371063D01*
X17054063Y-11593063D02*
X17054063Y-11520937D01*
X16981937Y-11520937D01*
X16981937Y-11593063D01*
X17054063Y-11593063D01*
X17054063Y-13371063D02*
X17054063Y-13298937D01*
X16981937Y-13298937D01*
X16981937Y-13371063D01*
X17054063Y-13371063D01*
X17308063Y-11593063D02*
X17308063Y-11520937D01*
X17235937Y-11520937D01*
X17235937Y-11593063D01*
X17308063Y-11593063D01*
X17308063Y-13371063D02*
X17308063Y-13298937D01*
X17235937Y-13298937D01*
X17235937Y-13371063D01*
X17308063Y-13371063D01*
X17562063Y-11593063D02*
X17562063Y-11520937D01*
X17489937Y-11520937D01*
X17489937Y-11593063D01*
X17562063Y-11593063D01*
X17562063Y-13371063D02*
X17562063Y-13298937D01*
X17489937Y-13298937D01*
X17489937Y-13371063D01*
X17562063Y-13371063D01*
X17816063Y-11593063D02*
X17816063Y-11520937D01*
X17743937Y-11520937D01*
X17743937Y-11593063D01*
X17816063Y-11593063D01*
X17816063Y-13371063D02*
X17816063Y-13298937D01*
X17743937Y-13298937D01*
X17743937Y-13371063D01*
X17816063Y-13371063D01*
D11*
X11936619Y-14412476D02*
X11936619Y-14212476D01*
X11984238Y-14212476D01*
X12012809Y-14222000D01*
X12031857Y-14241048D01*
X12041381Y-14260095D01*
X12050905Y-14298190D01*
X12050905Y-14326762D01*
X12041381Y-14364857D01*
X12031857Y-14383905D01*
X12012809Y-14402952D01*
X11984238Y-14412476D01*
X11936619Y-14412476D01*
X12136619Y-14412476D02*
X12136619Y-14279143D01*
X12136619Y-14317238D02*
X12146143Y-14298190D01*
X12155667Y-14288667D01*
X12174714Y-14279143D01*
X12193762Y-14279143D01*
X12260428Y-14412476D02*
X12260428Y-14279143D01*
X12260428Y-14212476D02*
X12250905Y-14222000D01*
X12260428Y-14231524D01*
X12269952Y-14222000D01*
X12260428Y-14212476D01*
X12260428Y-14231524D01*
X12384238Y-14412476D02*
X12365190Y-14402952D01*
X12355667Y-14383905D01*
X12355667Y-14212476D01*
X12489000Y-14412476D02*
X12469952Y-14402952D01*
X12460428Y-14383905D01*
X12460428Y-14212476D01*
X12717571Y-14412476D02*
X12717571Y-14212476D01*
X12784238Y-14355333D01*
X12850905Y-14212476D01*
X12850905Y-14412476D01*
X13031857Y-14412476D02*
X13031857Y-14307714D01*
X13022333Y-14288667D01*
X13003286Y-14279143D01*
X12965190Y-14279143D01*
X12946143Y-14288667D01*
X13031857Y-14402952D02*
X13012809Y-14412476D01*
X12965190Y-14412476D01*
X12946143Y-14402952D01*
X12936619Y-14383905D01*
X12936619Y-14364857D01*
X12946143Y-14345809D01*
X12965190Y-14336286D01*
X13012809Y-14336286D01*
X13031857Y-14326762D01*
X13127095Y-14279143D02*
X13127095Y-14479143D01*
X13127095Y-14288667D02*
X13146143Y-14279143D01*
X13184238Y-14279143D01*
X13203286Y-14288667D01*
X13212809Y-14298190D01*
X13222333Y-14317238D01*
X13222333Y-14374381D01*
X13212809Y-14393428D01*
X13203286Y-14402952D01*
X13184238Y-14412476D01*
X13146143Y-14412476D01*
X13127095Y-14402952D01*
X13308048Y-14393428D02*
X13317571Y-14402952D01*
X13308048Y-14412476D01*
X13298524Y-14402952D01*
X13308048Y-14393428D01*
X13308048Y-14412476D01*
X13308048Y-14288667D02*
X13317571Y-14298190D01*
X13308048Y-14307714D01*
X13298524Y-14298190D01*
X13308048Y-14288667D01*
X13308048Y-14307714D01*
D12*
X11639000Y-14722000D02*
X11679000Y-14762000D01*
X11679000Y-14722000D02*
X11639000Y-14762000D01*
D11*
X11974714Y-14632476D02*
X11993762Y-14632476D01*
X12012809Y-14642000D01*
X12022333Y-14651524D01*
X12031857Y-14670571D01*
X12041381Y-14708667D01*
X12041381Y-14756286D01*
X12031857Y-14794381D01*
X12022333Y-14813428D01*
X12012809Y-14822952D01*
X11993762Y-14832476D01*
X11974714Y-14832476D01*
X11955667Y-14822952D01*
X11946143Y-14813428D01*
X11936619Y-14794381D01*
X11927095Y-14756286D01*
X11927095Y-14708667D01*
X11936619Y-14670571D01*
X11946143Y-14651524D01*
X11955667Y-14642000D01*
X11974714Y-14632476D01*
X12127095Y-14813428D02*
X12136619Y-14822952D01*
X12127095Y-14832476D01*
X12117571Y-14822952D01*
X12127095Y-14813428D01*
X12127095Y-14832476D01*
X12308048Y-14699143D02*
X12308048Y-14832476D01*
X12260428Y-14622952D02*
X12212809Y-14765809D01*
X12336619Y-14765809D01*
X12450905Y-14632476D02*
X12469952Y-14632476D01*
X12489000Y-14642000D01*
X12498524Y-14651524D01*
X12508048Y-14670571D01*
X12517571Y-14708667D01*
X12517571Y-14756286D01*
X12508048Y-14794381D01*
X12498524Y-14813428D01*
X12489000Y-14822952D01*
X12469952Y-14832476D01*
X12450905Y-14832476D01*
X12431857Y-14822952D01*
X12422333Y-14813428D01*
X12412809Y-14794381D01*
X12403286Y-14756286D01*
X12403286Y-14708667D01*
X12412809Y-14670571D01*
X12422333Y-14651524D01*
X12431857Y-14642000D01*
X12450905Y-14632476D01*
X12641381Y-14632476D02*
X12660428Y-14632476D01*
X12679476Y-14642000D01*
X12689000Y-14651524D01*
X12698524Y-14670571D01*
X12708048Y-14708667D01*
X12708048Y-14756286D01*
X12698524Y-14794381D01*
X12689000Y-14813428D01*
X12679476Y-14822952D01*
X12660428Y-14832476D01*
X12641381Y-14832476D01*
X12622333Y-14822952D01*
X12612809Y-14813428D01*
X12603286Y-14794381D01*
X12593762Y-14756286D01*
X12593762Y-14708667D01*
X12603286Y-14670571D01*
X12612809Y-14651524D01*
X12622333Y-14642000D01*
X12641381Y-14632476D01*
X12793762Y-14832476D02*
X12793762Y-14699143D01*
X12793762Y-14718190D02*
X12803286Y-14708667D01*
X12822333Y-14699143D01*
X12850905Y-14699143D01*
X12869952Y-14708667D01*
X12879476Y-14727714D01*
X12879476Y-14832476D01*
X12879476Y-14727714D02*
X12889000Y-14708667D01*
X12908048Y-14699143D01*
X12936619Y-14699143D01*
X12955667Y-14708667D01*
X12965190Y-14727714D01*
X12965190Y-14832476D01*
X13060428Y-14832476D02*
X13060428Y-14699143D01*
X13060428Y-14718190D02*
X13069952Y-14708667D01*
X13089000Y-14699143D01*
X13117571Y-14699143D01*
X13136619Y-14708667D01*
X13146143Y-14727714D01*
X13146143Y-14832476D01*
X13146143Y-14727714D02*
X13155667Y-14708667D01*
X13174714Y-14699143D01*
X13203286Y-14699143D01*
X13222333Y-14708667D01*
X13231857Y-14727714D01*
X13231857Y-14832476D01*
X13622333Y-14622952D02*
X13450905Y-14880095D01*
X13879476Y-14632476D02*
X13898524Y-14632476D01*
X13917571Y-14642000D01*
X13927095Y-14651524D01*
X13936619Y-14670571D01*
X13946143Y-14708667D01*
X13946143Y-14756286D01*
X13936619Y-14794381D01*
X13927095Y-14813428D01*
X13917571Y-14822952D01*
X13898524Y-14832476D01*
X13879476Y-14832476D01*
X13860428Y-14822952D01*
X13850905Y-14813428D01*
X13841381Y-14794381D01*
X13831857Y-14756286D01*
X13831857Y-14708667D01*
X13841381Y-14670571D01*
X13850905Y-14651524D01*
X13860428Y-14642000D01*
X13879476Y-14632476D01*
X14031857Y-14813428D02*
X14041381Y-14822952D01*
X14031857Y-14832476D01*
X14022333Y-14822952D01*
X14031857Y-14813428D01*
X14031857Y-14832476D01*
X14165190Y-14632476D02*
X14184238Y-14632476D01*
X14203286Y-14642000D01*
X14212809Y-14651524D01*
X14222333Y-14670571D01*
X14231857Y-14708667D01*
X14231857Y-14756286D01*
X14222333Y-14794381D01*
X14212809Y-14813428D01*
X14203286Y-14822952D01*
X14184238Y-14832476D01*
X14165190Y-14832476D01*
X14146143Y-14822952D01*
X14136619Y-14813428D01*
X14127095Y-14794381D01*
X14117571Y-14756286D01*
X14117571Y-14708667D01*
X14127095Y-14670571D01*
X14136619Y-14651524D01*
X14146143Y-14642000D01*
X14165190Y-14632476D01*
X14422333Y-14832476D02*
X14308048Y-14832476D01*
X14365190Y-14832476D02*
X14365190Y-14632476D01*
X14346143Y-14661048D01*
X14327095Y-14680095D01*
X14308048Y-14689619D01*
X14603286Y-14632476D02*
X14508048Y-14632476D01*
X14498524Y-14727714D01*
X14508048Y-14718190D01*
X14527095Y-14708667D01*
X14574714Y-14708667D01*
X14593762Y-14718190D01*
X14603286Y-14727714D01*
X14612809Y-14746762D01*
X14612809Y-14794381D01*
X14603286Y-14813428D01*
X14593762Y-14822952D01*
X14574714Y-14832476D01*
X14527095Y-14832476D01*
X14508048Y-14822952D01*
X14498524Y-14813428D01*
X14679476Y-14632476D02*
X14812809Y-14632476D01*
X14727095Y-14832476D01*
X14879476Y-14632476D02*
X14879476Y-14670571D01*
X14955667Y-14632476D02*
X14955667Y-14670571D01*
X15250905Y-14908667D02*
X15241381Y-14899143D01*
X15222333Y-14870571D01*
X15212809Y-14851524D01*
X15203286Y-14822952D01*
X15193762Y-14775333D01*
X15193762Y-14737238D01*
X15203286Y-14689619D01*
X15212809Y-14661048D01*
X15222333Y-14642000D01*
X15241381Y-14613428D01*
X15250905Y-14603905D01*
X15308048Y-14632476D02*
X15441381Y-14632476D01*
X15355667Y-14832476D01*
X15669952Y-14832476D02*
X15669952Y-14632476D01*
X15755667Y-14832476D02*
X15755667Y-14727714D01*
X15746143Y-14708667D01*
X15727095Y-14699143D01*
X15698524Y-14699143D01*
X15679476Y-14708667D01*
X15669952Y-14718190D01*
X15879476Y-14832476D02*
X15860428Y-14822952D01*
X15850905Y-14813428D01*
X15841381Y-14794381D01*
X15841381Y-14737238D01*
X15850905Y-14718190D01*
X15860428Y-14708667D01*
X15879476Y-14699143D01*
X15908048Y-14699143D01*
X15927095Y-14708667D01*
X15936619Y-14718190D01*
X15946143Y-14737238D01*
X15946143Y-14794381D01*
X15936619Y-14813428D01*
X15927095Y-14822952D01*
X15908048Y-14832476D01*
X15879476Y-14832476D01*
X16060428Y-14832476D02*
X16041381Y-14822952D01*
X16031857Y-14803905D01*
X16031857Y-14632476D01*
X16212809Y-14822952D02*
X16193762Y-14832476D01*
X16155667Y-14832476D01*
X16136619Y-14822952D01*
X16127095Y-14803905D01*
X16127095Y-14727714D01*
X16136619Y-14708667D01*
X16155667Y-14699143D01*
X16193762Y-14699143D01*
X16212809Y-14708667D01*
X16222333Y-14727714D01*
X16222333Y-14746762D01*
X16127095Y-14765809D01*
X16298524Y-14822952D02*
X16317571Y-14832476D01*
X16355667Y-14832476D01*
X16374714Y-14822952D01*
X16384238Y-14803905D01*
X16384238Y-14794381D01*
X16374714Y-14775333D01*
X16355667Y-14765809D01*
X16327095Y-14765809D01*
X16308048Y-14756286D01*
X16298524Y-14737238D01*
X16298524Y-14727714D01*
X16308048Y-14708667D01*
X16327095Y-14699143D01*
X16355667Y-14699143D01*
X16374714Y-14708667D01*
X16450905Y-14908667D02*
X16460428Y-14899143D01*
X16479476Y-14870571D01*
X16489000Y-14851524D01*
X16498524Y-14822952D01*
X16508048Y-14775333D01*
X16508048Y-14737238D01*
X16498524Y-14689619D01*
X16489000Y-14661048D01*
X16479476Y-14642000D01*
X16460428Y-14613428D01*
X16450905Y-14603905D01*
D13*
X11679000Y-15006000D02*
G75*
G03*
X11679000Y-15006000I-40000J0D01*
G01*
D11*
X11974714Y-14896476D02*
X11993762Y-14896476D01*
X12012809Y-14906000D01*
X12022333Y-14915524D01*
X12031857Y-14934571D01*
X12041381Y-14972667D01*
X12041381Y-15020286D01*
X12031857Y-15058381D01*
X12022333Y-15077428D01*
X12012809Y-15086952D01*
X11993762Y-15096476D01*
X11974714Y-15096476D01*
X11955667Y-15086952D01*
X11946143Y-15077428D01*
X11936619Y-15058381D01*
X11927095Y-15020286D01*
X11927095Y-14972667D01*
X11936619Y-14934571D01*
X11946143Y-14915524D01*
X11955667Y-14906000D01*
X11974714Y-14896476D01*
X12127095Y-15077428D02*
X12136619Y-15086952D01*
X12127095Y-15096476D01*
X12117571Y-15086952D01*
X12127095Y-15077428D01*
X12127095Y-15096476D01*
X12250905Y-14982190D02*
X12231857Y-14972667D01*
X12222333Y-14963143D01*
X12212809Y-14944095D01*
X12212809Y-14934571D01*
X12222333Y-14915524D01*
X12231857Y-14906000D01*
X12250905Y-14896476D01*
X12289000Y-14896476D01*
X12308048Y-14906000D01*
X12317571Y-14915524D01*
X12327095Y-14934571D01*
X12327095Y-14944095D01*
X12317571Y-14963143D01*
X12308048Y-14972667D01*
X12289000Y-14982190D01*
X12250905Y-14982190D01*
X12231857Y-14991714D01*
X12222333Y-15001238D01*
X12212809Y-15020286D01*
X12212809Y-15058381D01*
X12222333Y-15077428D01*
X12231857Y-15086952D01*
X12250905Y-15096476D01*
X12289000Y-15096476D01*
X12308048Y-15086952D01*
X12317571Y-15077428D01*
X12327095Y-15058381D01*
X12327095Y-15020286D01*
X12317571Y-15001238D01*
X12308048Y-14991714D01*
X12289000Y-14982190D01*
X12450905Y-14896476D02*
X12469952Y-14896476D01*
X12489000Y-14906000D01*
X12498524Y-14915524D01*
X12508048Y-14934571D01*
X12517571Y-14972667D01*
X12517571Y-15020286D01*
X12508048Y-15058381D01*
X12498524Y-15077428D01*
X12489000Y-15086952D01*
X12469952Y-15096476D01*
X12450905Y-15096476D01*
X12431857Y-15086952D01*
X12422333Y-15077428D01*
X12412809Y-15058381D01*
X12403286Y-15020286D01*
X12403286Y-14972667D01*
X12412809Y-14934571D01*
X12422333Y-14915524D01*
X12431857Y-14906000D01*
X12450905Y-14896476D01*
X12641381Y-14896476D02*
X12660428Y-14896476D01*
X12679476Y-14906000D01*
X12689000Y-14915524D01*
X12698524Y-14934571D01*
X12708048Y-14972667D01*
X12708048Y-15020286D01*
X12698524Y-15058381D01*
X12689000Y-15077428D01*
X12679476Y-15086952D01*
X12660428Y-15096476D01*
X12641381Y-15096476D01*
X12622333Y-15086952D01*
X12612809Y-15077428D01*
X12603286Y-15058381D01*
X12593762Y-15020286D01*
X12593762Y-14972667D01*
X12603286Y-14934571D01*
X12612809Y-14915524D01*
X12622333Y-14906000D01*
X12641381Y-14896476D01*
X12793762Y-15096476D02*
X12793762Y-14963143D01*
X12793762Y-14982190D02*
X12803286Y-14972667D01*
X12822333Y-14963143D01*
X12850905Y-14963143D01*
X12869952Y-14972667D01*
X12879476Y-14991714D01*
X12879476Y-15096476D01*
X12879476Y-14991714D02*
X12889000Y-14972667D01*
X12908048Y-14963143D01*
X12936619Y-14963143D01*
X12955667Y-14972667D01*
X12965190Y-14991714D01*
X12965190Y-15096476D01*
X13060428Y-15096476D02*
X13060428Y-14963143D01*
X13060428Y-14982190D02*
X13069952Y-14972667D01*
X13089000Y-14963143D01*
X13117571Y-14963143D01*
X13136619Y-14972667D01*
X13146143Y-14991714D01*
X13146143Y-15096476D01*
X13146143Y-14991714D02*
X13155667Y-14972667D01*
X13174714Y-14963143D01*
X13203286Y-14963143D01*
X13222333Y-14972667D01*
X13231857Y-14991714D01*
X13231857Y-15096476D01*
X13622333Y-14886952D02*
X13450905Y-15144095D01*
X13879476Y-14896476D02*
X13898524Y-14896476D01*
X13917571Y-14906000D01*
X13927095Y-14915524D01*
X13936619Y-14934571D01*
X13946143Y-14972667D01*
X13946143Y-15020286D01*
X13936619Y-15058381D01*
X13927095Y-15077428D01*
X13917571Y-15086952D01*
X13898524Y-15096476D01*
X13879476Y-15096476D01*
X13860428Y-15086952D01*
X13850905Y-15077428D01*
X13841381Y-15058381D01*
X13831857Y-15020286D01*
X13831857Y-14972667D01*
X13841381Y-14934571D01*
X13850905Y-14915524D01*
X13860428Y-14906000D01*
X13879476Y-14896476D01*
X14031857Y-15077428D02*
X14041381Y-15086952D01*
X14031857Y-15096476D01*
X14022333Y-15086952D01*
X14031857Y-15077428D01*
X14031857Y-15096476D01*
X14165190Y-14896476D02*
X14184238Y-14896476D01*
X14203286Y-14906000D01*
X14212809Y-14915524D01*
X14222333Y-14934571D01*
X14231857Y-14972667D01*
X14231857Y-15020286D01*
X14222333Y-15058381D01*
X14212809Y-15077428D01*
X14203286Y-15086952D01*
X14184238Y-15096476D01*
X14165190Y-15096476D01*
X14146143Y-15086952D01*
X14136619Y-15077428D01*
X14127095Y-15058381D01*
X14117571Y-15020286D01*
X14117571Y-14972667D01*
X14127095Y-14934571D01*
X14136619Y-14915524D01*
X14146143Y-14906000D01*
X14165190Y-14896476D01*
X14298524Y-14896476D02*
X14422333Y-14896476D01*
X14355667Y-14972667D01*
X14384238Y-14972667D01*
X14403286Y-14982190D01*
X14412809Y-14991714D01*
X14422333Y-15010762D01*
X14422333Y-15058381D01*
X14412809Y-15077428D01*
X14403286Y-15086952D01*
X14384238Y-15096476D01*
X14327095Y-15096476D01*
X14308048Y-15086952D01*
X14298524Y-15077428D01*
X14612809Y-15096476D02*
X14498524Y-15096476D01*
X14555667Y-15096476D02*
X14555667Y-14896476D01*
X14536619Y-14925048D01*
X14517571Y-14944095D01*
X14498524Y-14953619D01*
X14793762Y-14896476D02*
X14698524Y-14896476D01*
X14689000Y-14991714D01*
X14698524Y-14982190D01*
X14717571Y-14972667D01*
X14765190Y-14972667D01*
X14784238Y-14982190D01*
X14793762Y-14991714D01*
X14803286Y-15010762D01*
X14803286Y-15058381D01*
X14793762Y-15077428D01*
X14784238Y-15086952D01*
X14765190Y-15096476D01*
X14717571Y-15096476D01*
X14698524Y-15086952D01*
X14689000Y-15077428D01*
X14879476Y-14896476D02*
X14879476Y-14934571D01*
X14955667Y-14896476D02*
X14955667Y-14934571D01*
X15250905Y-15172667D02*
X15241381Y-15163143D01*
X15222333Y-15134571D01*
X15212809Y-15115524D01*
X15203286Y-15086952D01*
X15193762Y-15039333D01*
X15193762Y-15001238D01*
X15203286Y-14953619D01*
X15212809Y-14925048D01*
X15222333Y-14906000D01*
X15241381Y-14877428D01*
X15250905Y-14867905D01*
X15431857Y-15096476D02*
X15317571Y-15096476D01*
X15374714Y-15096476D02*
X15374714Y-14896476D01*
X15355667Y-14925048D01*
X15336619Y-14944095D01*
X15317571Y-14953619D01*
X15603286Y-14896476D02*
X15565190Y-14896476D01*
X15546143Y-14906000D01*
X15536619Y-14915524D01*
X15517571Y-14944095D01*
X15508048Y-14982190D01*
X15508048Y-15058381D01*
X15517571Y-15077428D01*
X15527095Y-15086952D01*
X15546143Y-15096476D01*
X15584238Y-15096476D01*
X15603286Y-15086952D01*
X15612809Y-15077428D01*
X15622333Y-15058381D01*
X15622333Y-15010762D01*
X15612809Y-14991714D01*
X15603286Y-14982190D01*
X15584238Y-14972667D01*
X15546143Y-14972667D01*
X15527095Y-14982190D01*
X15517571Y-14991714D01*
X15508048Y-15010762D01*
X15860428Y-15096476D02*
X15860428Y-14896476D01*
X15946143Y-15096476D02*
X15946143Y-14991714D01*
X15936619Y-14972667D01*
X15917571Y-14963143D01*
X15889000Y-14963143D01*
X15869952Y-14972667D01*
X15860428Y-14982190D01*
X16069952Y-15096476D02*
X16050905Y-15086952D01*
X16041381Y-15077428D01*
X16031857Y-15058381D01*
X16031857Y-15001238D01*
X16041381Y-14982190D01*
X16050905Y-14972667D01*
X16069952Y-14963143D01*
X16098524Y-14963143D01*
X16117571Y-14972667D01*
X16127095Y-14982190D01*
X16136619Y-15001238D01*
X16136619Y-15058381D01*
X16127095Y-15077428D01*
X16117571Y-15086952D01*
X16098524Y-15096476D01*
X16069952Y-15096476D01*
X16250905Y-15096476D02*
X16231857Y-15086952D01*
X16222333Y-15067905D01*
X16222333Y-14896476D01*
X16403286Y-15086952D02*
X16384238Y-15096476D01*
X16346143Y-15096476D01*
X16327095Y-15086952D01*
X16317571Y-15067905D01*
X16317571Y-14991714D01*
X16327095Y-14972667D01*
X16346143Y-14963143D01*
X16384238Y-14963143D01*
X16403286Y-14972667D01*
X16412809Y-14991714D01*
X16412809Y-15010762D01*
X16317571Y-15029809D01*
X16489000Y-15086952D02*
X16508048Y-15096476D01*
X16546143Y-15096476D01*
X16565190Y-15086952D01*
X16574714Y-15067905D01*
X16574714Y-15058381D01*
X16565190Y-15039333D01*
X16546143Y-15029809D01*
X16517571Y-15029809D01*
X16498524Y-15020286D01*
X16489000Y-15001238D01*
X16489000Y-14991714D01*
X16498524Y-14972667D01*
X16517571Y-14963143D01*
X16546143Y-14963143D01*
X16565190Y-14972667D01*
X16641381Y-15172667D02*
X16650905Y-15163143D01*
X16669952Y-15134571D01*
X16679476Y-15115524D01*
X16689000Y-15086952D01*
X16698524Y-15039333D01*
X16698524Y-15001238D01*
X16689000Y-14953619D01*
X16679476Y-14925048D01*
X16669952Y-14906000D01*
X16650905Y-14877428D01*
X16641381Y-14867905D01*
D14*
X11629000Y-15220000D02*
X11629000Y-15320000D01*
X11579000Y-15270000D02*
X11679000Y-15270000D01*
D11*
X12041381Y-15360476D02*
X11927095Y-15360476D01*
X11984238Y-15360476D02*
X11984238Y-15160476D01*
X11965190Y-15189048D01*
X11946143Y-15208095D01*
X11927095Y-15217619D01*
X12127095Y-15341428D02*
X12136619Y-15350952D01*
X12127095Y-15360476D01*
X12117571Y-15350952D01*
X12127095Y-15341428D01*
X12127095Y-15360476D01*
X12260428Y-15160476D02*
X12279476Y-15160476D01*
X12298524Y-15170000D01*
X12308048Y-15179524D01*
X12317571Y-15198571D01*
X12327095Y-15236667D01*
X12327095Y-15284286D01*
X12317571Y-15322381D01*
X12308048Y-15341428D01*
X12298524Y-15350952D01*
X12279476Y-15360476D01*
X12260428Y-15360476D01*
X12241381Y-15350952D01*
X12231857Y-15341428D01*
X12222333Y-15322381D01*
X12212809Y-15284286D01*
X12212809Y-15236667D01*
X12222333Y-15198571D01*
X12231857Y-15179524D01*
X12241381Y-15170000D01*
X12260428Y-15160476D01*
X12450905Y-15160476D02*
X12469952Y-15160476D01*
X12489000Y-15170000D01*
X12498524Y-15179524D01*
X12508048Y-15198571D01*
X12517571Y-15236667D01*
X12517571Y-15284286D01*
X12508048Y-15322381D01*
X12498524Y-15341428D01*
X12489000Y-15350952D01*
X12469952Y-15360476D01*
X12450905Y-15360476D01*
X12431857Y-15350952D01*
X12422333Y-15341428D01*
X12412809Y-15322381D01*
X12403286Y-15284286D01*
X12403286Y-15236667D01*
X12412809Y-15198571D01*
X12422333Y-15179524D01*
X12431857Y-15170000D01*
X12450905Y-15160476D01*
X12641381Y-15160476D02*
X12660428Y-15160476D01*
X12679476Y-15170000D01*
X12689000Y-15179524D01*
X12698524Y-15198571D01*
X12708048Y-15236667D01*
X12708048Y-15284286D01*
X12698524Y-15322381D01*
X12689000Y-15341428D01*
X12679476Y-15350952D01*
X12660428Y-15360476D01*
X12641381Y-15360476D01*
X12622333Y-15350952D01*
X12612809Y-15341428D01*
X12603286Y-15322381D01*
X12593762Y-15284286D01*
X12593762Y-15236667D01*
X12603286Y-15198571D01*
X12612809Y-15179524D01*
X12622333Y-15170000D01*
X12641381Y-15160476D01*
X12793762Y-15360476D02*
X12793762Y-15227143D01*
X12793762Y-15246190D02*
X12803286Y-15236667D01*
X12822333Y-15227143D01*
X12850905Y-15227143D01*
X12869952Y-15236667D01*
X12879476Y-15255714D01*
X12879476Y-15360476D01*
X12879476Y-15255714D02*
X12889000Y-15236667D01*
X12908048Y-15227143D01*
X12936619Y-15227143D01*
X12955667Y-15236667D01*
X12965190Y-15255714D01*
X12965190Y-15360476D01*
X13060428Y-15360476D02*
X13060428Y-15227143D01*
X13060428Y-15246190D02*
X13069952Y-15236667D01*
X13089000Y-15227143D01*
X13117571Y-15227143D01*
X13136619Y-15236667D01*
X13146143Y-15255714D01*
X13146143Y-15360476D01*
X13146143Y-15255714D02*
X13155667Y-15236667D01*
X13174714Y-15227143D01*
X13203286Y-15227143D01*
X13222333Y-15236667D01*
X13231857Y-15255714D01*
X13231857Y-15360476D01*
X13622333Y-15150952D02*
X13450905Y-15408095D01*
X13879476Y-15160476D02*
X13898524Y-15160476D01*
X13917571Y-15170000D01*
X13927095Y-15179524D01*
X13936619Y-15198571D01*
X13946143Y-15236667D01*
X13946143Y-15284286D01*
X13936619Y-15322381D01*
X13927095Y-15341428D01*
X13917571Y-15350952D01*
X13898524Y-15360476D01*
X13879476Y-15360476D01*
X13860428Y-15350952D01*
X13850905Y-15341428D01*
X13841381Y-15322381D01*
X13831857Y-15284286D01*
X13831857Y-15236667D01*
X13841381Y-15198571D01*
X13850905Y-15179524D01*
X13860428Y-15170000D01*
X13879476Y-15160476D01*
X14031857Y-15341428D02*
X14041381Y-15350952D01*
X14031857Y-15360476D01*
X14022333Y-15350952D01*
X14031857Y-15341428D01*
X14031857Y-15360476D01*
X14165190Y-15160476D02*
X14184238Y-15160476D01*
X14203286Y-15170000D01*
X14212809Y-15179524D01*
X14222333Y-15198571D01*
X14231857Y-15236667D01*
X14231857Y-15284286D01*
X14222333Y-15322381D01*
X14212809Y-15341428D01*
X14203286Y-15350952D01*
X14184238Y-15360476D01*
X14165190Y-15360476D01*
X14146143Y-15350952D01*
X14136619Y-15341428D01*
X14127095Y-15322381D01*
X14117571Y-15284286D01*
X14117571Y-15236667D01*
X14127095Y-15198571D01*
X14136619Y-15179524D01*
X14146143Y-15170000D01*
X14165190Y-15160476D01*
X14298524Y-15160476D02*
X14422333Y-15160476D01*
X14355667Y-15236667D01*
X14384238Y-15236667D01*
X14403286Y-15246190D01*
X14412809Y-15255714D01*
X14422333Y-15274762D01*
X14422333Y-15322381D01*
X14412809Y-15341428D01*
X14403286Y-15350952D01*
X14384238Y-15360476D01*
X14327095Y-15360476D01*
X14308048Y-15350952D01*
X14298524Y-15341428D01*
X14517571Y-15360476D02*
X14555667Y-15360476D01*
X14574714Y-15350952D01*
X14584238Y-15341428D01*
X14603286Y-15312857D01*
X14612809Y-15274762D01*
X14612809Y-15198571D01*
X14603286Y-15179524D01*
X14593762Y-15170000D01*
X14574714Y-15160476D01*
X14536619Y-15160476D01*
X14517571Y-15170000D01*
X14508048Y-15179524D01*
X14498524Y-15198571D01*
X14498524Y-15246190D01*
X14508048Y-15265238D01*
X14517571Y-15274762D01*
X14536619Y-15284286D01*
X14574714Y-15284286D01*
X14593762Y-15274762D01*
X14603286Y-15265238D01*
X14612809Y-15246190D01*
X14784238Y-15227143D02*
X14784238Y-15360476D01*
X14736619Y-15150952D02*
X14689000Y-15293809D01*
X14812809Y-15293809D01*
X14879476Y-15160476D02*
X14879476Y-15198571D01*
X14955667Y-15160476D02*
X14955667Y-15198571D01*
X15250905Y-15436667D02*
X15241381Y-15427143D01*
X15222333Y-15398571D01*
X15212809Y-15379524D01*
X15203286Y-15350952D01*
X15193762Y-15303333D01*
X15193762Y-15265238D01*
X15203286Y-15217619D01*
X15212809Y-15189048D01*
X15222333Y-15170000D01*
X15241381Y-15141428D01*
X15250905Y-15131905D01*
X15412809Y-15227143D02*
X15412809Y-15360476D01*
X15365190Y-15150952D02*
X15317571Y-15293809D01*
X15441381Y-15293809D01*
X15555667Y-15160476D02*
X15574714Y-15160476D01*
X15593762Y-15170000D01*
X15603286Y-15179524D01*
X15612809Y-15198571D01*
X15622333Y-15236667D01*
X15622333Y-15284286D01*
X15612809Y-15322381D01*
X15603286Y-15341428D01*
X15593762Y-15350952D01*
X15574714Y-15360476D01*
X15555667Y-15360476D01*
X15536619Y-15350952D01*
X15527095Y-15341428D01*
X15517571Y-15322381D01*
X15508048Y-15284286D01*
X15508048Y-15236667D01*
X15517571Y-15198571D01*
X15527095Y-15179524D01*
X15536619Y-15170000D01*
X15555667Y-15160476D01*
X15860428Y-15360476D02*
X15860428Y-15160476D01*
X15946143Y-15360476D02*
X15946143Y-15255714D01*
X15936619Y-15236667D01*
X15917571Y-15227143D01*
X15889000Y-15227143D01*
X15869952Y-15236667D01*
X15860428Y-15246190D01*
X16069952Y-15360476D02*
X16050905Y-15350952D01*
X16041381Y-15341428D01*
X16031857Y-15322381D01*
X16031857Y-15265238D01*
X16041381Y-15246190D01*
X16050905Y-15236667D01*
X16069952Y-15227143D01*
X16098524Y-15227143D01*
X16117571Y-15236667D01*
X16127095Y-15246190D01*
X16136619Y-15265238D01*
X16136619Y-15322381D01*
X16127095Y-15341428D01*
X16117571Y-15350952D01*
X16098524Y-15360476D01*
X16069952Y-15360476D01*
X16250905Y-15360476D02*
X16231857Y-15350952D01*
X16222333Y-15331905D01*
X16222333Y-15160476D01*
X16403286Y-15350952D02*
X16384238Y-15360476D01*
X16346143Y-15360476D01*
X16327095Y-15350952D01*
X16317571Y-15331905D01*
X16317571Y-15255714D01*
X16327095Y-15236667D01*
X16346143Y-15227143D01*
X16384238Y-15227143D01*
X16403286Y-15236667D01*
X16412809Y-15255714D01*
X16412809Y-15274762D01*
X16317571Y-15293809D01*
X16489000Y-15350952D02*
X16508048Y-15360476D01*
X16546143Y-15360476D01*
X16565190Y-15350952D01*
X16574714Y-15331905D01*
X16574714Y-15322381D01*
X16565190Y-15303333D01*
X16546143Y-15293809D01*
X16517571Y-15293809D01*
X16498524Y-15284286D01*
X16489000Y-15265238D01*
X16489000Y-15255714D01*
X16498524Y-15236667D01*
X16517571Y-15227143D01*
X16546143Y-15227143D01*
X16565190Y-15236667D01*
X16641381Y-15436667D02*
X16650905Y-15427143D01*
X16669952Y-15398571D01*
X16679476Y-15379524D01*
X16689000Y-15350952D01*
X16698524Y-15303333D01*
X16698524Y-15265238D01*
X16689000Y-15217619D01*
X16679476Y-15189048D01*
X16669952Y-15170000D01*
X16650905Y-15141428D01*
X16641381Y-15131905D01*
D15*
X11664063Y-15570063D02*
X11664063Y-15497937D01*
X11591937Y-15497937D01*
X11591937Y-15570063D01*
X11664063Y-15570063D01*
D11*
X12041381Y-15624476D02*
X11927095Y-15624476D01*
X11984238Y-15624476D02*
X11984238Y-15424476D01*
X11965190Y-15453048D01*
X11946143Y-15472095D01*
X11927095Y-15481619D01*
X12127095Y-15605428D02*
X12136619Y-15614952D01*
X12127095Y-15624476D01*
X12117571Y-15614952D01*
X12127095Y-15605428D01*
X12127095Y-15624476D01*
X12260428Y-15424476D02*
X12279476Y-15424476D01*
X12298524Y-15434000D01*
X12308048Y-15443524D01*
X12317571Y-15462571D01*
X12327095Y-15500667D01*
X12327095Y-15548286D01*
X12317571Y-15586381D01*
X12308048Y-15605428D01*
X12298524Y-15614952D01*
X12279476Y-15624476D01*
X12260428Y-15624476D01*
X12241381Y-15614952D01*
X12231857Y-15605428D01*
X12222333Y-15586381D01*
X12212809Y-15548286D01*
X12212809Y-15500667D01*
X12222333Y-15462571D01*
X12231857Y-15443524D01*
X12241381Y-15434000D01*
X12260428Y-15424476D01*
X12403286Y-15443524D02*
X12412809Y-15434000D01*
X12431857Y-15424476D01*
X12479476Y-15424476D01*
X12498524Y-15434000D01*
X12508048Y-15443524D01*
X12517571Y-15462571D01*
X12517571Y-15481619D01*
X12508048Y-15510190D01*
X12393762Y-15624476D01*
X12517571Y-15624476D01*
X12641381Y-15424476D02*
X12660428Y-15424476D01*
X12679476Y-15434000D01*
X12689000Y-15443524D01*
X12698524Y-15462571D01*
X12708048Y-15500667D01*
X12708048Y-15548286D01*
X12698524Y-15586381D01*
X12689000Y-15605428D01*
X12679476Y-15614952D01*
X12660428Y-15624476D01*
X12641381Y-15624476D01*
X12622333Y-15614952D01*
X12612809Y-15605428D01*
X12603286Y-15586381D01*
X12593762Y-15548286D01*
X12593762Y-15500667D01*
X12603286Y-15462571D01*
X12612809Y-15443524D01*
X12622333Y-15434000D01*
X12641381Y-15424476D01*
X12793762Y-15624476D02*
X12793762Y-15491143D01*
X12793762Y-15510190D02*
X12803286Y-15500667D01*
X12822333Y-15491143D01*
X12850905Y-15491143D01*
X12869952Y-15500667D01*
X12879476Y-15519714D01*
X12879476Y-15624476D01*
X12879476Y-15519714D02*
X12889000Y-15500667D01*
X12908048Y-15491143D01*
X12936619Y-15491143D01*
X12955667Y-15500667D01*
X12965190Y-15519714D01*
X12965190Y-15624476D01*
X13060428Y-15624476D02*
X13060428Y-15491143D01*
X13060428Y-15510190D02*
X13069952Y-15500667D01*
X13089000Y-15491143D01*
X13117571Y-15491143D01*
X13136619Y-15500667D01*
X13146143Y-15519714D01*
X13146143Y-15624476D01*
X13146143Y-15519714D02*
X13155667Y-15500667D01*
X13174714Y-15491143D01*
X13203286Y-15491143D01*
X13222333Y-15500667D01*
X13231857Y-15519714D01*
X13231857Y-15624476D01*
X13622333Y-15414952D02*
X13450905Y-15672095D01*
X13879476Y-15424476D02*
X13898524Y-15424476D01*
X13917571Y-15434000D01*
X13927095Y-15443524D01*
X13936619Y-15462571D01*
X13946143Y-15500667D01*
X13946143Y-15548286D01*
X13936619Y-15586381D01*
X13927095Y-15605428D01*
X13917571Y-15614952D01*
X13898524Y-15624476D01*
X13879476Y-15624476D01*
X13860428Y-15614952D01*
X13850905Y-15605428D01*
X13841381Y-15586381D01*
X13831857Y-15548286D01*
X13831857Y-15500667D01*
X13841381Y-15462571D01*
X13850905Y-15443524D01*
X13860428Y-15434000D01*
X13879476Y-15424476D01*
X14031857Y-15605428D02*
X14041381Y-15614952D01*
X14031857Y-15624476D01*
X14022333Y-15614952D01*
X14031857Y-15605428D01*
X14031857Y-15624476D01*
X14165190Y-15424476D02*
X14184238Y-15424476D01*
X14203286Y-15434000D01*
X14212809Y-15443524D01*
X14222333Y-15462571D01*
X14231857Y-15500667D01*
X14231857Y-15548286D01*
X14222333Y-15586381D01*
X14212809Y-15605428D01*
X14203286Y-15614952D01*
X14184238Y-15624476D01*
X14165190Y-15624476D01*
X14146143Y-15614952D01*
X14136619Y-15605428D01*
X14127095Y-15586381D01*
X14117571Y-15548286D01*
X14117571Y-15500667D01*
X14127095Y-15462571D01*
X14136619Y-15443524D01*
X14146143Y-15434000D01*
X14165190Y-15424476D01*
X14403286Y-15491143D02*
X14403286Y-15624476D01*
X14355667Y-15414952D02*
X14308048Y-15557809D01*
X14431857Y-15557809D01*
X14546143Y-15424476D02*
X14565190Y-15424476D01*
X14584238Y-15434000D01*
X14593762Y-15443524D01*
X14603286Y-15462571D01*
X14612809Y-15500667D01*
X14612809Y-15548286D01*
X14603286Y-15586381D01*
X14593762Y-15605428D01*
X14584238Y-15614952D01*
X14565190Y-15624476D01*
X14546143Y-15624476D01*
X14527095Y-15614952D01*
X14517571Y-15605428D01*
X14508048Y-15586381D01*
X14498524Y-15548286D01*
X14498524Y-15500667D01*
X14508048Y-15462571D01*
X14517571Y-15443524D01*
X14527095Y-15434000D01*
X14546143Y-15424476D01*
X14689000Y-15443524D02*
X14698524Y-15434000D01*
X14717571Y-15424476D01*
X14765190Y-15424476D01*
X14784238Y-15434000D01*
X14793762Y-15443524D01*
X14803286Y-15462571D01*
X14803286Y-15481619D01*
X14793762Y-15510190D01*
X14679476Y-15624476D01*
X14803286Y-15624476D01*
X14879476Y-15424476D02*
X14879476Y-15462571D01*
X14955667Y-15424476D02*
X14955667Y-15462571D01*
X15250905Y-15700667D02*
X15241381Y-15691143D01*
X15222333Y-15662571D01*
X15212809Y-15643524D01*
X15203286Y-15614952D01*
X15193762Y-15567333D01*
X15193762Y-15529238D01*
X15203286Y-15481619D01*
X15212809Y-15453048D01*
X15222333Y-15434000D01*
X15241381Y-15405428D01*
X15250905Y-15395905D01*
X15412809Y-15491143D02*
X15412809Y-15624476D01*
X15365190Y-15414952D02*
X15317571Y-15557809D01*
X15441381Y-15557809D01*
X15498524Y-15424476D02*
X15622333Y-15424476D01*
X15555667Y-15500667D01*
X15584238Y-15500667D01*
X15603286Y-15510190D01*
X15612809Y-15519714D01*
X15622333Y-15538762D01*
X15622333Y-15586381D01*
X15612809Y-15605428D01*
X15603286Y-15614952D01*
X15584238Y-15624476D01*
X15527095Y-15624476D01*
X15508048Y-15614952D01*
X15498524Y-15605428D01*
X15860428Y-15624476D02*
X15860428Y-15424476D01*
X15946143Y-15624476D02*
X15946143Y-15519714D01*
X15936619Y-15500667D01*
X15917571Y-15491143D01*
X15889000Y-15491143D01*
X15869952Y-15500667D01*
X15860428Y-15510190D01*
X16069952Y-15624476D02*
X16050905Y-15614952D01*
X16041381Y-15605428D01*
X16031857Y-15586381D01*
X16031857Y-15529238D01*
X16041381Y-15510190D01*
X16050905Y-15500667D01*
X16069952Y-15491143D01*
X16098524Y-15491143D01*
X16117571Y-15500667D01*
X16127095Y-15510190D01*
X16136619Y-15529238D01*
X16136619Y-15586381D01*
X16127095Y-15605428D01*
X16117571Y-15614952D01*
X16098524Y-15624476D01*
X16069952Y-15624476D01*
X16250905Y-15624476D02*
X16231857Y-15614952D01*
X16222333Y-15595905D01*
X16222333Y-15424476D01*
X16403286Y-15614952D02*
X16384238Y-15624476D01*
X16346143Y-15624476D01*
X16327095Y-15614952D01*
X16317571Y-15595905D01*
X16317571Y-15519714D01*
X16327095Y-15500667D01*
X16346143Y-15491143D01*
X16384238Y-15491143D01*
X16403286Y-15500667D01*
X16412809Y-15519714D01*
X16412809Y-15538762D01*
X16317571Y-15557809D01*
X16489000Y-15614952D02*
X16508048Y-15624476D01*
X16546143Y-15624476D01*
X16565190Y-15614952D01*
X16574714Y-15595905D01*
X16574714Y-15586381D01*
X16565190Y-15567333D01*
X16546143Y-15557809D01*
X16517571Y-15557809D01*
X16498524Y-15548286D01*
X16489000Y-15529238D01*
X16489000Y-15519714D01*
X16498524Y-15500667D01*
X16517571Y-15491143D01*
X16546143Y-15491143D01*
X16565190Y-15500667D01*
X16641381Y-15700667D02*
X16650905Y-15691143D01*
X16669952Y-15662571D01*
X16679476Y-15643524D01*
X16689000Y-15614952D01*
X16698524Y-15567333D01*
X16698524Y-15529238D01*
X16689000Y-15481619D01*
X16679476Y-15453048D01*
X16669952Y-15434000D01*
X16650905Y-15405428D01*
X16641381Y-15395905D01*
M02*
