M48
; DRILL file {KiCad (6.0.4)} date Sun 14 Aug 2022 09:35:02 AM CST
; FORMAT={-:-/ absolute / metric / decimal}
; #@! TF.CreationDate,2022-08-14T09:35:02+08:00
; #@! TF.GenerationSoftware,Kicad,Pcbnew,(6.0.4)
; #@! TF.FileFunction,Plated,1,2,PTH
FMAT,2
METRIC
; #@! TA.AperFunction,Plated,PTH,ViaDrill
T1C0.400
; #@! TA.AperFunction,Plated,PTH,ComponentDrill
T2C0.800
; #@! TA.AperFunction,Plated,PTH,ComponentDrill
T3C1.000
; #@! TA.AperFunction,Plated,PTH,ComponentDrill
T4C1.020
%
G90
G05
T1
X125.73Y-122.936
X125.73Y-127.0
X140.716Y-85.852
X151.892Y-94.234
X154.686Y-87.884
X154.94Y-94.234
X170.18Y-127.0
T2
X127.635Y-99.695
X127.635Y-107.315
X134.62Y-99.695
X134.62Y-107.315
X141.605Y-99.695
X141.605Y-107.315
X148.59Y-99.695
X148.59Y-107.315
X155.575Y-99.695
X155.575Y-107.315
X162.56Y-99.695
X162.56Y-107.315
X169.545Y-99.695
X169.545Y-107.315
X176.53Y-99.695
X176.53Y-107.315
T3
X119.888Y-98.298
X119.888Y-100.838
X119.888Y-103.378
X119.888Y-105.918
X119.888Y-108.458
X119.888Y-110.998
X119.888Y-113.538
X119.888Y-116.078
X119.888Y-118.618
X119.888Y-121.158
X119.888Y-123.698
X119.888Y-126.238
X119.888Y-128.778
X119.888Y-131.318
X119.888Y-133.858
X119.888Y-136.398
X127.0Y-81.28
X127.0Y-91.44
X129.54Y-81.28
X129.54Y-91.44
X132.08Y-81.28
X132.08Y-91.44
X134.62Y-81.28
X134.62Y-91.44
X137.16Y-81.28
X137.16Y-91.44
X139.7Y-81.28
X139.7Y-91.44
X158.225Y-81.28
X158.225Y-91.44
X160.765Y-81.28
X160.765Y-91.44
X163.305Y-81.28
X163.305Y-91.44
X165.845Y-81.28
X165.845Y-91.44
X168.385Y-81.28
X168.385Y-91.44
X170.925Y-81.28
X170.925Y-91.44
T4
X129.54Y-115.57
X129.54Y-133.35
X129.77Y-121.92
X129.77Y-124.46
X129.77Y-127.0
X132.08Y-115.57
X132.08Y-133.35
X134.62Y-115.57
X134.62Y-133.35
X137.16Y-115.57
X137.16Y-133.35
X139.7Y-115.57
X139.7Y-133.35
X142.24Y-115.57
X142.24Y-133.35
X144.78Y-115.57
X144.78Y-133.35
X147.32Y-115.57
X147.32Y-133.35
X149.86Y-115.57
X149.86Y-133.35
X152.4Y-115.57
X152.4Y-133.35
X154.94Y-115.57
X154.94Y-133.35
X157.48Y-115.57
X157.48Y-133.35
X160.02Y-115.57
X160.02Y-133.35
X162.56Y-115.57
X162.56Y-133.35
X165.1Y-115.57
X165.1Y-133.35
X167.64Y-115.57
X167.64Y-133.35
X170.18Y-115.57
X170.18Y-133.35
X172.72Y-115.57
X172.72Y-133.35
X175.26Y-115.57
X175.26Y-133.35
X177.8Y-115.57
X177.8Y-133.35
T0
M30
